<svg xmlns="http://www.w3.org/2000/svg" width="150" height="150" viewBox="0 0 150 150">
  <g id="Grupo_150475" data-name="Grupo 150475" transform="translate(-548.815 -3064.726)">
    <circle id="Elipse_5678" data-name="Elipse 5678" cx="75" cy="75" r="75" transform="translate(548.815 3064.726)" fill="#fff"/>
    <g id="Trazado_204731" data-name="Trazado 204731" transform="translate(560 3107.738)" fill="#fa7e50">
      <path d="M 110 61.97559356689453 L 15 61.97559356689453 C 11.5275821685791 61.97559356689453 8.262981414794922 60.62335586547852 5.807618141174316 58.16797637939453 C 3.352236270904541 55.71261215209961 2 52.4480094909668 2 48.97559356689453 L 2 14.99999332427979 C 2 11.52757453918457 3.352236270904541 8.262992858886719 5.807618141174316 5.807610988616943 C 8.262981414794922 3.352229356765747 11.5275821685791 1.999992966651917 15 1.999992966651917 L 110 1.999992966651917 C 113.4724197387695 1.999992966651917 116.7370147705078 3.352229356765747 119.1923828125 5.807610988616943 C 121.6477661132812 8.262992858886719 123 11.52757453918457 123 14.99999332427979 L 123 48.97559356689453 C 123 52.4480094909668 121.6477661132812 55.71261215209961 119.1923828125 58.16797637939453 C 116.7370147705078 60.62335586547852 113.4724197387695 61.97559356689453 110 61.97559356689453 Z" stroke="none"/>
      <path d="M 15 3.999992370605469 C 12.06179809570312 3.999992370605469 9.2994384765625 5.144191741943359 7.221817016601562 7.221813201904297 C 5.144203186035156 9.299453735351562 4 12.06179428100586 4 14.99999237060547 L 4 48.97559356689453 C 4 51.91379165649414 5.144203186035156 54.67613220214844 7.221817016601562 56.7537727355957 C 9.2994384765625 58.83139419555664 12.06179809570312 59.97559356689453 15 59.97559356689453 L 110 59.97559356689453 C 112.9382019042969 59.97559356689453 115.7005386352539 58.83139419555664 117.7781829833984 56.7537727355957 C 119.8557968139648 54.67613220214844 121 51.91379165649414 121 48.97559356689453 L 121 14.99999237060547 C 121 12.06179428100586 119.8557968139648 9.299453735351562 117.7781829833984 7.221813201904297 C 115.7005386352539 5.144191741943359 112.9382019042969 3.999992370605469 110 3.999992370605469 L 15 3.999992370605469 M 15 -7.62939453125e-06 L 110 -7.62939453125e-06 C 118.2842559814453 -7.62939453125e-06 125 6.715732574462891 125 14.99999237060547 L 125 48.97559356689453 C 125 57.25985336303711 118.2842559814453 63.97559356689453 110 63.97559356689453 L 15 63.97559356689453 C 6.715721130371094 63.97559356689453 0 57.25985336303711 0 48.97559356689453 L 0 14.99999237060547 C 0 6.715732574462891 6.715721130371094 -7.62939453125e-06 15 -7.62939453125e-06 Z" stroke="none" fill="#f85316"/>
    </g>
    <path id="Trazado_204730" data-name="Trazado 204730" d="M45.363,15.6a1.268,1.268,0,0,0-.479-1.055,5.954,5.954,0,0,0-1.683-.782,16.147,16.147,0,0,1-1.969-.782q-2.487-1.222-2.487-3.357a3.011,3.011,0,0,1,.62-1.876A4.008,4.008,0,0,1,41.118,6.48a6.823,6.823,0,0,1,2.549-.453,5.969,5.969,0,0,1,2.474.492,3.917,3.917,0,0,1,1.7,1.4A3.661,3.661,0,0,1,48.448,10H45.372a1.547,1.547,0,0,0-.479-1.213,1.867,1.867,0,0,0-1.3-.431,2.106,2.106,0,0,0-1.305.365,1.074,1.074,0,0,0,.048,1.819,6.65,6.65,0,0,0,1.854.826,11.36,11.36,0,0,1,2.18.918,3.663,3.663,0,0,1,2.074,3.3,3.125,3.125,0,0,1-1.266,2.637,5.629,5.629,0,0,1-3.472.958,6.888,6.888,0,0,1-2.817-.558A4.247,4.247,0,0,1,39,17.088a3.985,3.985,0,0,1-.637-2.237h3.094a1.963,1.963,0,0,0,.532,1.516,2.513,2.513,0,0,0,1.727.488,1.985,1.985,0,0,0,1.208-.33A1.088,1.088,0,0,0,45.363,15.6Zm14.7-9.4v8.376a4.814,4.814,0,0,1-.606,2.465,3.929,3.929,0,0,1-1.74,1.586,6.131,6.131,0,0,1-2.681.545,5.3,5.3,0,0,1-3.683-1.213,4.326,4.326,0,0,1-1.371-3.322V6.2h3.1v8.5q.053,2.1,1.951,2.1a1.889,1.889,0,0,0,1.45-.527,2.465,2.465,0,0,0,.492-1.714V6.2Zm5.977,0,2.856,8.9,2.848-8.9h4.061V19H72.715V16.012l.3-6.117L69.92,19H67.881l-3.1-9.114.3,6.126V19H61.992V6.2Z" transform="translate(565.201 3128.726)" fill="#f6f6f6"/>
  </g>
</svg>
