<svg xmlns="http://www.w3.org/2000/svg" width="150" height="150" viewBox="0 0 150 150">
  <g id="Grupo_150359" data-name="Grupo 150359" transform="translate(-727.701 -782.938)">
    <circle id="Elipse_5677" data-name="Elipse 5677" cx="75" cy="75" r="75" transform="translate(727.701 782.938)" fill="#fff"/>
    <g id="Grupo_150210" data-name="Grupo 150210" transform="translate(6433.615 12122.201)">
      <path id="Trazado_203294" data-name="Trazado 203294" d="M373.884,630.19H306.775a3.78,3.78,0,0,1-3.78-3.78V537.758a3.78,3.78,0,0,1,3.78-3.78h57.308l13.581,13.483V626.41a3.78,3.78,0,0,1-3.78,3.78" transform="translate(-5965.172 -11846.346)" fill="#fff"/>
      <path id="Trazado_203295" data-name="Trazado 203295" d="M269.8,862.715H194.716s-2.781,6.2-3.01,6.2v11.712l3.01,6.2H269.8l3.009-6.2V868.911c-.23,0-3.009-6.2-3.009-6.2" transform="translate(-5875.427 -12111.443)" fill="#75b62f"/>
      <path id="Trazado_203296" data-name="Trazado 203296" d="M372.385,583.789H361.058a1.169,1.169,0,0,1-1.169-1.169v-2.906a1.169,1.169,0,0,1,1.169-1.169h11.327a1.169,1.169,0,0,1,1.169,1.169v2.905a1.168,1.168,0,0,1-1.169,1.169" transform="translate(-6011.052 -11882.286)" fill="#3d46c2"/>
      <path id="Trazado_203297" data-name="Trazado 203297" d="M372.385,610.872H361.058a1.169,1.169,0,0,1-1.169-1.169V606.8a1.169,1.169,0,0,1,1.169-1.169h11.327a1.169,1.169,0,0,1,1.169,1.169V609.7a1.168,1.168,0,0,1-1.169,1.169" transform="translate(-6011.052 -11904.126)" fill="#3d46c2"/>
      <path id="Trazado_203298" data-name="Trazado 203298" d="M372.385,637.955H361.058a1.169,1.169,0,0,1-1.169-1.169v-2.905a1.169,1.169,0,0,1,1.169-1.169h11.327a1.169,1.169,0,0,1,1.169,1.169v2.905a1.168,1.168,0,0,1-1.169,1.169" transform="translate(-6011.052 -11925.967)" fill="#3d46c2"/>
      <path id="Trazado_203299" data-name="Trazado 203299" d="M281.87,612.58a1.452,1.452,0,0,0-1.452,1.452v6.33a2.33,2.33,0,0,1-2.328,2.328h-67.11a2.331,2.331,0,0,1-2.328-2.328v-3.238h55.1a1.452,1.452,0,0,0,1.306-.818l3.01-6.2a1.451,1.451,0,0,0,.146-.634V597.765a1.447,1.447,0,0,0-.39-.99c-.373-.632-1.683-3.428-2.747-5.8a1.452,1.452,0,0,0-1.325-.858H242.557a1.452,1.452,0,1,0,0,2.9h20.256c.271.6.653,1.432,1.04,2.261.426.912.777,1.642,1.043,2.169.143.283.275.545.412.776v10.917l-2.466,5.078H189.575l-2.467-5.078V598.226c.137-.23.269-.492.411-.775.266-.527.616-1.256,1.043-2.169.387-.829.769-1.664,1.041-2.261h47.339a1.452,1.452,0,1,0,0-2.9h-28.29V531.71a2.331,2.331,0,0,1,2.328-2.328h7.056a1.452,1.452,0,0,0,0-2.9h-7.056a5.238,5.238,0,0,0-5.232,5.232v58.408H188.666a1.451,1.451,0,0,0-1.325.857c-1.065,2.372-2.375,5.169-2.748,5.8a1.447,1.447,0,0,0-.389.989v11.712a1.452,1.452,0,0,0,.146.634l3.01,6.2a1.452,1.452,0,0,0,1.306.817h17.083v3.238a5.238,5.238,0,0,0,5.232,5.232H278.09a5.238,5.238,0,0,0,5.232-5.232v-6.33A1.451,1.451,0,0,0,281.87,612.58Zm-96.283-16.266h0" transform="translate(-5869.378 -11840.299)"/>
      <path id="Trazado_203300" data-name="Trazado 203300" d="M441.161,540.382,427.58,526.9a1.452,1.452,0,0,0-1.023-.422H381.919a1.452,1.452,0,0,0,0,2.9h42.992l-.984,7.841a6.112,6.112,0,0,0,6.049,6.872,6.221,6.221,0,0,0,.77-.048l7.94-.991v65.362a1.452,1.452,0,1,0,2.9,0V541.412a1.451,1.451,0,0,0-.429-1.03m-10.775.783a3.206,3.206,0,0,1-3.578-3.581l.822-6.544,9.368,9.3Z" transform="translate(-6027.646 -11840.298)"/>
      <path id="Trazado_203301" data-name="Trazado 203301" d="M337.867,699.206h7.317a1.452,1.452,0,1,0,0-2.9h-7.317a1.452,1.452,0,0,0,0,2.9" transform="translate(-5992.123 -11977.246)"/>
      <path id="Trazado_203302" data-name="Trazado 203302" d="M411.08,696.3H399.891a1.452,1.452,0,1,0,0,2.9H411.08a1.452,1.452,0,1,0,0-2.9" transform="translate(-6042.139 -11977.246)"/>
      <path id="Trazado_203303" data-name="Trazado 203303" d="M502.783,696.3H481.915a1.452,1.452,0,0,0,0,2.9h20.868a1.452,1.452,0,0,0,0-2.9" transform="translate(-6108.285 -11977.246)"/>
      <path id="Trazado_203304" data-name="Trazado 203304" d="M619.32,696.3h-5.381a1.452,1.452,0,0,0,0,2.9h5.381a1.452,1.452,0,0,0,0-2.9" transform="translate(-6214.75 -11977.246)"/>
      <path id="Trazado_203305" data-name="Trazado 203305" d="M337.867,734.656h17a1.452,1.452,0,1,0,0-2.9h-17a1.452,1.452,0,1,0,0,2.9Z" transform="translate(-5992.123 -12005.834)"/>
      <path id="Trazado_203306" data-name="Trazado 203306" d="M448.439,733.2a1.452,1.452,0,0,0,1.452,1.452h5.381a1.452,1.452,0,1,0,0-2.9h-5.381a1.452,1.452,0,0,0-1.452,1.452" transform="translate(-6082.459 -12005.834)"/>
      <path id="Trazado_203307" data-name="Trazado 203307" d="M520.847,731.752H501.915a1.452,1.452,0,1,0,0,2.9h18.932a1.452,1.452,0,1,0,0-2.9" transform="translate(-6124.413 -12005.834)"/>
      <path id="Trazado_203308" data-name="Trazado 203308" d="M627.384,731.752h-3.445a1.452,1.452,0,1,0,0,2.9h3.445a1.452,1.452,0,1,0,0-2.9" transform="translate(-6222.814 -12005.834)"/>
      <path id="Trazado_203309" data-name="Trazado 203309" d="M337.867,770.1h9.253a1.452,1.452,0,0,0,0-2.9h-9.253a1.452,1.452,0,0,0,0,2.9" transform="translate(-5992.123 -12034.42)"/>
      <path id="Trazado_203310" data-name="Trazado 203310" d="M428.339,768.653a1.452,1.452,0,0,0-1.452-1.452h-17a1.452,1.452,0,1,0,0,2.9h17a1.452,1.452,0,0,0,1.452-1.452" transform="translate(-6050.204 -12034.42)"/>
      <path id="Trazado_203311" data-name="Trazado 203311" d="M532.62,768.653a1.452,1.452,0,0,0-1.452-1.452h-9.253a1.452,1.452,0,0,0,0,2.9h9.253a1.452,1.452,0,0,0,1.452-1.452" transform="translate(-6140.541 -12034.42)"/>
      <path id="Trazado_203312" data-name="Trazado 203312" d="M603.192,767.2h-9.253a1.452,1.452,0,0,0,0,2.9h9.253a1.452,1.452,0,1,0,0-2.9" transform="translate(-6198.622 -12034.42)"/>
      <path id="Trazado_203313" data-name="Trazado 203313" d="M337.867,805.554h20.868a1.452,1.452,0,0,0,0-2.9H337.867a1.452,1.452,0,0,0,0,2.9Z" transform="translate(-5992.123 -12063.007)"/>
      <path id="Trazado_203314" data-name="Trazado 203314" d="M478.66,804.1a1.452,1.452,0,0,0-1.452-1.452h-7.317a1.452,1.452,0,1,0,0,2.9h7.317a1.452,1.452,0,0,0,1.452-1.452" transform="translate(-6098.588 -12063.007)"/>
      <path id="Trazado_203315" data-name="Trazado 203315" d="M531.915,802.65a1.452,1.452,0,0,0,0,2.9H537.3a1.452,1.452,0,0,0,0-2.9Z" transform="translate(-6148.605 -12063.007)"/>
      <path id="Trazado_203316" data-name="Trazado 203316" d="M583.939,805.554h11.189a1.452,1.452,0,0,0,0-2.9H583.939a1.452,1.452,0,0,0,0,2.9" transform="translate(-6190.558 -12063.007)"/>
      <path id="Trazado_203317" data-name="Trazado 203317" d="M251.455,917.469a1.452,1.452,0,1,0,0,2.9h2.309a1.452,1.452,0,1,0,0-2.9Z" transform="translate(-5922.438 -12155.599)"/>
      <path id="Trazado_203318" data-name="Trazado 203318" d="M529.183,920.373a1.452,1.452,0,1,0,0-2.9h-2.309a1.452,1.452,0,1,0,0,2.9Z" transform="translate(-6144.54 -12155.599)"/>
      <path id="Trazado_203319" data-name="Trazado 203319" d="M465.079,886.662a1.452,1.452,0,0,0-1.452,1.452v11.918a1.452,1.452,0,0,0,1.206,1.431,10.91,10.91,0,0,0,1.5.032c.638,0,1.567,0,2.928-.011a1.452,1.452,0,0,0-.008-2.9h-.008c-.935.005-1.937.009-2.717.01V888.114A1.452,1.452,0,0,0,465.079,886.662Z" transform="translate(-6094.708 -12130.755)"/>
      <path id="Trazado_203320" data-name="Trazado 203320" d="M307.759,898.59a4.192,4.192,0,0,1-3.081-1.291,1.452,1.452,0,0,0-2.152,1.95,7.138,7.138,0,0,0,5.232,2.245,4.88,4.88,0,0,0,4.981-3.782c.294-1.648-.456-3.8-3.442-4.9-1.472-.543-2.841-1.134-3.255-1.315a.865.865,0,0,1-.31-.815,1.236,1.236,0,0,1,.976-.988,4.014,4.014,0,0,1,3.318.766,1.452,1.452,0,0,0,1.861-2.229,6.912,6.912,0,0,0-6.017-1.318,4.158,4.158,0,0,0-3.013,3.355,3.752,3.752,0,0,0,1.674,3.715c.384.251,3.121,1.317,3.761,1.553.532.2,1.752.752,1.589,1.667A2.051,2.051,0,0,1,307.759,898.59Z" transform="translate(-5964.491 -12130.756)"/>
      <path id="Trazado_203321" data-name="Trazado 203321" d="M375.1,886.662a7.416,7.416,0,1,0,4.17,13.545l.813.813a1.452,1.452,0,1,0,2.053-2.053l-.832-.832a7.413,7.413,0,0,0-6.2-11.473m0,11.927a4.513,4.513,0,1,1,4.078-2.582l-.857-.857a1.452,1.452,0,1,0-2.053,2.054l.889.889A4.478,4.478,0,0,1,375.1,898.589Z" transform="translate(-6017.336 -12130.755)"/>
      <path id="Trazado_203322" data-name="Trazado 203322" d="M366.337,571.046H355.01a2.624,2.624,0,0,0-2.621,2.621v2.906a2.618,2.618,0,0,1,0,2.337v2.905a2.619,2.619,0,0,1,0,2.338v2.905a2.623,2.623,0,0,0,2.621,2.621h11.327a2.623,2.623,0,0,0,2.621-2.621v-2.905a2.619,2.619,0,0,1,0-2.338V578.91a2.618,2.618,0,0,1,0-2.337v-2.906a2.623,2.623,0,0,0-2.621-2.621m-11.044,8.147h10.761v2.339H355.293Zm0-5.243h10.761v2.339H355.293Zm10.761,12.825H355.293v-2.339h10.761Z" transform="translate(-6005.004 -11876.239)"/>
    </g>
  </g>
</svg>
