<svg xmlns="http://www.w3.org/2000/svg" width="150" height="150" viewBox="0 0 150 150">
  <g id="Grupo_150477" data-name="Grupo 150477" transform="translate(-1074.315 -3975.351)">
    <circle id="Elipse_5678" data-name="Elipse 5678" cx="75" cy="75" r="75" transform="translate(1074.315 3975.351)" fill="#fff"/>
    <g id="Grupo_150230" data-name="Grupo 150230" transform="translate(6702.013 10891.002)">
      <rect id="Rectángulo_295913" data-name="Rectángulo 295913" width="71.642" height="97.911" transform="translate(-5590.205 -6890.734)" fill="#fff"/>
      <path id="Trazado_203498" data-name="Trazado 203498" d="M99.831,3099.487v-9.95a9.95,9.95,0,1,0,9.95,9.95Z" transform="translate(-5673.718 -9960.967)" fill="#f85316"/>
      <path id="Trazado_203499" data-name="Trazado 203499" d="M140.389,3089.536v9.95h9.95a9.95,9.95,0,0,0-9.95-9.95" transform="translate(-5714.276 -9960.967)" fill="#dce736"/>
      <rect id="Rectángulo_295914" data-name="Rectángulo 295914" width="31.841" height="6.368" transform="translate(-5570.305 -6884.366)" fill="#3d46c2"/>
      <rect id="Rectángulo_295915" data-name="Rectángulo 295915" width="9.552" height="6.368" transform="translate(-5583.041 -6805.559)" fill="#3d46c2"/>
      <rect id="Rectángulo_295916" data-name="Rectángulo 295916" width="9.552" height="15.921" transform="translate(-5567.121 -6815.112)" fill="#75b62f"/>
      <rect id="Rectángulo_295917" data-name="Rectángulo 295917" width="9.552" height="27.861" transform="translate(-5551.2 -6827.052)" fill="#f85316"/>
      <rect id="Rectángulo_295918" data-name="Rectángulo 295918" width="9.552" height="35.821" transform="translate(-5535.279 -6835.012)" fill="#dce736"/>
      <path id="Trazado_203500" data-name="Trazado 203500" d="M123.175,2984.05H51.533a1.477,1.477,0,0,0-1.478,1.478v70.185a1.478,1.478,0,0,0,2.955,0v-68.707H121.7v9.289a1.478,1.478,0,0,0,2.955,0v-10.766a1.477,1.477,0,0,0-1.478-1.478" transform="translate(-5641.738 -9876.262)"/>
      <path id="Trazado_203501" data-name="Trazado 203501" d="M123.175,3073.7a1.478,1.478,0,0,0-1.478,1.478v78.771H53.01V3134.6a1.478,1.478,0,1,0-2.955,0v20.831a1.478,1.478,0,0,0,1.478,1.478h71.643a1.478,1.478,0,0,0,1.478-1.478v-80.249a1.478,1.478,0,0,0-1.478-1.478" transform="translate(-5641.738 -9948.25)"/>
      <path id="Trazado_203502" data-name="Trazado 203502" d="M82.381,3093.464a11.428,11.428,0,1,0,11.428-11.428,11.441,11.441,0,0,0-11.428,11.428m11.428,8.473a8.472,8.472,0,0,1-1.478-16.814v8.341a1.477,1.477,0,0,0,1.478,1.478h8.341a8.485,8.485,0,0,1-8.341,7m8.341-9.95H95.286v-6.864a8.493,8.493,0,0,1,6.864,6.864" transform="translate(-5667.696 -9954.943)"/>
      <path id="Trazado_203503" data-name="Trazado 203503" d="M87.9,3416.4a1.478,1.478,0,0,0-1.478,1.478v6.368a1.477,1.477,0,0,0,1.478,1.477h9.552a1.477,1.477,0,0,0,1.478-1.477v-6.368a1.478,1.478,0,0,0-1.478-1.478Zm8.075,6.369h-6.6v-3.414h6.6Z" transform="translate(-5670.94 -10223.437)"/>
      <path id="Trazado_203504" data-name="Trazado 203504" d="M168.713,3386.788h9.552a1.478,1.478,0,0,0,1.478-1.478v-15.92a1.477,1.477,0,0,0-1.478-1.478h-9.552a1.477,1.477,0,0,0-1.478,1.478v15.92a1.478,1.478,0,0,0,1.478,1.478m1.478-15.921h6.6v12.965h-6.6Z" transform="translate(-5735.833 -10184.502)"/>
      <path id="Trazado_203505" data-name="Trazado 203505" d="M249.526,3307.3a1.478,1.478,0,0,0-1.477,1.478v27.861a1.478,1.478,0,0,0,1.477,1.478h9.552a1.478,1.478,0,0,0,1.478-1.478V3308.78a1.478,1.478,0,0,0-1.478-1.478Zm8.075,27.861H251v-24.906h6.6Z" transform="translate(-5800.726 -10135.832)"/>
      <path id="Trazado_203506" data-name="Trazado 203506" d="M339.893,3275.066a1.478,1.478,0,0,0,1.478-1.478v-5.21a1.477,1.477,0,0,0-1.478-1.478h-9.551a1.477,1.477,0,0,0-1.478,1.478v35.82a1.477,1.477,0,0,0,1.478,1.477h9.551a1.477,1.477,0,0,0,1.478-1.477v-23.713a1.478,1.478,0,1,0-2.955,0v22.236h-6.6v-32.864h6.6v3.733a1.478,1.478,0,0,0,1.478,1.478" transform="translate(-5865.622 -10103.389)"/>
      <path id="Trazado_203507" data-name="Trazado 203507" d="M184.391,3016.375H152.55a1.477,1.477,0,0,0-1.478,1.477v6.368a1.477,1.477,0,0,0,1.478,1.478h31.841a1.477,1.477,0,0,0,1.478-1.478v-6.368A1.478,1.478,0,0,0,184.391,3016.375Zm-1.477,6.368H154.027v-3.413h28.886v3.413Z" transform="translate(-5722.854 -9902.219)"/>
      <path id="Trazado_203508" data-name="Trazado 203508" d="M262.816,3082.036H233.363a1.478,1.478,0,0,0,0,2.955h29.453a1.478,1.478,0,1,0,0-2.955" transform="translate(-5787.747 -9954.943)"/>
      <path id="Trazado_203509" data-name="Trazado 203509" d="M262.816,3115.708H233.363a1.477,1.477,0,1,0,0,2.955h29.453a1.477,1.477,0,1,0,0-2.955" transform="translate(-5787.747 -9981.982)"/>
      <path id="Trazado_203510" data-name="Trazado 203510" d="M264.293,3150.858a1.478,1.478,0,0,0-1.478-1.478H233.363a1.477,1.477,0,1,0,0,2.955h29.453a1.477,1.477,0,0,0,1.478-1.477" transform="translate(-5787.747 -10009.021)"/>
      <path id="Trazado_203511" data-name="Trazado 203511" d="M252.353,3184.53a1.478,1.478,0,0,0-1.478-1.478H233.363a1.477,1.477,0,1,0,0,2.955h17.513a1.478,1.478,0,0,0,1.478-1.477" transform="translate(-5787.747 -10036.059)"/>
      <path id="Trazado_203512" data-name="Trazado 203512" d="M123.856,3232.551H96.991a1.478,1.478,0,0,0,0,2.955h26.866a1.478,1.478,0,1,0,0-2.955" transform="translate(-5678.241 -10075.806)"/>
      <path id="Trazado_203513" data-name="Trazado 203513" d="M125.334,3267.7a1.477,1.477,0,0,0-1.478-1.478H96.991a1.478,1.478,0,0,0,0,2.955h26.866a1.477,1.477,0,0,0,1.478-1.478" transform="translate(-5678.241 -10102.845)"/>
      <path id="Trazado_203514" data-name="Trazado 203514" d="M113.394,3301.372a1.477,1.477,0,0,0-1.478-1.477H96.991a1.477,1.477,0,1,0,0,2.955h14.926a1.477,1.477,0,0,0,1.478-1.478" transform="translate(-5678.241 -10129.884)"/>
    </g>
  </g>
</svg>
