<svg xmlns="http://www.w3.org/2000/svg" width="150" height="150" viewBox="0 0 150 150">
  <g id="Grupo_150360" data-name="Grupo 150360" transform="translate(-1092.701 -782.938)">
    <circle id="Elipse_5678" data-name="Elipse 5678" cx="75" cy="75" r="75" transform="translate(1092.701 782.938)" fill="#fff"/>
    <g id="Grupo_150211" data-name="Grupo 150211" transform="translate(6808.635 12027.975)">
      <path id="Trazado_203161" data-name="Trazado 203161" d="M279.5,1207.066H205.131a4.255,4.255,0,0,1-4.255-4.255v-60.531a4.255,4.255,0,0,1,4.255-4.255H279.5a4.255,4.255,0,0,1,4.255,4.255v60.531a4.255,4.255,0,0,1-4.255,4.255" transform="translate(-5883.26 -12349.504)" fill="#dce736"/>
      <path id="Trazado_203162" data-name="Trazado 203162" d="M283.758,1489.475H200.876v6a4.255,4.255,0,0,0,4.255,4.255H279.5a4.255,4.255,0,0,0,4.255-4.255Z" transform="translate(-5883.26 -12642.164)" fill="#dee9f0"/>
      <path id="Trazado_203163" data-name="Trazado 203163" d="M284.315,1152.54H201.43v-10.26a4.255,4.255,0,0,1,4.255-4.255H280.06a4.255,4.255,0,0,1,4.255,4.255Z" transform="translate(-5883.721 -12349.504)" fill="#dee9f0"/>
      <rect id="Rectángulo_295814" data-name="Rectángulo 295814" width="23.185" height="6.989" transform="translate(-5652.536 -11142.438)" fill="#dee9f0"/>
      <path id="Trazado_203164" data-name="Trazado 203164" d="M368.46,1599.391H330.249a.834.834,0,0,1-.834-.834v-2.7a3.319,3.319,0,0,1,3.319-3.319h33.242a3.319,3.319,0,0,1,3.318,3.319v2.7a.834.834,0,0,1-.834.834" transform="translate(-5990.297 -12727.984)" fill="#dee9f0"/>
      <rect id="Rectángulo_295815" data-name="Rectángulo 295815" width="27.089" height="5.134" transform="translate(-5634.305 -11166.799)" fill="#3d46c2"/>
      <rect id="Rectángulo_295816" data-name="Rectángulo 295816" width="27.089" height="5.135" transform="translate(-5634.305 -11153.165)" fill="#3d46c2"/>
      <path id="Trazado_203165" data-name="Trazado 203165" d="M500.445,1362.816H468.87a1.21,1.21,0,0,1-1.21-1.209v-6.08a1.21,1.21,0,0,1,1.21-1.21h31.575a1.21,1.21,0,0,1,1.21,1.21v6.08a1.21,1.21,0,0,1-1.21,1.209" transform="translate(-6105.417 -12529.615)" fill="#3d46c2"/>
      <path id="Trazado_203166" data-name="Trazado 203166" d="M500.445,1444.317H468.87a1.21,1.21,0,0,1-1.21-1.209v-6.08a1.21,1.21,0,0,1,1.21-1.21h31.575a1.21,1.21,0,0,1,1.21,1.21v6.08a1.21,1.21,0,0,1-1.21,1.209" transform="translate(-6105.417 -12597.482)" fill="#3d46c2"/>
      <path id="Trazado_203167" data-name="Trazado 203167" d="M500.445,1525.818H468.87a1.21,1.21,0,0,1-1.21-1.209v-6.08a1.21,1.21,0,0,1,1.21-1.21h31.575a1.21,1.21,0,0,1,1.21,1.21v6.08a1.21,1.21,0,0,1-1.21,1.209" transform="translate(-6105.417 -12665.351)" fill="#3d46c2"/>
      <path id="Trazado_203168" data-name="Trazado 203168" d="M238.925,1169.151a2.42,2.42,0,1,1-2.42-2.42,2.42,2.42,0,0,1,2.42,2.42" transform="translate(-5910.914 -12373.408)" fill="#f85316"/>
      <path id="Trazado_203169" data-name="Trazado 203169" d="M294.8,1169.151a2.421,2.421,0,1,1-2.42-2.42,2.421,2.421,0,0,1,2.42,2.42" transform="translate(-5957.442 -12373.408)" fill="#f85316"/>
      <path id="Trazado_203170" data-name="Trazado 203170" d="M350.679,1169.151a2.42,2.42,0,1,1-2.42-2.42,2.421,2.421,0,0,1,2.42,2.42" transform="translate(-6003.974 -12373.408)" fill="#f85316"/>
      <path id="Trazado_203171" data-name="Trazado 203171" d="M230.9,1267.05a1.251,1.251,0,1,0,1.769-1.769l-3.038-3.038,3.038-3.037a1.251,1.251,0,0,0-1.769-1.769l-3.922,3.922a1.251,1.251,0,0,0,0,1.77Z" transform="translate(-5904.688 -12448.636)"/>
      <path id="Trazado_203172" data-name="Trazado 203172" d="M309.514,1262.24l-3.038,3.038a1.251,1.251,0,1,0,1.769,1.769l3.923-3.923a1.25,1.25,0,0,0,0-1.769l-3.923-3.923a1.251,1.251,0,1,0-1.769,1.769Z" transform="translate(-5970.89 -12448.632)"/>
      <path id="Trazado_203173" data-name="Trazado 203173" d="M270.461,1267.326a1.251,1.251,0,0,0,1.622-.707l3.081-7.845a1.251,1.251,0,1,0-2.328-.915l-3.082,7.845a1.251,1.251,0,0,0,.707,1.622" transform="translate(-5940.544 -12448.631)"/>
      <path id="Trazado_203174" data-name="Trazado 203174" d="M232.092,1350.34h8.428a1.251,1.251,0,0,0,0-2.5h-8.428a1.251,1.251,0,0,0,0,2.5" transform="translate(-5908.213 -12524.219)"/>
      <path id="Trazado_203175" data-name="Trazado 203175" d="M324.753,1347.838H309.936a1.251,1.251,0,0,0,0,2.5h14.817a1.251,1.251,0,1,0,0-2.5" transform="translate(-5973.035 -12524.219)"/>
      <path id="Trazado_203176" data-name="Trazado 203176" d="M232.092,1381.884h3.59a1.251,1.251,0,0,0,0-2.5h-3.59a1.251,1.251,0,0,0,0,2.5" transform="translate(-5908.213 -12550.487)"/>
      <path id="Trazado_203177" data-name="Trazado 203177" d="M371.152,1379.382a1.251,1.251,0,0,0,0,2.5h2.186a1.251,1.251,0,1,0,0-2.5Z" transform="translate(-6024.011 -12550.487)"/>
      <path id="Trazado_203178" data-name="Trazado 203178" d="M291.785,1380.632a1.251,1.251,0,0,0-1.251-1.251H279.8a1.251,1.251,0,0,0,0,2.5h10.738a1.251,1.251,0,0,0,1.251-1.251" transform="translate(-5947.937 -12550.486)"/>
      <path id="Trazado_203179" data-name="Trazado 203179" d="M406.685,1380.632a1.251,1.251,0,0,0,1.251,1.251h4.095a1.251,1.251,0,1,0,0-2.5h-4.095a1.251,1.251,0,0,0-1.251,1.251" transform="translate(-6054.642 -12550.486)"/>
      <path id="Trazado_203180" data-name="Trazado 203180" d="M359.727,1281.537h4.319a1.251,1.251,0,1,0,0-2.5h-4.319a1.251,1.251,0,1,0,0,2.5" transform="translate(-6014.497 -12466.926)"/>
      <path id="Trazado_203181" data-name="Trazado 203181" d="M414.467,1281.537h26.354a1.251,1.251,0,0,0,0-2.5H414.467a1.251,1.251,0,1,0,0,2.5" transform="translate(-6060.081 -12466.926)"/>
      <path id="Trazado_203182" data-name="Trazado 203182" d="M494.944,1311.939H484.268a1.251,1.251,0,0,0,0,2.5h10.676a1.251,1.251,0,0,0,0-2.5" transform="translate(-6118.205 -12494.325)"/>
      <path id="Trazado_203183" data-name="Trazado 203183" d="M442.07,1311.939H438.4a1.251,1.251,0,0,0,0,2.5h3.67a1.251,1.251,0,0,0,0-2.5" transform="translate(-6080.01 -12494.325)"/>
      <path id="Trazado_203184" data-name="Trazado 203184" d="M359.727,1314.441h8.99a1.251,1.251,0,0,0,0-2.5h-8.99a1.251,1.251,0,1,0,0,2.5" transform="translate(-6014.497 -12494.325)"/>
      <path id="Trazado_203185" data-name="Trazado 203185" d="M302.13,1410.66H293.7a1.251,1.251,0,1,0,0,2.5h8.427a1.251,1.251,0,1,0,0-2.5" transform="translate(-5959.517 -12576.533)"/>
      <path id="Trazado_203186" data-name="Trazado 203186" d="M238.567,1410.66h-6.475a1.251,1.251,0,0,0,0,2.5h6.475a1.251,1.251,0,1,0,0-2.5" transform="translate(-5908.213 -12576.533)"/>
      <path id="Trazado_203187" data-name="Trazado 203187" d="M380.607,1410.66H369.6a1.251,1.251,0,0,0,0,2.5h11.009a1.251,1.251,0,1,0,0-2.5" transform="translate(-6022.717 -12576.533)"/>
      <path id="Trazado_203188" data-name="Trazado 203188" d="M494.444,1372.243h-6.02a1.251,1.251,0,0,0,0,2.5h6.02a1.251,1.251,0,0,0,0-2.5" transform="translate(-6121.666 -12544.542)"/>
      <path id="Trazado_203189" data-name="Trazado 203189" d="M586.86,1374.745h8.5a1.251,1.251,0,1,0,0-2.5h-8.5a1.251,1.251,0,0,0,0,2.5" transform="translate(-6203.636 -12544.542)"/>
      <path id="Trazado_203190" data-name="Trazado 203190" d="M551.76,1372.243h-1.947a1.251,1.251,0,1,0,0,2.5h1.947a1.251,1.251,0,0,0,0-2.5" transform="translate(-6172.785 -12544.542)"/>
      <path id="Trazado_203191" data-name="Trazado 203191" d="M488.423,1456.246h6.02a1.251,1.251,0,1,0,0-2.5h-6.02a1.251,1.251,0,1,0,0,2.5" transform="translate(-6121.665 -12612.41)"/>
      <path id="Trazado_203192" data-name="Trazado 203192" d="M586.86,1456.246h8.5a1.251,1.251,0,1,0,0-2.5h-8.5a1.251,1.251,0,1,0,0,2.5" transform="translate(-6203.636 -12612.41)"/>
      <path id="Trazado_203193" data-name="Trazado 203193" d="M549.815,1456.246h1.947a1.251,1.251,0,1,0,0-2.5h-1.947a1.251,1.251,0,1,0,0,2.5" transform="translate(-6172.788 -12612.41)"/>
      <path id="Trazado_203194" data-name="Trazado 203194" d="M494.444,1535.245h-6.02a1.251,1.251,0,1,0,0,2.5h6.02a1.251,1.251,0,1,0,0-2.5" transform="translate(-6121.666 -12680.277)"/>
      <path id="Trazado_203195" data-name="Trazado 203195" d="M595.358,1535.245h-8.5a1.251,1.251,0,1,0,0,2.5h8.5a1.251,1.251,0,1,0,0-2.5" transform="translate(-6203.636 -12680.277)"/>
      <path id="Trazado_203196" data-name="Trazado 203196" d="M551.76,1535.245h-1.947a1.251,1.251,0,1,0,0,2.5h1.947a1.251,1.251,0,1,0,0-2.5" transform="translate(-6172.785 -12680.277)"/>
      <path id="Trazado_203197" data-name="Trazado 203197" d="M273.373,1130.547H198.905a5.513,5.513,0,0,0-5.506,5.506v60.531a5.512,5.512,0,0,0,5.506,5.505h4.708a1.251,1.251,0,0,0,0-2.5h-4.708a3.007,3.007,0,0,1-3-3v-4.746h45.577v2.156h-.992a2.463,2.463,0,0,0-2.461,2.461v3.133H211.219a1.251,1.251,0,1,0,0,2.5h12.028v4.487H219.47a4.575,4.575,0,0,0-4.57,4.569v2.7a2.087,2.087,0,0,0,2.085,2.085H255.2a2.087,2.087,0,0,0,2.085-2.085v-2.7a4.575,4.575,0,0,0-4.57-4.569h-3.777V1205h23.127a2.463,2.463,0,0,0,2.46-2.461v-.589a5.514,5.514,0,0,0,4.261-5.361l.095-60.532a5.511,5.511,0,0,0-5.5-5.505m-32.844,52.317H272.02v6H240.528Zm3.452-5.135h24.587v2.632H243.98Zm24.587,16.266H243.98v-2.633h24.587Zm-42.818,8.095h12.277v.445a2.463,2.463,0,0,0,2.461,2.46h5.946v1.581H225.749Zm26.963,6.989a2.07,2.07,0,0,1,2.067,2.067v2.286H217.4v-2.286a2.07,2.07,0,0,1,2.068-2.067Zm19.308-6.586H240.528v-6H272.02Zm4.261-5.909a3,3,0,0,1-1.759,2.73v-2.86a2.463,2.463,0,0,0-2.46-2.46h-.992v-2.156h5.211Zm0-7.247h-1.8c.025-.142.041-6.515.041-6.515a2.463,2.463,0,0,0-2.46-2.461h-.992v-2.632h.992a2.464,2.464,0,0,0,2.46-2.46v-6.08a2.464,2.464,0,0,0-2.46-2.461H265a1.251,1.251,0,0,0,0,2.5h7.024v6H240.528v-6h16.683a1.251,1.251,0,0,0,0-2.5H240.487a2.463,2.463,0,0,0-2.461,2.461v6.08a2.463,2.463,0,0,0,2.461,2.46h.992v2.632h-.992a2.463,2.463,0,0,0-2.461,2.461s.016,6.373.041,6.515H195.9v-41.772h80.38Zm0-44.275H195.993v-9.01a3.007,3.007,0,0,1,3-3h74.28a3.007,3.007,0,0,1,3,3Z" transform="translate(-5877.034 -12343.276)"/>
      <path id="Trazado_203198" data-name="Trazado 203198" d="M230.279,1159.253a3.671,3.671,0,1,0,3.672,3.671,3.675,3.675,0,0,0-3.672-3.671m0,4.84a1.169,1.169,0,1,1,1.169-1.169,1.171,1.171,0,0,1-1.169,1.169" transform="translate(-5904.688 -12367.181)"/>
      <path id="Trazado_203199" data-name="Trazado 203199" d="M286.155,1159.253a3.671,3.671,0,1,0,3.671,3.671,3.676,3.676,0,0,0-3.671-3.671m0,4.84a1.169,1.169,0,1,1,1.169-1.169,1.17,1.17,0,0,1-1.169,1.169" transform="translate(-5951.216 -12367.181)"/>
      <path id="Trazado_203200" data-name="Trazado 203200" d="M342.033,1159.253a3.671,3.671,0,1,0,3.672,3.671,3.675,3.675,0,0,0-3.672-3.671m0,4.84a1.169,1.169,0,1,1,1.169-1.169,1.171,1.171,0,0,1-1.169,1.169" transform="translate(-5997.748 -12367.181)"/>
    </g>
  </g>
</svg>
