<svg xmlns="http://www.w3.org/2000/svg" width="104.249" height="105.045" viewBox="0 0 104.249 105.045">
  <g id="Grupo_150400" data-name="Grupo 150400" transform="translate(-498.07 -809.914)">
    <g id="Grupo_118193" data-name="Grupo 118193" transform="translate(498.071 809.914)">
      <g id="Grupo_118173" data-name="Grupo 118173" transform="translate(0 0)">
        <ellipse id="Elipse_6071" data-name="Elipse 6071" cx="52.124" cy="52.522" rx="52.124" ry="52.522" fill="#fff"/>
      </g>
    </g>
    <g id="Grupo_150244" data-name="Grupo 150244" transform="translate(384 11770)">
      <path id="Trazado_203661" data-name="Trazado 203661" d="M231.428,754.111a11.349,11.349,0,0,0-11.336,11.336v3.822h5.668v-3.822a5.668,5.668,0,0,1,11.336,0v3.822h5.668v-3.822A11.349,11.349,0,0,0,231.428,754.111Z" transform="translate(-63.684 -11682.657)" fill="#abbac2"/>
      <path id="Trazado_203662" data-name="Trazado 203662" d="M223.195,863.693H201.663a3.619,3.619,0,0,0-3.62,3.619v18.212a3.619,3.619,0,0,0,3.62,3.62h21.532a3.62,3.62,0,0,0,3.62-3.62V867.312A3.619,3.619,0,0,0,223.195,863.693Z" transform="translate(-44.685 -11777.082)" fill="#f85316"/>
      <path id="Trazado_203663" data-name="Trazado 203663" d="M281.578,908.627a3.914,3.914,0,1,0-6.68,2.768v4.655a2.766,2.766,0,1,0,5.533,0v-4.655a3.9,3.9,0,0,0,1.147-2.768" transform="translate(-109.921 -11812.428)" fill="#dce736"/>
      <path id="Trazado_203664" data-name="Trazado 203664" d="M102.157,716.3a3.873,3.873,0,1,1-3.873,3.873,3.873,3.873,0,0,1,3.873-3.873" transform="translate(41.275 -11650.075)" fill="#75b62f"/>
      <path id="Trazado_203665" data-name="Trazado 203665" d="M453.675,1061.588a3.873,3.873,0,1,1-3.873,3.873,3.873,3.873,0,0,1,3.873-3.873" transform="translate(-261.62 -11947.604)" fill="#75b62f"/>
      <path id="Trazado_203666" data-name="Trazado 203666" d="M234.562,669.31a1.383,1.383,0,0,0-.334-1.927,35.468,35.468,0,0,0-33.657-3.86,1.383,1.383,0,0,0,1.039,2.564,32.7,32.7,0,0,1,31.026,3.558,1.383,1.383,0,0,0,1.927-.335Z" transform="translate(-46.118 -11602.377)"/>
      <path id="Trazado_203667" data-name="Trazado 203667" d="M456.158,790.069a35.237,35.237,0,0,0-6.019-19.756,1.383,1.383,0,1,0-2.295,1.545,32.658,32.658,0,0,1-.618,37.305,5.267,5.267,0,1,0,2.133,1.77A35.053,35.053,0,0,0,456.158,790.069Zm-11.1,26.371a2.49,2.49,0,1,1,2.49-2.49,2.493,2.493,0,0,1-2.49,2.49" transform="translate(-253.003 -11696.093)"/>
      <path id="Trazado_203668" data-name="Trazado 203668" d="M93.706,765.7A32.651,32.651,0,0,1,54.975,716.34a5.268,5.268,0,1,0-2.133-1.771,35.423,35.423,0,0,0,41.9,53.7,1.383,1.383,0,0,0-1.039-2.564M57.142,709.063a2.49,2.49,0,1,1-2.49,2.49,2.493,2.493,0,0,1,2.49-2.49" transform="translate(86.29 -11641.457)"/>
      <path id="Trazado_203669" data-name="Trazado 203669" d="M269.047,894.713a5.3,5.3,0,0,0-4.15,8.59v4.131a4.15,4.15,0,1,0,8.3,0V903.3a5.3,5.3,0,0,0-4.15-8.59m1.789,7.086a1.384,1.384,0,0,0-.405.978v4.655a1.383,1.383,0,0,1-2.767,0v-4.655a1.383,1.383,0,0,0-.405-.978,2.53,2.53,0,1,1,3.577,0" transform="translate(-101.303 -11803.811)"/>
      <path id="Trazado_203670" data-name="Trazado 203670" d="M216.531,759.666V756.83a12.719,12.719,0,1,0-25.438,0v2.836a5.01,5.01,0,0,0-3.05,4.606v18.212a5.009,5.009,0,0,0,5,5h21.532a5.009,5.009,0,0,0,5-5V764.272a5.01,5.01,0,0,0-3.05-4.606m-22.671-2.836a9.953,9.953,0,1,1,19.905,0v2.439h-2.9V756.83a7.051,7.051,0,0,0-14.1,0v2.439h-2.9V756.83Zm5.668,2.439V756.83a4.285,4.285,0,0,1,8.569,0v2.439Zm17.287,23.215a2.239,2.239,0,0,1-2.236,2.236H193.046a2.239,2.239,0,0,1-2.236-2.236V764.272a2.239,2.239,0,0,1,2.236-2.236h21.532a2.239,2.239,0,0,1,2.236,2.236Z" transform="translate(-36.068 -11674.041)"/>
      <path id="Trazado_203671" data-name="Trazado 203671" d="M469.186,737.6a1.381,1.381,0,1,0-.978-.4,1.392,1.392,0,0,0,.978.4" transform="translate(-277.131 -11666.046)"/>
    </g>
  </g>
</svg>
