<svg xmlns="http://www.w3.org/2000/svg" width="104.249" height="105.045" viewBox="0 0 104.249 105.045">
  <g id="Grupo_150403" data-name="Grupo 150403" transform="translate(-1256.517 -809.914)">
    <g id="Grupo_118196" data-name="Grupo 118196" transform="translate(1256.517 809.914)">
      <g id="Grupo_118173" data-name="Grupo 118173" transform="translate(0 0)">
        <ellipse id="Elipse_6071" data-name="Elipse 6071" cx="52.124" cy="52.522" rx="52.124" ry="52.522" fill="#fff"/>
      </g>
    </g>
    <g id="Grupo_150247" data-name="Grupo 150247" transform="translate(1147.266 11525.119)">
      <path id="Trazado_203704" data-name="Trazado 203704" d="M174.039,2822.856H148.916a2.612,2.612,0,0,1-2.612-2.613v-5.106a2.612,2.612,0,0,1,2.612-2.612l12.561-5.166,12.561,5.165a2.612,2.612,0,0,1,2.612,2.612v5.106A2.612,2.612,0,0,1,174.039,2822.856Z" transform="translate(-0.103 -13451.893)" fill="#3d46c2"/>
      <path id="Trazado_203705" data-name="Trazado 203705" d="M174.039,2705.661l-12.561,5.166-12.561-5.166a2.612,2.612,0,0,1-2.612-2.612v-5.106a2.612,2.612,0,0,1,2.612-2.612h25.123a2.612,2.612,0,0,1,2.612,2.612v5.106A2.612,2.612,0,0,1,174.039,2705.661Z" transform="translate(-0.103 -13355.36)" fill="#3d46c2"/>
      <rect id="Rectángulo_295962" data-name="Rectángulo 295962" width="30.347" height="10.331" rx="5.165" transform="translate(146.201 -10649.699)" fill="#3d46c2"/>
      <path id="Trazado_203706" data-name="Trazado 203706" d="M174.448,2716.919a2.179,2.179,0,1,1-2.179,2.179,2.179,2.179,0,0,1,2.179-2.179" transform="translate(-22.476 -13373.963)" fill="#dce736"/>
      <path id="Trazado_203707" data-name="Trazado 203707" d="M226.671,2716.919a2.179,2.179,0,1,1-2.179,2.179,2.179,2.179,0,0,1,2.179-2.179" transform="translate(-67.475 -13373.963)" fill="#dce736"/>
      <path id="Trazado_203708" data-name="Trazado 203708" d="M226.671,2791.6a2.179,2.179,0,1,1-2.179,2.179,2.179,2.179,0,0,1,2.179-2.179" transform="translate(-67.475 -13438.318)" fill="#dce736"/>
      <path id="Trazado_203709" data-name="Trazado 203709" d="M174.448,2791.6a2.179,2.179,0,1,1-2.179,2.179,2.179,2.179,0,0,1,2.179-2.179" transform="translate(-22.476 -13438.318)" fill="#dce736"/>
      <path id="Trazado_203710" data-name="Trazado 203710" d="M174.448,2866.292a2.179,2.179,0,1,1-2.179,2.179,2.179,2.179,0,0,1,2.179-2.179" transform="translate(-22.476 -13502.674)" fill="#dce736"/>
      <path id="Trazado_203711" data-name="Trazado 203711" d="M226.671,2866.292a2.179,2.179,0,1,1-2.179,2.179,2.179,2.179,0,0,1,2.179-2.179" transform="translate(-67.475 -13502.674)" fill="#dce736"/>
      <path id="Trazado_203712" data-name="Trazado 203712" d="M32.6,2498.205v19.154a1.583,1.583,0,0,1-1.583,1.583H16.583A1.583,1.583,0,0,1,15,2517.359V2507.07a5,5,0,0,1,1.463-3.533l5.45-5.451a5,5,0,0,1,3.533-1.464H31.02a1.583,1.583,0,0,1,1.583,1.583" transform="translate(113.039 -13184.139)" fill="#fff"/>
      <path id="Trazado_203713" data-name="Trazado 203713" d="M25.9,2496.632a2.519,2.519,0,0,0-2.52,2.52v4.274a1.582,1.582,0,0,1-1.583,1.583H17.522a2.521,2.521,0,0,0-2.52,2.522v-.451a5,5,0,0,1,1.462-3.533l5.451-5.452a5,5,0,0,1,3.533-1.462Z" transform="translate(113.037 -13184.147)" fill="#fff"/>
      <path id="Trazado_203714" data-name="Trazado 203714" d="M217.472,2434.492v19.154a1.583,1.583,0,0,1-1.583,1.583H201.452a1.583,1.583,0,0,1-1.583-1.583v-10.29a5,5,0,0,1,1.463-3.533l5.45-5.451a5,5,0,0,1,3.533-1.464h5.573a1.583,1.583,0,0,1,1.583,1.583" transform="translate(-46.258 -13129.238)" fill="#fff"/>
      <path id="Trazado_203715" data-name="Trazado 203715" d="M210.768,2432.919a2.519,2.519,0,0,0-2.52,2.52v4.274a1.583,1.583,0,0,1-1.583,1.583h-4.274a2.52,2.52,0,0,0-2.52,2.521v-.451a5,5,0,0,1,1.462-3.533l5.451-5.452a5,5,0,0,1,3.533-1.463Z" transform="translate(-46.26 -13129.246)" fill="#fff"/>
      <path id="Trazado_203716" data-name="Trazado 203716" d="M402.341,2498.205v19.154a1.583,1.583,0,0,1-1.583,1.583H386.321a1.583,1.583,0,0,1-1.583-1.583V2507.07a5,5,0,0,1,1.463-3.533l5.45-5.451a5,5,0,0,1,3.533-1.464h5.573A1.583,1.583,0,0,1,402.341,2498.205Z" transform="translate(-205.555 -13184.139)" fill="#fff"/>
      <path id="Trazado_203717" data-name="Trazado 203717" d="M395.638,2496.632a2.519,2.519,0,0,0-2.52,2.52v4.274a1.582,1.582,0,0,1-1.583,1.583h-4.274a2.521,2.521,0,0,0-2.52,2.522v-.451a5,5,0,0,1,1.462-3.533l5.451-5.452a5,5,0,0,1,3.533-1.462Z" transform="translate(-205.559 -13184.147)" fill="#fff"/>
      <path id="Trazado_203718" data-name="Trazado 203718" d="M24.6,2682.1a16.824,16.824,0,0,0,2.975,13.874l-1.377,2.09a.961.961,0,0,0,.746,1.489l9.067.536a.961.961,0,0,0,.916-1.39l-4.068-8.12a.962.962,0,0,0-1.662-.1l-1.146,1.739a12.665,12.665,0,0,1-1.406-9.192,2.075,2.075,0,1,0-4.045-.927Z" transform="translate(105.131 -13342.568)" fill="#f85316"/>
      <path id="Trazado_203719" data-name="Trazado 203719" d="M407.336,2682.1a16.824,16.824,0,0,1-2.975,13.874l1.377,2.09a.961.961,0,0,1-.746,1.489l-9.067.536a.961.961,0,0,1-.916-1.39l4.068-8.12a.962.962,0,0,1,1.662-.1l1.146,1.739a12.665,12.665,0,0,0,1.406-9.192,2.075,2.075,0,1,1,4.045-.927Z" transform="translate(-214.316 -13342.568)" fill="#f85316"/>
      <path id="Trazado_203720" data-name="Trazado 203720" d="M170.117,2709.528a3.639,3.639,0,0,0,1.1-2.613v-5.106a3.641,3.641,0,0,1,0-5.225v-5.106a3.654,3.654,0,0,0-3.65-3.65H142.449a3.654,3.654,0,0,0-3.65,3.65v5.106a3.641,3.641,0,0,1,0,5.225v5.106a3.642,3.642,0,0,1,0,5.225v5.106a3.655,3.655,0,0,0,3.65,3.65H146.4a1.038,1.038,0,0,0,0-2.075H142.45a1.577,1.577,0,0,1-1.576-1.575v-5.106a1.578,1.578,0,0,1,1.569-1.575h25.135a1.578,1.578,0,0,1,1.569,1.575v5.106a1.577,1.577,0,0,1-1.576,1.575H151.243a1.038,1.038,0,0,0,0,2.075h16.329a3.655,3.655,0,0,0,3.651-3.65v-5.106A3.639,3.639,0,0,0,170.117,2709.528Zm-29.243-12.943v-5.106a1.577,1.577,0,0,1,1.575-1.575h25.122a1.577,1.577,0,0,1,1.575,1.575v5.106a1.577,1.577,0,0,1-1.575,1.575H142.449A1.576,1.576,0,0,1,140.875,2696.585Zm0,10.331v-5.106a1.577,1.577,0,0,1,1.575-1.575h25.122a1.577,1.577,0,0,1,1.575,1.575v5.106a1.577,1.577,0,0,1-1.569,1.575H142.443A1.577,1.577,0,0,1,140.875,2706.916Z" transform="translate(6.364 -13348.896)"/>
      <path id="Trazado_203721" data-name="Trazado 203721" d="M167.985,2709.418a3.217,3.217,0,1,0,3.217,3.217,3.221,3.221,0,0,0-3.217-3.217m0,4.359a1.142,1.142,0,1,1,1.142-1.141,1.143,1.143,0,0,1-1.142,1.141" transform="translate(-16.012 -13367.499)"/>
      <path id="Trazado_203722" data-name="Trazado 203722" d="M220.208,2709.418a3.217,3.217,0,1,0,3.217,3.217,3.221,3.221,0,0,0-3.217-3.217m0,4.359a1.142,1.142,0,1,1,1.142-1.141,1.143,1.143,0,0,1-1.142,1.141" transform="translate(-61.012 -13367.499)"/>
      <path id="Trazado_203723" data-name="Trazado 203723" d="M167.985,2790.539a3.217,3.217,0,1,0-3.217-3.217,3.221,3.221,0,0,0,3.217,3.217m0-4.359a1.142,1.142,0,1,1-1.142,1.142,1.143,1.143,0,0,1,1.142-1.142" transform="translate(-16.012 -13431.856)"/>
      <path id="Trazado_203724" data-name="Trazado 203724" d="M220.208,2790.539a3.217,3.217,0,1,0-3.217-3.217,3.221,3.221,0,0,0,3.217,3.217m0-4.359a1.142,1.142,0,1,1-1.142,1.142,1.143,1.143,0,0,1,1.142-1.142" transform="translate(-61.012 -13431.856)"/>
      <path id="Trazado_203725" data-name="Trazado 203725" d="M167.985,2858.792a3.217,3.217,0,1,0,3.217,3.217,3.221,3.221,0,0,0-3.217-3.217m0,4.359a1.142,1.142,0,1,1,1.142-1.142,1.143,1.143,0,0,1-1.142,1.142" transform="translate(-16.012 -13496.211)"/>
      <path id="Trazado_203726" data-name="Trazado 203726" d="M220.208,2865.226a3.217,3.217,0,1,0-3.217-3.217,3.22,3.22,0,0,0,3.217,3.217m0-4.358a1.142,1.142,0,1,1-1.142,1.141,1.143,1.143,0,0,1,1.142-1.141" transform="translate(-61.012 -13496.212)"/>
      <path id="Trazado_203727" data-name="Trazado 203727" d="M281.337,2801.933h6.835a1.037,1.037,0,1,0,0-2.075h-6.835a1.037,1.037,0,1,0,0,2.075" transform="translate(-115.564 -13445.43)"/>
      <path id="Trazado_203728" data-name="Trazado 203728" d="M288.173,2876.621a1.037,1.037,0,0,0,0-2.075h-6.835a1.037,1.037,0,0,0,0,2.075Z" transform="translate(-115.564 -13509.786)"/>
      <path id="Trazado_203729" data-name="Trazado 203729" d="M288.173,2725.172h-6.835a1.037,1.037,0,0,0,0,2.075h6.835a1.037,1.037,0,0,0,0-2.075" transform="translate(-115.564 -13381.074)"/>
      <path id="Trazado_203730" data-name="Trazado 203730" d="M19.678,2491.741a2.623,2.623,0,0,0-2.62-2.621H11.484a6.071,6.071,0,0,0-4.266,1.769l-5.45,5.45A5.993,5.993,0,0,0,0,2500.6v2.5a1.037,1.037,0,0,0,2.075,0v-2.043a1.485,1.485,0,0,1,1.483-1.483H7.831a2.624,2.624,0,0,0,2.621-2.621v-4.274a1.485,1.485,0,0,1,1.483-1.484h5.123a.546.546,0,0,1,.545.546V2510.9a.546.546,0,0,1-.545.546H2.621a.547.547,0,0,1-.546-.546v-2.953a1.037,1.037,0,1,0-2.075,0v2.953a2.624,2.624,0,0,0,2.621,2.621H17.058a2.623,2.623,0,0,0,2.62-2.621v-19.154Zm-11.3,5.212a.546.546,0,0,1-.546.546H3.541l4.836-4.836c0,.005,0,.01,0,.016Z" transform="translate(125.964 -13177.674)"/>
      <path id="Trazado_203731" data-name="Trazado 203731" d="M35.972,2584.767h7.939a1.037,1.037,0,1,0,0-2.075H35.972a1.037,1.037,0,1,0,0,2.075" transform="translate(95.862 -13258.303)"/>
      <path id="Trazado_203732" data-name="Trazado 203732" d="M35.972,2613.463h7.939a1.037,1.037,0,0,0,0-2.075H35.972a1.037,1.037,0,0,0,0,2.075" transform="translate(95.862 -13283.029)"/>
      <path id="Trazado_203733" data-name="Trazado 203733" d="M187.49,2449.805h14.437a2.623,2.623,0,0,0,2.621-2.621v-19.154a2.624,2.624,0,0,0-2.621-2.621h-5.573a6,6,0,0,0-4.267,1.768l-5.45,5.451a6,6,0,0,0-1.767,4.266v10.289a2.623,2.623,0,0,0,2.621,2.621m14.983-21.774v19.154a.547.547,0,0,1-.546.546H187.49a.547.547,0,0,1-.546-.546v-9.838a1.485,1.485,0,0,1,1.483-1.483H192.7a2.623,2.623,0,0,0,2.621-2.621v-4.274a1.485,1.485,0,0,1,1.483-1.483h5.123a.547.547,0,0,1,.546.546m-9.226.921c0,.006,0,.011,0,.016v4.275a.547.547,0,0,1-.546.546h-4.29Z" transform="translate(-33.333 -13122.776)"/>
      <path id="Trazado_203734" data-name="Trazado 203734" d="M219.8,2520.016a1.037,1.037,0,0,0,1.037,1.037h7.939a1.037,1.037,0,0,0,0-2.075h-7.939A1.037,1.037,0,0,0,219.8,2520.016Z" transform="translate(-63.436 -13203.402)"/>
      <path id="Trazado_203735" data-name="Trazado 203735" d="M228.779,2547.675H220.84a1.037,1.037,0,1,0,0,2.075h7.939a1.037,1.037,0,1,0,0-2.075" transform="translate(-63.435 -13228.129)"/>
      <path id="Trazado_203736" data-name="Trazado 203736" d="M386.8,2489.123h-5.573a6,6,0,0,0-4.267,1.768l-5.45,5.451a5.994,5.994,0,0,0-1.767,4.266V2510.9a2.624,2.624,0,0,0,2.621,2.621H386.8a2.624,2.624,0,0,0,2.621-2.621v-19.154a2.624,2.624,0,0,0-2.621-2.621m-8.68,3.542c0,.005,0,.011,0,.016v4.274a.546.546,0,0,1-.546.546h-4.29Zm9.226,18.233a.546.546,0,0,1-.546.546H372.361a.546.546,0,0,1-.546-.546v-9.838a1.485,1.485,0,0,1,1.483-1.483h4.273a2.623,2.623,0,0,0,2.621-2.62v-4.274a1.485,1.485,0,0,1,1.483-1.483H386.8a.546.546,0,0,1,.546.546V2510.9Z" transform="translate(-192.632 -13177.676)"/>
      <path id="Trazado_203737" data-name="Trazado 203737" d="M413.649,2582.692H405.71a1.037,1.037,0,1,0,0,2.075h7.939a1.037,1.037,0,1,0,0-2.075" transform="translate(-222.733 -13258.303)"/>
      <path id="Trazado_203738" data-name="Trazado 203738" d="M413.649,2611.388H405.71a1.037,1.037,0,0,0,0,2.075h7.939a1.037,1.037,0,0,0,0-2.075" transform="translate(-222.733 -13283.029)"/>
      <path id="Trazado_203739" data-name="Trazado 203739" d="M27.3,2683.644a2,2,0,0,0-3.456-.2l-.146.222a11.55,11.55,0,0,1-.529-6.872A3.112,3.112,0,0,0,17.1,2675.4a17.791,17.791,0,0,0,2.726,14.135l-.983,1.491a2,2,0,0,0,1.551,3.1l9.067.536c.041,0,.082,0,.123,0a2,2,0,0,0,1.782-2.894Zm-6.65,8.411,1.3-1.979a1.037,1.037,0,0,0-.038-1.2,15.727,15.727,0,0,1-2.792-13.018,1.037,1.037,0,0,1,2.022.463,13.641,13.641,0,0,0,1.521,9.946,1.037,1.037,0,0,0,1.763.049l1.073-1.629,3.95,7.885Z" transform="translate(111.616 -13336.102)"/>
      <path id="Trazado_203740" data-name="Trazado 203740" d="M400.5,2673.459a3.112,3.112,0,0,0-4.686,3.332,11.558,11.558,0,0,1-.529,6.872l-.146-.222a2,2,0,0,0-3.456.2l-4.068,8.122a2,2,0,0,0,1.782,2.893c.041,0,.083,0,.124,0l9.066-.537a2,2,0,0,0,1.551-3.1l-.983-1.49a17.789,17.789,0,0,0,2.582-5.611,1.037,1.037,0,0,0-2.006-.53,15.724,15.724,0,0,1-2.665,5.488,1.037,1.037,0,0,0-.038,1.2l1.3,1.978-8.8.521,3.95-7.885,1.073,1.629a1.049,1.049,0,0,0,.895.467,1.038,1.038,0,0,0,.868-.515,13.644,13.644,0,0,0,1.522-9.946,1.037,1.037,0,1,1,2.022-.463,15.614,15.614,0,0,1,.388,3.042,1.037,1.037,0,1,0,2.074-.058,17.686,17.686,0,0,0-.439-3.447A3.091,3.091,0,0,0,400.5,2673.459Z" transform="translate(-207.845 -13336.104)"/>
    </g>
  </g>
</svg>
