<svg xmlns="http://www.w3.org/2000/svg" width="131" height="132" viewBox="0 0 131 132">
  <g id="Grupo_150335" data-name="Grupo 150335" transform="translate(-1102 -1108.812)">
    <g id="Grupo_118174" data-name="Grupo 118174" transform="translate(0 -11770)">
      <ellipse id="Elipse_6066" data-name="Elipse 6066" cx="65.5" cy="66" rx="65.5" ry="66" transform="translate(1102 12878.812)" fill="#fff"/>
    </g>
    <g id="Grupo_150208" data-name="Grupo 150208" transform="translate(9713.92 11715.686)">
      <path id="Trazado_203098" data-name="Trazado 203098" d="M127.131,1329.607a.826.826,0,0,1-.595,0,62,62,0,0,1-25.015-17.506A32.3,32.3,0,0,1,94,1291.013V1262.8a.79.79,0,0,1,.591-.788,59.031,59.031,0,0,0,17.373-7.264,28.812,28.812,0,0,1,29.739,0,59.033,59.033,0,0,0,17.373,7.264.79.79,0,0,1,.591.788v28.211a32.3,32.3,0,0,1-7.523,21.089,62.013,62.013,0,0,1-25.014,17.505" transform="translate(-8675.947 -11831.014)" fill="#dce736"/>
      <path id="Trazado_203099" data-name="Trazado 203099" d="M281.288,1300.638a48.381,48.381,0,0,1-5.489-1.579v29.581a35.359,35.359,0,0,1-7.523,22.3,61.84,61.84,0,0,1-21,16.7q.73.3,1.471.591a.828.828,0,0,0,.595,0,62.013,62.013,0,0,0,25.014-17.5,32.3,32.3,0,0,0,7.523-21.089v-28.211a.79.79,0,0,0-.591-.788" transform="translate(-8798.159 -11869.637)" fill="#ffbd54"/>
      <path id="Trazado_203100" data-name="Trazado 203100" d="M151,1346.982a.617.617,0,0,1-.487,0,55.644,55.644,0,0,1-20.454-14.919A26.218,26.218,0,0,1,124,1314.934v-23.581a.81.81,0,0,1,.565-.771,69.071,69.071,0,0,0,14.459-6.7,22.733,22.733,0,0,1,23.461,0,69.112,69.112,0,0,0,14.459,6.7.81.81,0,0,1,.565.771v23.581a26.219,26.219,0,0,1-6.057,17.13A55.65,55.65,0,0,1,151,1346.982" transform="translate(-8699.867 -11854.934)" fill="#3d46c2"/>
      <path id="Trazado_203101" data-name="Trazado 203101" d="M224.241,1438.833H208.027a2.027,2.027,0,0,1-2.027-2.027v-12.161a2.027,2.027,0,0,1,2.027-2.027h16.214a2.027,2.027,0,0,1,2.027,2.027v12.161a2.027,2.027,0,0,1-2.027,2.027" transform="translate(-8765.248 -11968.153)" fill="#f85316"/>
      <path id="Trazado_203102" data-name="Trazado 203102" d="M165.04,1664.118a3.04,3.04,0,1,1-3.04,3.04,3.04,3.04,0,0,1,3.04-3.04" transform="translate(-8730.166 -12160.706)" fill="#75b62f"/>
      <path id="Trazado_203103" data-name="Trazado 203103" d="M355.04,1197.118a3.04,3.04,0,1,1-3.04,3.04,3.04,3.04,0,0,1,3.04-3.04" transform="translate(-8881.656 -11788.357)" fill="#75b62f"/>
      <path id="Trazado_203104" data-name="Trazado 203104" d="M10.54,1348.618a3.04,3.04,0,1,1-3.04,3.04,3.04,3.04,0,0,1,3.04-3.04" transform="translate(-8606.979 -11909.151)" fill="#75b62f"/>
      <path id="Trazado_203105" data-name="Trazado 203105" d="M33.79,1406.618a3.04,3.04,0,1,1-3.04,3.04,3.04,3.04,0,0,1,3.04-3.04" transform="translate(-8625.518 -11955.396)" fill="#75b62f"/>
      <path id="Trazado_203106" data-name="Trazado 203106" d="M477.54,1414.618a3.04,3.04,0,1,1-3.04,3.04,3.04,3.04,0,0,1,3.04-3.04" transform="translate(-8979.328 -11961.774)" fill="#75b62f"/>
      <path id="Trazado_203107" data-name="Trazado 203107" d="M454.29,1472.618a3.04,3.04,0,1,1-3.04,3.04,3.04,3.04,0,0,1,3.04-3.04" transform="translate(-8960.79 -12008.02)" fill="#75b62f"/>
      <path id="Trazado_203108" data-name="Trazado 203108" d="M244.04,1440.118a3.04,3.04,0,1,1-3.04,3.04,3.04,3.04,0,0,1,3.04-3.04" transform="translate(-8793.154 -11982.106)" fill="#3d46c2"/>
      <path id="Trazado_203109" data-name="Trazado 203109" d="M206.182,1406.121a4.568,4.568,0,0,0-4.3,3.04H193.21v-1.774a1.52,1.52,0,0,0-3.04,0v7.41a30.777,30.777,0,0,1-7.156,20.1,60.49,60.49,0,0,1-24.158,16.979,60.828,60.828,0,0,1-22.073-14.674,1.52,1.52,0,0,0-2.2,2.1,62.016,62.016,0,0,0,6.743,6.105v11.547a4.56,4.56,0,1,0,3.04,0v-9.32a66.114,66.114,0,0,0,13.645,7.177,2.336,2.336,0,0,0,1.693,0,63.543,63.543,0,0,0,25.619-17.933,32.59,32.59,0,0,0,6.711-12.92h5.139a4.56,4.56,0,1,0,0-3.04h-4.477a36.232,36.232,0,0,0,.517-6.119v-2.6h8.673a4.56,4.56,0,1,0,4.3-6.081m-63.337,56.649a1.52,1.52,0,1,1,1.52-1.52,1.522,1.522,0,0,1-1.52,1.52m58.625-41.853a1.52,1.52,0,1,1-1.52,1.52,1.522,1.522,0,0,1,1.52-1.52m4.712-8.715a1.52,1.52,0,1,1,1.52-1.52,1.522,1.522,0,0,1-1.52,1.52" transform="translate(-8707.97 -11954.799)"/>
      <path id="Trazado_203110" data-name="Trazado 203110" d="M20.572,1242.378v-27.653a60.82,60.82,0,0,0,17.229-7.308,27.215,27.215,0,0,1,28.169,0,70.588,70.588,0,0,0,7.769,4.07c.029.013.058.026.087.038a53.926,53.926,0,0,0,9.374,3.2v13.74a1.52,1.52,0,1,0,3.04,0v-14.3a2.322,2.322,0,0,0-1.781-2.272,49.616,49.616,0,0,1-8.555-2.784v-10.634a4.56,4.56,0,1,0-3.04,0v9.246q-2.643-1.3-5.323-2.91a30.25,30.25,0,0,0-31.309,0,57.221,57.221,0,0,1-16.919,7.082,2.323,2.323,0,0,0-1.782,2.272v9.2H8.859a4.56,4.56,0,1,0,0,3.04h8.673v8.715h-3.96a4.56,4.56,0,1,0,0,3.04h3.96v4.218a34.028,34.028,0,0,0,6.084,19.76,1.52,1.52,0,1,0,2.484-1.753,31.006,31.006,0,0,1-5.528-18.008m53.812-49.72a1.52,1.52,0,1,1-1.52,1.52,1.522,1.522,0,0,1,1.52-1.52M4.56,1226.4a1.52,1.52,0,1,1,1.52-1.52,1.522,1.522,0,0,1-1.52,1.52m4.712,11.755a1.52,1.52,0,1,1,1.52-1.52,1.522,1.522,0,0,1-1.52,1.52" transform="translate(-8601 -11782.378)"/>
      <path id="Trazado_203111" data-name="Trazado 203111" d="M128.05,1282.371a1.52,1.52,0,0,0-1.348-2.725,62.764,62.764,0,0,1-8.583,3.509,2.324,2.324,0,0,0-1.62,2.218v23.582a27.736,27.736,0,0,0,6.423,18.118,57.2,57.2,0,0,0,21.007,15.326,2.147,2.147,0,0,0,1.689,0,57.2,57.2,0,0,0,21.005-15.324,27.739,27.739,0,0,0,6.424-18.119v-23.582a2.324,2.324,0,0,0-1.62-2.218,67.732,67.732,0,0,1-14.139-6.558,24.252,24.252,0,0,0-25.031,0l-.323.194a1.52,1.52,0,0,0,1.557,2.611l.336-.2a21.212,21.212,0,0,1,21.891,0,71.227,71.227,0,0,0,14.288,6.688v23.065a24.7,24.7,0,0,1-5.691,16.14,54.128,54.128,0,0,1-19.543,14.356,54.124,54.124,0,0,1-19.544-14.358,24.7,24.7,0,0,1-5.69-16.139v-23.065a66.289,66.289,0,0,0,8.511-3.518" transform="translate(-8693.887 -11848.954)"/>
      <path id="Trazado_203112" data-name="Trazado 203112" d="M210.154,1365.118a7.609,7.609,0,0,0-7.6,7.6v2.533h-.507a3.551,3.551,0,0,0-3.547,3.547v12.161a3.551,3.551,0,0,0,3.547,3.547h16.214a3.551,3.551,0,0,0,3.547-3.547V1378.8a3.551,3.551,0,0,0-3.547-3.547h-.507v-2.533a7.609,7.609,0,0,0-7.6-7.6m-4.56,7.6a4.56,4.56,0,1,1,9.121,0v2.533h-9.121Zm13.174,6.08v12.161a.507.507,0,0,1-.507.507H202.047a.507.507,0,0,1-.507-.507V1378.8a.507.507,0,0,1,.507-.507h16.214a.507.507,0,0,1,.507.507" transform="translate(-8759.269 -11922.308)"/>
      <path id="Trazado_203113" data-name="Trazado 203113" d="M238.06,1432.618a4.56,4.56,0,0,0-1.52,8.859v1.781a1.52,1.52,0,1,0,3.04,0v-1.781a4.56,4.56,0,0,0-1.52-8.859m0,6.08a1.52,1.52,0,1,1,1.52-1.52,1.522,1.522,0,0,1-1.52,1.52" transform="translate(-8787.175 -11976.127)"/>
    </g>
  </g>
</svg>
