<svg xmlns="http://www.w3.org/2000/svg" width="150" height="150" viewBox="0 0 150 150">
  <g id="Grupo_150358" data-name="Grupo 150358" transform="translate(-362.701 -782.938)">
    <circle id="Elipse_5676" data-name="Elipse 5676" cx="75" cy="75" r="75" transform="translate(362.701 782.938)" fill="#fff"/>
    <g id="Grupo_150209" data-name="Grupo 150209" transform="translate(6052.414 12214.414)">
      <path id="Trazado_203143" data-name="Trazado 203143" d="M331.388,136h57.3a3.183,3.183,0,0,1,3.183,3.183v12.733a3.183,3.183,0,0,1-3.183,3.183h-57.3a3.183,3.183,0,0,1-3.183-3.183V139.187A3.183,3.183,0,0,1,331.388,136" transform="translate(-5989.027 -11510.871)" fill="#3d46c2"/>
      <path id="Trazado_203144" data-name="Trazado 203144" d="M609.755,139.187v12.733a3.193,3.193,0,0,1-3.183,3.183h-6.367a3.193,3.193,0,0,0,3.183-3.183V139.187A3.193,3.193,0,0,0,600.205,136h6.367a3.193,3.193,0,0,1,3.183,3.183" transform="translate(-6206.91 -11510.871)" fill="#2488ff"/>
      <rect id="Rectángulo_295796" data-name="Rectángulo 295796" width="9.55" height="6.367" transform="translate(-5613.071 -11355.767)" fill="#acabb1"/>
      <rect id="Rectángulo_295797" data-name="Rectángulo 295797" width="9.55" height="6.367" transform="translate(-5613.071 -11381.234)" fill="#3d46c2"/>
      <rect id="Rectángulo_295798" data-name="Rectángulo 295798" width="4.775" height="6.367" transform="translate(-5608.296 -11355.767)" fill="#898890"/>
      <path id="Trazado_203145" data-name="Trazado 203145" d="M331.388,264h57.3a3.183,3.183,0,0,1,3.183,3.183v12.733a3.183,3.183,0,0,1-3.183,3.183h-57.3a3.183,3.183,0,0,1-3.183-3.183V267.187A3.183,3.183,0,0,1,331.388,264" transform="translate(-5989.027 -11613.404)" fill="#3d46c2"/>
      <path id="Trazado_203146" data-name="Trazado 203146" d="M609.755,267.187v12.733a3.193,3.193,0,0,1-3.183,3.183h-6.367a3.193,3.193,0,0,0,3.183-3.183V267.187A3.193,3.193,0,0,0,600.205,264h6.367a3.193,3.193,0,0,1,3.183,3.183" transform="translate(-6206.91 -11613.404)" fill="#2488ff"/>
      <rect id="Rectángulo_295799" data-name="Rectángulo 295799" width="6.367" height="6.367" transform="translate(-5641.722 -11343.034)" fill="#dce736"/>
      <rect id="Rectángulo_295800" data-name="Rectángulo 295800" width="6.367" height="6.367" transform="translate(-5641.722 -11368.5)" fill="#dce736"/>
      <path id="Trazado_203147" data-name="Trazado 203147" d="M331.388,8h57.3a3.183,3.183,0,0,1,3.183,3.183V23.921a3.183,3.183,0,0,1-3.183,3.183h-57.3a3.183,3.183,0,0,1-3.183-3.183V11.187A3.183,3.183,0,0,1,331.388,8" transform="translate(-5989.027 -11408.338)" fill="#3d46c2"/>
      <rect id="Rectángulo_295801" data-name="Rectángulo 295801" width="6.367" height="6.367" transform="translate(-5641.722 -11393.967)" fill="#dce736"/>
      <rect id="Rectángulo_295802" data-name="Rectángulo 295802" width="9.55" height="6.367" transform="translate(-5654.456 -11355.767)" fill="#3d46c2"/>
      <rect id="Rectángulo_295803" data-name="Rectángulo 295803" width="9.55" height="6.367" transform="translate(-5654.456 -11381.234)" fill="#3d46c2"/>
      <rect id="Rectángulo_295804" data-name="Rectángulo 295804" width="6.367" height="6.367" transform="translate(-5654.456 -11343.034)" fill="#dce736"/>
      <rect id="Rectángulo_295805" data-name="Rectángulo 295805" width="6.367" height="6.367" transform="translate(-5654.456 -11368.5)" fill="#dce736"/>
      <rect id="Rectángulo_295806" data-name="Rectángulo 295806" width="6.367" height="6.367" transform="translate(-5654.456 -11393.967)" fill="#dce736"/>
      <path id="Trazado_203148" data-name="Trazado 203148" d="M561.506,352v15.917c0,4.393-12.829,7.958-28.65,7.958s-28.65-3.565-28.65-7.958V352c0,4.393,12.829,7.958,28.65,7.958s28.65-3.565,28.65-7.958" transform="translate(-6130.01 -11683.896)" fill="#dce736"/>
      <path id="Trazado_203149" data-name="Trazado 203149" d="M561.506,272v15.917c0,4.393-12.829,7.958-28.65,7.958s-28.65-3.565-28.65-7.958V272c0,4.393,12.829,7.958,28.65,7.958s28.65-3.565,28.65-7.958" transform="translate(-6130.01 -11619.813)" fill="#dce736"/>
      <path id="Trazado_203150" data-name="Trazado 203150" d="M561.506,192v15.917c0,4.393-12.829,7.958-28.65,7.958s-28.65-3.565-28.65-7.958V192c0,4.393,12.829,7.958,28.65,7.958s28.65-3.565,28.65-7.958" transform="translate(-6130.01 -11555.729)" fill="#dce736"/>
      <path id="Trazado_203151" data-name="Trazado 203151" d="M532.855,152c15.823,0,28.65,3.563,28.65,7.958s-12.827,7.958-28.65,7.958-28.65-3.563-28.65-7.958S517.032,152,532.855,152" transform="translate(-6130.01 -11523.688)" fill="#dce736"/>
      <path id="Trazado_203152" data-name="Trazado 203152" d="M657.672,352v5a73.389,73.389,0,0,1-22.284,2.961c-1.082,0-2.133-.016-3.183-.064,14.325-.43,25.467-3.8,25.467-7.895" transform="translate(-6232.543 -11683.896)" fill="#ffde55"/>
      <path id="Trazado_203153" data-name="Trazado 203153" d="M657.672,272v5a73.389,73.389,0,0,1-22.284,2.961c-1.082,0-2.133-.016-3.183-.064,14.325-.43,25.467-3.8,25.467-7.895" transform="translate(-6232.543 -11619.813)" fill="#ffde55"/>
      <path id="Trazado_203154" data-name="Trazado 203154" d="M386.769,28.67a4.753,4.753,0,0,0-4.489-3.2h-1.592V22.288h1.592a4.79,4.79,0,0,0,4.775-4.775V4.779A4.79,4.79,0,0,0,382.281,0h-57.3A4.79,4.79,0,0,0,320.2,4.779V17.512a4.79,4.79,0,0,0,4.775,4.775h1.592v3.183H324.98a4.79,4.79,0,0,0-4.775,4.775V42.979a4.79,4.79,0,0,0,4.775,4.775h1.592v3.183H324.98a4.79,4.79,0,0,0-4.775,4.775V68.446a4.79,4.79,0,0,0,4.775,4.775h30.242V85.955c0,6.271,15.216,9.55,30.242,9.55s30.242-3.279,30.242-9.55V38.2c0-6.1-14.341-9.343-28.937-9.534M324.98,19.1a1.592,1.592,0,0,1-1.592-1.592V4.779a1.592,1.592,0,0,1,1.592-1.592h57.3a1.592,1.592,0,0,1,1.592,1.592V17.512a1.592,1.592,0,0,1-1.592,1.592Zm52.525,6.367h-6.367V22.288h6.367Zm-9.55,0h-28.65V22.288h28.65Zm-31.834,0h-6.367V22.288h6.367Zm19.1,44.567H324.98a1.592,1.592,0,0,1-1.592-1.592V55.713a1.592,1.592,0,0,1,1.592-1.592h30.242ZM329.755,47.754h6.367v3.183h-6.367Zm25.467,3.183H339.305V47.754h15.917Zm0-12.733v6.367H324.98a1.592,1.592,0,0,1-1.592-1.592V30.246a1.592,1.592,0,0,1,1.592-1.592h57.3a1.121,1.121,0,0,1,.223.048c-14.007.4-27.281,3.645-27.281,9.5m57.3,47.75c0,2.165-9.55,6.367-27.059,6.367s-27.059-4.2-27.059-6.367V74.527c5.237,3.327,16.171,5.062,27.059,5.062s21.822-1.735,27.059-5.062Zm0-15.917c0,2.165-9.55,6.367-27.059,6.367s-27.059-4.2-27.059-6.367V58.61c5.237,3.327,16.171,5.062,27.059,5.062s21.822-1.735,27.059-5.062Zm0-15.917c0,2.165-9.55,6.367-27.059,6.367s-27.059-4.2-27.059-6.367V42.693c5.237,3.327,16.171,5.062,27.059,5.062s21.822-1.735,27.059-5.062Zm-27.059-9.55c-17.508,0-27.059-4.2-27.059-6.367s9.55-6.367,27.059-6.367,27.059,4.2,27.059,6.367-9.55,6.367-27.059,6.367" transform="translate(-5982.619 -11401.93)"/>
      <rect id="Rectángulo_295807" data-name="Rectángulo 295807" width="3.183" height="3.183" transform="translate(-5598.747 -11349.4)"/>
      <rect id="Rectángulo_295808" data-name="Rectángulo 295808" width="3.183" height="3.183" transform="translate(-5598.747 -11331.892)"/>
      <rect id="Rectángulo_295809" data-name="Rectángulo 295809" width="3.183" height="3.183" transform="translate(-5598.747 -11317.567)"/>
      <path id="Trazado_203155" data-name="Trazado 203155" d="M360.163,160H353.8A1.592,1.592,0,0,0,352.2,161.6v6.367a1.592,1.592,0,0,0,1.592,1.592h6.367a1.592,1.592,0,0,0,1.592-1.592V161.6A1.592,1.592,0,0,0,360.163,160m-1.592,6.367h-3.183v-3.183h3.183Z" transform="translate(-6008.252 -11530.096)"/>
      <path id="Trazado_203156" data-name="Trazado 203156" d="M424.163,160H417.8A1.592,1.592,0,0,0,416.2,161.6v6.367a1.592,1.592,0,0,0,1.592,1.592h6.367a1.592,1.592,0,0,0,1.592-1.592V161.6A1.592,1.592,0,0,0,424.163,160m-1.592,6.367h-3.183v-3.183h3.183Z" transform="translate(-6059.519 -11530.096)"/>
      <path id="Trazado_203157" data-name="Trazado 203157" d="M360.163,32H353.8A1.592,1.592,0,0,0,352.2,33.6v6.367a1.592,1.592,0,0,0,1.592,1.592h6.367a1.592,1.592,0,0,0,1.592-1.592V33.6A1.592,1.592,0,0,0,360.163,32m-1.592,6.367h-3.183V35.187h3.183Z" transform="translate(-6008.252 -11427.563)"/>
      <path id="Trazado_203158" data-name="Trazado 203158" d="M424.163,32H417.8A1.592,1.592,0,0,0,416.2,33.6v6.367a1.592,1.592,0,0,0,1.592,1.592h6.367a1.592,1.592,0,0,0,1.592-1.592V33.6A1.592,1.592,0,0,0,424.163,32m-1.592,6.367h-3.183V35.187h3.183Z" transform="translate(-6059.519 -11427.563)"/>
      <rect id="Rectángulo_295810" data-name="Rectángulo 295810" width="22.284" height="3.183" transform="translate(-5630.58 -11395.559)"/>
      <rect id="Rectángulo_295811" data-name="Rectángulo 295811" width="3.183" height="3.183" transform="translate(-5605.113 -11395.559)"/>
      <rect id="Rectángulo_295812" data-name="Rectángulo 295812" width="22.284" height="3.183" transform="translate(-5630.58 -11389.192)"/>
      <rect id="Rectángulo_295813" data-name="Rectángulo 295813" width="3.183" height="3.183" transform="translate(-5605.113 -11389.192)"/>
      <path id="Trazado_203159" data-name="Trazado 203159" d="M360.163,288H353.8A1.592,1.592,0,0,0,352.2,289.6v6.367a1.592,1.592,0,0,0,1.592,1.592h6.367a1.592,1.592,0,0,0,1.592-1.592V289.6A1.592,1.592,0,0,0,360.163,288m-1.592,6.367h-3.183v-3.183h3.183Z" transform="translate(-6008.252 -11632.63)"/>
      <path id="Trazado_203160" data-name="Trazado 203160" d="M424.163,288H417.8A1.592,1.592,0,0,0,416.2,289.6v6.367a1.592,1.592,0,0,0,1.592,1.592h6.367a1.592,1.592,0,0,0,1.592-1.592V289.6A1.592,1.592,0,0,0,424.163,288m-1.592,6.367h-3.183v-3.183h3.183Z" transform="translate(-6059.519 -11632.63)"/>
    </g>
  </g>
</svg>
