<svg xmlns="http://www.w3.org/2000/svg" xmlns:xlink="http://www.w3.org/1999/xlink" width="1240" height="282.414" viewBox="0 0 1240 282.414">
  <defs>
    <clipPath id="clip-path">
      <rect id="Rectángulo_295320" data-name="Rectángulo 295320" width="1240" height="282.414" fill="none"/>
    </clipPath>
    <clipPath id="clip-path-3">
      <rect id="Rectángulo_295314" data-name="Rectángulo 295314" width="245.956" height="121.628" fill="none"/>
    </clipPath>
    <clipPath id="clip-path-4">
      <rect id="Rectángulo_295315" data-name="Rectángulo 295315" width="300.417" height="124.042" fill="none"/>
    </clipPath>
    <clipPath id="clip-path-5">
      <rect id="Rectángulo_295316" data-name="Rectángulo 295316" width="300.412" height="124.042" fill="none"/>
    </clipPath>
  </defs>
  <g id="Grupo_150474" data-name="Grupo 150474" transform="translate(-180 -811)">
    <g id="Grupo_149925" data-name="Grupo 149925" transform="translate(180 811)">
      <g id="Grupo_149923" data-name="Grupo 149923" clip-path="url(#clip-path)">
        <g id="Grupo_149922" data-name="Grupo 149922">
          <g id="Grupo_149921" data-name="Grupo 149921" clip-path="url(#clip-path)">
            <path id="Trazado_201696" data-name="Trazado 201696" d="M1119.988,257.914c-69.194,0-125.488-56.748-125.488-126.5s56.294-126.5,125.488-126.5,125.488,56.748,125.488,126.5-56.294,126.5-125.488,126.5" transform="translate(-7.956)" fill="#dee9f0"/>
            <path id="Trazado_201697" data-name="Trazado 201697" d="M1119.968,7.414c67.935,0,123.008,55.517,123.008,124s-55.073,124-123.008,124S996.96,199.9,996.96,131.414s55.073-124,123.008-124m0-5A126.618,126.618,0,0,0,1029.481,40.2a129.738,129.738,0,0,0,0,182.434,127.246,127.246,0,0,0,180.975,0,129.738,129.738,0,0,0,0-182.434,126.618,126.618,0,0,0-90.487-37.783" transform="translate(-7.936)" fill="#b3b3b3"/>
            <path id="Trazado_201698" data-name="Trazado 201698" d="M1120.222,227.146c-53.214,0-96.506-43.642-96.506-97.285s43.292-97.284,96.506-97.284,96.507,43.641,96.507,97.284-43.292,97.285-96.507,97.285" transform="translate(-8.19)" fill="#fff"/>
            <path id="Trazado_201699" data-name="Trazado 201699" d="M1120.2,35.076c51.929,0,94.027,42.437,94.027,94.785s-42.1,94.785-94.027,94.785-94.027-42.437-94.027-94.785,42.1-94.785,94.027-94.785m0-5c-54.581,0-98.987,44.763-98.987,99.785s44.406,99.785,98.987,99.785,98.987-44.764,98.987-99.785-44.4-99.785-98.987-99.785" transform="translate(-8.17)" fill="#b3b3b3"/>
            <g id="Grupo_149908" data-name="Grupo 149908" transform="translate(989.054 7.414)" opacity="0.64" style="mix-blend-mode: multiply;isolation: isolate">
              <g id="Grupo_149907" data-name="Grupo 149907">
                <g id="Grupo_149906" data-name="Grupo 149906" clip-path="url(#clip-path-3)">
                  <path id="Trazado_201700" data-name="Trazado 201700" d="M1120.008,35.076c51.657,0,93.579,42,94.016,93.966h28.962c-1.255-67.388-55.83-121.628-122.978-121.628S998.285,61.654,997.03,129.042h28.962c.437-51.97,42.359-93.966,94.016-93.966" transform="translate(-997.03 -7.414)" fill="#ccc"/>
                </g>
              </g>
            </g>
            <path id="Trazado_201701" data-name="Trazado 201701" d="M1119.968,7.414c67.935,0,123.008,55.517,123.008,124s-55.073,124-123.008,124S996.96,199.9,996.96,131.414s55.073-124,123.008-124m0-5A126.618,126.618,0,0,0,1029.481,40.2a129.738,129.738,0,0,0,0,182.434,127.246,127.246,0,0,0,180.975,0,129.738,129.738,0,0,0,0-182.434,126.618,126.618,0,0,0-90.487-37.783" transform="translate(-7.936)" fill="#b3b3b3"/>
            <path id="Trazado_201702" data-name="Trazado 201702" d="M871.988,255.584c-69.194,0-125.488-56.748-125.488-126.5s56.294-126.5,125.488-126.5V2.6a22.763,22.763,0,0,1,2.73-.1,97.476,97.476,0,0,1,16.036,1.494,123.956,123.956,0,0,1,30.084,8.533c32.116,12.561,80.911,42.751,130.595,115.091a2.518,2.518,0,0,1,0,2.846c-48.9,71.2-96.923,101.453-128.6,114.3a123.659,123.659,0,0,1-36.809,10.032,90.026,90.026,0,0,1-11.295.791c-.545,0-1.014-.007-1.406-.018l-.425.009c-.3,0-.605.01-.91.01" transform="translate(-5.972)" fill="#e9f082"/>
            <path id="Trazado_201703" data-name="Trazado 201703" d="M874.7,5a95.169,95.169,0,0,1,15.622,1.46,121.4,121.4,0,0,1,29.528,8.37c33.625,13.151,81.079,43.678,129.521,114.211-47.473,69.123-94,99.821-127.486,113.4a121.441,121.441,0,0,1-36.157,9.866,87.7,87.7,0,0,1-11.018.776c-.52,0-.969-.007-1.344-.017-.466.006-.931.018-1.4.018-67.936,0-123.008-55.516-123.008-124s55.072-124,123.008-124h0S872.91,5,874.7,5m0-5c-1.516,0-2.515.055-2.94.084a126.618,126.618,0,0,0-90.28,37.783,129.738,129.738,0,0,0,0,182.434,126.616,126.616,0,0,0,90.487,37.783c.323,0,.645-.005.967-.011l.406-.006c.389.01.847.016,1.37.016a92.485,92.485,0,0,0,11.606-.811,126.32,126.32,0,0,0,37.5-10.225c20.181-8.194,40.271-20.512,59.714-36.613,24.574-20.35,48.1-46.777,69.917-78.546a5.036,5.036,0,0,0,0-5.693c-22.223-32.356-46.2-59.158-71.27-79.66C962.469,30.414,942.126,18.189,921.714,10.2A126.472,126.472,0,0,0,891.1,1.521,99.861,99.861,0,0,0,874.7,0" transform="translate(-5.952)" fill="#dce736"/>
            <path id="Trazado_201704" data-name="Trazado 201704" d="M872.222,227.146c-53.214,0-96.506-43.642-96.506-97.285s43.292-97.284,96.506-97.284,96.507,43.641,96.507,97.284-43.292,97.285-96.507,97.285" transform="translate(-6.206)" fill="#fff"/>
            <path id="Trazado_201705" data-name="Trazado 201705" d="M872.2,35.076c51.929,0,94.027,42.437,94.027,94.785s-42.1,94.785-94.027,94.785-94.027-42.437-94.027-94.785,42.1-94.785,94.027-94.785m0-5c-54.582,0-98.987,44.763-98.987,99.785s44.4,99.785,98.987,99.785,98.987-44.764,98.987-99.785S926.783,30.076,872.2,30.076" transform="translate(-6.186)" fill="#dce736"/>
            <path id="Trazado_201706" data-name="Trazado 201706" d="M874.7,5a95.169,95.169,0,0,1,15.622,1.46,121.4,121.4,0,0,1,29.528,8.37c33.625,13.151,81.079,43.678,129.521,114.211-47.473,69.123-94,99.821-127.486,113.4a121.441,121.441,0,0,1-36.157,9.866,87.7,87.7,0,0,1-11.018.776c-.52,0-.969-.007-1.344-.017-.466.006-.931.018-1.4.018-67.936,0-123.008-55.516-123.008-124s55.072-124,123.008-124h0S872.91,5,874.7,5m0-5c-1.516,0-2.515.055-2.94.084a126.618,126.618,0,0,0-90.28,37.783,129.738,129.738,0,0,0,0,182.434,126.616,126.616,0,0,0,90.487,37.783c.323,0,.645-.005.967-.011l.406-.006c.389.01.847.016,1.37.016a92.485,92.485,0,0,0,11.606-.811,126.32,126.32,0,0,0,37.5-10.225c20.181-8.194,40.271-20.512,59.714-36.613,24.574-20.35,48.1-46.777,69.917-78.546a5.036,5.036,0,0,0,0-5.693c-22.223-32.356-46.2-59.158-71.27-79.66C962.469,30.414,942.126,18.189,921.714,10.2A126.472,126.472,0,0,0,891.1,1.521,99.861,99.861,0,0,0,874.7,0" transform="translate(-5.952)" fill="#dce736"/>
            <g id="Grupo_149911" data-name="Grupo 149911" transform="translate(743.008 5)" opacity="0.38" style="mix-blend-mode: multiply;isolation: isolate">
              <g id="Grupo_149910" data-name="Grupo 149910">
                <g id="Grupo_149909" data-name="Grupo 149909" clip-path="url(#clip-path-4)">
                  <path id="Trazado_201707" data-name="Trazado 201707" d="M919.892,14.83a121.36,121.36,0,0,0-29.528-8.37c-11.635-1.966-18.356-1.378-18.356-1.378v0C804.087,5.084,749.024,60.578,749,129.042h28.991c.437-51.97,42.358-93.966,94.016-93.966s93.579,42,94.017,93.966h83.388c-48.442-70.533-95.9-101.06-129.521-114.211" transform="translate(-749 -5)" fill="#ccc"/>
                </g>
              </g>
            </g>
            <path id="Trazado_201708" data-name="Trazado 201708" d="M623.988,255.584c-69.194,0-125.488-56.748-125.488-126.5s56.294-126.5,125.488-126.5V2.6a22.763,22.763,0,0,1,2.73-.1,97.476,97.476,0,0,1,16.036,1.494,123.957,123.957,0,0,1,30.084,8.533c32.116,12.561,80.911,42.751,130.595,115.091a2.519,2.519,0,0,1,0,2.846c-48.9,71.2-96.923,101.453-128.6,114.3a123.659,123.659,0,0,1-36.809,10.032,90.026,90.026,0,0,1-11.295.791c-.545,0-1.014-.007-1.406-.018l-.425.009c-.3,0-.605.01-.91.01" transform="translate(-3.988)" fill="#aad27f"/>
            <path id="Trazado_201709" data-name="Trazado 201709" d="M626.7,5a95.168,95.168,0,0,1,15.622,1.46,121.4,121.4,0,0,1,29.528,8.37c33.625,13.151,81.079,43.678,129.522,114.211-47.473,69.123-94,99.821-127.486,113.4a121.441,121.441,0,0,1-36.157,9.866,87.7,87.7,0,0,1-11.018.776c-.52,0-.969-.007-1.344-.017-.466.006-.931.018-1.4.018-67.936,0-123.008-55.516-123.008-124s55.072-124,123.008-124h0S624.91,5,626.7,5m0-5c-1.516,0-2.515.055-2.94.084a126.618,126.618,0,0,0-90.28,37.783,129.738,129.738,0,0,0,0,182.434,126.616,126.616,0,0,0,90.487,37.783c.323,0,.645-.005.967-.011l.406-.006c.389.01.847.016,1.37.016a92.485,92.485,0,0,0,11.606-.811,126.32,126.32,0,0,0,37.5-10.225c20.181-8.194,40.271-20.512,59.714-36.613,24.574-20.35,48.1-46.777,69.917-78.546a5.036,5.036,0,0,0,0-5.693c-22.223-32.356-46.2-59.158-71.27-79.66C714.469,30.414,694.126,18.189,673.714,10.2A126.47,126.47,0,0,0,643.1,1.521,99.861,99.861,0,0,0,626.7,0" transform="translate(-3.968)" fill="#75b62f"/>
            <path id="Trazado_201710" data-name="Trazado 201710" d="M624.222,227.146c-53.214,0-96.506-43.642-96.506-97.285s43.292-97.284,96.506-97.284,96.507,43.641,96.507,97.284-43.292,97.285-96.507,97.285" transform="translate(-4.222)" fill="#fff"/>
            <path id="Trazado_201711" data-name="Trazado 201711" d="M624.2,35.076c51.929,0,94.027,42.437,94.027,94.785s-42.1,94.785-94.027,94.785-94.027-42.437-94.027-94.785,42.1-94.785,94.027-94.785m0-5c-54.582,0-98.987,44.763-98.987,99.785s44.4,99.785,98.987,99.785,98.987-44.764,98.987-99.785S678.783,30.076,624.2,30.076" transform="translate(-4.202)" fill="#75b62f"/>
            <path id="Trazado_201712" data-name="Trazado 201712" d="M626.7,5a95.168,95.168,0,0,1,15.622,1.46,121.4,121.4,0,0,1,29.528,8.37c33.625,13.151,81.079,43.678,129.522,114.211-47.473,69.123-94,99.821-127.486,113.4a121.441,121.441,0,0,1-36.157,9.866,87.7,87.7,0,0,1-11.018.776c-.52,0-.969-.007-1.344-.017-.466.006-.931.018-1.4.018-67.936,0-123.008-55.516-123.008-124s55.072-124,123.008-124h0S624.91,5,626.7,5m0-5c-1.516,0-2.515.055-2.94.084a126.618,126.618,0,0,0-90.28,37.783,129.738,129.738,0,0,0,0,182.434,126.616,126.616,0,0,0,90.487,37.783c.323,0,.645-.005.967-.011l.406-.006c.389.01.847.016,1.37.016a92.485,92.485,0,0,0,11.606-.811,126.32,126.32,0,0,0,37.5-10.225c20.181-8.194,40.271-20.512,59.714-36.613,24.574-20.35,48.1-46.777,69.917-78.546a5.036,5.036,0,0,0,0-5.693c-22.223-32.356-46.2-59.158-71.27-79.66C714.469,30.414,694.126,18.189,673.714,10.2A126.47,126.47,0,0,0,643.1,1.521,99.861,99.861,0,0,0,626.7,0" transform="translate(-3.968)" fill="#75b62f"/>
            <g id="Grupo_149914" data-name="Grupo 149914" transform="translate(496.992 5)" opacity="0.39" style="mix-blend-mode: multiply;isolation: isolate">
              <g id="Grupo_149913" data-name="Grupo 149913">
                <g id="Grupo_149912" data-name="Grupo 149912" clip-path="url(#clip-path-5)">
                  <path id="Trazado_201713" data-name="Trazado 201713" d="M671.892,14.83a121.359,121.359,0,0,0-29.528-8.37c-11.635-1.966-18.356-1.378-18.356-1.378v0C556.087,5.084,501.024,60.578,501,129.042h28.991c.438-51.97,42.358-93.966,94.016-93.966s93.579,42,94.017,93.966h83.388c-48.442-70.533-95.9-101.06-129.521-114.211" transform="translate(-501 -5)" fill="#ccc"/>
                </g>
              </g>
            </g>
            <path id="Trazado_201714" data-name="Trazado 201714" d="M375.988,255.584c-69.194,0-125.488-56.748-125.488-126.5s56.294-126.5,125.488-126.5V2.6a22.763,22.763,0,0,1,2.73-.1,97.476,97.476,0,0,1,16.036,1.494,123.955,123.955,0,0,1,30.084,8.533c32.116,12.561,80.911,42.751,130.595,115.091a2.519,2.519,0,0,1,0,2.846c-48.9,71.2-96.923,101.453-128.6,114.3a123.659,123.659,0,0,1-36.809,10.032,90.025,90.025,0,0,1-11.295.791c-.545,0-1.014-.007-1.406-.018l-.425.009c-.3,0-.605.01-.91.01" transform="translate(-2.004)" fill="#fb946f"/>
            <path id="Trazado_201715" data-name="Trazado 201715" d="M378.7,5a95.17,95.17,0,0,1,15.622,1.46,121.4,121.4,0,0,1,29.528,8.37c33.625,13.151,81.079,43.678,129.522,114.211-47.473,69.123-94,99.821-127.486,113.4a121.441,121.441,0,0,1-36.157,9.866,87.7,87.7,0,0,1-11.018.776c-.52,0-.969-.007-1.344-.017-.466.006-.931.018-1.4.018-67.936,0-123.008-55.516-123.008-124s55.072-124,123.008-124h0S376.91,5,378.7,5m0-5c-1.516,0-2.515.055-2.94.084a126.619,126.619,0,0,0-90.28,37.783,129.738,129.738,0,0,0,0,182.434,126.616,126.616,0,0,0,90.487,37.783c.323,0,.645-.005.967-.011l.406-.006c.389.01.847.016,1.37.016a92.484,92.484,0,0,0,11.606-.811,126.321,126.321,0,0,0,37.5-10.225c20.181-8.194,40.271-20.512,59.714-36.613,24.574-20.35,48.1-46.777,69.917-78.546a5.036,5.036,0,0,0,0-5.693c-22.223-32.356-46.2-59.158-71.27-79.66C466.469,30.414,446.126,18.189,425.714,10.2A126.473,126.473,0,0,0,395.1,1.521,99.861,99.861,0,0,0,378.7,0" transform="translate(-1.984)" fill="#f85316"/>
            <path id="Trazado_201716" data-name="Trazado 201716" d="M376.222,227.146c-53.214,0-96.506-43.642-96.506-97.285s43.292-97.284,96.506-97.284,96.507,43.641,96.507,97.284-43.292,97.285-96.507,97.285" transform="translate(-2.238)" fill="#fff"/>
            <path id="Trazado_201717" data-name="Trazado 201717" d="M376.2,35.076c51.929,0,94.027,42.437,94.027,94.785s-42.1,94.785-94.027,94.785-94.027-42.437-94.027-94.785,42.1-94.785,94.027-94.785m0-5c-54.582,0-98.987,44.763-98.987,99.785s44.4,99.785,98.987,99.785,98.987-44.764,98.987-99.785S430.783,30.076,376.2,30.076" transform="translate(-2.218)" fill="#f85316"/>
            <path id="Trazado_201718" data-name="Trazado 201718" d="M378.7,5a95.17,95.17,0,0,1,15.622,1.46,121.4,121.4,0,0,1,29.528,8.37c33.625,13.151,81.079,43.678,129.522,114.211-47.473,69.123-94,99.821-127.486,113.4a121.441,121.441,0,0,1-36.157,9.866,87.7,87.7,0,0,1-11.018.776c-.52,0-.969-.007-1.344-.017-.466.006-.931.018-1.4.018-67.936,0-123.008-55.516-123.008-124s55.072-124,123.008-124h0S376.91,5,378.7,5m0-5c-1.516,0-2.515.055-2.94.084a126.619,126.619,0,0,0-90.28,37.783,129.738,129.738,0,0,0,0,182.434,126.616,126.616,0,0,0,90.487,37.783c.323,0,.645-.005.967-.011l.406-.006c.389.01.847.016,1.37.016a92.484,92.484,0,0,0,11.606-.811,126.321,126.321,0,0,0,37.5-10.225c20.181-8.194,40.271-20.512,59.714-36.613,24.574-20.35,48.1-46.777,69.917-78.546a5.036,5.036,0,0,0,0-5.693c-22.223-32.356-46.2-59.158-71.27-79.66C466.469,30.414,446.126,18.189,425.714,10.2A126.473,126.473,0,0,0,395.1,1.521,99.861,99.861,0,0,0,378.7,0" transform="translate(-1.984)" fill="#f85316"/>
            <g id="Grupo_149917" data-name="Grupo 149917" transform="translate(250.976 5)" opacity="0.64" style="mix-blend-mode: multiply;isolation: isolate">
              <g id="Grupo_149916" data-name="Grupo 149916">
                <g id="Grupo_149915" data-name="Grupo 149915" clip-path="url(#clip-path-5)">
                  <path id="Trazado_201719" data-name="Trazado 201719" d="M423.892,14.83a121.359,121.359,0,0,0-29.528-8.37c-11.635-1.966-18.356-1.378-18.356-1.378v0C308.087,5.084,253.024,60.578,253,129.042h28.991c.437-51.97,42.358-93.966,94.016-93.966s93.579,42,94.017,93.966h83.389c-48.442-70.533-95.9-101.06-129.521-114.211" transform="translate(-253 -5)" fill="#ccc"/>
                </g>
              </g>
            </g>
            <path id="Trazado_201720" data-name="Trazado 201720" d="M127.988,255.584C58.794,255.584,2.5,198.836,2.5,129.084S58.794,2.584,127.988,2.584V2.6a22.763,22.763,0,0,1,2.73-.1,97.477,97.477,0,0,1,16.036,1.494,123.955,123.955,0,0,1,30.084,8.533c32.116,12.561,80.911,42.751,130.595,115.091a2.519,2.519,0,0,1,0,2.846c-48.9,71.2-96.923,101.453-128.6,114.3a123.659,123.659,0,0,1-36.809,10.032,90.025,90.025,0,0,1-11.295.791c-.545,0-1.014-.007-1.406-.018l-.425.009c-.3,0-.605.01-.91.01" transform="translate(-0.02)" fill="#b1b1e6"/>
            <path id="Trazado_201721" data-name="Trazado 201721" d="M130.7,5a95.17,95.17,0,0,1,15.622,1.46,121.4,121.4,0,0,1,29.528,8.37c33.625,13.151,81.079,43.678,129.521,114.211-47.473,69.123-94,99.821-127.486,113.4a121.441,121.441,0,0,1-36.157,9.866,87.7,87.7,0,0,1-11.018.776c-.52,0-.969-.007-1.344-.017-.466.006-.932.018-1.4.018-67.936,0-123.008-55.516-123.008-124s55.072-124,123.008-124h0S128.91,5,130.7,5m0-5c-1.516,0-2.515.055-2.94.084a126.619,126.619,0,0,0-90.28,37.783,129.738,129.738,0,0,0,0,182.434,126.616,126.616,0,0,0,90.487,37.783c.323,0,.645-.005.967-.011l.406-.006c.389.01.847.016,1.37.016a92.483,92.483,0,0,0,11.606-.811,126.321,126.321,0,0,0,37.5-10.225c20.181-8.194,40.271-20.512,59.714-36.613,24.574-20.35,48.1-46.777,69.917-78.546a5.036,5.036,0,0,0,0-5.693c-22.223-32.356-46.2-59.158-71.27-79.66C218.469,30.414,198.126,18.189,177.714,10.2A126.473,126.473,0,0,0,147.1,1.521,99.86,99.86,0,0,0,130.7,0" fill="#3d46c2"/>
            <path id="Trazado_201722" data-name="Trazado 201722" d="M128.222,227.146c-53.214,0-96.506-43.642-96.506-97.285s43.292-97.284,96.506-97.284,96.507,43.641,96.507,97.284-43.292,97.285-96.507,97.285" transform="translate(-0.254)" fill="#fff"/>
            <path id="Trazado_201723" data-name="Trazado 201723" d="M128.2,35.076c51.929,0,94.027,42.437,94.027,94.785s-42.1,94.785-94.027,94.785-94.027-42.437-94.027-94.785,42.1-94.785,94.027-94.785m0-5c-54.582,0-98.987,44.763-98.987,99.785s44.4,99.785,98.987,99.785,98.987-44.764,98.987-99.785S182.783,30.076,128.2,30.076" transform="translate(-0.234)" fill="#3d46c2"/>
            <path id="Trazado_201724" data-name="Trazado 201724" d="M130.7,5a95.17,95.17,0,0,1,15.622,1.46,121.4,121.4,0,0,1,29.528,8.37c33.625,13.151,81.079,43.678,129.521,114.211-47.473,69.123-94,99.821-127.486,113.4a121.441,121.441,0,0,1-36.157,9.866,87.7,87.7,0,0,1-11.018.776c-.52,0-.969-.007-1.344-.017-.466.006-.932.018-1.4.018-67.936,0-123.008-55.516-123.008-124s55.072-124,123.008-124h0S128.91,5,130.7,5m0-5c-1.516,0-2.515.055-2.94.084a126.619,126.619,0,0,0-90.28,37.783,129.738,129.738,0,0,0,0,182.434,126.616,126.616,0,0,0,90.487,37.783c.323,0,.645-.005.967-.011l.406-.006c.389.01.847.016,1.37.016a92.483,92.483,0,0,0,11.606-.811,126.321,126.321,0,0,0,37.5-10.225c20.181-8.194,40.271-20.512,59.714-36.613,24.574-20.35,48.1-46.777,69.917-78.546a5.036,5.036,0,0,0,0-5.693c-22.223-32.356-46.2-59.158-71.27-79.66C218.469,30.414,198.126,18.189,177.714,10.2A126.473,126.473,0,0,0,147.1,1.521,99.86,99.86,0,0,0,130.7,0" fill="#3d46c2"/>
            <g id="Grupo_149920" data-name="Grupo 149920" transform="translate(4.961 5)" opacity="0.64" style="mix-blend-mode: multiply;isolation: isolate">
              <g id="Grupo_149919" data-name="Grupo 149919">
                <g id="Grupo_149918" data-name="Grupo 149918" clip-path="url(#clip-path-5)">
                  <path id="Trazado_201725" data-name="Trazado 201725" d="M175.892,14.83a121.36,121.36,0,0,0-29.528-8.37c-11.635-1.966-18.356-1.378-18.356-1.378v0C60.087,5.084,5.024,60.578,5,129.042H33.992c.436-51.97,42.358-93.966,94.016-93.966s93.579,42,94.017,93.966h83.388c-48.442-70.533-95.9-101.06-129.521-114.211" transform="translate(-5.001 -5)" fill="#ccc"/>
                </g>
              </g>
            </g>
            <path id="Trazado_201726" data-name="Trazado 201726" d="M87.612,279.914a18.629,18.629,0,0,1,0-37.257H169.43a18.629,18.629,0,0,1,0,37.257Z" transform="translate(-0.553)" fill="#fff"/>
            <path id="Trazado_201727" data-name="Trazado 201727" d="M169.41,245.158a16.129,16.129,0,0,1,0,32.257H87.592a16.129,16.129,0,0,1,0-32.257Zm0-5H87.592a21.129,21.129,0,0,0,0,42.257H169.41a21.129,21.129,0,0,0,0-42.257" transform="translate(-0.533)" fill="#3d46c2"/>
            <path id="Trazado_201728" data-name="Trazado 201728" d="M335.612,279.914a18.629,18.629,0,0,1,0-37.257H417.43a18.629,18.629,0,0,1,0,37.257Z" transform="translate(-2.537)" fill="#fff"/>
            <path id="Trazado_201729" data-name="Trazado 201729" d="M417.41,245.158a16.129,16.129,0,0,1,0,32.257H335.592a16.129,16.129,0,0,1,0-32.257Zm0-5H335.592a21.129,21.129,0,0,0,0,42.257H417.41a21.129,21.129,0,0,0,0-42.257" transform="translate(-2.517)" fill="#f85316"/>
            <path id="Trazado_201730" data-name="Trazado 201730" d="M583.612,279.914a18.629,18.629,0,0,1,0-37.257H665.43a18.629,18.629,0,0,1,0,37.257Z" transform="translate(-4.521)" fill="#fff"/>
            <path id="Trazado_201731" data-name="Trazado 201731" d="M665.41,245.158a16.129,16.129,0,0,1,0,32.257H583.592a16.129,16.129,0,0,1,0-32.257Zm0-5H583.592a21.129,21.129,0,0,0,0,42.257H665.41a21.129,21.129,0,0,0,0-42.257" transform="translate(-4.501)" fill="#75b62f"/>
            <path id="Trazado_201732" data-name="Trazado 201732" d="M831.612,279.914a18.629,18.629,0,0,1,0-37.257H913.43a18.629,18.629,0,0,1,0,37.257Z" transform="translate(-6.505)" fill="#fff"/>
            <path id="Trazado_201733" data-name="Trazado 201733" d="M913.41,245.158a16.129,16.129,0,0,1,0,32.257H831.592a16.129,16.129,0,0,1,0-32.257Zm0-5H831.592a21.129,21.129,0,0,0,0,42.257H913.41a21.129,21.129,0,0,0,0-42.257" transform="translate(-6.485)" fill="#dce736"/>
            <path id="Trazado_201734" data-name="Trazado 201734" d="M1079.612,279.914a18.629,18.629,0,0,1,0-37.257h81.818a18.629,18.629,0,0,1,0,37.257Z" transform="translate(-8.489)" fill="#fff"/>
            <path id="Trazado_201735" data-name="Trazado 201735" d="M1161.41,245.158a16.129,16.129,0,0,1,0,32.257h-81.818a16.129,16.129,0,0,1,0-32.257Zm0-5h-81.818a21.129,21.129,0,0,0,0,42.257h81.818a21.129,21.129,0,0,0,0-42.257" transform="translate(-8.469)" fill="#b3b3b3"/>
          </g>
        </g>
      </g>
    </g>
    <path id="Trazado_204730" data-name="Trazado 204730" d="M16.729,15.827l2.9-9.624h2.936L18.109,19H15.358L10.919,6.2h2.927ZM29.113,19a2.821,2.821,0,0,1-.255-.853,3.073,3.073,0,0,1-2.4,1.028,3.376,3.376,0,0,1-2.316-.809,2.6,2.6,0,0,1-.918-2.039,2.687,2.687,0,0,1,1.121-2.32,5.529,5.529,0,0,1,3.239-.817h1.169v-.545a1.567,1.567,0,0,0-.338-1.055,1.331,1.331,0,0,0-1.068-.4,1.513,1.513,0,0,0-1.006.308,1.045,1.045,0,0,0-.365.844h-2.54a2.551,2.551,0,0,1,.51-1.529,3.37,3.37,0,0,1,1.441-1.1,5.253,5.253,0,0,1,2.092-.4,4.15,4.15,0,0,1,2.791.883A3.09,3.09,0,0,1,31.3,12.681V16.8a4.546,4.546,0,0,0,.378,2.048V19Zm-2.1-1.767a2.188,2.188,0,0,0,1.037-.25,1.645,1.645,0,0,0,.7-.672V14.676H27.8q-1.907,0-2.03,1.318l-.009.149a1.017,1.017,0,0,0,.334.782A1.3,1.3,0,0,0,27.012,17.233ZM27.979,5.5h2.769L28.313,8.225H26.248ZM35.933,19H33.384V5.5h2.549Zm4.772,0H38.157V9.49h2.549Zm-2.7-11.971a1.251,1.251,0,0,1,.382-.94,1.648,1.648,0,0,1,2.079,0,1.244,1.244,0,0,1,.387.94,1.247,1.247,0,0,1-.391.949,1.629,1.629,0,0,1-2.065,0A1.247,1.247,0,0,1,38.007,7.029ZM42.4,14.175a5.731,5.731,0,0,1,1-3.542,3.237,3.237,0,0,1,2.729-1.318,2.913,2.913,0,0,1,2.294,1.037V5.5h2.549V19H48.677l-.123-1.011a2.989,2.989,0,0,1-2.443,1.187,3.228,3.228,0,0,1-2.694-1.323A5.916,5.916,0,0,1,42.4,14.175Zm2.54.189a3.754,3.754,0,0,0,.466,2.051,1.517,1.517,0,0,0,1.354.713,1.7,1.7,0,0,0,1.661-.995V12.375a1.675,1.675,0,0,0-1.644-.995Q44.942,11.38,44.942,14.364Zm7.6-.207a5.64,5.64,0,0,1,.545-2.522,3.989,3.989,0,0,1,1.569-1.714,4.577,4.577,0,0,1,2.377-.606,4.33,4.33,0,0,1,3.142,1.178,4.727,4.727,0,0,1,1.358,3.2l.018.65a4.97,4.97,0,0,1-1.222,3.511,4.735,4.735,0,0,1-6.561,0,5.058,5.058,0,0,1-1.226-3.586Zm2.54.18a3.555,3.555,0,0,0,.51,2.073,1.831,1.831,0,0,0,2.9.009,3.89,3.89,0,0,0,.519-2.267,3.519,3.519,0,0,0-.519-2.06,1.686,1.686,0,0,0-1.459-.731,1.658,1.658,0,0,0-1.441.726A3.955,3.955,0,0,0,55.084,14.338Z" transform="translate(271 1062.414)" fill="#12263f"/>
    <path id="Trazado_204731" data-name="Trazado 204731" d="M19.052,14.737a4.528,4.528,0,0,1-1.525,3.252A5.355,5.355,0,0,1,13.9,19.176a4.816,4.816,0,0,1-3.872-1.657,6.793,6.793,0,0,1-1.411-4.548v-.782a7.671,7.671,0,0,1,.65-3.252,4.874,4.874,0,0,1,1.859-2.158,5.207,5.207,0,0,1,2.808-.751A5.217,5.217,0,0,1,17.5,7.214a4.866,4.866,0,0,1,1.564,3.331H16.433a2.673,2.673,0,0,0-.69-1.8,2.555,2.555,0,0,0-1.806-.558,2.24,2.24,0,0,0-1.973.945,5.3,5.3,0,0,0-.672,2.931v.967a5.667,5.667,0,0,0,.628,3.032,2.2,2.2,0,0,0,1.982.958,2.6,2.6,0,0,0,1.824-.558,2.521,2.521,0,0,0,.69-1.727Zm1.169-.58a5.64,5.64,0,0,1,.545-2.522,3.989,3.989,0,0,1,1.569-1.714,4.577,4.577,0,0,1,2.377-.606,4.33,4.33,0,0,1,3.142,1.178,4.727,4.727,0,0,1,1.358,3.2l.018.65a4.97,4.97,0,0,1-1.222,3.511,4.247,4.247,0,0,1-3.278,1.323,4.268,4.268,0,0,1-3.283-1.318,5.058,5.058,0,0,1-1.226-3.586Zm2.54.18a3.555,3.555,0,0,0,.51,2.073,1.831,1.831,0,0,0,2.9.009,3.89,3.89,0,0,0,.519-2.267,3.519,3.519,0,0,0-.519-2.06,1.686,1.686,0,0,0-1.459-.731,1.658,1.658,0,0,0-1.441.726A3.955,3.955,0,0,0,22.761,14.338ZM33.132,9.49l.079,1.1a3.32,3.32,0,0,1,2.733-1.274,2.759,2.759,0,0,1,2.25.888,4.142,4.142,0,0,1,.756,2.654V19H36.41V12.918a1.648,1.648,0,0,0-.352-1.173,1.574,1.574,0,0,0-1.169-.365,1.747,1.747,0,0,0-1.608.914V19h-2.54V9.49ZM41.49,19V11.354H40.075V9.49H41.49V9.051a3.566,3.566,0,0,1,1.1-2.764,4.438,4.438,0,0,1,3.063-.971,10.16,10.16,0,0,1,2.883.519l-.369,2.1a11.248,11.248,0,0,0-1.336-.33,6.564,6.564,0,0,0-1.02-.075q-1.775,0-1.775,1.573V9.49h1.872v1.863H44.039V19Zm8.235,0H47.177V9.49h2.549Zm7.611,0a2.821,2.821,0,0,1-.255-.853,3.073,3.073,0,0,1-2.4,1.028,3.376,3.376,0,0,1-2.316-.809,2.6,2.6,0,0,1-.918-2.039,2.687,2.687,0,0,1,1.121-2.32,5.529,5.529,0,0,1,3.239-.817h1.169v-.545a1.567,1.567,0,0,0-.338-1.055,1.331,1.331,0,0,0-1.068-.4,1.513,1.513,0,0,0-1.006.308,1.045,1.045,0,0,0-.365.844h-2.54a2.551,2.551,0,0,1,.51-1.529,3.37,3.37,0,0,1,1.441-1.1,5.253,5.253,0,0,1,2.092-.4,4.15,4.15,0,0,1,2.791.883,3.09,3.09,0,0,1,1.033,2.483V16.8a4.546,4.546,0,0,0,.378,2.048V19Zm-2.1-1.767a2.188,2.188,0,0,0,1.037-.25,1.645,1.645,0,0,0,.7-.672V14.676h-.949q-1.907,0-2.03,1.318l-.009.149a1.017,1.017,0,0,0,.334.782A1.3,1.3,0,0,0,55.236,17.233Zm14.81-2.9A5.758,5.758,0,0,1,69.07,17.9a3.231,3.231,0,0,1-2.725,1.279,2.969,2.969,0,0,1-2.47-1.187L63.762,19H61.477V5.5h2.54v4.843a2.893,2.893,0,0,1,2.312-1.028,3.258,3.258,0,0,1,2.729,1.279,5.767,5.767,0,0,1,.989,3.6Zm-2.54-.185a3.783,3.783,0,0,0-.457-2.1,1.545,1.545,0,0,0-1.362-.664,1.676,1.676,0,0,0-1.67.993v3.753a1.7,1.7,0,0,0,1.688,1,1.568,1.568,0,0,0,1.617-1.213A6.257,6.257,0,0,0,67.506,14.148ZM74.291,19H71.742V5.5h2.549Zm6.469.176a4.668,4.668,0,0,1-3.406-1.283,4.561,4.561,0,0,1-1.314-3.419v-.246a5.745,5.745,0,0,1,.554-2.562,4.064,4.064,0,0,1,1.569-1.74,4.4,4.4,0,0,1,2.316-.611,3.947,3.947,0,0,1,3.072,1.23,5,5,0,0,1,1.121,3.489v1.037H78.615a2.36,2.36,0,0,0,.743,1.494,2.245,2.245,0,0,0,1.569.563,2.742,2.742,0,0,0,2.294-1.063l1.248,1.4a3.813,3.813,0,0,1-1.547,1.261A5.075,5.075,0,0,1,80.76,19.176Zm-.29-7.813a1.587,1.587,0,0,0-1.226.512,2.651,2.651,0,0,0-.6,1.466h3.533v-.2a1.891,1.891,0,0,0-.457-1.311A1.638,1.638,0,0,0,80.47,11.362Z" transform="translate(507 1062.414)" fill="#12263f"/>
    <path id="Trazado_204732" data-name="Trazado 204732" d="M24.672,12.892A7.725,7.725,0,0,1,24,16.205a5.03,5.03,0,0,1-1.912,2.2,5.649,5.649,0,0,1-5.691.009,5.08,5.08,0,0,1-1.934-2.184,7.5,7.5,0,0,1-.694-3.265v-.633A7.685,7.685,0,0,1,14.455,9,5.072,5.072,0,0,1,16.38,6.8a5.64,5.64,0,0,1,5.687,0A5.072,5.072,0,0,1,23.991,9a7.663,7.663,0,0,1,.681,3.318ZM22,12.312a5.385,5.385,0,0,0-.721-3.059,2.349,2.349,0,0,0-2.057-1.046A2.349,2.349,0,0,0,17.175,9.24a5.324,5.324,0,0,0-.729,3.028v.624a5.453,5.453,0,0,0,.721,3.041,2.342,2.342,0,0,0,2.074,1.081,2.321,2.321,0,0,0,2.039-1.042A5.421,5.421,0,0,0,22,12.936Zm12.99,2.021a5.758,5.758,0,0,1-.976,3.564,3.231,3.231,0,0,1-2.725,1.279,2.969,2.969,0,0,1-2.47-1.187L28.707,19H26.421V5.5h2.54v4.843a2.893,2.893,0,0,1,2.312-1.028A3.258,3.258,0,0,1,34,10.593a5.767,5.767,0,0,1,.989,3.6Zm-2.54-.185a3.783,3.783,0,0,0-.457-2.1,1.545,1.545,0,0,0-1.362-.664,1.676,1.676,0,0,0-1.67.993v3.753a1.7,1.7,0,0,0,1.688,1,1.568,1.568,0,0,0,1.617-1.213A6.257,6.257,0,0,0,32.451,14.148ZM39.245,9.49V19.519a3.4,3.4,0,0,1-.835,2.448A3.174,3.174,0,0,1,36,22.841a5.165,5.165,0,0,1-1.257-.149V20.679a4.768,4.768,0,0,0,.8.079q1.151,0,1.151-1.222V9.49ZM36.494,7.029a1.251,1.251,0,0,1,.382-.94,1.654,1.654,0,0,1,2.083,0,1.251,1.251,0,0,1,.382.94,1.247,1.247,0,0,1-.391.949,1.629,1.629,0,0,1-2.065,0A1.247,1.247,0,0,1,36.494,7.029Zm9.114,12.146A4.668,4.668,0,0,1,42.2,17.893a4.561,4.561,0,0,1-1.314-3.419v-.246a5.745,5.745,0,0,1,.554-2.562,4.064,4.064,0,0,1,1.569-1.74,4.4,4.4,0,0,1,2.316-.611,3.947,3.947,0,0,1,3.072,1.23,5,5,0,0,1,1.121,3.489v1.037H43.463a2.36,2.36,0,0,0,.743,1.494,2.245,2.245,0,0,0,1.569.563,2.742,2.742,0,0,0,2.294-1.063l1.248,1.4a3.813,3.813,0,0,1-1.547,1.261A5.075,5.075,0,0,1,45.608,19.176Zm-.29-7.813a1.587,1.587,0,0,0-1.226.512,2.651,2.651,0,0,0-.6,1.466h3.533v-.2a1.891,1.891,0,0,0-.457-1.311A1.638,1.638,0,0,0,45.318,11.362ZM54,7.152V9.49h1.626v1.863H54V16.1a1.133,1.133,0,0,0,.2.756,1.015,1.015,0,0,0,.773.229,4.051,4.051,0,0,0,.747-.062v1.925a5.229,5.229,0,0,1-1.538.229,2.425,2.425,0,0,1-2.725-2.7V11.354H50.073V9.49h1.389V7.152ZM59.723,19H57.174V9.49h2.549Zm-2.7-11.971a1.251,1.251,0,0,1,.382-.94,1.648,1.648,0,0,1,2.079,0,1.244,1.244,0,0,1,.387.94,1.247,1.247,0,0,1-.391.949,1.629,1.629,0,0,1-2.065,0A1.247,1.247,0,0,1,57.025,7.029Zm8.35,8.868L67.141,9.49H69.8L66.587,19H64.162L60.954,9.49h2.654Zm5.01-1.74a5.64,5.64,0,0,1,.545-2.522A3.989,3.989,0,0,1,72.5,9.921a4.577,4.577,0,0,1,2.377-.606,4.33,4.33,0,0,1,3.142,1.178,4.727,4.727,0,0,1,1.358,3.2l.018.65a4.97,4.97,0,0,1-1.222,3.511,4.735,4.735,0,0,1-6.561,0,5.058,5.058,0,0,1-1.226-3.586Zm2.54.18a3.555,3.555,0,0,0,.51,2.073,1.831,1.831,0,0,0,2.9.009,3.89,3.89,0,0,0,.519-2.267,3.519,3.519,0,0,0-.519-2.06,1.686,1.686,0,0,0-1.459-.731,1.658,1.658,0,0,0-1.441.726A3.955,3.955,0,0,0,72.924,14.338Z" transform="translate(753.5 1062.414)" fill="#12263f"/>
    <path id="Trazado_204733" data-name="Trazado 204733" d="M26.092,16.363H21.469L20.59,19h-2.8L22.55,6.2h2.443L29.783,19h-2.8Zm-3.911-2.136h3.2l-1.608-4.79ZM33.193,9.49l.079,1.063a3.342,3.342,0,0,1,2.733-1.239,2.536,2.536,0,0,1,2.522,1.45,3.265,3.265,0,0,1,2.856-1.45,2.836,2.836,0,0,1,2.3.9,4.141,4.141,0,0,1,.756,2.711V19H41.895V12.936a1.811,1.811,0,0,0-.316-1.182,1.4,1.4,0,0,0-1.116-.374,1.585,1.585,0,0,0-1.582,1.09L38.889,19h-2.54V12.944a1.789,1.789,0,0,0-.325-1.2,1.416,1.416,0,0,0-1.107-.369,1.646,1.646,0,0,0-1.564.9V19h-2.54V9.49Zm21.762,4.843a5.7,5.7,0,0,1-1,3.52,3.2,3.2,0,0,1-2.694,1.323,2.963,2.963,0,0,1-2.329-1v4.482h-2.54V9.49H48.75l.088.932a2.985,2.985,0,0,1,2.408-1.107,3.22,3.22,0,0,1,2.733,1.3,5.858,5.858,0,0,1,.976,3.586Zm-2.54-.185a3.743,3.743,0,0,0-.47-2.048,1.532,1.532,0,0,0-1.367-.721,1.663,1.663,0,0,0-1.644.914v3.894a1.692,1.692,0,0,0,1.661.94Q52.415,17.128,52.415,14.148ZM59.209,19H56.66V5.5h2.549Zm4.772,0H61.433V9.49h2.549Zm-2.7-11.971a1.251,1.251,0,0,1,.382-.94,1.648,1.648,0,0,1,2.079,0,1.244,1.244,0,0,1,.387.94,1.247,1.247,0,0,1-.391.949,1.629,1.629,0,0,1-2.065,0A1.247,1.247,0,0,1,61.283,7.029Zm4.395,7.128a5.64,5.64,0,0,1,.545-2.522,3.989,3.989,0,0,1,1.569-1.714,4.577,4.577,0,0,1,2.377-.606,4.33,4.33,0,0,1,3.142,1.178,4.727,4.727,0,0,1,1.358,3.2l.018.65a4.97,4.97,0,0,1-1.222,3.511,4.735,4.735,0,0,1-6.561,0,5.058,5.058,0,0,1-1.226-3.586Zm2.54.18a3.555,3.555,0,0,0,.51,2.073,1.831,1.831,0,0,0,2.9.009,3.89,3.89,0,0,0,.519-2.267,3.519,3.519,0,0,0-.519-2.06,1.686,1.686,0,0,0-1.459-.731,1.658,1.658,0,0,0-1.441.726A3.955,3.955,0,0,0,68.218,14.338Z" transform="translate(1000 1062.414)" fill="#12263f"/>
    <path id="Trazado_204734" data-name="Trazado 204734" d="M16.463,14.491V19H13.827V6.2h4.992a5.776,5.776,0,0,1,2.536.527,3.886,3.886,0,0,1,1.683,1.5,4.178,4.178,0,0,1,.589,2.21,3.674,3.674,0,0,1-1.288,2.966,5.363,5.363,0,0,1-3.564,1.085Zm0-2.136h2.355a2.316,2.316,0,0,0,1.6-.492,1.79,1.79,0,0,0,.549-1.406,2.111,2.111,0,0,0-.554-1.521,2.068,2.068,0,0,0-1.529-.6H16.463Zm14.15-.483a6.9,6.9,0,0,0-.914-.07,1.86,1.86,0,0,0-1.89.976V19H25.27V9.49h2.4l.07,1.134a2.354,2.354,0,0,1,2.118-1.31,2.662,2.662,0,0,1,.791.114ZM37.346,19a2.821,2.821,0,0,1-.255-.853,3.073,3.073,0,0,1-2.4,1.028,3.376,3.376,0,0,1-2.316-.809,2.6,2.6,0,0,1-.918-2.039,2.687,2.687,0,0,1,1.121-2.32,5.529,5.529,0,0,1,3.239-.817h1.169v-.545a1.567,1.567,0,0,0-.338-1.055,1.331,1.331,0,0,0-1.068-.4,1.513,1.513,0,0,0-1.006.308,1.045,1.045,0,0,0-.365.844h-2.54a2.551,2.551,0,0,1,.51-1.529,3.37,3.37,0,0,1,1.441-1.1,5.253,5.253,0,0,1,2.092-.4A4.15,4.15,0,0,1,38.5,10.2a3.09,3.09,0,0,1,1.033,2.483V16.8a4.546,4.546,0,0,0,.378,2.048V19Zm-2.1-1.767a2.188,2.188,0,0,0,1.037-.25,1.645,1.645,0,0,0,.7-.672V14.676h-.949q-1.907,0-2.03,1.318L34,16.144a1.017,1.017,0,0,0,.334.782A1.3,1.3,0,0,0,35.246,17.233ZM36.212,5.5h2.769L36.546,8.225H34.481Zm9.229,11.628a1.666,1.666,0,0,0,1.143-.387,1.355,1.355,0,0,0,.457-1.028h2.382a3.258,3.258,0,0,1-.527,1.771,3.48,3.48,0,0,1-1.419,1.248,4.442,4.442,0,0,1-1.991.444,4.129,4.129,0,0,1-3.217-1.3A5.13,5.13,0,0,1,41.09,14.3v-.167a5.071,5.071,0,0,1,1.169-3.507,4.08,4.08,0,0,1,3.208-1.31,4,4,0,0,1,2.861,1.015,3.594,3.594,0,0,1,1.094,2.7H47.041a1.745,1.745,0,0,0-.457-1.206,1.7,1.7,0,0,0-2.5.183,3.749,3.749,0,0,0-.453,2.1v.264a3.8,3.8,0,0,0,.448,2.113A1.549,1.549,0,0,0,45.441,17.128Zm8.473-9.976V9.49H55.54v1.863H53.914V16.1a1.133,1.133,0,0,0,.2.756,1.015,1.015,0,0,0,.773.229,4.051,4.051,0,0,0,.747-.062v1.925a5.229,5.229,0,0,1-1.538.229,2.425,2.425,0,0,1-2.725-2.7V11.354H49.985V9.49h1.389V7.152ZM59.635,19H57.086V9.49h2.549Zm-2.7-11.971a1.251,1.251,0,0,1,.382-.94,1.648,1.648,0,0,1,2.079,0,1.244,1.244,0,0,1,.387.94,1.247,1.247,0,0,1-.391.949,1.629,1.629,0,0,1-2.065,0A1.247,1.247,0,0,1,56.937,7.029Zm8.745,10.1a1.666,1.666,0,0,0,1.143-.387,1.355,1.355,0,0,0,.457-1.028h2.382a3.258,3.258,0,0,1-.527,1.771,3.48,3.48,0,0,1-1.419,1.248,4.442,4.442,0,0,1-1.991.444,4.129,4.129,0,0,1-3.217-1.3A5.13,5.13,0,0,1,61.332,14.3v-.167A5.071,5.071,0,0,1,62.5,10.624a4.08,4.08,0,0,1,3.208-1.31,4,4,0,0,1,2.861,1.015,3.594,3.594,0,0,1,1.094,2.7H67.282a1.745,1.745,0,0,0-.457-1.206,1.7,1.7,0,0,0-2.5.183,3.749,3.749,0,0,0-.453,2.1v.264a3.8,3.8,0,0,0,.448,2.113A1.549,1.549,0,0,0,65.682,17.128Zm5.036-2.971a5.64,5.64,0,0,1,.545-2.522,3.989,3.989,0,0,1,1.569-1.714,4.577,4.577,0,0,1,2.377-.606,4.33,4.33,0,0,1,3.142,1.178,4.727,4.727,0,0,1,1.358,3.2l.018.65a4.97,4.97,0,0,1-1.222,3.511,4.735,4.735,0,0,1-6.561,0,5.058,5.058,0,0,1-1.226-3.586Zm2.54.18a3.555,3.555,0,0,0,.51,2.073,1.831,1.831,0,0,0,2.9.009,3.89,3.89,0,0,0,.519-2.267,3.519,3.519,0,0,0-.519-2.06,1.686,1.686,0,0,0-1.459-.731,1.658,1.658,0,0,0-1.441.726A3.955,3.955,0,0,0,73.258,14.338Z" transform="translate(1242 1062.414)" fill="#12263f"/>
    <g id="Grupo_150232" data-name="Grupo 150232" transform="translate(633.724 12848.424)">
      <rect id="Rectángulo_295952" data-name="Rectángulo 295952" width="7.284" height="10.335" transform="translate(-288.75 -11887.824) rotate(-44.999)" fill="#e6e2e6"/>
      <rect id="Rectángulo_295953" data-name="Rectángulo 295953" width="7.284" height="10.335" transform="translate(-288.75 -11887.824) rotate(-44.999)" fill="#dee9f0"/>
      <rect id="Rectángulo_295954" data-name="Rectángulo 295954" width="3.467" height="10.335" transform="matrix(0.707, -0.707, 0.707, 0.707, -288.75, -11887.823)" fill="#e2cbe2"/>
      <path id="Trazado_203612" data-name="Trazado 203612" d="M70.82,10.727A2.725,2.725,0,0,1,73.545,8H119.4l16.882,16.882V95.375a2.725,2.725,0,0,1-2.725,2.725H73.545a2.725,2.725,0,0,1-2.725-2.725Z" transform="translate(-426.094 -11960.977)" fill="#fff"/>
      <path id="Trazado_203613" data-name="Trazado 203613" d="M133.558,473.727H73.545A2.725,2.725,0,0,1,70.82,471v3.27A2.725,2.725,0,0,0,73.545,477h60.013a2.725,2.725,0,0,0,2.725-2.725V471a2.725,2.725,0,0,1-2.725,2.725" transform="translate(-426.094 -12339.874)" fill="#ecdaec"/>
      <path id="Trazado_203614" data-name="Trazado 203614" d="M340.989,24.884h14.157L338.264,8V22.159a2.725,2.725,0,0,0,2.725,2.725" transform="translate(-644.958 -11960.977)" fill="#e2cbe2"/>
      <path id="Trazado_203615" data-name="Trazado 203615" d="M340.989,24.884h14.157L338.264,8V22.159a2.725,2.725,0,0,0,2.725,2.725" transform="translate(-644.958 -11960.977)" fill="#dee9f0"/>
      <path id="Trazado_203616" data-name="Trazado 203616" d="M274.884,153.455a22.612,22.612,0,1,1-22.612,22.612,22.612,22.612,0,0,1,22.612-22.612" transform="translate(-574.586 -12080.008)" fill="#dee9f0"/>
      <path id="Trazado_203617" data-name="Trazado 203617" d="M290.875,283.294a22.613,22.613,0,0,1-38.543-14.354,22.612,22.612,0,1,0,45.107,0,22.524,22.524,0,0,1-6.564,14.354" transform="translate(-574.587 -12174.517)" fill="#dab9d8"/>
      <path id="Trazado_203618" data-name="Trazado 203618" d="M303,187.807a16.372,16.372,0,1,1-16.372,16.372A16.372,16.372,0,0,1,303,187.807" transform="translate(-602.698 -12108.12)" fill="#dce736"/>
      <path id="Trazado_203619" data-name="Trazado 203619" d="M314.581,278.881a16.371,16.371,0,0,1-27.866-9.942,16.371,16.371,0,1,0,32.579,0,16.3,16.3,0,0,1-4.712,9.942" transform="translate(-602.705 -12174.516)" fill="#f9cf58"/>
      <path id="Trazado_203620" data-name="Trazado 203620" d="M338.868,256.307a2.853,2.853,0,0,1-2-.81l-3.757-3.653a2.863,2.863,0,1,1,3.992-4.1l1.707,1.66,5.13-5.26a2.863,2.863,0,0,1,4.1,4l-7.126,7.307A2.853,2.853,0,0,1,338.868,256.307Z" transform="translate(-640.035 -12153.513)" fill="#75b62f"/>
      <path id="Trazado_203621" data-name="Trazado 203621" d="M478.949,372.948l-7.184,7.184,8.6,8.6a5.08,5.08,0,0,0,7.184-7.184Z" transform="translate(-754.208 -12259.631)" fill="#f85316"/>
      <path id="Trazado_203622" data-name="Trazado 203622" d="M482.811,407.587,474.218,399l-2.452,2.452,8.595,8.6a5.083,5.083,0,0,0,8.2-1.446,5.081,5.081,0,0,1-5.748-1.009" transform="translate(-754.209 -12280.946)" fill="#fc2b3a"/>
      <path id="Trazado_203623" data-name="Trazado 203623" d="M129.75,155.371h-5.96a1.685,1.685,0,0,1-1.685-1.685v-5.96a1.685,1.685,0,0,1,1.685-1.685h5.96a1.685,1.685,0,0,1,1.685,1.685v5.96a1.685,1.685,0,0,1-1.685,1.685" transform="translate(-468.063 -12073.94)" fill="#3d46c2"/>
      <path id="Trazado_203624" data-name="Trazado 203624" d="M129.75,260.533h-5.96a1.685,1.685,0,0,1-1.685-1.685v-5.96a1.685,1.685,0,0,1,1.685-1.685h5.96a1.685,1.685,0,0,1,1.685,1.685v5.96a1.685,1.685,0,0,1-1.685,1.685" transform="translate(-468.063 -12160.001)" fill="#3d46c2"/>
      <path id="Trazado_203625" data-name="Trazado 203625" d="M129.75,367.83h-5.96a1.685,1.685,0,0,1-1.685-1.685v-5.96a1.685,1.685,0,0,1,1.685-1.685h5.96a1.685,1.685,0,0,1,1.685,1.685v5.96a1.685,1.685,0,0,1-1.685,1.685" transform="translate(-468.063 -12247.807)" fill="#3d46c2"/>
      <path id="Trazado_203626" data-name="Trazado 203626" d="M332.8,251.532a4.2,4.2,0,0,0,3.031-1.278l7.141-7.321a4.234,4.234,0,0,0-6.062-5.911l-4.189,4.295-.734-.714a4.234,4.234,0,1,0-5.9,6.07l3.765,3.661a4.212,4.212,0,0,0,2.951,1.2m-4.842-8.942a1.505,1.505,0,0,1,2.126-.03l1.711,1.664a1.365,1.365,0,0,0,1.929-.026l5.141-5.27a1.5,1.5,0,1,1,2.153,2.1l-7.141,7.321a1.511,1.511,0,0,1-2.125.028l-3.765-3.661A1.505,1.505,0,0,1,327.961,242.59Z" transform="translate(-633.945 -12147.352)"/>
      <path id="Trazado_203627" data-name="Trazado 203627" d="M284.789,207.01a1.365,1.365,0,0,0-2.18,1.644,18,18,0,0,0,1.634,1.878,17.758,17.758,0,1,0-4.363-7.147,1.365,1.365,0,0,0,2.6-.83,15.053,15.053,0,1,1,3.692,6.047A15.286,15.286,0,0,1,284.789,207.01Z" transform="translate(-596.483 -12101.9)"/>
      <path id="Trazado_203628" data-name="Trazado 203628" d="M128.419,19.647v8.4a24.123,24.123,0,0,0-8.285-1.558.3.3,0,0,0-.041,0H89.613a1.365,1.365,0,1,0,0,2.73h19.114a23.928,23.928,0,0,0-5.446,3.91H89.613a1.365,1.365,0,1,0,0,2.73h11.211a23.762,23.762,0,0,0-4.48,9.76H89.613a1.365,1.365,0,1,0,0,2.73h6.332q-.094,1.067-.1,2.152,0,.889.064,1.768h-6.3a1.365,1.365,0,1,0,0,2.73h6.656a23.76,23.76,0,0,0,4.56,10.149H89.613a1.365,1.365,0,1,0,0,2.73h13.674a23.926,23.926,0,0,0,5.437,3.9H89.613a1.365,1.365,0,1,0,0,2.73h30.261a24.138,24.138,0,0,0,8.545-1.561V88.911a1.367,1.367,0,0,1-1.365,1.365H66.915a1.367,1.367,0,0,1-1.365-1.365V21.031a1.365,1.365,0,0,0-2.731,0v67.88a4.1,4.1,0,0,0,4.1,4.094h60.139a4.1,4.1,0,0,0,4.1-4.1v-17.2q.914-.485,1.792-1.054l3.314,3.313a1.377,1.377,0,0,0-.053,1.983l8.613,8.612a6.455,6.455,0,0,0,9.129-9.128l-8.613-8.612a1.366,1.366,0,0,0-1.931,0l-.053.053-3.315-3.314a23.984,23.984,0,0,0,3.817-11.546,1.365,1.365,0,0,0-2.725-.172,21.275,21.275,0,0,1-21.231,19.933h-.129A21.282,21.282,0,1,1,140.832,46.72a1.365,1.365,0,0,0,2.688-.482,24.039,24.039,0,0,0-12.371-16.955v-11a1.382,1.382,0,0,0-.4-.965L113.832.4a1.383,1.383,0,0,0-.966-.4H66.915a4.1,4.1,0,0,0-4.1,4.1V15.57a1.365,1.365,0,0,0,2.731,0V4.1a1.367,1.367,0,0,1,1.365-1.365H111.5v12.82a4.1,4.1,0,0,0,4.1,4.1m0-2.73a1.367,1.367,0,0,1-1.365-1.365V4.663l12.256,12.254Zm19.571,52.1q.874-.722,1.693-1.538t1.538-1.693l3.018,3.017-3.232,3.231Zm16.845,13.612a3.743,3.743,0,0,1-5.268,0L139.1,74.986l5.268-5.267,7.648,7.647a3.742,3.742,0,0,1,0,5.267" transform="translate(-419.547 -11954.43)"/>
      <path id="Trazado_203629" data-name="Trazado 203629" d="M117.266,150.39h5.973a3.057,3.057,0,0,0,3.054-3.053v-5.972a3.057,3.057,0,0,0-3.054-3.053h-5.973a3.057,3.057,0,0,0-3.053,3.053v5.972a3.057,3.057,0,0,0,3.053,3.053m-.323-9.025a.324.324,0,0,1,.323-.323h5.973a.324.324,0,0,1,.323.323v5.972a.324.324,0,0,1-.323.323h-5.973a.323.323,0,0,1-.323-.323Z" transform="translate(-461.605 -12067.616)"/>
      <path id="Trazado_203630" data-name="Trazado 203630" d="M114.213,252.7a3.057,3.057,0,0,0,3.053,3.053h5.973a3.057,3.057,0,0,0,3.054-3.053v-5.972a3.057,3.057,0,0,0-3.054-3.053h-5.973a3.057,3.057,0,0,0-3.053,3.053Zm2.731-5.972a.324.324,0,0,1,.323-.323h5.973a.324.324,0,0,1,.323.323V252.7a.324.324,0,0,1-.323.323h-5.973a.323.323,0,0,1-.323-.323Z" transform="translate(-461.605 -12153.844)"/>
      <path id="Trazado_203631" data-name="Trazado 203631" d="M114.213,360.212a3.057,3.057,0,0,0,3.053,3.053h5.973a3.057,3.057,0,0,0,3.054-3.053V354.24a3.057,3.057,0,0,0-3.054-3.053h-5.973a3.057,3.057,0,0,0-3.053,3.053Zm2.731-5.972a.324.324,0,0,1,.323-.323h5.973a.324.324,0,0,1,.323.323v5.972a.324.324,0,0,1-.323.323h-5.973a.323.323,0,0,1-.323-.323Z" transform="translate(-461.605 -12241.822)"/>
    </g>
    <g id="Grupo_150233" data-name="Grupo 150233" transform="translate(873.541 12689.392)">
      <path id="Trazado_203529" data-name="Trazado 203529" d="M33.987,631.258v10.993s19.9,4.145,26.89,1.622,7.8-3.964,7.8-4.6v-8.019s-20.363-9.19-34.69,0" transform="translate(-400.071 -12422.418)" fill="#f85316"/>
      <path id="Trazado_203530" data-name="Trazado 203530" d="M321.879,631.258v10.993s19.9,4.145,26.89,1.622,7.8-3.964,7.8-4.6v-8.019s-20.363-9.19-34.69,0" transform="translate(-631.039 -12422.418)" fill="#75b62f"/>
      <path id="Trazado_203531" data-name="Trazado 203531" d="M321.879,1006.771v10.993s19.9,4.145,26.89,1.622,7.8-3.964,7.8-4.6v-8.019s-20.363-9.191-34.69,0" transform="translate(-631.039 -12723.681)" fill="#dce736"/>
      <path id="Trazado_203532" data-name="Trazado 203532" d="M34.134,1008.782v10.993s19.9,4.145,26.89,1.622,7.8-3.964,7.8-4.6v-8.019s-20.363-9.191-34.69,0" transform="translate(-400.189 -12725.294)" fill="#dee9f0"/>
      <rect id="Rectángulo_295951" data-name="Rectángulo 295951" width="64.988" height="16.86" transform="translate(-352.298 -11757.37)" fill="#3d46c2"/>
      <path id="Trazado_203586" data-name="Trazado 203586" d="M456.073,842.78a1.384,1.384,0,0,1-1.417-1.417v-.2a1.417,1.417,0,1,1,2.835,0v.2a1.384,1.384,0,0,1-1.417,1.417" transform="translate(-737.562 -12592.956)"/>
      <path id="Trazado_203587" data-name="Trazado 203587" d="M428.8,877.671a2.049,2.049,0,0,1-1.417-.81,1.479,1.479,0,0,1,.81-2.025,7.277,7.277,0,0,0,4.252-6.479v-3.645a1.417,1.417,0,1,1,2.835,0v3.645a10.485,10.485,0,0,1-5.872,9.314Z" transform="translate(-715.558 -12611.851)"/>
      <path id="Trazado_203588" data-name="Trazado 203588" d="M125.1,842.578h-1.822a1.417,1.417,0,0,1,0-2.835H125.1a1.417,1.417,0,0,1,0,2.835" transform="translate(-470.566 -12592.956)"/>
      <path id="Trazado_203589" data-name="Trazado 203589" d="M125.1,871.249h-1.822a1.417,1.417,0,0,1,0-2.835H125.1a1.417,1.417,0,0,1,0,2.835" transform="translate(-470.566 -12615.959)"/>
      <path id="Trazado_203590" data-name="Trazado 203590" d="M161.138,842.578h-2.025a1.417,1.417,0,0,1,0-2.835h2.025a1.417,1.417,0,0,1,0,2.835" transform="translate(-499.319 -12592.956)"/>
      <path id="Trazado_203591" data-name="Trazado 203591" d="M161.138,871.249h-2.025a1.417,1.417,0,0,1,0-2.835h2.025a1.417,1.417,0,0,1,0,2.835" transform="translate(-499.319 -12615.959)"/>
      <path id="Trazado_203592" data-name="Trazado 203592" d="M196.978,842.578h-2.025a1.417,1.417,0,0,1,0-2.835h2.025a1.417,1.417,0,1,1,0,2.835" transform="translate(-528.073 -12592.956)"/>
      <path id="Trazado_203593" data-name="Trazado 203593" d="M196.978,871.249h-2.025a1.417,1.417,0,0,1,0-2.835h2.025a1.417,1.417,0,1,1,0,2.835" transform="translate(-528.073 -12615.959)"/>
      <path id="Trazado_203594" data-name="Trazado 203594" d="M233.64,842.578h-1.822a1.417,1.417,0,1,1,0-2.835h1.822a1.417,1.417,0,0,1,0,2.835" transform="translate(-557.648 -12592.956)"/>
      <path id="Trazado_203595" data-name="Trazado 203595" d="M233.64,871.249h-1.822a1.417,1.417,0,1,1,0-2.835h1.822a1.417,1.417,0,0,1,0,2.835" transform="translate(-557.648 -12615.959)"/>
      <path id="Trazado_203596" data-name="Trazado 203596" d="M269.48,842.578h-1.822a1.417,1.417,0,0,1,0-2.835h1.822a1.417,1.417,0,0,1,0,2.835" transform="translate(-586.401 -12592.956)"/>
      <path id="Trazado_203597" data-name="Trazado 203597" d="M269.48,871.249h-1.822a1.417,1.417,0,0,1,0-2.835h1.822a1.417,1.417,0,0,1,0,2.835" transform="translate(-586.401 -12615.959)"/>
      <path id="Trazado_203598" data-name="Trazado 203598" d="M1.417,693.479A1.384,1.384,0,0,1,0,692.061v-.405a1.384,1.384,0,0,1,1.417-1.417,1.384,1.384,0,0,1,1.417,1.417v.405a1.384,1.384,0,0,1-1.417,1.417" transform="translate(-372.804 -12473.013)"/>
      <path id="Trazado_203599" data-name="Trazado 203599" d="M1.417,617.966A1.384,1.384,0,0,1,0,616.548v-3.442a9.478,9.478,0,0,1,5.669-8.5,1.542,1.542,0,1,1,1.215,2.835,6.3,6.3,0,0,0-4.049,5.669v3.442a1.384,1.384,0,0,1-1.417,1.417" transform="translate(-372.804 -12404.182)"/>
      <path id="Trazado_203600" data-name="Trazado 203600" d="M47.919,644.14a61.021,61.021,0,0,1-16-1.822,3.037,3.037,0,0,1-2.227-2.835V629.36a2.7,2.7,0,0,1,2.43-2.835A71.922,71.922,0,0,1,47.919,624.7a59.407,59.407,0,0,1,15.793,1.822,2.7,2.7,0,0,1,2.43,2.835v10.124a2.7,2.7,0,0,1-2.43,2.835,71.917,71.917,0,0,1-15.793,1.822m-15.388-4.657h0a56.239,56.239,0,0,0,15.388,1.822A65.729,65.729,0,0,0,63.1,639.483V629.36h-.2a54.686,54.686,0,0,0-15.185-1.822,65.731,65.731,0,0,0-15.185,1.822Z" transform="translate(-396.629 -12420.435)"/>
      <path id="Trazado_203601" data-name="Trazado 203601" d="M47.709,657a63.742,63.742,0,0,1-17.21-2.025,1.474,1.474,0,0,1,.81-2.835c9.314,2.632,23.487,2.632,32.8,0a1.474,1.474,0,0,1,.81,2.835A63.742,63.742,0,0,1,47.709,657" transform="translate(-396.419 -12442.406)"/>
      <path id="Trazado_203602" data-name="Trazado 203602" d="M47.919,1017.9a61.024,61.024,0,0,1-16-1.822,3.037,3.037,0,0,1-2.227-2.835V1003.12a2.7,2.7,0,0,1,2.43-2.835,71.925,71.925,0,0,1,15.793-1.822,59.409,59.409,0,0,1,15.793,1.822,2.7,2.7,0,0,1,2.43,2.835v10.124a2.7,2.7,0,0,1-2.43,2.835,71.921,71.921,0,0,1-15.793,1.822m-15.388-4.657h0a56.241,56.241,0,0,0,15.388,1.822,65.735,65.735,0,0,0,15.185-1.822V1003.12h-.2a54.691,54.691,0,0,0-15.185-1.822,65.735,65.735,0,0,0-15.185,1.822Z" transform="translate(-396.629 -12720.292)"/>
      <path id="Trazado_203603" data-name="Trazado 203603" d="M47.709,1030.761a72.991,72.991,0,0,1-17.21-2.025,1.474,1.474,0,1,1,.81-2.835c9.314,2.632,23.487,2.632,32.8,0a1.474,1.474,0,1,1,.81,2.835,63.742,63.742,0,0,1-17.21,2.025" transform="translate(-396.419 -12742.265)"/>
      <path id="Trazado_203604" data-name="Trazado 203604" d="M335.663,644.14a61.021,61.021,0,0,1-16-1.822,3.036,3.036,0,0,1-2.227-2.835V629.36a2.7,2.7,0,0,1,2.43-2.835,71.922,71.922,0,0,1,15.793-1.822,59.407,59.407,0,0,1,15.793,1.822,2.7,2.7,0,0,1,2.43,2.835v10.124a2.7,2.7,0,0,1-2.43,2.835A71.917,71.917,0,0,1,335.663,644.14Zm-15.388-4.657h0a55.23,55.23,0,0,0,15.388,1.822,65.728,65.728,0,0,0,15.185-1.822V629.36h-.2a54.686,54.686,0,0,0-15.185-1.822,65.731,65.731,0,0,0-15.185,1.822Z" transform="translate(-627.478 -12420.435)"/>
      <path id="Trazado_203605" data-name="Trazado 203605" d="M335.453,657a72.991,72.991,0,0,1-17.21-2.025,1.474,1.474,0,0,1,.81-2.835c9.314,2.632,23.487,2.632,32.8,0a1.474,1.474,0,0,1,.81,2.835A63.742,63.742,0,0,1,335.453,657Z" transform="translate(-627.268 -12442.406)"/>
      <path id="Trazado_203606" data-name="Trazado 203606" d="M335.663,1017.9a61.024,61.024,0,0,1-16-1.822,3.037,3.037,0,0,1-2.227-2.835V1003.12a2.7,2.7,0,0,1,2.43-2.835,71.925,71.925,0,0,1,15.793-1.822,59.409,59.409,0,0,1,15.793,1.822,2.7,2.7,0,0,1,2.43,2.835v10.124a2.7,2.7,0,0,1-2.43,2.835A71.921,71.921,0,0,1,335.663,1017.9Zm-15.388-4.657h0a56.241,56.241,0,0,0,15.388,1.822,65.735,65.735,0,0,0,15.185-1.822V1003.12h-.2a54.691,54.691,0,0,0-15.185-1.822,65.735,65.735,0,0,0-15.185,1.822Z" transform="translate(-627.478 -12720.292)"/>
      <path id="Trazado_203607" data-name="Trazado 203607" d="M335.453,1030.761a72.991,72.991,0,0,1-17.21-2.025,1.474,1.474,0,1,1,.81-2.835c9.314,2.632,23.487,2.632,32.8,0a1.474,1.474,0,1,1,.81,2.835A63.743,63.743,0,0,1,335.453,1030.761Z" transform="translate(-627.268 -12742.265)"/>
      <path id="Trazado_203608" data-name="Trazado 203608" d="M173,720.414H116.105A1.384,1.384,0,0,1,114.688,719v-8.909a1.417,1.417,0,0,1,2.835,0v7.491H171.38v-7.491a1.417,1.417,0,0,1,2.835,0V719A1.139,1.139,0,0,1,173,720.414Z" transform="translate(-464.815 -12487.8)"/>
      <path id="Trazado_203609" data-name="Trazado 203609" d="M260.489,767.7a1.384,1.384,0,0,1-1.417-1.417V755.144a1.417,1.417,0,1,1,2.835,0V766.28a1.384,1.384,0,0,1-1.417,1.417" transform="translate(-580.651 -12523.947)"/>
      <path id="Trazado_203610" data-name="Trazado 203610" d="M173,965.15a1.384,1.384,0,0,1-1.417-1.417v-7.492h-54.06v7.492a1.417,1.417,0,0,1-2.835,0v-8.909a1.384,1.384,0,0,1,1.417-1.417H173a1.384,1.384,0,0,1,1.417,1.417v8.909A1.384,1.384,0,0,1,173,965.15" transform="translate(-464.815 -12684.145)"/>
      <path id="Trazado_203611" data-name="Trazado 203611" d="M260.489,910.236a1.384,1.384,0,0,1-1.417-1.417V897.48a1.417,1.417,0,1,1,2.835,0v11.339a1.384,1.384,0,0,1-1.417,1.417" transform="translate(-580.651 -12638.14)"/>
      <path id="Trazado_203632" data-name="Trazado 203632" d="M317.017,851.155a2.513,2.513,0,1,1,2.513,2.513,2.513,2.513,0,0,1-2.513-2.513" transform="translate(-627.138 -12600.095)" fill="#dce736"/>
      <path id="Trazado_203633" data-name="Trazado 203633" d="M370.934,847.277a3.191,3.191,0,1,1,3.191,3.191,3.191,3.191,0,0,1-3.191-3.191" transform="translate(-670.394 -12596.44)" fill="#dce736"/>
      <path id="Trazado_203634" data-name="Trazado 203634" d="M157.165,829.889H97.436a4.152,4.152,0,0,1-4.252-4.252V814.3a4.152,4.152,0,0,1,4.252-4.252h59.73a4.277,4.277,0,0,1,4.252,4.252v11.338a4.152,4.152,0,0,1-4.252,4.252m-59.73-17.008a1.384,1.384,0,0,0-1.417,1.417v11.338a1.384,1.384,0,0,0,1.417,1.417h59.73a1.384,1.384,0,0,0,1.417-1.417V814.3a1.521,1.521,0,0,0-1.417-1.417Z" transform="translate(-447.563 -12569.131)"/>
      <path id="Trazado_203635" data-name="Trazado 203635" d="M369,846.6a4.454,4.454,0,1,1,4.454-4.454A4.494,4.494,0,0,1,369,846.6m0-6.074a1.6,1.6,0,0,0-1.62,1.62,1.62,1.62,0,1,0,3.24,0,1.6,1.6,0,0,0-1.62-1.62" transform="translate(-665.268 -12591.313)"/>
      <path id="Trazado_203636" data-name="Trazado 203636" d="M311.654,846.6a4.454,4.454,0,1,1,4.454-4.454,4.494,4.494,0,0,1-4.454,4.454m0-6.074a1.6,1.6,0,0,0-1.62,1.62,1.62,1.62,0,1,0,3.24,0,1.6,1.6,0,0,0-1.62-1.62" transform="translate(-619.262 -12591.313)"/>
    </g>
    <g id="Grupo_150234" data-name="Grupo 150234" transform="translate(1106.281 12541.809)">
      <path id="Trazado_203573" data-name="Trazado 203573" d="M115.013,1245.191a41.977,41.977,0,1,1-41.977,41.977,41.977,41.977,0,0,1,41.977-41.977" transform="translate(-427.611 -12885.412)" fill="#f85316"/>
      <path id="Trazado_203574" data-name="Trazado 203574" d="M157.713,1298.191a31.677,31.677,0,1,1-31.677,31.677,31.677,31.677,0,0,1,31.677-31.677" transform="translate(-470.311 -12928.111)" fill="#fff"/>
      <path id="Trazado_203575" data-name="Trazado 203575" d="M220.143,1360.62a31.679,31.679,0,0,1-55.937,20.373,31.679,31.679,0,0,0,44.632-44.632,31.62,31.62,0,0,1,11.3,24.259" transform="translate(-501.063 -12958.863)" fill="#e6e6e6"/>
      <path id="Trazado_203576" data-name="Trazado 203576" d="M200.413,1351.191a21.377,21.377,0,1,1-21.377,21.377,21.377,21.377,0,0,1,21.377-21.377" transform="translate(-513.011 -12970.812)" fill="#f85316"/>
      <path id="Trazado_203577" data-name="Trazado 203577" d="M243.919,1405.191a10.883,10.883,0,1,1-10.883,10.883,10.883,10.883,0,0,1,10.883-10.883" transform="translate(-556.516 -13014.318)" fill="#fff"/>
      <path id="Trazado_203578" data-name="Trazado 203578" d="M393.3,1490.39a31.359,31.359,0,0,1-3.063,6.932l-9.408-4.386a21.167,21.167,0,0,0,2.993-6.965Z" transform="translate(-675.585 -13079.399)" fill="#e6e6e6"/>
      <path id="Trazado_203579" data-name="Trazado 203579" d="M286.752,1443.867a10.848,10.848,0,0,1-2.763,7.074l-9.1-4.246a3.786,3.786,0,0,1-1.976-4.68c.043-.119.089-.237.144-.356a3.791,3.791,0,0,1,5.035-1.833Z" transform="translate(-588.468 -13041.936)" fill="#e6e6e6"/>
      <path id="Trazado_203580" data-name="Trazado 203580" d="M461.374,1265.4a.389.389,0,0,1,.211.658l-4.111,4.13-2.523,2.534-6.893,6.923a1.943,1.943,0,0,1-1.693.546l-10.281-1.693,7.7-7.638,2.552-2.53,4.693-4.656Z" transform="translate(-720.105 -12900.3)" fill="#75b62f"/>
      <path id="Trazado_203581" data-name="Trazado 203581" d="M489.4,1289.489l-2.522,2.534-11.167-1.862,2.552-2.53Z" transform="translate(-752.026 -12919.604)" fill="#2b597f"/>
      <path id="Trazado_203582" data-name="Trazado 203582" d="M418.758,1193.689l-4.67,4.569-2.54,2.486-7.673,7.507-1.714-10.412a1.943,1.943,0,0,1,.543-1.689l6.921-6.928,2.532-2.536,4.19-4.193a.389.389,0,0,1,.659.214Z" transform="translate(-692.754 -12834.806)" fill="#75b62f"/>
      <path id="Trazado_203583" data-name="Trazado 203583" d="M445.138,1216.114l-2.54,2.486-1.922-11.522,2.532-2.536Z" transform="translate(-723.804 -12852.662)" fill="#2b597f"/>
      <path id="Trazado_203584" data-name="Trazado 203584" d="M323.357,1221.636a3.773,3.773,0,0,1-1.11,2.678L279.164,1267.4a3.787,3.787,0,0,1-5.074.257c-.1-.08-.192-.165-.284-.257a3.788,3.788,0,0,1,0-5.358l43.083-43.083a3.786,3.786,0,0,1,5.358,0c.091.091.177.187.256.284a3.773,3.773,0,0,1,.853,2.4" transform="translate(-588.469 -12863.381)" fill="#3d46c2"/>
      <path id="Trazado_203585" data-name="Trazado 203585" d="M148.817,1208.509a1.457,1.457,0,0,0,1.033-.429l14.764-14.829a1.458,1.458,0,0,0-.793-2.466l-7.937-1.324.494-.494a5.247,5.247,0,0,0-7.421-7.421l-.517.517-1.3-8.144a1.458,1.458,0,0,0-2.47-.8l-14.886,14.9a1.458,1.458,0,0,0-.407,1.267l.2,1.229a43.478,43.478,0,0,0-44.242,1.8,1.457,1.457,0,1,0,1.588,2.444,40.553,40.553,0,0,1,43.266-.522l.859,5.22-2.541,2.541a32.764,32.764,0,0,0-19.538-6.371,33.135,33.135,0,1,0,33.135,33.135q0-.469-.013-.935a1.458,1.458,0,1,0-2.914.08q.012.426.012.855a30.22,30.22,0,1,1-30.22-30.219,29.875,29.875,0,0,1,17.449,5.544l-5.326,5.326a22.834,22.834,0,0,0-34.958,19.35,23.02,23.02,0,0,0,.441,4.49,1.458,1.458,0,0,0,2.859-.57,19.939,19.939,0,0,1,19.535-23.839,19.791,19.791,0,0,1,10,2.692L113.3,1217.2a12.342,12.342,0,1,0,7.33,7.512l5.711-5.711a19.935,19.935,0,0,1-34.754,19.538,1.458,1.458,0,0,0-2.545,1.422,22.849,22.849,0,1,0,39.428-23.09l5.337-5.337a29.857,29.857,0,0,1,4.539,10.1,1.458,1.458,0,1,0,2.833-.685,32.764,32.764,0,0,0-5.283-11.5l2.614-2.614,5.064.833a40.523,40.523,0,1,1-61.711-9.026,1.458,1.458,0,1,0-1.951-2.166,43.427,43.427,0,1,0,67.369,11.8l1.3.214A1.452,1.452,0,0,0,148.817,1208.509Zm11.739-15.314-3.382,3.4-7.218-1.2,3.395-3.4Zm-9.537-9.588a2.332,2.332,0,0,1,3.3,3.3l-43.083,43.083a2.332,2.332,0,0,1-3.3-3.3Zm-6.306-6.406,1.182,7.408-3.4,3.4-1.227-7.359Zm-12.337,12.35,6.361-6.367,1.227,7.357-6.375,6.375ZM118.4,1228.757a9.417,9.417,0,1,1-7.437-9.215l-5.085,5.086a5.247,5.247,0,0,0,7.421,7.421l4.954-4.953a9.5,9.5,0,0,1,.148,1.662m22.651-24.462,6.375-6.375,7.227,1.205-6.337,6.365Z" transform="translate(-421.568 -12827.001)"/>
    </g>
    <g id="Grupo_150235" data-name="Grupo 150235" transform="translate(1348 12375.103)">
      <path id="Trazado_203527" data-name="Trazado 203527" d="M370.467,1919.435l6.692-6.692s3.08.085,3.08.427,2.843.7,3.02.4,3.79-14.095,3.79-14.095l-11.963,1.955-5.093,1.54,3.2,5.27-8.824,9.654s1.184,2.665,2.665,2.784a6.806,6.806,0,0,0,3.435-1.244" transform="translate(-662.917 -13372.004)" fill="#f85316"/>
      <path id="Trazado_203528" data-name="Trazado 203528" d="M111.767,2243.424H70.672a2.814,2.814,0,0,0-2.811,2.811v8.353a2.814,2.814,0,0,0,2.8,2.811h41.107a2.814,2.814,0,0,0,2.805-2.811v-8.353a2.814,2.814,0,0,0-2.811-2.811m-35.928,12.014a5.027,5.027,0,1,1,5.027-5.027,5.032,5.032,0,0,1-5.027,5.027m11.816,0a5.027,5.027,0,1,1,5.027-5.027,5.032,5.032,0,0,1-5.027,5.027m21.941-3.565H98.415a1.462,1.462,0,1,1,0-2.924H109.6a1.462,1.462,0,1,1,0,2.924" transform="translate(-424.213 -13648.9)" fill="#3d46c2"/>
      <path id="Trazado_203541" data-name="Trazado 203541" d="M100.1,2095.106a2.1,2.1,0,1,0,2.1,2.1,2.1,2.1,0,0,0-2.1-2.1" transform="translate(-448.476 -13529.496)" fill="#dce736"/>
      <path id="Trazado_203542" data-name="Trazado 203542" d="M162.816,2270.583a2.1,2.1,0,1,0-2.1,2.1,2.1,2.1,0,0,0,2.1-2.1" transform="translate(-497.272 -13669.072)" fill="#dce736"/>
      <path id="Trazado_203543" data-name="Trazado 203543" d="M380.161,2168.345l11.126-6.425a.182.182,0,0,0,.1-.169.179.179,0,0,0-.1-.168l-11.126-6.424a.179.179,0,0,0-.194,0,.181.181,0,0,0-.1.168v3.318a1.462,1.462,0,0,1-1.462,1.462H366.2a1.645,1.645,0,0,0,0,3.289h12.2a1.462,1.462,0,0,1,1.462,1.462v3.318a.194.194,0,0,0,.291.169" transform="translate(-663.073 -13577.819)" fill="#f85316"/>
      <path id="Trazado_203544" data-name="Trazado 203544" d="M160.714,2095.106a2.1,2.1,0,1,0,2.1,2.1,2.105,2.105,0,0,0-2.1-2.1" transform="translate(-497.272 -13529.496)" fill="#dce736"/>
      <path id="Trazado_203545" data-name="Trazado 203545" d="M102.2,2270.583a2.1,2.1,0,1,0-2.1,2.1,2.1,2.1,0,0,0,2.1-2.1" transform="translate(-448.475 -13669.072)" fill="#dce736"/>
      <path id="Trazado_203546" data-name="Trazado 203546" d="M156.349,1887.149h3.318a1.462,1.462,0,0,1,1.462,1.462v12.2a1.645,1.645,0,0,0,3.289,0v-12.2a1.462,1.462,0,0,1,1.462-1.462H169.2a.194.194,0,0,0,.168-.291l-6.425-11.126a.18.18,0,0,0-.168-.1.178.178,0,0,0-.168.1l-6.425,11.126a.194.194,0,0,0,.168.291" transform="translate(-495.293 -13352.809)" fill="#f85316"/>
      <path id="Trazado_203547" data-name="Trazado 203547" d="M111.767,2156.736H70.672a2.814,2.814,0,0,0-2.811,2.811v8.353a2.814,2.814,0,0,0,2.8,2.811h41.107a2.814,2.814,0,0,0,2.805-2.811v-8.353a2.814,2.814,0,0,0-2.811-2.811M75.839,2168.75a5.027,5.027,0,1,1,5.027-5.027,5.032,5.032,0,0,1-5.027,5.027m11.816,0a5.027,5.027,0,1,1,5.027-5.027,5.032,5.032,0,0,1-5.027,5.027m21.941-3.565H98.415a1.462,1.462,0,1,1,0-2.924H109.6a1.462,1.462,0,1,1,0,2.924" transform="translate(-424.213 -13579.112)" fill="#3d46c2"/>
      <path id="Trazado_203548" data-name="Trazado 203548" d="M160.714,2181.794a2.1,2.1,0,1,0,2.1,2.1,2.1,2.1,0,0,0-2.1-2.1" transform="translate(-497.272 -13599.285)" fill="#dce736"/>
      <path id="Trazado_203549" data-name="Trazado 203549" d="M111.767,2070.049H70.672a2.814,2.814,0,0,0-2.811,2.811v8.353a2.815,2.815,0,0,0,2.811,2.811h41.095a2.815,2.815,0,0,0,2.811-2.811v-8.353a2.814,2.814,0,0,0-2.811-2.811m-35.928,12.014a5.027,5.027,0,1,1,5.027-5.027,5.032,5.032,0,0,1-5.027,5.027m11.816,0a5.027,5.027,0,1,1,5.027-5.027,5.033,5.033,0,0,1-5.027,5.027M109.6,2078.5H98.415a1.462,1.462,0,1,1,0-2.924H109.6a1.462,1.462,0,1,1,0,2.924" transform="translate(-424.213 -13509.324)" fill="#3d46c2"/>
      <path id="Trazado_203550" data-name="Trazado 203550" d="M100.1,2181.794a2.1,2.1,0,1,0,2.1,2.1,2.1,2.1,0,0,0-2.1-2.1" transform="translate(-448.476 -13599.285)" fill="#dce736"/>
      <path id="Trazado_203551" data-name="Trazado 203551" d="M99.691,2055.049H58.6a5.742,5.742,0,0,0-5.735,5.735v8.353a5.725,5.725,0,0,1,0,8.546v8.353a5.725,5.725,0,0,1,0,8.546v1.181a1.462,1.462,0,1,0,2.924,0v-1.181a2.814,2.814,0,0,1,2.8-2.811H99.7a2.814,2.814,0,0,1,2.8,2.811v8.353a2.814,2.814,0,0,1-2.811,2.811H58.6a2.814,2.814,0,0,1-2.811-2.811v-.349a1.462,1.462,0,1,0-2.924,0v.349a5.742,5.742,0,0,0,5.735,5.735H99.69a5.742,5.742,0,0,0,5.735-5.735v-8.353a5.725,5.725,0,0,1,0-8.546v-8.353a5.725,5.725,0,0,1,0-8.546v-8.353a5.742,5.742,0,0,0-5.735-5.735m2.811,30.987a2.814,2.814,0,0,1-2.805,2.811H58.59a2.814,2.814,0,0,1-2.8-2.811v-8.353a2.814,2.814,0,0,1,2.811-2.811H99.691a2.814,2.814,0,0,1,2.811,2.811Zm0-16.9a2.814,2.814,0,0,1-2.811,2.811H58.6a2.814,2.814,0,0,1-2.811-2.811v-8.353a2.814,2.814,0,0,1,2.811-2.811H99.691a2.814,2.814,0,0,1,2.811,2.811Z" transform="translate(-412.137 -13497.249)"/>
      <path id="Trazado_203552" data-name="Trazado 203552" d="M88.026,2080.107a5.027,5.027,0,1,0,5.027,5.027,5.032,5.032,0,0,0-5.027-5.027m0,7.129a2.1,2.1,0,1,1,2.1-2.1,2.1,2.1,0,0,1-2.1,2.1" transform="translate(-436.4 -13517.421)"/>
      <path id="Trazado_203553" data-name="Trazado 203553" d="M148.638,2080.107a5.027,5.027,0,1,0,5.027,5.027,5.032,5.032,0,0,0-5.027-5.027m0,7.129a2.1,2.1,0,1,1,2.1-2.1,2.1,2.1,0,0,1-2.1,2.1" transform="translate(-485.196 -13517.421)"/>
      <path id="Trazado_203554" data-name="Trazado 203554" d="M88.026,2166.793a5.027,5.027,0,1,0,5.027,5.027,5.032,5.032,0,0,0-5.027-5.027m0,7.13a2.1,2.1,0,1,1,2.1-2.1,2.105,2.105,0,0,1-2.1,2.1" transform="translate(-436.4 -13587.208)"/>
      <path id="Trazado_203555" data-name="Trazado 203555" d="M148.638,2166.793a5.027,5.027,0,1,0,5.027,5.027,5.032,5.032,0,0,0-5.027-5.027m0,7.13a2.1,2.1,0,1,1,2.1-2.1,2.105,2.105,0,0,1-2.1,2.1" transform="translate(-485.196 -13587.208)"/>
      <path id="Trazado_203556" data-name="Trazado 203556" d="M93.052,2258.507a5.027,5.027,0,1,0-5.027,5.027,5.032,5.032,0,0,0,5.027-5.027m-7.129,0a2.1,2.1,0,1,1,2.1,2.1,2.105,2.105,0,0,1-2.1-2.1" transform="translate(-436.4 -13656.996)"/>
      <path id="Trazado_203557" data-name="Trazado 203557" d="M153.664,2258.507a5.027,5.027,0,1,0-5.027,5.027,5.033,5.033,0,0,0,5.027-5.027m-7.129,0a2.1,2.1,0,1,1,2.1,2.1,2.105,2.105,0,0,1-2.1-2.1" transform="translate(-485.196 -13656.996)"/>
      <path id="Trazado_203558" data-name="Trazado 203558" d="M229.735,2185.079H218.554a1.462,1.462,0,1,0,0,2.924h11.181a1.462,1.462,0,1,0,0-2.924" transform="translate(-544.352 -13601.93)"/>
      <path id="Trazado_203559" data-name="Trazado 203559" d="M229.735,2274.69a1.462,1.462,0,1,0,0-2.924H218.554a1.462,1.462,0,1,0,0,2.924Z" transform="translate(-544.352 -13671.718)"/>
      <path id="Trazado_203560" data-name="Trazado 203560" d="M229.735,2098.392H218.554a1.462,1.462,0,1,0,0,2.924h11.181a1.462,1.462,0,1,0,0-2.924" transform="translate(-544.352 -13532.142)"/>
      <path id="Trazado_203561" data-name="Trazado 203561" d="M369.548,2158.791l11.126-6.425a3.119,3.119,0,0,0,0-5.4l-11.126-6.424a3.119,3.119,0,0,0-4.678,2.7v1.856H354.129a4.569,4.569,0,1,0,0,9.137H364.87v1.856a3.112,3.112,0,0,0,4.678,2.7m-1.754-2.7v-3.318a1.462,1.462,0,0,0-1.462-1.462h-12.2a1.645,1.645,0,1,1,0-3.289h12.2a1.462,1.462,0,0,0,1.462-1.462v-3.318a.194.194,0,0,1,.291-.168l11.126,6.425a.178.178,0,0,1,.1.168.181.181,0,0,1-.1.168l-11.126,6.425a.178.178,0,0,1-.194,0,.181.181,0,0,1-.1-.168" transform="translate(-650.997 -13565.732)"/>
      <path id="Trazado_203562" data-name="Trazado 203562" d="M363.328,1893.908a3.084,3.084,0,0,0,.807,3.01l1.312,1.313-7.6,7.6a4.569,4.569,0,0,0,6.462,6.461l1.632-1.632a1.462,1.462,0,1,0-2.067-2.068l-1.631,1.631a1.645,1.645,0,1,1-2.327-2.326l8.628-8.628a1.462,1.462,0,0,0,0-2.067l-2.347-2.349a.176.176,0,0,1-.05-.186.181.181,0,0,1,.138-.137L378.7,1891.2a.2.2,0,0,1,.24.238l-3.326,12.411a.181.181,0,0,1-.137.138.178.178,0,0,1-.186-.051l-2.347-2.347a1.462,1.462,0,0,0-2.068,0l-2.176,2.176a1.462,1.462,0,0,0,2.068,2.067l1.142-1.142,1.312,1.312a3.117,3.117,0,0,0,5.217-1.4l3.326-12.411a3.12,3.12,0,0,0-3.82-3.82l-12.409,3.326a3.087,3.087,0,0,0-2.206,2.206" transform="translate(-656.598 -13362.979)"/>
      <path id="Trazado_203563" data-name="Trazado 203563" d="M144.261,1878h1.856v10.741a4.569,4.569,0,0,0,9.138,0V1878h1.856a3.119,3.119,0,0,0,2.7-4.678l-6.425-11.126a3.119,3.119,0,0,0-5.4,0l-6.425,11.126a3.118,3.118,0,0,0,2.7,4.678m-.168-3.216,6.424-11.126a.179.179,0,0,1,.168-.1.181.181,0,0,1,.168.1l6.425,11.126a.194.194,0,0,1-.168.291h-3.319a1.462,1.462,0,0,0-1.462,1.462v12.2a1.645,1.645,0,0,1-3.289,0v-12.2a1.462,1.462,0,0,0-1.462-1.462h-3.318a.194.194,0,0,1-.168-.291" transform="translate(-483.204 -13340.733)"/>
      <path id="Trazado_203564" data-name="Trazado 203564" d="M340.4,2327.32H329.682a1.462,1.462,0,1,0,0,2.924H340.4a1.462,1.462,0,1,0,0-2.924" transform="translate(-633.817 -13716.441)"/>
      <path id="Trazado_203565" data-name="Trazado 203565" d="M166.485,1833.244h21.58a1.462,1.462,0,0,0,0-2.924h-21.58a1.462,1.462,0,0,0,0,2.924" transform="translate(-502.434 -13316.328)"/>
      <path id="Trazado_203566" data-name="Trazado 203566" d="M54.323,1846.874a1.462,1.462,0,0,0,1.462-1.462v-8.627a3.545,3.545,0,0,1,3.541-3.541h5.091a1.462,1.462,0,0,0,0-2.924H59.326a6.472,6.472,0,0,0-6.465,6.465v8.627a1.462,1.462,0,0,0,1.462,1.462" transform="translate(-412.137 -13316.328)"/>
      <path id="Trazado_203567" data-name="Trazado 203567" d="M337.565,1833.244h21.58a1.462,1.462,0,0,0,0-2.924h-21.58a1.462,1.462,0,0,0,0,2.924" transform="translate(-640.163 -13316.328)"/>
      <path id="Trazado_203568" data-name="Trazado 203568" d="M551.322,1969.721a1.462,1.462,0,0,0-1.462,1.462v21.58a1.462,1.462,0,0,0,2.924,0v-21.58a1.462,1.462,0,0,0-1.462-1.462" transform="translate(-812.25 -13428.555)"/>
      <path id="Trazado_203569" data-name="Trazado 203569" d="M551.322,2140.8a1.462,1.462,0,0,0-1.462,1.462v21.58a1.462,1.462,0,1,0,2.924,0v-21.58a1.462,1.462,0,0,0-1.462-1.462" transform="translate(-812.25 -13566.283)"/>
      <path id="Trazado_203570" data-name="Trazado 203570" d="M511.96,1830.32h-3.317a1.462,1.462,0,1,0,0,2.924h3.317a3.545,3.545,0,0,1,3.541,3.541v10.4a1.462,1.462,0,1,0,2.924,0v-10.4a6.473,6.473,0,0,0-6.465-6.465" transform="translate(-777.891 -13316.328)"/>
      <path id="Trazado_203571" data-name="Trazado 203571" d="M465.956,2311.723a1.462,1.462,0,0,0-1.915.78,3.536,3.536,0,0,1-3.266,2.168H445.064a1.462,1.462,0,1,0,0,2.924h15.711a6.455,6.455,0,0,0,5.96-3.957,1.462,1.462,0,0,0-.78-1.915" transform="translate(-726.706 -13703.793)"/>
      <path id="Trazado_203572" data-name="Trazado 203572" d="M54.323,1974.345a1.462,1.462,0,0,0,1.462-1.462v-10.722a1.462,1.462,0,1,0-2.924,0v10.722a1.462,1.462,0,0,0,1.462,1.462" transform="translate(-412.137 -13421.291)"/>
    </g>
    <g id="Grupo_150236" data-name="Grupo 150236" transform="translate(1602.668 12206.128)">
      <path id="Trazado_203533" data-name="Trazado 203533" d="M168.995,2525.159v-5.222a2.231,2.231,0,0,1,.389-1.259l7.413-10.849a5.96,5.96,0,1,0-9.841-6.724l-8.282,12.12a9.168,9.168,0,0,0-1.6,5.172v30.855l12.949-8.8Z" transform="translate(-493.017 -13814.007)" fill="#ffc09d"/>
      <path id="Trazado_203534" data-name="Trazado 203534" d="M147.266,2600l3.407-17.385L137.335,2593.8l.01.062a5.026,5.026,0,0,1,4.035,1.139Zm7.8-26.583.147-.062a10.178,10.178,0,0,1,4.683-1.905,4.79,4.79,0,0,1,5.425,5.141l-1.394,16.848a4.161,4.161,0,0,0,.4,2.147l2.579,5.332a26.641,26.641,0,0,1,.318,22.508l-7.907,17.609v8.857a2.12,2.12,0,0,1-2.125,2.12l-31.555-.084a2.119,2.119,0,0,1-2.114-2.119v-7.259l-6.288-7.9a21.509,21.509,0,0,1-4.614-11.71l-1.322-16.8a11.151,11.151,0,0,1,3.961-9.427l30.495-25.521a5.959,5.959,0,0,1,9.311,2.232Z" transform="translate(-456.063 -13871.515)" fill="#ffc09d"/>
      <path id="Trazado_203535" data-name="Trazado 203535" d="M159.592,2531.4a2.7,2.7,0,0,1-.26-1.4l1.394-16.848a6.24,6.24,0,0,0-7.065-6.7,11.709,11.709,0,0,0-4.125,1.385c-.1-.137-.2-.273-.314-.405a7.416,7.416,0,0,0-10.434-.92l-11.338,9.489v-2.123a.778.778,0,0,1,.136-.442l2.351-3.441a1.448,1.448,0,1,0-2.391-1.634l-2.352,3.441a3.665,3.665,0,0,0-.641,2.075v4.546l-9.023,7.552v-13.637a7.689,7.689,0,0,1,1.346-4.356l8.282-12.12a4.512,4.512,0,0,1,7.45,5.091l-1.52,2.224a1.448,1.448,0,1,0,2.391,1.634L135,2502.6a7.407,7.407,0,1,0-12.232-8.358l-8.282,12.12a10.574,10.574,0,0,0-1.851,5.99v16.061l-4.343,3.634a12.622,12.622,0,0,0-4.475,10.651l.922,11.719a1.447,1.447,0,0,0,1.442,1.334c.038,0,.076,0,.115,0a1.448,1.448,0,0,0,1.33-1.557l-.922-11.72a9.722,9.722,0,0,1,3.447-8.2l30.5-25.523a4.512,4.512,0,1,1,5.8,6.916l-15.875,13.3a6.517,6.517,0,0,0-2.748,1.424l-7.759,6.754a1.448,1.448,0,1,0,1.9,2.184l7.759-6.753a3.567,3.567,0,0,1,4.682-.027l11.735,9.982a4.506,4.506,0,0,1-1.648,7.76l-8.211-6.983a6.445,6.445,0,0,0-8.459.048l-7.759,6.754a1.448,1.448,0,0,0,1.9,2.184l7.759-6.754a3.567,3.567,0,0,1,4.682-.027l11.735,9.982a4.511,4.511,0,1,1-5.846,6.873l-7.264-6.179a1.448,1.448,0,0,0-1.962.079l-2.156,2.155a1.448,1.448,0,0,0,2.047,2.048l1.211-1.211,6.247,5.313a7.35,7.35,0,0,0,4.787,1.766q.3,0,.608-.025a7.408,7.408,0,0,0,4.2-13.026l-1.079-.918a7.4,7.4,0,0,0,1.079-12.046l-5.2-4.426,3.145-16.05,2.347-1.967a7.414,7.414,0,0,0,2.452-7.384,8.783,8.783,0,0,1,3.3-1.162,3.343,3.343,0,0,1,3.786,3.588l-1.394,16.848a5.594,5.594,0,0,0,.539,2.9l2.578,5.332a25.136,25.136,0,0,1,.3,21.285l-1.658,3.692a1.448,1.448,0,1,0,2.642,1.187l1.658-3.692a28.024,28.024,0,0,0-.336-23.731Zm-19.311,2.34-4-3.405a6.567,6.567,0,0,0-1.63-1.018l7.776-6.517Z" transform="translate(-450.023 -13807.96)"/>
      <path id="Trazado_203536" data-name="Trazado 203536" d="M358.078,2888.209a1.447,1.447,0,0,0-1.914.728l-3.708,8.258a1.444,1.444,0,0,0-.127.593v10.982a1.448,1.448,0,1,0,2.9,0V2898.1l3.581-7.975a1.448,1.448,0,0,0-.728-1.914" transform="translate(-650.521 -14128.266)"/>
      <path id="Trazado_203537" data-name="Trazado 203537" d="M332.544,2499.591a1.448,1.448,0,0,0,1.448-1.448v-6.115a1.448,1.448,0,0,0-2.9,0v6.115a1.448,1.448,0,0,0,1.448,1.448" transform="translate(-633.393 -13807.613)"/>
      <path id="Trazado_203538" data-name="Trazado 203538" d="M367.455,2511.025a1.447,1.447,0,0,0,1.97-.561l2.975-5.342a1.448,1.448,0,0,0-2.53-1.409l-2.975,5.342a1.448,1.448,0,0,0,.56,1.969" transform="translate(-662.123 -13817.607)"/>
      <path id="Trazado_203539" data-name="Trazado 203539" d="M401.618,2539.3a1.449,1.449,0,0,0-1.993-.469l-5.2,3.22a1.448,1.448,0,1,0,1.525,2.462l5.2-3.219A1.448,1.448,0,0,0,401.618,2539.3Z" transform="translate(-683.927 -13846.361)"/>
      <path id="Trazado_203540" data-name="Trazado 203540" d="M118.477,2854.006a20.07,20.07,0,0,1-4.194-9.9,1.448,1.448,0,1,0-2.871.374,22.961,22.961,0,0,0,4.8,11.331l5.974,7.508v8.867a1.448,1.448,0,1,0,2.9,0v-9.373a1.449,1.449,0,0,0-.315-.9Z" transform="translate(-456.171 -14091.773)"/>
    </g>
  </g>
</svg>
