<svg xmlns="http://www.w3.org/2000/svg" width="150" height="150" viewBox="0 0 150 150">
  <g id="Grupo_150393" data-name="Grupo 150393" transform="translate(-1092.201 -4527.976)">
    <circle id="Elipse_5678" data-name="Elipse 5678" cx="75" cy="75" r="75" transform="translate(1092.201 4527.976)" fill="#fff"/>
    <g id="Grupo_150227" data-name="Grupo 150227" transform="translate(6722 11774.625)">
      <path id="Trazado_203487" data-name="Trazado 203487" d="M149.12,1288.02a15.469,15.469,0,0,1-1.05-2.526l-3.937-1.082v-6.561l3.937-1.083a15.469,15.469,0,0,1,1.05-2.526L147.1,1270.7l3.609-3.593-.016-.016v-28.606H111.329v16.4h-16.4v32.805h19.683a3.29,3.29,0,0,1,3.281,3.28v3.281a3.29,3.29,0,0,1-3.281,3.28v6.561a3.29,3.29,0,0,1,3.281,3.281v3.281a3.29,3.29,0,0,1-3.281,3.281v6.561a3.29,3.29,0,0,1,3.281,3.281v3.28h32.805v-31.886l-3.592-3.609Z" transform="translate(-5676.86 -8452.443)" fill="#e6e9ed"/>
      <rect id="Rectángulo_295899" data-name="Rectángulo 295899" width="26.244" height="9.842" transform="translate(-5558.97 -7207.398)" fill="#f85316"/>
      <path id="Trazado_203488" data-name="Trazado 203488" d="M111.329,1238.483v16.4h-16.4Z" transform="translate(-5676.86 -8452.443)" fill="#dee9f0"/>
      <rect id="Rectángulo_295900" data-name="Rectángulo 295900" width="19.683" height="19.683" transform="translate(-5552.409 -7151.629)" fill="#dce736"/>
      <path id="Trazado_203489" data-name="Trazado 203489" d="M346.08,1363.469a15.468,15.468,0,0,1,2.526-1.05l1.083-3.937h6.561l1.083,3.937a15.469,15.469,0,0,1,2.526,1.05l3.543-2.017,4.642,4.642-2.018,3.543a15.463,15.463,0,0,1,1.05,2.526l3.937,1.082v6.561l-3.937,1.083a15.483,15.483,0,0,1-1.05,2.526l2.018,3.543L363.4,1391.6l-3.543-2.018a15.5,15.5,0,0,1-2.526,1.05l-1.083,3.937h-6.561l-1.083-3.937a15.5,15.5,0,0,1-2.526-1.05l-3.543,2.018-1.05-1.033-3.592-3.609,2.018-3.543a15.478,15.478,0,0,1-1.05-2.526l-3.937-1.083v-6.561l3.937-1.082a15.458,15.458,0,0,1,1.05-2.526l-2.018-3.543,3.609-3.592,1.033-1.05Zm15.09,13.056a8.2,8.2,0,1,0-8.2,8.2,8.2,8.2,0,0,0,8.2-8.2" transform="translate(-5867.652 -8547.839)" fill="#75b62f"/>
      <path id="Trazado_203490" data-name="Trazado 203490" d="M67.012,1641.764v3.281a3.29,3.29,0,0,1-3.281,3.28H34.207a3.29,3.29,0,0,1-3.281-3.28v-3.281a3.29,3.29,0,0,1,3.281-3.281H63.731a3.29,3.29,0,0,1,3.281,3.281" transform="translate(-5625.982 -8770.43)" fill="#3d46c2"/>
      <path id="Trazado_203491" data-name="Trazado 203491" d="M67.012,1561.764v3.281a3.29,3.29,0,0,1-3.281,3.281H34.207a3.29,3.29,0,0,1-3.281-3.281v-3.281a3.29,3.29,0,0,1,3.281-3.281H63.731a3.29,3.29,0,0,1,3.281,3.281" transform="translate(-5625.982 -8706.832)" fill="#3d46c2"/>
      <path id="Trazado_203492" data-name="Trazado 203492" d="M67.012,1481.763v3.281a3.29,3.29,0,0,1-3.281,3.281H34.207a3.29,3.29,0,0,1-3.281-3.281v-3.281a3.29,3.29,0,0,1,3.281-3.28H63.731a3.29,3.29,0,0,1,3.281,3.28" transform="translate(-5625.982 -8643.234)" fill="#3d46c2"/>
      <rect id="Rectángulo_295901" data-name="Rectángulo 295901" width="29.525" height="6.561" transform="translate(-5591.775 -7154.91)" fill="#3d46c2"/>
      <rect id="Rectángulo_295902" data-name="Rectángulo 295902" width="29.525" height="6.561" transform="translate(-5591.775 -7138.507)" fill="#3d46c2"/>
      <path id="Trazado_203493" data-name="Trazado 203493" d="M384.768,1398.483a9.842,9.842,0,1,0,9.842,9.842,9.852,9.852,0,0,0-9.842-9.842m0,16.4a6.561,6.561,0,1,1,6.561-6.561,6.568,6.568,0,0,1-6.561,6.561" transform="translate(-5899.451 -8579.638)"/>
      <path id="Trazado_203494" data-name="Trazado 203494" d="M58.207,1206.684a4.927,4.927,0,0,1,4.921-4.921h60.69a4.927,4.927,0,0,1,4.921,4.921v12.625l-3.556-5.334-2.729,1.819,7.926,11.89L138.3,1215.8l-2.729-1.819-3.556,5.333v-12.625a8.211,8.211,0,0,0-8.2-8.2H63.127a8.211,8.211,0,0,0-8.2,8.2v8.2h3.281Z" transform="translate(-5645.061 -8420.644)"/>
      <rect id="Rectángulo_295903" data-name="Rectángulo 295903" width="3.281" height="3.281" transform="translate(-5590.135 -7202.478)"/>
      <rect id="Rectángulo_295904" data-name="Rectángulo 295904" width="3.281" height="3.281" transform="translate(-5590.135 -7195.917)"/>
      <path id="Trazado_203495" data-name="Trazado 203495" d="M228.451,1262.483H198.926v13.122h29.525Zm-3.281,9.842H202.207v-6.561H225.17Z" transform="translate(-5759.536 -8471.521)"/>
      <path id="Trazado_203496" data-name="Trazado 203496" d="M124.622,1279.3v-9.066l-4.306-1.178c-.141-.376-.3-.751-.469-1.123l2.214-3.881-6.41-6.41-3.881,2.214c-.372-.171-.746-.328-1.124-.469l-1.176-4.3h-9.064l-1.178,4.306c-.376.141-.751.3-1.124.469l-3.008-1.717v-27.661H53.412l-17.364,17.364v31.844h-8.2a4.927,4.927,0,0,0-4.921,4.921v3.281a4.914,4.914,0,0,0,3.281,4.619v3.886a4.91,4.91,0,0,0-3.281,4.617v3.281a4.914,4.914,0,0,0,3.281,4.619v3.886a4.91,4.91,0,0,0-3.281,4.617v3.28a4.927,4.927,0,0,0,4.921,4.921H57.372a4.914,4.914,0,0,0,4.619-3.281H95.1V1291.4l3.008-1.717c.371.17.746.328,1.124.469l1.178,4.306h9.064l1.178-4.306c.377-.141.753-.3,1.124-.469l3.879,2.216,6.41-6.408-2.214-3.882c.171-.372.328-.746.469-1.122Zm-72.172-43.221v10.8h-10.8Zm-26.244,48.529a1.642,1.642,0,0,1,1.64-1.64H57.372a1.642,1.642,0,0,1,1.64,1.64v3.281a1.642,1.642,0,0,1-1.64,1.64H27.847a1.642,1.642,0,0,1-1.64-1.64Zm29.525,11.482H29.487v-3.281H55.731Zm-29.525,4.921a1.642,1.642,0,0,1,1.64-1.64H57.372a1.642,1.642,0,0,1,1.64,1.64v3.281a1.642,1.642,0,0,1-1.64,1.64H27.847a1.642,1.642,0,0,1-1.64-1.64ZM55.731,1312.5H29.487v-3.28H55.731Zm3.281,8.2a1.642,1.642,0,0,1-1.64,1.641H27.847a1.642,1.642,0,0,1-1.64-1.641v-3.28a1.642,1.642,0,0,1,1.64-1.64H57.372a1.642,1.642,0,0,1,1.64,1.64Zm3.281-1.64v-1.64a4.914,4.914,0,0,0-3.281-4.619v-3.886a4.914,4.914,0,0,0,3.281-4.619v-3.281a4.913,4.913,0,0,0-3.281-4.619v-3.886a4.914,4.914,0,0,0,3.281-4.619v-3.281a4.927,4.927,0,0,0-4.921-4.921H39.329v-29.521h16.4v-16.4H91.817v26.293l-4,4,2.214,3.881c-.171.372-.328.746-.469,1.124l-4.306,1.176v9.066l4.306,1.178q.212.564.469,1.122l-2.214,3.882,4,4v29.572Zm55.68-34.124-2.87,2.869-3.246-1.854-.8.423a12.991,12.991,0,0,1-2.246.938l-.861.264-.984,3.6H102.91l-.984-3.6-.861-.264a13.106,13.106,0,0,1-2.246-.938l-.8-.423-3.246,1.853-2.87-2.869,1.852-3.246-.42-.8a13.129,13.129,0,0,1-.938-2.249l-.266-.859-3.6-.988v-4.056l3.6-.984.266-.861a13,13,0,0,1,.938-2.249l.42-.8-1.852-3.246,2.87-2.87,3.246,1.852.8-.42a13.085,13.085,0,0,1,2.249-.938l.861-.266.984-3.6h4.058l.984,3.6.861.266a13.014,13.014,0,0,1,2.249.938l.8.42,3.246-1.852,2.87,2.87-1.852,3.246.42.8a13.084,13.084,0,0,1,.938,2.249l.266.861,3.6.984v4.056l-3.6.986-.266.86a13.124,13.124,0,0,1-.938,2.249l-.42.8Z" transform="translate(-5619.622 -8446.083)"/>
      <rect id="Rectángulo_295905" data-name="Rectángulo 295905" width="3.281" height="3.281" transform="translate(-5577.013 -7192.636)"/>
      <rect id="Rectángulo_295906" data-name="Rectángulo 295906" width="39.366" height="3.281" transform="translate(-5570.452 -7192.636)"/>
      <rect id="Rectángulo_295907" data-name="Rectángulo 295907" width="42.647" height="3.281" transform="translate(-5577.013 -7186.075)"/>
      <rect id="Rectángulo_295908" data-name="Rectángulo 295908" width="42.647" height="3.281" transform="translate(-5577.013 -7179.514)"/>
      <rect id="Rectángulo_295909" data-name="Rectángulo 295909" width="26.244" height="3.281" transform="translate(-5577.013 -7172.953)"/>
      <rect id="Rectángulo_295910" data-name="Rectángulo 295910" width="3.281" height="3.281" transform="translate(-5547.488 -7172.953)"/>
      <rect id="Rectángulo_295911" data-name="Rectángulo 295911" width="3.281" height="3.281" transform="translate(-5540.927 -7172.953)"/>
      <path id="Trazado_203497" data-name="Trazado 203497" d="M230.926,1557.447H253.89v-22.963H230.926Zm3.281-19.683h16.4v16.4h-16.4Z" transform="translate(-5784.976 -8687.753)"/>
      <rect id="Rectángulo_295912" data-name="Rectángulo 295912" width="19.683" height="3.281" transform="translate(-5554.05 -7159.831)"/>
    </g>
  </g>
</svg>
