<svg xmlns="http://www.w3.org/2000/svg" width="150" height="150" viewBox="0 0 150 150">
  <g id="Grupo_150474" data-name="Grupo 150474" transform="translate(-1262.815 -3064.726)">
    <circle id="Elipse_5678" data-name="Elipse 5678" cx="75" cy="75" r="75" transform="translate(1262.815 3064.726)" fill="#fff"/>
    <g id="Trazado_204727" data-name="Trazado 204727" transform="translate(1275.315 3107.738)" fill="#fa7e50">
      <path d="M 110 61.97559356689453 L 15 61.97559356689453 C 11.5275821685791 61.97559356689453 8.262981414794922 60.62335586547852 5.807618141174316 58.16797637939453 C 3.352236270904541 55.71261215209961 2 52.4480094909668 2 48.97559356689453 L 2 14.99999332427979 C 2 11.52757453918457 3.352236270904541 8.262992858886719 5.807618141174316 5.807610988616943 C 8.262981414794922 3.352229356765747 11.5275821685791 1.999992966651917 15 1.999992966651917 L 110 1.999992966651917 C 113.4724197387695 1.999992966651917 116.7370147705078 3.352229356765747 119.1923828125 5.807610988616943 C 121.6477661132812 8.262992858886719 123 11.52757453918457 123 14.99999332427979 L 123 48.97559356689453 C 123 52.4480094909668 121.6477661132812 55.71261215209961 119.1923828125 58.16797637939453 C 116.7370147705078 60.62335586547852 113.4724197387695 61.97559356689453 110 61.97559356689453 Z" stroke="none"/>
      <path d="M 15 3.999992370605469 C 12.06179809570312 3.999992370605469 9.2994384765625 5.144191741943359 7.221817016601562 7.221813201904297 C 5.144203186035156 9.299453735351562 4 12.06179428100586 4 14.99999237060547 L 4 48.97559356689453 C 4 51.91379165649414 5.144203186035156 54.67613220214844 7.221817016601562 56.7537727355957 C 9.2994384765625 58.83139419555664 12.06179809570312 59.97559356689453 15 59.97559356689453 L 110 59.97559356689453 C 112.9382019042969 59.97559356689453 115.7005386352539 58.83139419555664 117.7781829833984 56.7537727355957 C 119.8557968139648 54.67613220214844 121 51.91379165649414 121 48.97559356689453 L 121 14.99999237060547 C 121 12.06179428100586 119.8557968139648 9.299453735351562 117.7781829833984 7.221813201904297 C 115.7005386352539 5.144191741943359 112.9382019042969 3.999992370605469 110 3.999992370605469 L 15 3.999992370605469 M 15 -7.62939453125e-06 L 110 -7.62939453125e-06 C 118.2842559814453 -7.62939453125e-06 125 6.715732574462891 125 14.99999237060547 L 125 48.97559356689453 C 125 57.25985336303711 118.2842559814453 63.97559356689453 110 63.97559356689453 L 15 63.97559356689453 C 6.715721130371094 63.97559356689453 0 57.25985336303711 0 48.97559356689453 L 0 14.99999237060547 C 0 6.715732574462891 6.715721130371094 -7.62939453125e-06 15 -7.62939453125e-06 Z" stroke="none" fill="#f85316"/>
    </g>
    <path id="Trazado_204726" data-name="Trazado 204726" d="M30.523,19H27.447V6.2h3.076Zm12.832,0H40.288l-4.535-7.963V19H32.667V6.2h3.085l4.526,7.963V6.2h3.076Zm8.552-3.4a1.268,1.268,0,0,0-.479-1.055,5.954,5.954,0,0,0-1.683-.782,16.147,16.147,0,0,1-1.969-.782q-2.487-1.222-2.487-3.357a3.011,3.011,0,0,1,.62-1.876A4.008,4.008,0,0,1,47.662,6.48a6.823,6.823,0,0,1,2.549-.453,5.969,5.969,0,0,1,2.474.492,3.917,3.917,0,0,1,1.7,1.4A3.661,3.661,0,0,1,54.992,10H51.916a1.547,1.547,0,0,0-.479-1.213,1.867,1.867,0,0,0-1.3-.431,2.106,2.106,0,0,0-1.305.365,1.074,1.074,0,0,0,.048,1.819,6.65,6.65,0,0,0,1.854.826,11.36,11.36,0,0,1,2.18.918,3.663,3.663,0,0,1,2.074,3.3,3.125,3.125,0,0,1-1.266,2.637,5.629,5.629,0,0,1-3.472.958,6.888,6.888,0,0,1-2.817-.558,4.247,4.247,0,0,1-1.9-1.529,3.985,3.985,0,0,1-.637-2.237H48a1.963,1.963,0,0,0,.532,1.516,2.513,2.513,0,0,0,1.727.488,1.985,1.985,0,0,0,1.208-.33A1.088,1.088,0,0,0,51.907,15.6Zm12.6-2.03H59.659v3.059h5.73V19H56.574V6.2h8.833V8.585H59.659v2.7H64.51Zm6.891.905h-1.67V19H66.646V6.2h5.036a5.621,5.621,0,0,1,3.56,1.01,3.421,3.421,0,0,1,1.283,2.853,4.155,4.155,0,0,1-.541,2.213A3.837,3.837,0,0,1,74.292,13.7l2.672,5.167V19h-3.3ZM69.731,12.1h1.951A1.751,1.751,0,0,0,73,11.638a1.788,1.788,0,0,0,.444-1.291A1.809,1.809,0,0,0,73,9.048a1.735,1.735,0,0,0-1.318-.471H69.731ZM87.995,8.585H84.154V19H81.069V8.585H77.3V6.2h10.7Z" transform="translate(1280.516 3128.726)" fill="#f6f6f6"/>
  </g>
</svg>
