<svg xmlns="http://www.w3.org/2000/svg" width="150" height="150" viewBox="0 0 150 150">
  <g id="Grupo_150391" data-name="Grupo 150391" transform="translate(-362.201 -4527.976)">
    <circle id="Elipse_5676" data-name="Elipse 5676" cx="75" cy="75" r="75" transform="translate(362.201 4527.976)" fill="#fff"/>
    <g id="Grupo_150225" data-name="Grupo 150225" transform="translate(5985.783 11988.703)">
      <path id="Trazado_203432" data-name="Trazado 203432" d="M33.173,347.71V318.032s9.057-5,18.681-3.207,8.3,6.321,8.3,6.321l.061,27.266s-18.931,8.126-27.044-.7" transform="translate(-5627.857 -7692.961)" fill="#f85316"/>
      <path id="Trazado_203433" data-name="Trazado 203433" d="M343.415,347.221c-.14-.339,0-29.625,0-29.625a35.6,35.6,0,0,1,15.147-3.187c8.437.181,11.522,4,11.522,4l.629,29.273s-3.711,4.507-8.428,4.507-16.6.5-18.869-4.969" transform="translate(-5873.818 -7692.933)" fill="#75b62f"/>
      <path id="Trazado_203434" data-name="Trazado 203434" d="M136.975,30.208A24.227,24.227,0,1,1,161.2,54.435a24.227,24.227,0,0,1-24.227-24.227" transform="translate(-5710.169 -7448.367)" fill="#3d46c2"/>
      <path id="Trazado_203515" data-name="Trazado 203515" d="M185.8,55.676a2.24,2.24,0,1,1,2.24,2.24,2.24,2.24,0,0,1-2.24-2.24" transform="translate(-5748.881 -7485.997)" fill="#dce736"/>
      <path id="Trazado_203516" data-name="Trazado 203516" d="M241.53,114.13a2.579,2.579,0,1,1,2.579,2.579,2.579,2.579,0,0,1-2.579-2.579" transform="translate(-5793.077 -7532.08)" fill="#dce736"/>
      <path id="Trazado_203517" data-name="Trazado 203517" d="M299.1,172.765a2.43,2.43,0,1,1,2.43,2.43,2.43,2.43,0,0,1-2.43-2.43" transform="translate(-5838.731 -7578.694)" fill="#dce736"/>
      <path id="Trazado_203518" data-name="Trazado 203518" d="M362.4,166.752,364.164,168a29.707,29.707,0,0,0,4.434-9.373l-2.086-.571A27.535,27.535,0,0,1,362.4,166.752Z" transform="translate(-5888.923 -7568.959)"/>
      <path id="Trazado_203519" data-name="Trazado 203519" d="M387.82,123.006h-2.162a27.529,27.529,0,0,1-.347,4.341l2.135.343a29.6,29.6,0,0,0,.375-4.684" transform="translate(-5907.09 -7541.163)"/>
      <path id="Trazado_203520" data-name="Trazado 203520" d="M135.5,33.448l-1.672-1.369a29.761,29.761,0,0,0-2.4,3.4l1.849,1.121A27.534,27.534,0,0,1,135.5,33.448Z" transform="translate(-5705.765 -7469.062)"/>
      <path id="Trazado_203521" data-name="Trazado 203521" d="M110.544,77.7h2.163a27.412,27.412,0,0,1,2.284-10.969l-1.983-.86A29.546,29.546,0,0,0,110.544,77.7Z" transform="translate(-5689.209 -7495.857)"/>
      <path id="Trazado_203522" data-name="Trazado 203522" d="M79.483,326.372l.245,2.148a32.51,32.51,0,0,1,3.665-.2,25.53,25.53,0,0,1,7.582.984l.646-2.063a27.68,27.68,0,0,0-8.228-1.084,34.705,34.705,0,0,0-3.91.212" transform="translate(-5664.58 -7702.257)"/>
      <path id="Trazado_203523" data-name="Trazado 203523" d="M58.629,328.969l.646,2.064a18.94,18.94,0,0,1,2.385-.567l-.373-2.129A21.214,21.214,0,0,0,58.629,328.969Z" transform="translate(-5648.043 -7703.983)"/>
      <rect id="Rectángulo_295919" data-name="Rectángulo 295919" width="1.581" height="2.162" transform="translate(-5588.531 -7366.585)"/>
      <rect id="Rectángulo_295920" data-name="Rectángulo 295920" width="1.581" height="2.162" transform="translate(-5584.258 -7366.585)"/>
      <rect id="Rectángulo_295921" data-name="Rectángulo 295921" width="1.581" height="2.162" transform="translate(-5579.695 -7366.585)"/>
      <rect id="Rectángulo_295922" data-name="Rectángulo 295922" width="1.581" height="2.162" transform="translate(-5575.422 -7366.585)"/>
      <rect id="Rectángulo_295923" data-name="Rectángulo 295923" width="1.581" height="2.162" transform="translate(-5588.531 -7356.756)"/>
      <rect id="Rectángulo_295924" data-name="Rectángulo 295924" width="1.581" height="2.162" transform="translate(-5584.258 -7356.756)"/>
      <rect id="Rectángulo_295925" data-name="Rectángulo 295925" width="1.581" height="2.162" transform="translate(-5579.695 -7356.756)"/>
      <rect id="Rectángulo_295926" data-name="Rectángulo 295926" width="1.581" height="2.162" transform="translate(-5575.422 -7356.756)"/>
      <rect id="Rectángulo_295927" data-name="Rectángulo 295927" width="1.581" height="2.162" transform="translate(-5588.353 -7347.413)"/>
      <rect id="Rectángulo_295928" data-name="Rectángulo 295928" width="1.581" height="2.162" transform="translate(-5584.079 -7347.413)"/>
      <rect id="Rectángulo_295929" data-name="Rectángulo 295929" width="1.581" height="2.162" transform="translate(-5579.517 -7347.413)"/>
      <rect id="Rectángulo_295930" data-name="Rectángulo 295930" width="1.58" height="2.162" transform="translate(-5575.243 -7347.413)"/>
      <path id="Trazado_203524" data-name="Trazado 203524" d="M92.308,69.64V97.987c0,3.812,7.342,5.806,14.6,5.806s14.6-1.994,14.6-5.806V69.64c0-3.622-6.632-5.6-13.516-5.787V60.239a5.212,5.212,0,0,0-5.206-5.206H75.764v-4.12c11.667-.349,24.366-10.156,24.366-25.45A25.478,25.478,0,0,0,75.033.025c-13.007-.67-25.8,10.616-25.8,25.438,0,14.485,12.636,26.131,24.366,25.462v4.108H46.589a5.212,5.212,0,0,0-5.206,5.206v3.614c-6.884.188-13.515,2.165-13.515,5.787V97.987c0,3.812,7.343,5.806,14.6,5.806s14.6-1.994,14.6-5.806V69.64c0-3.622-6.631-5.6-13.515-5.787V60.239a3.047,3.047,0,0,1,3.043-3.044h56.19a3.047,3.047,0,0,1,3.043,3.044v3.614c-6.884.188-13.515,2.165-13.515,5.787M51.445,24.382A23.361,23.361,0,0,1,56.1,11.464,25.845,25.845,0,0,0,59.274,13.1a3.721,3.721,0,0,0,1.689,3.353,42.514,42.514,0,0,0-.92,7.932Zm15.9-21.021a21.918,21.918,0,0,0-4.133,6.17,3.787,3.787,0,0,0-3.218,1.53,23.911,23.911,0,0,1-2.521-1.285,23.315,23.315,0,0,1,9.872-6.415M91.9,9.777a25.484,25.484,0,0,1-4.769,2.16,22.9,22.9,0,0,0-5.1-8.569A23.091,23.091,0,0,1,91.9,9.777M89.2,43.665a23.511,23.511,0,0,1-5.334,3.2l-.171.075c-.539.225-1.091.417-1.642.6A22.065,22.065,0,0,0,86.2,41.288a3.848,3.848,0,0,0,3.213-1.4,23.437,23.437,0,0,1,2.478,1.267,22.1,22.1,0,0,1-2.7,2.514M62.523,14.835A1.617,1.617,0,0,1,61.5,12.793l0-.006c0-.006.005-.01.007-.016a1.661,1.661,0,0,1,1.481-1.084,1.617,1.617,0,1,1-.468,3.147m4.3-1.677a3.86,3.86,0,0,0-1.554-2.92c1.188-2.5,4-7.263,8.335-7.965v11.6a40.118,40.118,0,0,1-6.781-.712M85.915,39.047a1.614,1.614,0,0,1-1.044-1.872l0-.012a1.622,1.622,0,0,1,3.2.364,1.6,1.6,0,0,1-2.161,1.52m-10.151,9.6V37.065a40.911,40.911,0,0,1,6.917.732,3.859,3.859,0,0,0,1.488,2.74c-1.18,2.522-4.006,7.4-8.405,8.114M78.29,24.382a3.773,3.773,0,0,0-2.526-2.526V16.031A41.917,41.917,0,0,0,85.7,14.617a39.042,39.042,0,0,1,1.454,9.765ZM75.764,13.864V2.277c3.711.616,7.176,4.449,9.292,10.281a40.094,40.094,0,0,1-9.292,1.306m-1.081,9.978a1.622,1.622,0,1,1-1.622,1.622,1.623,1.623,0,0,1,1.622-1.622m1.081,5.229a3.773,3.773,0,0,0,2.526-2.526h8.874a39.961,39.961,0,0,1-.805,7.2,3.83,3.83,0,0,0-3.21,1.964,43.324,43.324,0,0,0-7.385-.81V29.07ZM73.6,48.65c-3.713-.628-7.18-4.463-9.292-10.274a39.659,39.659,0,0,1,9.292-1.3ZM90.2,37.878a3.732,3.732,0,0,0-1.773-3.565,42.022,42.022,0,0,0,.892-7.769h8.6A23.359,23.359,0,0,1,93.27,39.463,25.46,25.46,0,0,0,90.2,37.878Zm-.892-13.5A41.216,41.216,0,0,0,87.767,14a27.33,27.33,0,0,0,5.5-2.542,23.358,23.358,0,0,1,4.658,12.928Zm-26.292-7.3h.02c.027,0,.053-.006.08-.007a3.687,3.687,0,0,0,3.161-1.839,42.314,42.314,0,0,0,7.319.8v5.815a3.773,3.773,0,0,0-2.526,2.526H62.2a40.453,40.453,0,0,1,.819-7.3m8.055,9.459A3.774,3.774,0,0,0,73.6,29.07v5.837a41.694,41.694,0,0,0-9.935,1.406,39.076,39.076,0,0,1-1.452-9.769ZM62.24,39a22.869,22.869,0,0,0,5.055,8.5,26.939,26.939,0,0,1-9.813-6.349A26.482,26.482,0,0,1,62.24,39M51.445,26.544h8.608a41.264,41.264,0,0,0,1.547,10.4,28.234,28.234,0,0,0-5.494,2.532,23.358,23.358,0,0,1-4.661-12.931m-8.98,75.086c-7.59,0-12.434-2.158-12.434-3.644V91.718c2.708,1.729,7.585,2.625,12.434,2.625s9.725-.9,12.434-2.625v6.268c0,1.486-4.844,3.644-12.434,3.644m0-9.449c-7.59,0-12.434-2.158-12.434-3.644V82.269c2.708,1.73,7.585,2.625,12.434,2.625S52.19,84,54.9,82.269v6.268c0,1.486-4.844,3.644-12.434,3.644m0-9.449c-7.59,0-12.434-2.158-12.434-3.644V72.82c2.708,1.729,7.585,2.625,12.434,2.625s9.725-.9,12.434-2.625v6.268c0,1.486-4.844,3.644-12.434,3.644M54.9,69.64c0,1.485-4.844,3.643-12.434,3.643S30.03,71.126,30.03,69.64,34.874,66,42.465,66,54.9,68.154,54.9,69.64M106.9,101.63c-7.59,0-12.434-2.158-12.434-3.644V91.718c2.708,1.73,7.585,2.625,12.434,2.625s9.726-.9,12.435-2.625v6.269c0,1.486-4.844,3.644-12.435,3.644m0-9.449c-7.59,0-12.434-2.158-12.434-3.644V82.269c2.708,1.73,7.585,2.625,12.434,2.625s9.726-.9,12.435-2.625v6.269C119.338,90.023,114.494,92.181,106.9,92.181Zm0-9.449c-7.59,0-12.434-2.158-12.434-3.644V72.82c2.708,1.729,7.585,2.625,12.434,2.625s9.726-.9,12.435-2.625v6.268C119.338,80.575,114.494,82.732,106.9,82.732ZM119.338,69.64c0,1.485-4.844,3.643-12.435,3.643S94.47,71.126,94.47,69.64,99.313,66,106.9,66s12.435,2.158,12.435,3.644" transform="translate(-5623.651 -7443.622)"/>
      <path id="Trazado_203525" data-name="Trazado 203525" d="M390.726,326.372l.245,2.148a32.531,32.531,0,0,1,3.665-.2,25.53,25.53,0,0,1,7.582.984l.646-2.063a27.681,27.681,0,0,0-8.228-1.084,34.724,34.724,0,0,0-3.91.212" transform="translate(-5911.383 -7702.257)"/>
      <path id="Trazado_203526" data-name="Trazado 203526" d="M369.871,328.969l.646,2.064a18.866,18.866,0,0,1,2.386-.567l-.374-2.129A21.315,21.315,0,0,0,369.871,328.969Z" transform="translate(-5894.847 -7703.983)"/>
      <rect id="Rectángulo_295931" data-name="Rectángulo 295931" width="1.581" height="2.162" transform="translate(-5524.093 -7366.585)"/>
      <rect id="Rectángulo_295932" data-name="Rectángulo 295932" width="1.581" height="2.162" transform="translate(-5519.819 -7366.585)"/>
      <rect id="Rectángulo_295933" data-name="Rectángulo 295933" width="1.581" height="2.162" transform="translate(-5515.257 -7366.585)"/>
      <rect id="Rectángulo_295934" data-name="Rectángulo 295934" width="1.581" height="2.162" transform="translate(-5510.983 -7366.585)"/>
      <rect id="Rectángulo_295935" data-name="Rectángulo 295935" width="1.581" height="2.162" transform="translate(-5524.093 -7356.756)"/>
      <rect id="Rectángulo_295936" data-name="Rectángulo 295936" width="1.581" height="2.162" transform="translate(-5519.819 -7356.756)"/>
      <rect id="Rectángulo_295937" data-name="Rectángulo 295937" width="1.581" height="2.162" transform="translate(-5515.257 -7356.756)"/>
      <rect id="Rectángulo_295938" data-name="Rectángulo 295938" width="1.581" height="2.162" transform="translate(-5510.983 -7356.756)"/>
      <rect id="Rectángulo_295939" data-name="Rectángulo 295939" width="1.58" height="2.162" transform="translate(-5523.914 -7347.413)"/>
      <rect id="Rectángulo_295940" data-name="Rectángulo 295940" width="1.58" height="2.162" transform="translate(-5519.641 -7347.413)"/>
      <rect id="Rectángulo_295941" data-name="Rectángulo 295941" width="1.581" height="2.162" transform="translate(-5515.078 -7347.413)"/>
      <rect id="Rectángulo_295942" data-name="Rectángulo 295942" width="1.581" height="2.162" transform="translate(-5510.804 -7347.413)"/>
      <rect id="Rectángulo_295943" data-name="Rectángulo 295943" width="3.455" height="2.162" transform="translate(-5565.691 -7393.936)"/>
      <rect id="Rectángulo_295944" data-name="Rectángulo 295944" width="8.926" height="2.162" transform="translate(-5577.021 -7393.936)"/>
      <rect id="Rectángulo_295945" data-name="Rectángulo 295945" width="8.418" height="2.162" transform="translate(-5528.125 -7393.936)"/>
      <rect id="Rectángulo_295946" data-name="Rectángulo 295946" width="3.578" height="2.162" transform="translate(-5534.492 -7393.936)"/>
      <rect id="Rectángulo_295947" data-name="Rectángulo 295947" width="2.162" height="12.554" transform="translate(-5563.317 -7361.47)"/>
      <rect id="Rectángulo_295948" data-name="Rectángulo 295948" width="2.162" height="5.095" transform="translate(-5563.317 -7371.096)"/>
      <rect id="Rectángulo_295949" data-name="Rectángulo 295949" width="2.162" height="13.53" transform="translate(-5536.459 -7362.447)"/>
      <rect id="Rectángulo_295950" data-name="Rectángulo 295950" width="2.162" height="5.3" transform="translate(-5536.459 -7371.096)"/>
    </g>
  </g>
</svg>
