<svg xmlns="http://www.w3.org/2000/svg" width="104.249" height="105.045" viewBox="0 0 104.249 105.045">
  <g id="Grupo_150401" data-name="Grupo 150401" transform="translate(-750.886 -809.914)">
    <g id="Grupo_118194" data-name="Grupo 118194" transform="translate(750.886 809.914)">
      <g id="Grupo_118173" data-name="Grupo 118173" transform="translate(0 0)">
        <ellipse id="Elipse_6071" data-name="Elipse 6071" cx="52.124" cy="52.522" rx="52.124" ry="52.522" fill="#fff"/>
      </g>
    </g>
    <g id="Grupo_150245" data-name="Grupo 150245" transform="translate(632.985 11685)">
      <path id="Trazado_203687" data-name="Trazado 203687" d="M56.53,1303.3v44.9c0,2.4,2.787,4.316,7.233,5.746V1342.46c13.144-4.23,40.8-4.231,53.943,0v11.491c4.447-1.432,7.233-3.347,7.233-5.746v-44.9c0-11.889-68.409-11.888-68.409,0" transform="translate(77.254 -12148.197)" fill="#d9feff"/>
      <path id="Trazado_203688" data-name="Trazado 203688" d="M506.034,1647.672c0,2.4-2.787,4.314-7.233,5.745v-11.491c4.447,1.432,7.233,3.347,7.233,5.745" transform="translate(-303.841 -12447.667)" fill="#aefcfe"/>
      <path id="Trazado_203689" data-name="Trazado 203689" d="M63.764,1364.589V1398c-4.448,1.43-7.233,3.344-7.233,5.742v-44.9c0,2.4,2.787,4.314,7.233,5.746" transform="translate(77.253 -12203.741)" fill="#abbac2"/>
      <path id="Trazado_203690" data-name="Trazado 203690" d="M506.034,1358.843v44.9c0-2.4-2.787-4.314-7.233-5.745v-33.413c4.447-1.43,7.233-3.345,7.233-5.744" transform="translate(-303.841 -12203.741)" fill="#abbac2"/>
      <path id="Trazado_203691" data-name="Trazado 203691" d="M56.53,1303.3c0,2.4,2.787,4.314,7.233,5.746v33.414c13.144-4.23,40.8-4.231,53.943,0v-33.413c4.447-1.43,7.233-3.345,7.233-5.744,0-11.889-68.409-11.888-68.409,0" transform="translate(77.254 -12148.197)" fill="#fff"/>
      <path id="Trazado_203692" data-name="Trazado 203692" d="M177.257,1522.582a3,3,0,1,1-3,3,3,3,0,0,1,3-3" transform="translate(-24.187 -12344.831)" fill="#dce736"/>
      <path id="Trazado_203693" data-name="Trazado 203693" d="M341.788,1358.968a5.951,5.951,0,0,1,3.224-3.836,4.528,4.528,0,1,1,5.017,0,5.936,5.936,0,0,1,3.426,5.381A44.572,44.572,0,0,0,341.788,1358.968Z" transform="translate(-168.547 -12193.391)" fill="#dce736"/>
      <path id="Trazado_203694" data-name="Trazado 203694" d="M195.576,1347.9v10.32a124.953,124.953,0,0,0-13.859,1.016v-10.32a124.924,124.924,0,0,1,13.859-1.016" transform="translate(-30.617 -12194.309)" fill="#3d46c2"/>
      <path id="Trazado_203695" data-name="Trazado 203695" d="M252.5,1651.469v9.741a2.36,2.36,0,0,1-2.359,2.359H235.237a2.36,2.36,0,0,1-2.359-2.359v-9.741a2.36,2.36,0,0,1,2.359-2.359h14.905a2.36,2.36,0,0,1,2.359,2.359" transform="translate(-74.701 -12453.857)" fill="#f85316"/>
      <path id="Trazado_203696" data-name="Trazado 203696" d="M116.413,1305.083v35.758c0,1.432-1.716,2.857-4.875,4.079v-8.157c1.048.4,1.088.505,1.454.505a1.181,1.181,0,0,0,.481-2.257q-.892-.4-1.935-.763V1302.53c9.632-3.385,11.176-10.827-4.367-14.428-13.015-3.016-34.548-3.016-47.564,0-7.7,1.784-11.6,4.42-11.6,7.836v35.474a1.18,1.18,0,0,0,2.359,0v-31.348a17.437,17.437,0,0,0,4.875,2.467v42.39c-4.724-1.828-6.863-4.374-2.511-6.967a1.179,1.179,0,0,0-1.207-2.026c-2.333,1.39-3.515,3.043-3.515,4.914,0,2.839,2.709,5.149,8.052,6.868a1.18,1.18,0,0,0,1.541-1.123v-10.618a72,72,0,0,1,13.035-2.283,1.18,1.18,0,0,0-.224-2.348,76.975,76.975,0,0,0-12.811,2.178v-31.832a1.179,1.179,0,0,0-.818-1.123c-10.311-3.317-7.472-7.65,3.361-10.161,12.663-2.934,33.828-2.937,46.5,0,10.7,2.48,13.764,6.813,3.359,10.16a1.18,1.18,0,0,0-.818,1.123v31.831a86.7,86.7,0,0,0-17.54-2.535v-.525c0-10.959-16.5-10.965-16.5,0V1335a3.545,3.545,0,0,0-2.74,3.448v9.74a3.542,3.542,0,0,0,3.538,3.538H90.841a3.543,3.543,0,0,0,3.538-3.538v-6.359a1.18,1.18,0,0,0-2.359,0v6.359a1.181,1.181,0,0,1-1.179,1.179h-14.9a1.181,1.181,0,0,1-1.179-1.179v-9.74a1.181,1.181,0,0,1,1.179-1.18H90.46a1.18,1.18,0,0,0,1.179-1.18v-2.748a82.61,82.61,0,0,1,17.54,2.63v10.615a1.18,1.18,0,0,0,1.541,1.123c5.343-1.719,8.052-4.029,8.052-6.867v-35.758A1.18,1.18,0,0,0,116.413,1305.083ZM89.281,1334.91H77.5v-1.686c3.9-.16,6.436-.108,7.792-.108a1.179,1.179,0,0,0,.015-2.359c-2.615-.034-5.235,0-7.808.106v-.41c0-7.84,11.785-7.842,11.785,0v4.456Z" transform="translate(84.6 -12140.836)"/>
      <path id="Trazado_203697" data-name="Trazado 203697" d="M189.41,1350.876v-10.32a1.179,1.179,0,0,0-1.2-1.179,126.465,126.465,0,0,0-13.992,1.026,1.179,1.179,0,0,0-1.022,1.169v10.321a1.18,1.18,0,0,0,1.179,1.18,128.24,128.24,0,0,1,13.883-1.016,1.179,1.179,0,0,0,1.155-1.179m-2.359-1.151c-4.02.115-7.949.4-11.5.826v-7.944c3.534-.437,7.467-.725,11.5-.843Z" transform="translate(-23.271 -12186.967)"/>
      <path id="Trazado_203698" data-name="Trazado 203698" d="M333.259,1351.318a1.179,1.179,0,0,0,2.278.612,4.749,4.749,0,0,1,2.584-3.074,1.18,1.18,0,0,0,.155-2.05,3.349,3.349,0,1,1,3.709,0,1.18,1.18,0,0,0,.155,2.05,4.777,4.777,0,0,1,2.747,4.312,1.18,1.18,0,0,0,2.359,0,7.148,7.148,0,0,0-2.677-5.56,5.708,5.708,0,1,0-8.877,0A7.094,7.094,0,0,0,333.259,1351.318Z" transform="translate(-161.156 -12186.047)"/>
      <path id="Trazado_203699" data-name="Trazado 203699" d="M292.078,1467.054a1.18,1.18,0,0,0,0,2.359,129.051,129.051,0,0,1,17.345,1.034,1.18,1.18,0,0,0,.315-2.338,131.025,131.025,0,0,0-17.665-1.055" transform="translate(-124.708 -12296.982)"/>
      <path id="Trazado_203700" data-name="Trazado 203700" d="M174.251,1469.181a1.18,1.18,0,0,0,.156,2.348c.392,0,3.621-.568,9.869-.876a1.18,1.18,0,0,0-.116-2.356c-3.51.173-6.844.47-9.909.884" transform="translate(-23.309 -12298.053)"/>
      <path id="Trazado_203701" data-name="Trazado 203701" d="M369.135,1525.236c2.761.235,5.414.553,7.885.948a1.179,1.179,0,0,0,.372-2.329c-2.528-.4-5.239-.729-8.057-.969A1.18,1.18,0,0,0,369.135,1525.236Z" transform="translate(-191.188 -12345.088)"/>
      <path id="Trazado_203702" data-name="Trazado 203702" d="M288.96,1686.986v-2.54h.224a1.179,1.179,0,0,0,0-2.359h-2.806a1.179,1.179,0,0,0,0,2.359h.223v2.54a1.18,1.18,0,0,0,2.359,0" transform="translate(-119.792 -12482.272)"/>
      <path id="Trazado_203703" data-name="Trazado 203703" d="M169.911,1522.418a4.18,4.18,0,1,0-4.181-4.18,4.185,4.185,0,0,0,4.181,4.18m0-6a1.822,1.822,0,1,1-1.822,1.822,1.824,1.824,0,0,1,1.822-1.822" transform="translate(-16.841 -12337.485)"/>
    </g>
  </g>
</svg>
