<svg xmlns="http://www.w3.org/2000/svg" width="150" height="150" viewBox="0 0 150 150">
  <g id="Grupo_150475" data-name="Grupo 150475" transform="translate(-727.701 -3628.351)">
    <circle id="Elipse_5677" data-name="Elipse 5677" cx="75" cy="75" r="75" transform="translate(727.701 3628.351)" fill="#fff"/>
    <g id="Trazado_204731" data-name="Trazado 204731" transform="translate(740.201 3674.363)" fill="#fa7e50">
      <path d="M 110 61.97559356689453 L 15 61.97559356689453 C 11.5275821685791 61.97559356689453 8.262981414794922 60.62335586547852 5.807618141174316 58.16797637939453 C 3.352236270904541 55.71261215209961 2 52.4480094909668 2 48.97559356689453 L 2 14.99999332427979 C 2 11.52757453918457 3.352236270904541 8.262992858886719 5.807618141174316 5.807610988616943 C 8.262981414794922 3.352229356765747 11.5275821685791 1.999992966651917 15 1.999992966651917 L 110 1.999992966651917 C 113.4724197387695 1.999992966651917 116.7370147705078 3.352229356765747 119.1923828125 5.807610988616943 C 121.6477661132812 8.262992858886719 123 11.52757453918457 123 14.99999332427979 L 123 48.97559356689453 C 123 52.4480094909668 121.6477661132812 55.71261215209961 119.1923828125 58.16797637939453 C 116.7370147705078 60.62335586547852 113.4724197387695 61.97559356689453 110 61.97559356689453 Z" stroke="none"/>
      <path d="M 15 3.999992370605469 C 12.06179809570312 3.999992370605469 9.2994384765625 5.144191741943359 7.221817016601562 7.221813201904297 C 5.144203186035156 9.299453735351562 4 12.06179428100586 4 14.99999237060547 L 4 48.97559356689453 C 4 51.91379165649414 5.144203186035156 54.67613220214844 7.221817016601562 56.7537727355957 C 9.2994384765625 58.83139419555664 12.06179809570312 59.97559356689453 15 59.97559356689453 L 110 59.97559356689453 C 112.9382019042969 59.97559356689453 115.7005386352539 58.83139419555664 117.7781829833984 56.7537727355957 C 119.8557968139648 54.67613220214844 121 51.91379165649414 121 48.97559356689453 L 121 14.99999237060547 C 121 12.06179428100586 119.8557968139648 9.299453735351562 117.7781829833984 7.221813201904297 C 115.7005386352539 5.144191741943359 112.9382019042969 3.999992370605469 110 3.999992370605469 L 15 3.999992370605469 M 15 -7.62939453125e-06 L 110 -7.62939453125e-06 C 118.2842559814453 -7.62939453125e-06 125 6.715732574462891 125 14.99999237060547 L 125 48.97559356689453 C 125 57.25985336303711 118.2842559814453 63.97559356689453 110 63.97559356689453 L 15 63.97559356689453 C 6.715721130371094 63.97559356689453 0 57.25985336303711 0 48.97559356689453 L 0 14.99999237060547 C 0 6.715732574462891 6.715721130371094 -7.62939453125e-06 15 -7.62939453125e-06 Z" stroke="none" fill="#f85316"/>
    </g>
    <path id="Trazado_204730" data-name="Trazado 204730" d="M47.266,16.609H43.039L42.3,19H39L43.7,6.2h2.9L51.327,19H48.013Zm-3.489-2.382h2.751l-1.38-4.438ZM62.946,19H59.878l-4.535-7.963V19H52.258V6.2h3.085l4.526,7.963V6.2h3.076ZM64.9,19V6.2h4.122a6.064,6.064,0,0,1,3.05.769,5.406,5.406,0,0,1,2.114,2.171,6.554,6.554,0,0,1,.769,3.142v.589a6.592,6.592,0,0,1-.743,3.151,5.429,5.429,0,0,1-2.092,2.18,5.93,5.93,0,0,1-3.01.8ZM67.982,8.585v8.042h1.072a2.4,2.4,0,0,0,2.039-.945,4.63,4.63,0,0,0,.712-2.808V12.32a4.592,4.592,0,0,0-.712-2.795,2.442,2.442,0,0,0-2.074-.94Z" transform="translate(745.402 3696.351)" fill="#f6f6f6"/>
  </g>
</svg>
