<svg xmlns="http://www.w3.org/2000/svg" width="150" height="150" viewBox="0 0 150 150">
  <g id="Grupo_150476" data-name="Grupo 150476" transform="translate(-727.315 -3975.351)">
    <circle id="Elipse_5678" data-name="Elipse 5678" cx="75" cy="75" r="75" transform="translate(727.315 3975.351)" fill="#fff"/>
    <g id="Grupo_150229" data-name="Grupo 150229" transform="translate(6343.664 11009.02)">
      <path id="Trazado_203436" data-name="Trazado 203436" d="M179.912,2649.382l-3.523,3.189-29.957,27.1v14.349h-9.566v-14.349l-29.957-27.1-3.523-3.189Z" transform="translate(-5684.517 -9599.839)" fill="#dce736"/>
      <path id="Trazado_203437" data-name="Trazado 203437" d="M66.574,2617.382h86.094a3.189,3.189,0,1,1,0,6.377H66.574a3.189,3.189,0,1,1,0-6.377" transform="translate(-5652.489 -9574.217)" fill="#dce736"/>
      <path id="Trazado_203438" data-name="Trazado 203438" d="M92.082,2441.269H85.705v4.783l-4.783-4.783H63.385v-31.887h28.7Z" transform="translate(-5652.488 -9407.669)" fill="#75b62f"/>
      <path id="Trazado_203439" data-name="Trazado 203439" d="M383.385,2441.269h7.972v4.783l4.783-4.783h15.943v-31.887h-28.7Z" transform="translate(-5908.715 -9407.669)" fill="#3d46c2"/>
      <path id="Trazado_203440" data-name="Trazado 203440" d="M127.356,2446.137l1.594-6.377,1.594-1.594-1.594-4.783h-6.377l-3.189,11.16Z" transform="translate(-5697.328 -9426.886)" fill="#dce736"/>
      <path id="Trazado_203441" data-name="Trazado 203441" d="M111.153,2486.664l-1.419,3.549H95.385v-5.955a7.219,7.219,0,0,1,2.89-5.778l.737-.554a7.23,7.23,0,0,1,6.086-1.229l1.1.275a7.225,7.225,0,0,1,4.954,9.691Z" transform="translate(-5678.112 -9461.396)" fill="#dce736"/>
      <path id="Trazado_203442" data-name="Trazado 203442" d="M423.357,2433.382a7.972,7.972,0,0,0-7.972,7.972c0,4.4,7.972,14.349,7.972,14.349s7.972-9.947,7.972-14.349a7.972,7.972,0,0,0-7.972-7.972m0,11.16a3.189,3.189,0,1,1,3.189-3.188,3.189,3.189,0,0,1-3.189,3.188Z" transform="translate(-5934.339 -9426.886)" fill="#f85316"/>
      <path id="Trazado_203443" data-name="Trazado 203443" d="M256.894,2441.269h-11.16l-4.783,4.783v-4.783h-9.566v-31.887h25.509Z" transform="translate(-5787.008 -9407.669)" fill="#f85316"/>
      <path id="Trazado_203444" data-name="Trazado 203444" d="M56.979,2436.458H73.857l4.316,4.316a1.594,1.594,0,0,0,2.722-1.127v-3.189h4.783a1.594,1.594,0,0,0,1.594-1.594v-31.886a1.594,1.594,0,0,0-1.594-1.594h-28.7a1.594,1.594,0,0,0-1.594,1.594v31.886a1.594,1.594,0,0,0,1.594,1.594m1.594-31.886H84.083v28.7H79.3a1.6,1.6,0,0,0-1.594,1.594v.934l-2.061-2.062a1.594,1.594,0,0,0-1.127-.467H58.574Z" transform="translate(-5646.083 -9401.263)"/>
      <path id="Trazado_203445" data-name="Trazado 203445" d="M405.677,2401.383h-28.7a1.594,1.594,0,0,0-1.594,1.594v31.886a1.594,1.594,0,0,0,1.594,1.594h6.377v3.189a1.594,1.594,0,0,0,2.722,1.127l4.316-4.316h15.283a1.594,1.594,0,0,0,1.594-1.594v-31.886a1.594,1.594,0,0,0-1.594-1.594m-1.594,31.886H389.734a1.594,1.594,0,0,0-1.127.467l-2.061,2.062v-.934a1.6,1.6,0,0,0-1.594-1.594h-6.377v-28.7h25.509Z" transform="translate(-5902.31 -9401.263)"/>
      <path id="Trazado_203446" data-name="Trazado 203446" d="M104.809,2449.889l1.42-3.549a8.808,8.808,0,0,0-1.952-9.51c-.045-.045-.094-.087-.14-.131l.632-2.53,1.282-1.281a1.6,1.6,0,0,0,.385-1.632l-.895-2.685h.977v-3.189H96.951a1.594,1.594,0,0,0-1.533,1.156l-2.385,8.348a8.9,8.9,0,0,0-1.383.85l-.737.553a8.859,8.859,0,0,0-3.527,7.054v5.954a1.6,1.6,0,0,0,1.594,1.595h14.349a1.6,1.6,0,0,0,1.48-1m-6.655-21.318h4.026l.919,2.758-.9.9a1.594,1.594,0,0,0-.42.741l-.476,1.907a8.8,8.8,0,0,0-1.126-.364l-1.1-.275a8.849,8.849,0,0,0-2.47-.259Zm4.1,19.132H97.3l1.213-6.065-3.127-.625-1.338,6.69H90.574v-4.36a5.657,5.657,0,0,1,2.252-4.5l.737-.553a5.606,5.606,0,0,1,4.743-.957l1.1.275a5.628,5.628,0,0,1,3.861,7.552Z" transform="translate(-5671.706 -9420.48)"/>
      <path id="Trazado_203447" data-name="Trazado 203447" d="M416.951,2450.892a1.593,1.593,0,0,0,1.244-.6c.852-1.062,8.322-10.522,8.322-15.346a9.566,9.566,0,0,0-19.132,0c0,4.824,7.47,14.283,8.322,15.346a1.593,1.593,0,0,0,1.244.6m0-22.321a6.384,6.384,0,0,1,6.377,6.377c0,2.427-3.521,7.927-6.378,11.743-2.857-3.814-6.377-9.313-6.377-11.743a6.384,6.384,0,0,1,6.377-6.377" transform="translate(-5927.933 -9420.48)"/>
      <path id="Trazado_203448" data-name="Trazado 203448" d="M440.951,2454.165a4.783,4.783,0,1,0-4.783,4.783,4.783,4.783,0,0,0,4.783-4.783m-6.377,0a1.594,1.594,0,1,1,1.594,1.594,1.594,1.594,0,0,1-1.594-1.594" transform="translate(-5947.15 -9439.696)"/>
      <path id="Trazado_203449" data-name="Trazado 203449" d="M224.979,2436.458h7.972v3.189a1.594,1.594,0,0,0,2.722,1.127l4.316-4.316h10.5a1.594,1.594,0,0,0,1.594-1.594v-31.886a1.594,1.594,0,0,0-1.594-1.594H224.979a1.594,1.594,0,0,0-1.594,1.594v31.886a1.594,1.594,0,0,0,1.594,1.594m1.594-31.886h22.321v28.7h-9.566a1.594,1.594,0,0,0-1.127.467l-2.061,2.062v-.934a1.6,1.6,0,0,0-1.594-1.594h-7.972Z" transform="translate(-5780.603 -9401.263)"/>
      <rect id="Rectángulo_295894" data-name="Rectángulo 295894" width="15.943" height="3.189" transform="translate(-5550.84 -6974.372)"/>
      <rect id="Rectángulo_295895" data-name="Rectángulo 295895" width="3.189" height="6.377" transform="translate(-5550.84 -6982.343)"/>
      <rect id="Rectángulo_295896" data-name="Rectángulo 295896" width="3.189" height="11.16" transform="translate(-5544.463 -6987.126)"/>
      <rect id="Rectángulo_295897" data-name="Rectángulo 295897" width="3.189" height="14.349" transform="translate(-5538.085 -6990.314)"/>
      <path id="Trazado_203450" data-name="Trazado 203450" d="M146.262,2609.382H60.168a4.783,4.783,0,1,0,0,9.566h4.169l32.5,29.406v13.641a1.6,1.6,0,0,0,1.594,1.594H108a1.6,1.6,0,0,0,1.594-1.594v-13.641l32.5-29.406h4.169a4.783,4.783,0,1,0,0-9.566m0,6.377H103.215v3.188H137.34l-29.957,27.1h-4.169v3.189H106.4v11.16h-6.377v-12.754a1.594,1.594,0,0,0-.525-1.183l-30.412-27.516h2.239v-3.188H60.168a1.594,1.594,0,1,1,0-3.188h86.094a1.594,1.594,0,1,1,0,3.188" transform="translate(-5646.083 -9567.811)"/>
    </g>
  </g>
</svg>
