<svg xmlns="http://www.w3.org/2000/svg" width="150" height="150" viewBox="0 0 150 150">
  <g id="Grupo_150365" data-name="Grupo 150365" transform="translate(-732.88 -1057.476)">
    <circle id="Elipse_5678" data-name="Elipse 5678" cx="75" cy="75" r="75" transform="translate(732.88 1057.476)" fill="#fff"/>
    <g id="Grupo_150215" data-name="Grupo 150215" transform="translate(6473.712 11790.216)">
      <path id="Trazado_203128" data-name="Trazado 203128" d="M113.332,4255H46.442a6.69,6.69,0,0,0-6.689,6.689v51.841h80.269v-51.841a6.69,6.69,0,0,0-6.689-6.689" transform="translate(-5749.063 -14944.746)" fill="#dee9f0"/>
      <rect id="Rectángulo_295776" data-name="Rectángulo 295776" width="66.891" height="55.185" transform="translate(-5702.622 -10683.052)" fill="#fff"/>
      <rect id="Rectángulo_295777" data-name="Rectángulo 295777" width="3.345" height="3.345" transform="translate(-5697.605 -10678.036)" fill="#5eb3d1"/>
      <rect id="Rectángulo_295778" data-name="Rectángulo 295778" width="3.344" height="3.345" transform="translate(-5690.916 -10678.036)" fill="#5eb3d1"/>
      <rect id="Rectángulo_295779" data-name="Rectángulo 295779" width="3.344" height="3.345" transform="translate(-5684.227 -10678.036)" fill="#5eb3d1"/>
      <rect id="Rectángulo_295780" data-name="Rectángulo 295780" width="8.361" height="3.344" transform="translate(-5695.932 -10639.573)" fill="#5eb3d1"/>
      <rect id="Rectángulo_295781" data-name="Rectángulo 295781" width="8.361" height="3.344" transform="translate(-5680.882 -10639.573)" fill="#5eb3d1"/>
      <rect id="Rectángulo_295782" data-name="Rectángulo 295782" width="8.361" height="3.344" transform="translate(-5665.832 -10639.573)" fill="#5eb3d1"/>
      <rect id="Rectángulo_295783" data-name="Rectángulo 295783" width="8.361" height="3.344" transform="translate(-5650.781 -10639.573)" fill="#5eb3d1"/>
      <rect id="Rectángulo_295784" data-name="Rectángulo 295784" width="53.512" height="10.033" transform="translate(-5695.932 -10669.674)" fill="#f85316"/>
      <rect id="Rectángulo_295785" data-name="Rectángulo 295785" width="8.361" height="8.361" transform="translate(-5680.882 -10652.952)" fill="#3d46c2"/>
      <rect id="Rectángulo_295786" data-name="Rectángulo 295786" width="8.361" height="8.361" transform="translate(-5695.932 -10652.952)" fill="#3d46c2"/>
      <rect id="Rectángulo_295787" data-name="Rectángulo 295787" width="8.361" height="8.361" transform="translate(-5650.781 -10652.952)" fill="#3d46c2"/>
      <rect id="Rectángulo_295788" data-name="Rectángulo 295788" width="8.361" height="8.361" transform="translate(-5665.832 -10652.952)" fill="#3d46c2"/>
      <path id="Trazado_203129" data-name="Trazado 203129" d="M354.9,4169.1a23.412,23.412,0,1,1-23.412-23.411A23.412,23.412,0,0,1,354.9,4169.1" transform="translate(-5972.238 -14853.823)" fill="#dce736"/>
      <path id="Trazado_203130" data-name="Trazado 203130" d="M372.819,4180.766a11.857,11.857,0,0,1,2.207.233l-2.471,1.556,1.782,2.831,5.644-3.554a1.673,1.673,0,0,0,.523-2.306c-.02-.032-.042-.064-.064-.094l-4.11-5.644-2.7,1.968,1.338,1.826a15.046,15.046,0,0,0-14.47,23.528l2.737-1.92a11.705,11.705,0,0,1,9.588-18.425" transform="translate(-6013.566 -14877.196)" fill="#bf3d75"/>
      <path id="Trazado_203131" data-name="Trazado 203131" d="M419.861,4232.312l-2.738,1.922a11.645,11.645,0,0,1-11.793,18.191l2.47-1.557-1.78-2.83-5.644,3.554a1.673,1.673,0,0,0-.525,2.307c.02.031.042.063.063.094l4.111,5.644,2.7-1.97-1.338-1.827a15.051,15.051,0,0,0,14.464-23.527Z" transform="translate(-6048.354 -14925.872)" fill="#bf3d75"/>
      <path id="Trazado_203132" data-name="Trazado 203132" d="M95.224,4612.869H14.955a5.017,5.017,0,0,1-5.017-5.017v-5.017h34.92a3.023,3.023,0,0,1,2.706,1.672,3.025,3.025,0,0,0,2.705,1.671h9.639a3.026,3.026,0,0,0,2.706-1.671,3.023,3.023,0,0,1,2.705-1.672h34.921v5.017a5.017,5.017,0,0,1-5.017,5.017" transform="translate(-5724.266 -15234.048)" fill="#dee9f0"/>
      <path id="Trazado_203133" data-name="Trazado 203133" d="M472.1,4602.835v5.017a5.016,5.016,0,0,1-5.017,5.017h8.362a5.016,5.016,0,0,0,5.016-5.017v-5.017Z" transform="translate(-6104.489 -15234.047)" fill="#d0d4d6"/>
      <path id="Trazado_203134" data-name="Trazado 203134" d="M6.689,4316.973H86.958a6.689,6.689,0,0,0,6.689-6.688v-5.017a1.673,1.673,0,0,0-1.672-1.672H88.63v-25.084H85.286V4303.6H81.941v-23.411H78.6V4303.6H57.054a4.673,4.673,0,0,0-4.2,2.6,1.346,1.346,0,0,1-1.211.748H42a1.345,1.345,0,0,1-1.211-.748,4.674,4.674,0,0,0-4.2-2.6H15.051v-48.5H46.824v-3.345H13.378a1.673,1.673,0,0,0-1.672,1.672V4303.6H8.361v-50.167a5.017,5.017,0,0,1,5.016-5.018H46.823v-3.344H13.378a8.369,8.369,0,0,0-8.361,8.36V4303.6H1.672A1.673,1.673,0,0,0,0,4305.268v5.017a6.689,6.689,0,0,0,6.689,6.688M3.345,4306.94H36.593a1.344,1.344,0,0,1,1.211.748,4.672,4.672,0,0,0,4.2,2.6h9.639a4.672,4.672,0,0,0,4.2-2.6,1.344,1.344,0,0,1,1.211-.748H90.3v3.345a3.344,3.344,0,0,1-3.345,3.344H6.689a3.344,3.344,0,0,1-3.345-3.344v-3.345Z" transform="translate(-5716 -14936.48)"/>
      <rect id="Rectángulo_295789" data-name="Rectángulo 295789" width="3.345" height="3.345" transform="translate(-5697.605 -10678.036)"/>
      <rect id="Rectángulo_295790" data-name="Rectángulo 295790" width="3.344" height="3.345" transform="translate(-5690.916 -10678.036)"/>
      <rect id="Rectángulo_295791" data-name="Rectángulo 295791" width="3.344" height="3.345" transform="translate(-5684.227 -10678.036)"/>
      <path id="Trazado_203135" data-name="Trazado 203135" d="M141.09,4367.666v-3.344h-30.1a1.673,1.673,0,0,0-1.673,1.672v10.034a1.672,1.672,0,0,0,1.673,1.672h40.134v-3.344H112.662v-6.689Z" transform="translate(-5806.922 -15035.668)"/>
      <rect id="Rectángulo_295792" data-name="Rectángulo 295792" width="11.706" height="3.344" transform="translate(-5697.605 -10639.573)"/>
      <rect id="Rectángulo_295793" data-name="Rectángulo 295793" width="11.706" height="3.344" transform="translate(-5682.555 -10639.573)"/>
      <rect id="Rectángulo_295794" data-name="Rectángulo 295794" width="11.706" height="3.344" transform="translate(-5667.504 -10639.573)"/>
      <rect id="Rectángulo_295795" data-name="Rectángulo 295795" width="11.706" height="3.344" transform="translate(-5652.454 -10639.573)"/>
      <path id="Trazado_203136" data-name="Trazado 203136" d="M210.467,4465.375a1.673,1.673,0,0,0-1.672-1.672h-8.361a1.673,1.673,0,0,0-1.672,1.672v8.361a1.672,1.672,0,0,0,1.672,1.672h8.361a1.672,1.672,0,0,0,1.672-1.672Zm-3.344,6.689h-5.017v-5.017h5.017Z" transform="translate(-5881.316 -15118.326)"/>
      <path id="Trazado_203137" data-name="Trazado 203137" d="M121.024,4465.375a1.673,1.673,0,0,0-1.672-1.672h-8.361a1.673,1.673,0,0,0-1.673,1.672v8.361a1.672,1.672,0,0,0,1.673,1.672h8.361a1.672,1.672,0,0,0,1.672-1.672Zm-3.344,6.689h-5.016v-5.017h5.016Z" transform="translate(-5806.923 -15118.326)"/>
      <path id="Trazado_203138" data-name="Trazado 203138" d="M387.681,4475.408a1.672,1.672,0,0,0,1.672-1.672v-8.361a1.673,1.673,0,0,0-1.672-1.672h-8.361a1.673,1.673,0,0,0-1.672,1.672v8.361a1.672,1.672,0,0,0,1.672,1.672Zm-6.689-8.361h5.017v5.017h-5.017Z" transform="translate(-6030.101 -15118.326)"/>
      <path id="Trazado_203139" data-name="Trazado 203139" d="M299.91,4465.375a1.673,1.673,0,0,0-1.672-1.672h-8.362a1.673,1.673,0,0,0-1.672,1.672v8.361a1.672,1.672,0,0,0,1.672,1.672h8.362a1.672,1.672,0,0,0,1.672-1.672Zm-3.344,6.689h-5.017v-5.017h5.017Z" transform="translate(-5955.708 -15118.326)"/>
      <path id="Trazado_203140" data-name="Trazado 203140" d="M323.225,4135.745a25.084,25.084,0,1,0,25.084,25.084,25.085,25.085,0,0,0-25.084-25.084m0,46.824a21.739,21.739,0,1,1,21.739-21.74,21.739,21.739,0,0,1-21.739,21.74" transform="translate(-5963.973 -14845.555)"/>
      <path id="Trazado_203141" data-name="Trazado 203141" d="M372.819,4180.766a11.857,11.857,0,0,1,2.207.233l-2.471,1.556,1.782,2.831,5.644-3.554a1.673,1.673,0,0,0,.523-2.306c-.02-.032-.042-.064-.064-.094l-4.11-5.644-2.7,1.968,1.338,1.826a15.046,15.046,0,0,0-14.47,23.528l2.737-1.92a11.705,11.705,0,0,1,9.588-18.425" transform="translate(-6013.566 -14877.196)"/>
      <path id="Trazado_203142" data-name="Trazado 203142" d="M417.123,4234.237a11.645,11.645,0,0,1-11.793,18.191l2.47-1.557-1.78-2.83-5.644,3.554a1.672,1.672,0,0,0-.525,2.306c.02.032.042.063.064.094l4.11,5.643,2.7-1.969-1.338-1.827a15.05,15.05,0,0,0,14.464-23.526Z" transform="translate(-6048.353 -14925.875)"/>
    </g>
  </g>
</svg>
