<svg xmlns="http://www.w3.org/2000/svg" width="150" height="150" viewBox="0 0 150 150">
  <g id="Grupo_150475" data-name="Grupo 150475" transform="translate(-380.315 -3975.351)">
    <circle id="Elipse_5678" data-name="Elipse 5678" cx="75" cy="75" r="75" transform="translate(380.315 3975.351)" fill="#fff"/>
    <g id="Grupo_150228" data-name="Grupo 150228" transform="translate(6008.447 11110.105)">
      <rect id="Rectángulo_295890" data-name="Rectángulo 295890" width="71.749" height="21.389" transform="translate(-5583.787 -7037.094)" fill="#dce736"/>
      <rect id="Rectángulo_295891" data-name="Rectángulo 295891" width="71.749" height="21.389" transform="translate(-5583.861 -7059.23)" fill="#f85316"/>
      <rect id="Rectángulo_295892" data-name="Rectángulo 295892" width="68.941" height="21.389" transform="translate(-5599.241 -7081.367)" fill="#75b62f"/>
      <rect id="Rectángulo_295893" data-name="Rectángulo 295893" width="73.091" height="21.389" transform="translate(-5585.203 -7103.503)" fill="#dee9f0"/>
      <path id="Trazado_203435" data-name="Trazado 203435" d="M89.153,1874.873H72.778v-7.278H84.76l-.533.533A1.819,1.819,0,0,0,86.8,1870.7c3.873-3.875,3.812-3.757,4-4.154a1.811,1.811,0,0,0,0-1.543c-.183-.391-.1-.249-4-4.154a1.82,1.82,0,0,0-2.573,2.573l.533.533H72.778v-7.278H89.153a1.819,1.819,0,0,0,1.819-1.819v-21.834a1.82,1.82,0,0,0-1.819-1.82H16.375a1.82,1.82,0,0,0-1.819,1.82v20.014H1.819A1.82,1.82,0,0,0,0,1854.859v21.833a1.819,1.819,0,0,0,1.819,1.819H14.555v41.847a1.82,1.82,0,0,0,1.819,1.82H89.153a1.82,1.82,0,0,0,1.819-1.82v-43.666a1.819,1.819,0,0,0-1.819-1.82m-1.82,21.833H72.778v-18.194H87.333Zm-50.944-18.194H50.944v18.195H36.389Zm18.194,0H69.139v18.195H54.583Zm32.75-25.472H72.778v-18.194H87.333Zm-18.194,0H54.583v-18.194H69.139Zm-18.194,0H36.389v-18.194H50.944Zm-32.75-18.194H32.75v18.194H18.194ZM3.639,1856.678h65.5v7.278h-9.1a1.819,1.819,0,0,0,0,3.639h9.1v7.278H3.639Zm29.111,40.028H18.194v-18.194H32.75Zm-14.555,3.639H32.75v18.194H18.194Zm18.194,0H50.944v18.194H36.389Zm18.194,0H69.139v18.194H54.583Zm32.75,18.194H72.778v-18.195H87.333Z" transform="translate(-5600.933 -8936.447)"/>
    </g>
  </g>
</svg>
