<svg xmlns="http://www.w3.org/2000/svg" width="104.249" height="105.045" viewBox="0 0 104.249 105.045">
  <g id="Grupo_150402" data-name="Grupo 150402" transform="translate(-1003.702 -809.914)">
    <g id="Grupo_118195" data-name="Grupo 118195" transform="translate(1003.702 809.914)">
      <g id="Grupo_118173" data-name="Grupo 118173" transform="translate(0 0)">
        <ellipse id="Elipse_6071" data-name="Elipse 6071" cx="52.124" cy="52.522" rx="52.124" ry="52.522" fill="#fff"/>
      </g>
    </g>
    <g id="Grupo_150246" data-name="Grupo 150246" transform="translate(888 11606)">
      <path id="Trazado_203637" data-name="Trazado 203637" d="M161.509,2134.588l-5.41-1.109-3.131,3.242L142.3,2128.3l7.117-4.857,7.567-8.281a2.848,2.848,0,0,1,4.512.4l8.966,10.282a3.305,3.305,0,0,1-.8,5.012L164.377,2134a4.905,4.905,0,0,1-2.868.585" transform="translate(3.35 -12854.643)" fill="#ffe7cf"/>
      <path id="Trazado_203638" data-name="Trazado 203638" d="M202.551,2182.555l-2.188-2.51-9.123,5.438a4.922,4.922,0,0,1-2.869.585l-4.739-.511-4.093,3.516,5.52,4.357,3.13-3.242,5.41,1.109a4.919,4.919,0,0,0,2.869-.585l5.282-3.146a3.306,3.306,0,0,0,.8-5.012" transform="translate(-28.741 -12911.352)" fill="#efd5bd"/>
      <path id="Trazado_203639" data-name="Trazado 203639" d="M240.079,2097.216c-1.056-1.638-2.343-.809-3.4-2.448s.23-2.468-.826-4.106-2.343-.809-3.4-2.448.23-2.468-.827-4.107c-.646-1-1.816-3.069-2.528-3.354l-5.7,2.818,9.922,15.649a3.236,3.236,0,0,0,4.473.966l1.9-1.224a1.261,1.261,0,0,0,.4-1.731l-.009-.014" transform="translate(-66.533 -12825.794)" fill="#75b62f"/>
      <path id="Trazado_203640" data-name="Trazado 203640" d="M164.568,2072.856l-4.479,2.763a1.809,1.809,0,0,1-2.489-.589l-2.532-4.1a1.809,1.809,0,0,1,.59-2.489l4.479-2.763a1.119,1.119,0,0,1,1.54.365l3.255,5.276a1.119,1.119,0,0,1-.364,1.54" transform="translate(-7.422 -12812.657)" fill="#75b62f"/>
      <path id="Trazado_203641" data-name="Trazado 203641" d="M181.123,1870.03l-9.092,5.61a2.546,2.546,0,0,0-.83,3.5l4.483,7.266a2.546,2.546,0,0,0,3.5.83l9.092-5.61,28.756-6.26-17.42-28.233Z" transform="translate(-21.229 -12624.491)" fill="#dce736"/>
      <path id="Trazado_203642" data-name="Trazado 203642" d="M188.28,2024.243l-9.092,5.61a2.546,2.546,0,0,1-3.5-.83l-4.483-7.266a2.546,2.546,0,0,1,.829-3.5l9.092-5.61Z" transform="translate(-21.229 -12767.105)" fill="#f85316"/>
      <path id="Trazado_203643" data-name="Trazado 203643" d="M380,1860.893l-1.241.765a1.369,1.369,0,0,1-1.884-.446l-18.727-30.351a1.369,1.369,0,0,1,.446-1.884l1.241-.765a1.369,1.369,0,0,1,1.884.446l18.727,30.351a1.369,1.369,0,0,1-.446,1.884" transform="translate(-182.468 -12608.01)" fill="#dce736"/>
      <path id="Trazado_203644" data-name="Trazado 203644" d="M321.445,2194.327a2.35,2.35,0,0,0,3.231.781l3.427-2.095a2.35,2.35,0,0,0-2.452-4.011l-3.427,2.095a2.35,2.35,0,0,0-.78,3.23" transform="translate(-150.72 -12918.771)" fill="#ffe7cf"/>
      <path id="Trazado_203645" data-name="Trazado 203645" d="M329.021,2190.82a2.335,2.335,0,0,0-1.145-.96,2.35,2.35,0,0,1-1.1,2.321l-3.427,2.094a2.346,2.346,0,0,1-2.086.178,2.348,2.348,0,0,0,3.554,1.69l3.426-2.094a2.35,2.35,0,0,0,.78-3.23" transform="translate(-150.859 -12919.809)" fill="#efd5bd"/>
      <path id="Trazado_203646" data-name="Trazado 203646" d="M310.8,2160.787a2.386,2.386,0,0,0,3.28.792l3.366-2.057a2.386,2.386,0,0,0-2.488-4.071l-3.366,2.058a2.385,2.385,0,0,0-.792,3.279" transform="translate(-141.546 -12889.856)" fill="#ffe7cf"/>
      <path id="Trazado_203647" data-name="Trazado 203647" d="M318.369,2157.391a2.376,2.376,0,0,0-1.122-.958,2.385,2.385,0,0,1-1.121,2.336l-3.366,2.058a2.381,2.381,0,0,1-2.158.165,2.383,2.383,0,0,0,3.61,1.735l3.366-2.057a2.386,2.386,0,0,0,.792-3.279" transform="translate(-141.674 -12891.006)" fill="#efd5bd"/>
      <path id="Trazado_203648" data-name="Trazado 203648" d="M292.668,2131.544a2.386,2.386,0,0,0,3.28.792l3.366-2.057a2.386,2.386,0,0,0-2.488-4.071l-3.366,2.057a2.386,2.386,0,0,0-.792,3.279" transform="translate(-125.919 -12864.659)" fill="#ffe7cf"/>
      <path id="Trazado_203649" data-name="Trazado 203649" d="M300.212,2128.216a2.38,2.38,0,0,0-1.095-.947,2.385,2.385,0,0,1-1.125,2.3l-3.366,2.057a2.38,2.38,0,0,1-2.186.154,2.382,2.382,0,0,0,3.613,1.771l3.366-2.057a2.386,2.386,0,0,0,.792-3.279" transform="translate(-126.025 -12865.875)" fill="#efd5bd"/>
      <path id="Trazado_203650" data-name="Trazado 203650" d="M275.571,2101.551a2.386,2.386,0,0,0,3.28.792l3.366-2.057a2.386,2.386,0,1,0-2.488-4.071l-3.366,2.057a2.386,2.386,0,0,0-.792,3.279" transform="translate(-111.188 -12838.814)" fill="#ffe7cf"/>
      <path id="Trazado_203651" data-name="Trazado 203651" d="M283.351,2097.68a2.372,2.372,0,0,0-1.336-1.035,2.385,2.385,0,0,1-1.087,2.533l-3.366,2.058a2.379,2.379,0,0,1-1.945.242,2.381,2.381,0,0,0,3.575,1.538l3.366-2.057a2.387,2.387,0,0,0,.792-3.28" transform="translate(-111.529 -12839.487)" fill="#efd5bd"/>
      <path id="Trazado_203652" data-name="Trazado 203652" d="M210.419,2101.41l-.624.382a2.057,2.057,0,0,1-2.836-.643l-1.035-1.691a1.773,1.773,0,0,0-2.455-.548c-.851,6.241-9.719,5.677-9.719,5.677l5.5-8.279a4.426,4.426,0,0,1,1.5-1.542l3.1-1.923a3.158,3.158,0,0,1,4.371.974l2.923,4.771a2.058,2.058,0,0,1-.72,2.821" transform="translate(-40.986 -12835.787)" fill="#ffe7cf"/>
      <path id="Trazado_203653" data-name="Trazado 203653" d="M248.369,2124.208l-.024-.039a2.125,2.125,0,0,1-.7.691l-.625.382a2.057,2.057,0,0,1-2.836-.643l-1.034-1.69a1.774,1.774,0,0,0-2.455-.548,12.346,12.346,0,0,1-3.743,6.843,5.836,5.836,0,0,0,3.743-4.673,1.773,1.773,0,0,1,2.455.548l1.034,1.69a2.057,2.057,0,0,0,2.836.643l.625-.382a2.058,2.058,0,0,0,.72-2.821" transform="translate(-78.216 -12861.406)" fill="#efd5bd"/>
      <path id="Trazado_203654" data-name="Trazado 203654" d="M166.231,2198.169l-8.742-10.389,2.878-2.422a.215.215,0,0,1,.3.026l8.465,10.06a.214.214,0,0,1-.026.3Z" transform="translate(-9.74 -12915.886)" fill="#cdd6df"/>
      <path id="Trazado_203655" data-name="Trazado 203655" d="M194.676,2225.247l-4.5-5.352-3.043,2.561,4.642,5.516,2.879-2.422a.215.215,0,0,0,.026-.3" transform="translate(-35.28 -12945.689)" fill="#96a4aa"/>
      <path id="Trazado_203656" data-name="Trazado 203656" d="M98.458,2208.042l-9.449-11.083a.227.227,0,0,0-.3-.041l-10.063,7.944a1.4,1.4,0,0,0-.533,1.1v3.232a1.4,1.4,0,0,0,1.4,1.4H95.975a1.4,1.4,0,0,0,1.092-.523l1.383-1.721a.228.228,0,0,0,.009-.306" transform="translate(58.656 -12925.855)" fill="#3d46c2"/>
      <path id="Trazado_203657" data-name="Trazado 203657" d="M474.063,1891.086a1.038,1.038,0,0,0,1.428.34l5.624-3.459a1.037,1.037,0,1,0-1.088-1.767l-5.623,3.459a1.038,1.038,0,0,0-.34,1.427" transform="translate(-282.392 -12658.02)"/>
      <path id="Trazado_203658" data-name="Trazado 203658" d="M517.394,1967.3l-8.244-.8a1.038,1.038,0,1,0-.2,2.065l8.244.8c.035,0,.068,0,.1,0a1.037,1.037,0,0,0,.1-2.07" transform="translate(-311.778 -12727.336)"/>
      <path id="Trazado_203659" data-name="Trazado 203659" d="M440.467,1809.532a1.035,1.035,0,0,0,1.343-.591l3-7.719a1.037,1.037,0,0,0-1.933-.752l-3,7.72a1.037,1.037,0,0,0,.591,1.343" transform="translate(-253.006 -12583.711)"/>
      <path id="Trazado_203660" data-name="Trazado 203660" d="M115.016,1821.656a2.409,2.409,0,0,0-3.311-.784l-1.241.766a2.406,2.406,0,0,0-.785,3.311l.714,1.156L94.08,1846.3l-3.445,2.126a1.038,1.038,0,0,0,1.09,1.766l2.713-1.674,5.287,8.569a4.237,4.237,0,0,0-2.218.464l-.037.019c-.093.049-.185.1-.276.156l-3.1,1.924a5.57,5.57,0,0,0-1.831,1.875l-.766,1.154-.563.847-.015-.005-.025-.012c-.044-.019-.087-.041-.129-.064l-.027-.015c-.046-.028-.091-.057-.133-.089l-.026-.021a1.448,1.448,0,0,1-.113-.1l-.014-.012a1.591,1.591,0,0,1-.111-.121l-.022-.028a1.509,1.509,0,0,1-.1-.138l-4.483-7.266a1.508,1.508,0,0,1,.491-2.075l1.342-.828a1.037,1.037,0,0,0-1.089-1.766l-1.342.828a3.585,3.585,0,0,0-1.569,4.017l-1,.616a2.849,2.849,0,0,0-.927,3.916l2.532,4.1a2.827,2.827,0,0,0,1.766,1.275,2.872,2.872,0,0,0,.661.078,2.825,2.825,0,0,0,1.489-.425l1-.617a3.585,3.585,0,0,0,.682.489l-2.88,4.339-.679.464a1.252,1.252,0,0,0-1.374.158l-1.787,1.5a1.261,1.261,0,0,0-1.391.021c-.02.014-.04.028-.059.043l-10.063,7.943a2.424,2.424,0,0,0-.927,1.913v3.232a2.44,2.44,0,0,0,2.437,2.438H89.513a2.426,2.426,0,0,0,1.9-.911l1.365-1.7a1.258,1.258,0,0,0,.3-.963l1.837-1.546a1.244,1.244,0,0,0,.381-.561l4.233.868a1.012,1.012,0,0,0,.19.021c.124,0,.247,0,.37,0a5.518,5.518,0,0,0,3.048-.735l4.265-2.54c.071,0,.143.007.213.007a3.367,3.367,0,0,0,1.76-.5l3.426-2.094a3.384,3.384,0,0,0-.233-5.908,3.419,3.419,0,0,0-2.2-4.907,3.412,3.412,0,0,0-2.4-4.013,3.413,3.413,0,0,0-.389-2.646,3.457,3.457,0,0,0-.453-.586l20.556-4.474.714,1.156a2.408,2.408,0,0,0,3.311.785l1.241-.766a2.406,2.406,0,0,0,.784-3.312ZM87,1863.632a.772.772,0,0,1-1.061-.251l-2.532-4.1a.772.772,0,0,1,.251-1.061l.88-.543,3.342,5.416Zm2.791,21.483a.36.36,0,0,1-.283.136H73.051a.363.363,0,0,1-.363-.363v-3.232a.361.361,0,0,1,.138-.285l9.438-7.451,8.507,9.979Zm2.109-3.083-7.462-8.754,1.1-.93,7.406,8.8Zm10.169-2.007a3.78,3.78,0,0,1-2.219.438l-5.315-1.09a1.035,1.035,0,0,0-.376-.008l-6.524-7.752.591-.4h0l.029-.022c.022-.017.044-.033.065-.051l.03-.028c.021-.02.041-.04.059-.061l.023-.025c.023-.028.045-.057.065-.087l.006-.007,0-.007,0-.008,5.486-8.263c.012-.018.023-.036.034-.054a3.4,3.4,0,0,1,1.145-1.179l3.1-1.924c.057-.036.116-.067.175-.1.026-.014.054-.025.08-.037s.062-.028.094-.041.072-.028.11-.04l.058-.019c.045-.014.091-.028.137-.039h0a2.19,2.19,0,0,1,.506-.062h.011c.05,0,.1,0,.148.005l.047,0c.044,0,.087.009.13.015l.077.014c.066.012.131.028.2.047l.075.021c.033.011.065.024.1.037l.076.03c.032.014.064.029.1.044l.07.036c.031.017.063.035.093.054l.062.04c.031.02.062.041.091.064l.053.042c.031.024.061.049.09.075a1.991,1.991,0,0,1,.367.44l.076.125,1.106,1.8,1.388,2.265.353.576a.919.919,0,0,1,.082.17.968.968,0,0,1,.029.562,1.067,1.067,0,0,1-.488.662l-.624.382h0a1.049,1.049,0,0,1-.132.068l-.029.012a1.044,1.044,0,0,1-.136.046l-.017,0a1.092,1.092,0,0,1-.13.023l-.025,0a1.2,1.2,0,0,1-.139,0h-.026a1.108,1.108,0,0,1-.139-.018h0a.982.982,0,0,1-.144-.042l-.012,0a.976.976,0,0,1-.268-.155h0a1.037,1.037,0,0,1-.112-.107l-.009-.01a.914.914,0,0,1-.088-.119l-1.034-1.691a2.743,2.743,0,0,0-1.721-1.244,2.835,2.835,0,0,0-2.166.356,1.038,1.038,0,0,0-.481.741c-.012.089-.027.176-.042.262-.012.063-.025.125-.039.187,0,.021-.009.041-.014.062-.018.078-.038.155-.06.23l0,.009a4.4,4.4,0,0,1-.489,1.1s0,0,0,0a4.875,4.875,0,0,1-1.647,1.578,1.037,1.037,0,1,0,1.078,1.772,7.588,7.588,0,0,0,1.345-1.032l4.332,6.833a4.3,4.3,0,0,0,3.6,1.956c.076,0,.151,0,.227-.008.03.054.06.107.092.161a3.436,3.436,0,0,0,.419.55Zm.88-7.627v0c.017.049.036.1.056.144l.007.017c.018.043.037.086.057.129,0,.009.009.019.013.029.019.04.04.079.061.119l.018.035c.028.051.057.1.087.151.052.085.109.167.167.246l.064.083c.038.049.078.1.118.142s.057.066.086.1.046.045.07.068a3.394,3.394,0,0,0,.263.238l.029.022a3.354,3.354,0,0,0,.573.367,3.416,3.416,0,0,0-.366,1.129,2.2,2.2,0,0,1-1.713-1l-4.77-7.522a6.68,6.68,0,0,0,.507-1.464.782.782,0,0,1,.222.02.684.684,0,0,1,.431.308l1.034,1.691,0,.007a2.884,2.884,0,0,0,.164.24c.043.057.09.11.136.163.016.018.031.038.048.057l.007.028q.024.108.055.214c.006.021.012.041.018.062.025.08.052.159.084.237,0,.008.007.016.01.023.029.071.061.141.095.21.01.02.019.04.03.06.039.076.08.15.124.224a3.4,3.4,0,0,0,2.085,1.534,3.408,3.408,0,0,0,.124,1.885m.662-12.347.348-.213a1.348,1.348,0,1,1,1.406,2.3l-.346.212L104,1860.676Zm7.731,12.462a1.313,1.313,0,0,1,.376,2.4L108.3,1877a1.3,1.3,0,0,1-.91.172l-.055-.011-.028-.005a1.306,1.306,0,0,1-.978-1.015.065.065,0,0,0,0-.012,1.321,1.321,0,0,1,.348-1.164l.024-.024.046-.043c.016-.014.032-.028.049-.041l.037-.03c.031-.023.062-.044.095-.065h0l.681-.416a3.472,3.472,0,0,0,.352-.186l2.621-1.6a1.306,1.306,0,0,1,.766-.045m-2.386-4.547a1.348,1.348,0,0,1,1.284,2.367l-.617.377a3.475,3.475,0,0,0-.355.188l-2.608,1.594a1.352,1.352,0,0,1-1.407-.265h0a1.111,1.111,0,0,1-.083-.084l-.021-.025c-.02-.023-.039-.046-.057-.07s-.049-.069-.072-.105-.043-.076-.062-.115l-.017-.038c-.012-.026-.024-.054-.034-.081s-.01-.029-.015-.043-.017-.052-.024-.079-.008-.03-.011-.044-.011-.053-.016-.081l-.006-.042c0-.028-.007-.056-.008-.084s0-.027,0-.041c0-.029,0-.058,0-.087,0-.013,0-.025,0-.038,0-.03,0-.059.008-.088,0-.012,0-.025,0-.037s.009-.052.015-.078a1.346,1.346,0,0,1,.432-.737l.026-.026.039-.033c.033-.019.065-.035.1-.055l3.366-2.057q.073-.045.143-.093m-1.612-4.139a1.348,1.348,0,0,1,.51,2.376c-.035.019-.069.038-.1.059l-2.6,1.588.025-.021c.05-.039.1-.079.146-.121.029-.026.057-.053.085-.081s.084-.083.124-.126.053-.06.079-.09.074-.089.109-.135.049-.064.072-.1.064-.095.1-.144c.021-.034.042-.068.062-.1.03-.052.057-.105.083-.159.017-.034.035-.067.05-.1.027-.06.051-.122.075-.184.011-.03.024-.059.034-.089.032-.094.061-.188.084-.285s.039-.185.053-.278c0-.03.006-.059.01-.089.008-.064.013-.127.017-.191,0-.034,0-.069,0-.1,0-.06,0-.118,0-.177,0-.035,0-.07-.006-.105,0-.059-.011-.119-.019-.178,0-.033-.008-.066-.014-.1-.011-.067-.025-.133-.042-.2-.005-.024-.01-.048-.016-.072-.024-.089-.051-.177-.083-.264-.006-.017-.014-.034-.021-.051-.023-.058-.045-.117-.071-.174l.238-.146a1.34,1.34,0,0,1,1.02-.161m24.669-10.479a.331.331,0,0,1-.149.205l-1.241.766a.332.332,0,0,1-.456-.108l-13.067-21.177a1.037,1.037,0,1,0-1.765,1.089l11.2,18.149-24.108,5.248-6.385-10.349,15.5-19.193,1.252,2.031a1.038,1.038,0,1,0,1.766-1.09l-3.122-5.059a.331.331,0,0,1,.108-.456l1.241-.766a.332.332,0,0,1,.456.108l18.727,30.351a.329.329,0,0,1,.041.25" transform="translate(65.118 -12601.552)"/>
    </g>
  </g>
</svg>
