<svg xmlns="http://www.w3.org/2000/svg" width="150" height="150" viewBox="0 0 150 150">
  <g id="Grupo_150362" data-name="Grupo 150362" transform="translate(-732.815 -546.938)">
    <circle id="Elipse_5678" data-name="Elipse 5678" cx="75" cy="75" r="75" transform="translate(732.815 546.938)" fill="#fff"/>
    <g id="Grupo_150213" data-name="Grupo 150213" transform="translate(6447.098 11582.66)">
      <path id="Trazado_203245" data-name="Trazado 203245" d="M274.281,2699.565v-30.109s10.126-5.556,36.92-3.584l12.814,5.108v28.945s-32.887,10.126-49.734-.359" transform="translate(-5940.832 -13612.711)" fill="#3d46c2"/>
      <rect id="Rectángulo_295826" data-name="Rectángulo 295826" width="25.27" height="31.453" transform="translate(-5654.232 -11003.653)" fill="#dee9f0"/>
      <rect id="Rectángulo_295827" data-name="Rectángulo 295827" width="25.27" height="31.453" transform="translate(-5619.623 -11003.653)" fill="#dee9f0"/>
      <rect id="Rectángulo_295828" data-name="Rectángulo 295828" width="25.27" height="31.453" transform="translate(-5688.842 -11003.653)" fill="#dee9f0"/>
      <path id="Trazado_203246" data-name="Trazado 203246" d="M302.933,2662.211a1.843,1.843,0,0,0-1.73,1.416c-.157.787.629,1.573,1.416,1.73,8.181.787,11.642,2.045,12.585,2.674-1.73,1.259-9.6,3.146-23.283,3.146s-21.552-1.887-23.283-3.146c1.1-.629,4.562-2.045,12.743-2.674a1.421,1.421,0,0,0,1.416-1.73,1.5,1.5,0,0,0-1.73-1.416c-15.889,1.416-15.889,4.719-15.889,5.821v28.317c0,2.045,2.36,3.461,7.394,4.563a1.571,1.571,0,0,0,1.888-1.259,1.592,1.592,0,0,0-1.259-1.888c-3.618-.787-4.72-1.573-4.877-1.73v-5.821c6.293,2.832,20.137,2.99,23.6,2.99s17.3-.157,23.6-2.99v5.979c-1.1,1.1-9.124,3.3-23.6,3.3a102.546,102.546,0,0,1-12.428-.63,1.581,1.581,0,0,0-.315,3.147,109.713,109.713,0,0,0,12.743.629c4.4,0,26.744-.315,26.744-6.293v-28.317C318.665,2666.93,318.665,2663.627,302.933,2662.211Zm12.585,15.1c-.315.157-1.259.944-5.191,1.888a1.632,1.632,0,0,0-1.259,1.888,1.669,1.669,0,0,0,1.888,1.258,18.86,18.86,0,0,0,4.4-1.258v5.821c-1.1,1.1-9.124,3.3-23.6,3.3s-22.5-2.2-23.6-3.3v-5.978c6.293,2.832,20.137,2.989,23.6,2.989a113.507,113.507,0,0,0,13.057-.629,1.843,1.843,0,0,0,1.416-1.73,1.711,1.711,0,0,0-1.73-1.416,105.237,105.237,0,0,1-12.585.629c-14.473,0-22.5-2.2-23.6-3.3v-5.978c6.293,2.832,20.137,2.989,23.6,2.989s17.3-.157,23.6-2.989Z" transform="translate(-5933.519 -13610.095)"/>
      <path id="Trazado_203247" data-name="Trazado 203247" d="M186.75,2407.04h12.585a1.573,1.573,0,1,0,0-3.146H186.75a1.573,1.573,0,1,0,0,3.146" transform="translate(-5869.25 -13402.591)"/>
      <path id="Trazado_203248" data-name="Trazado 203248" d="M186.75,2439.04h12.585a1.573,1.573,0,0,0,0-3.146H186.75a1.573,1.573,0,0,0,0,3.146" transform="translate(-5869.25 -13428.299)"/>
      <path id="Trazado_203249" data-name="Trazado 203249" d="M186.75,2471.04h12.585a1.573,1.573,0,0,0,0-3.146H186.75a1.573,1.573,0,0,0,0,3.146" transform="translate(-5869.25 -13454.006)"/>
      <path id="Trazado_203250" data-name="Trazado 203250" d="M186.75,2503.04h12.585a1.573,1.573,0,1,0,0-3.146H186.75a1.573,1.573,0,1,0,0,3.146" transform="translate(-5869.25 -13479.713)"/>
      <path id="Trazado_203251" data-name="Trazado 203251" d="M330.75,2484.914a1.486,1.486,0,0,0,1.573-1.573v-2.674a1.573,1.573,0,1,0-3.146,0v2.674a1.576,1.576,0,0,0,1.573,1.573" transform="translate(-5984.933 -13463.004)"/>
      <path id="Trazado_203252" data-name="Trazado 203252" d="M362.75,2407.04h12.585a1.573,1.573,0,1,0,0-3.146H362.75a1.573,1.573,0,1,0,0,3.146" transform="translate(-6010.64 -13402.591)"/>
      <path id="Trazado_203253" data-name="Trazado 203253" d="M362.75,2439.04h12.585a1.573,1.573,0,0,0,0-3.146H362.75a1.573,1.573,0,0,0,0,3.146" transform="translate(-6010.64 -13428.299)"/>
      <path id="Trazado_203254" data-name="Trazado 203254" d="M362.75,2471.04h12.585a1.573,1.573,0,0,0,0-3.146H362.75a1.573,1.573,0,0,0,0,3.146" transform="translate(-6010.64 -13454.006)"/>
      <path id="Trazado_203255" data-name="Trazado 203255" d="M362.75,2503.04h12.585a1.573,1.573,0,1,0,0-3.146H362.75a1.573,1.573,0,1,0,0,3.146" transform="translate(-6010.64 -13479.713)"/>
      <path id="Trazado_203256" data-name="Trazado 203256" d="M249.141,2376.614a1.486,1.486,0,0,0,1.573-1.573v-1.573a1.486,1.486,0,0,0-1.573-1.573H223.97a1.486,1.486,0,0,0-1.573,1.573v31.463a1.486,1.486,0,0,0,1.573,1.573h11.012v9.439H203.519V2406.5h11.012a1.486,1.486,0,0,0,1.573-1.573v-31.463a1.486,1.486,0,0,0-1.573-1.573H189.36a1.486,1.486,0,0,0-1.573,1.573v14.788a1.573,1.573,0,1,0,3.146,0v-13.215h22.024v28.317H190.933a1.573,1.573,0,1,0-3.146,0v1.573a1.486,1.486,0,0,0,1.573,1.573h11.012v9.439H168.909V2406.5h11.012a1.486,1.486,0,0,0,1.573-1.573v-31.463a1.486,1.486,0,0,0-1.573-1.573H154.75a1.486,1.486,0,0,0-1.573,1.573v9.282a1.573,1.573,0,0,0,3.146,0v-7.708h22.024v28.317H156.323V2389.2a1.573,1.573,0,0,0-3.146,0v15.732a1.486,1.486,0,0,0,1.573,1.573h11.012v11.012a1.486,1.486,0,0,0,1.573,1.573h33.037v10.383l-3.618-3.618a1.557,1.557,0,0,0-2.2,2.2l6.293,6.293a1.749,1.749,0,0,0,2.2,0l6.293-6.293a1.557,1.557,0,1,0-2.2-2.2l-3.618,3.618v-10.383h33.037a1.486,1.486,0,0,0,1.573-1.573V2406.5h11.012a1.486,1.486,0,0,0,1.573-1.573v-23.44a1.573,1.573,0,1,0-3.146,0v21.867H225.543v-28.317h22.024a1.486,1.486,0,0,0,1.573,1.573" transform="translate(-5843.543 -13376.884)"/>
      <path id="Trazado_203257" data-name="Trazado 203257" d="M551.336,2403.894H538.75a1.573,1.573,0,1,0,0,3.146h12.585a1.573,1.573,0,1,0,0-3.146" transform="translate(-6152.03 -13402.591)"/>
      <path id="Trazado_203258" data-name="Trazado 203258" d="M551.336,2435.894H538.75a1.573,1.573,0,0,0,0,3.146h12.585a1.573,1.573,0,0,0,0-3.146" transform="translate(-6152.03 -13428.299)"/>
      <path id="Trazado_203259" data-name="Trazado 203259" d="M551.336,2467.894H538.75a1.573,1.573,0,0,0,0,3.146h12.585a1.573,1.573,0,0,0,0-3.146" transform="translate(-6152.03 -13454.006)"/>
      <path id="Trazado_203260" data-name="Trazado 203260" d="M551.336,2499.894H538.75a1.573,1.573,0,1,0,0,3.146h12.585a1.573,1.573,0,1,0,0-3.146" transform="translate(-6152.03 -13479.713)"/>
    </g>
  </g>
</svg>
