<svg xmlns="http://www.w3.org/2000/svg" width="150" height="150" viewBox="0 0 150 150">
  <g id="Grupo_150363" data-name="Grupo 150363" transform="translate(-1098.815 -546.938)">
    <circle id="Elipse_5678" data-name="Elipse 5678" cx="75" cy="75" r="75" transform="translate(1098.815 546.938)" fill="#fff"/>
    <g id="Grupo_150214" data-name="Grupo 150214" transform="translate(6828.808 11491.859)">
      <path id="Trazado_203201" data-name="Trazado 203201" d="M135.991,2915.692h76.5a4.989,4.989,0,0,1,4.99,4.99v66.525a4.989,4.989,0,0,1-4.99,4.989h-76.5a4.989,4.989,0,0,1-4.989-4.989v-66.525a4.989,4.989,0,0,1,4.989-4.99" transform="translate(-5825.079 -13829.678)" fill="#dee9f0"/>
      <rect id="Rectángulo_295817" data-name="Rectángulo 295817" width="3.327" height="3.326" transform="translate(-5689.088 -10908.995)" fill="#2a7fbf"/>
      <rect id="Rectángulo_295818" data-name="Rectángulo 295818" width="3.326" height="3.326" transform="translate(-5682.435 -10908.995)" fill="#2a7fbf"/>
      <rect id="Rectángulo_295819" data-name="Rectángulo 295819" width="3.326" height="3.326" transform="translate(-5675.782 -10908.995)" fill="#2a7fbf"/>
      <rect id="Rectángulo_295820" data-name="Rectángulo 295820" width="76.504" height="3.327" transform="translate(-5689.088 -10902.344)" fill="#2a7fbf"/>
      <path id="Trazado_203202" data-name="Trazado 203202" d="M190.712,3061.52H170.755v-16.631h8.315l3.327,3.326h8.316Z" transform="translate(-5858.179 -13937.253)" fill="#dce736"/>
      <path id="Trazado_203203" data-name="Trazado 203203" d="M349.72,3061.52H329.762v-16.631h8.316l3.326,3.326h8.316Z" transform="translate(-5990.577 -13937.253)" fill="#75b62f"/>
      <path id="Trazado_203204" data-name="Trazado 203204" d="M508.727,3061.52H488.77v-16.631h8.316l3.326,3.326h8.316Z" transform="translate(-6122.974 -13937.253)" fill="#dce736"/>
      <path id="Trazado_203205" data-name="Trazado 203205" d="M508.727,3220.528H488.77V3203.9h8.316l3.326,3.326h8.316Z" transform="translate(-6122.974 -14069.65)" fill="#3d46c2"/>
      <path id="Trazado_203206" data-name="Trazado 203206" d="M349.72,3220.528H329.762V3203.9h8.316l3.326,3.326h8.316Z" transform="translate(-5990.577 -14069.65)" fill="#3d46c2"/>
      <path id="Trazado_203207" data-name="Trazado 203207" d="M131.206,3223.894v-9.979h-5.643a19.817,19.817,0,0,0-2.125-5.132l3.991-3.992-7.057-7.057-3.991,3.992a19.791,19.791,0,0,0-5.133-2.126v-5.642h-9.979v5.642a19.8,19.8,0,0,0-5.132,2.126l-3.992-3.992-7.055,7.059,3.991,3.991a19.815,19.815,0,0,0-2.127,5.131H81.312v9.979h5.643a19.806,19.806,0,0,0,2.125,5.133l-3.991,3.991,7.057,7.057,3.991-3.991a19.826,19.826,0,0,0,5.133,2.125v5.643h9.979v-5.643a19.825,19.825,0,0,0,5.133-2.125l3.991,3.991,7.057-7.057-3.991-3.991a19.806,19.806,0,0,0,2.125-5.133Zm-24.947,4.99a9.979,9.979,0,1,1,9.979-9.979,9.978,9.978,0,0,1-9.979,9.979" transform="translate(-5783.705 -14061.376)" fill="#f85316"/>
      <path id="Trazado_203208" data-name="Trazado 203208" d="M204.217,2905.755h-76.5a6.653,6.653,0,0,0-6.653,6.653v39.915h3.327v-39.915a3.326,3.326,0,0,1,3.326-3.326h76.5a3.326,3.326,0,0,1,3.327,3.326v66.525a3.325,3.325,0,0,1-3.327,3.326H169.292v3.326h34.926a6.653,6.653,0,0,0,6.653-6.653v-66.525a6.653,6.653,0,0,0-6.653-6.653" transform="translate(-5816.801 -13821.403)"/>
      <rect id="Rectángulo_295821" data-name="Rectángulo 295821" width="3.327" height="3.326" transform="translate(-5689.088 -10908.995)"/>
      <rect id="Rectángulo_295822" data-name="Rectángulo 295822" width="3.326" height="3.326" transform="translate(-5682.435 -10908.995)"/>
      <rect id="Rectángulo_295823" data-name="Rectángulo 295823" width="3.326" height="3.326" transform="translate(-5675.782 -10908.995)"/>
      <rect id="Rectángulo_295824" data-name="Rectángulo 295824" width="76.504" height="3.327" transform="translate(-5689.088 -10902.344)"/>
      <path id="Trazado_203209" data-name="Trazado 203209" d="M160.814,3053.245a1.663,1.663,0,0,0,1.663,1.663h19.958a1.663,1.663,0,0,0,1.663-1.663v-13.306a1.664,1.664,0,0,0-1.663-1.663h-7.627l-2.839-2.839a1.659,1.659,0,0,0-1.176-.487h-8.315a1.664,1.664,0,0,0-1.664,1.663Zm3.327-14.969H170.1l2.839,2.839a1.659,1.659,0,0,0,1.176.487h6.653v9.979H164.141Z" transform="translate(-5849.902 -13928.978)"/>
      <path id="Trazado_203210" data-name="Trazado 203210" d="M343.105,3039.94a1.664,1.664,0,0,0-1.663-1.663h-7.627l-2.84-2.839a1.656,1.656,0,0,0-1.175-.487h-8.316a1.664,1.664,0,0,0-1.664,1.663v16.631a1.664,1.664,0,0,0,1.664,1.663h19.957a1.664,1.664,0,0,0,1.663-1.663Zm-3.326,11.642H323.148v-13.305h5.964l2.839,2.839a1.659,1.659,0,0,0,1.176.488h6.653Z" transform="translate(-5982.299 -13928.979)"/>
      <path id="Trazado_203211" data-name="Trazado 203211" d="M502.116,3039.94a1.664,1.664,0,0,0-1.663-1.663h-7.627l-2.839-2.839a1.659,1.659,0,0,0-1.176-.487H480.5a1.664,1.664,0,0,0-1.663,1.663v16.631a1.663,1.663,0,0,0,1.663,1.663h19.958a1.663,1.663,0,0,0,1.663-1.663V3039.94Zm-3.326,11.642H482.159v-13.305h5.964l2.839,2.839a1.66,1.66,0,0,0,1.176.488h6.653Z" transform="translate(-6114.7 -13928.979)"/>
      <path id="Trazado_203212" data-name="Trazado 203212" d="M359.616,3210.59v3.326h6.653a1.664,1.664,0,0,0,1.663-1.663v-13.3a1.664,1.664,0,0,0-1.663-1.664h-7.627l-2.84-2.839a1.657,1.657,0,0,0-1.175-.487h-4.99v3.326h4.3l2.839,2.839a1.663,1.663,0,0,0,1.176.487h6.653v9.979Z" transform="translate(-6007.125 -14061.376)"/>
      <path id="Trazado_203213" data-name="Trazado 203213" d="M500.453,3197.285h-7.627l-2.84-2.839a1.657,1.657,0,0,0-1.175-.487H480.5a1.664,1.664,0,0,0-1.663,1.663v16.631a1.664,1.664,0,0,0,1.663,1.663h19.957a1.664,1.664,0,0,0,1.663-1.663v-13.305a1.664,1.664,0,0,0-1.663-1.663m-1.663,13.305H482.159v-13.305h5.964l2.839,2.839a1.661,1.661,0,0,0,1.176.488h6.653Z" transform="translate(-6114.7 -14061.376)"/>
      <path id="Trazado_203214" data-name="Trazado 203214" d="M77.433,3203.979h-4.4a1.663,1.663,0,0,0-1.663,1.663v9.979a1.663,1.663,0,0,0,1.663,1.663h4.4a21.5,21.5,0,0,0,1.314,3.177l-3.107,3.106a1.664,1.664,0,0,0,0,2.352l7.057,7.057a1.666,1.666,0,0,0,2.352,0l3.107-3.107a21.474,21.474,0,0,0,3.176,1.314v4.4A1.664,1.664,0,0,0,93,3237.242h9.979a1.664,1.664,0,0,0,1.664-1.663v-4.4a21.534,21.534,0,0,0,3.176-1.314l3.107,3.107a1.666,1.666,0,0,0,2.352,0l7.057-7.057a1.665,1.665,0,0,0,0-2.352l-3.107-3.106a21.505,21.505,0,0,0,1.314-3.177h4.4a1.664,1.664,0,0,0,1.663-1.663v-9.979a1.664,1.664,0,0,0-1.663-1.663h-4.4a21.519,21.519,0,0,0-1.314-3.177l3.107-3.106a1.665,1.665,0,0,0,0-2.352l-7.057-7.056a1.664,1.664,0,0,0-2.352,0l-3.107,3.106a21.558,21.558,0,0,0-3.176-1.314v-4.4a1.664,1.664,0,0,0-1.664-1.663H93a1.664,1.664,0,0,0-1.663,1.663v4.4a21.528,21.528,0,0,0-3.176,1.314l-3.107-3.106a1.664,1.664,0,0,0-2.352,0l-7.057,7.056a1.664,1.664,0,0,0,0,2.352l3.107,3.106c-.138.27-.271.544-.4.82a21.669,21.669,0,0,0-.916,2.357m2.859,2.079a18.107,18.107,0,0,1,1.946-4.7,1.663,1.663,0,0,0-.257-2.021l-2.813-2.813,4.7-4.7,2.814,2.814a1.664,1.664,0,0,0,2.021.256,18.193,18.193,0,0,1,4.7-1.946,1.664,1.664,0,0,0,1.247-1.61v-3.981h6.653v3.981a1.664,1.664,0,0,0,1.247,1.61,18.189,18.189,0,0,1,4.7,1.946,1.664,1.664,0,0,0,2.021-.256l2.813-2.814,4.705,4.7-2.814,2.813a1.664,1.664,0,0,0-.256,2.021,18.2,18.2,0,0,1,1.946,4.7,1.664,1.664,0,0,0,1.61,1.247h3.981v6.653h-3.981a1.664,1.664,0,0,0-1.61,1.247,18.183,18.183,0,0,1-1.946,4.7,1.664,1.664,0,0,0,.256,2.021l2.814,2.814-4.705,4.7-2.813-2.813a1.664,1.664,0,0,0-2.021-.256,18.228,18.228,0,0,1-4.7,1.947,1.662,1.662,0,0,0-1.247,1.609v3.981H94.658v-3.981a1.663,1.663,0,0,0-1.247-1.609,18.186,18.186,0,0,1-4.7-1.947,1.663,1.663,0,0,0-2.021.256l-2.814,2.813-4.7-4.7,2.813-2.814a1.664,1.664,0,0,0,.257-2.021,18.179,18.179,0,0,1-1.946-4.7,1.663,1.663,0,0,0-1.609-1.247H74.7v-6.653h3.982a1.663,1.663,0,0,0,1.609-1.247" transform="translate(-5775.43 -14053.102)"/>
      <path id="Trazado_203215" data-name="Trazado 203215" d="M172.455,3296.745a11.642,11.642,0,1,0-11.642-11.642,11.642,11.642,0,0,0,11.642,11.642m0-19.957a8.315,8.315,0,1,1-8.316,8.315,8.316,8.316,0,0,1,8.316-8.315" transform="translate(-5849.901 -14127.573)"/>
    </g>
  </g>
</svg>
