<svg xmlns="http://www.w3.org/2000/svg" width="150" height="150" viewBox="0 0 150 150">
  <g id="Grupo_150475" data-name="Grupo 150475" transform="translate(-1092.701 -3628.351)">
    <circle id="Elipse_5678" data-name="Elipse 5678" cx="75" cy="75" r="75" transform="translate(1092.701 3628.351)" fill="#fff"/>
    <g id="Trazado_204731" data-name="Trazado 204731" transform="translate(1105 3674.363)" fill="#fa7e50">
      <path d="M 110 61.97559356689453 L 15 61.97559356689453 C 11.5275821685791 61.97559356689453 8.262981414794922 60.62335586547852 5.807618141174316 58.16797637939453 C 3.352236270904541 55.71261215209961 2 52.4480094909668 2 48.97559356689453 L 2 14.99999332427979 C 2 11.52757453918457 3.352236270904541 8.262992858886719 5.807618141174316 5.807610988616943 C 8.262981414794922 3.352229356765747 11.5275821685791 1.999992966651917 15 1.999992966651917 L 110 1.999992966651917 C 113.4724197387695 1.999992966651917 116.7370147705078 3.352229356765747 119.1923828125 5.807610988616943 C 121.6477661132812 8.262992858886719 123 11.52757453918457 123 14.99999332427979 L 123 48.97559356689453 C 123 52.4480094909668 121.6477661132812 55.71261215209961 119.1923828125 58.16797637939453 C 116.7370147705078 60.62335586547852 113.4724197387695 61.97559356689453 110 61.97559356689453 Z" stroke="none"/>
      <path d="M 15 3.999992370605469 C 12.06179809570312 3.999992370605469 9.2994384765625 5.144191741943359 7.221817016601562 7.221813201904297 C 5.144203186035156 9.299453735351562 4 12.06179428100586 4 14.99999237060547 L 4 48.97559356689453 C 4 51.91379165649414 5.144203186035156 54.67613220214844 7.221817016601562 56.7537727355957 C 9.2994384765625 58.83139419555664 12.06179809570312 59.97559356689453 15 59.97559356689453 L 110 59.97559356689453 C 112.9382019042969 59.97559356689453 115.7005386352539 58.83139419555664 117.7781829833984 56.7537727355957 C 119.8557968139648 54.67613220214844 121 51.91379165649414 121 48.97559356689453 L 121 14.99999237060547 C 121 12.06179428100586 119.8557968139648 9.299453735351562 117.7781829833984 7.221813201904297 C 115.7005386352539 5.144191741943359 112.9382019042969 3.999992370605469 110 3.999992370605469 L 15 3.999992370605469 M 15 -7.62939453125e-06 L 110 -7.62939453125e-06 C 118.2842559814453 -7.62939453125e-06 125 6.715732574462891 125 14.99999237060547 L 125 48.97559356689453 C 125 57.25985336303711 118.2842559814453 63.97559356689453 110 63.97559356689453 L 15 63.97559356689453 C 6.715721130371094 63.97559356689453 0 57.25985336303711 0 48.97559356689453 L 0 14.99999237060547 C 0 6.715732574462891 6.715721130371094 -7.62939453125e-06 15 -7.62939453125e-06 Z" stroke="none" fill="#f85316"/>
    </g>
    <path id="Trazado_204730" data-name="Trazado 204730" d="M33.252,14.667a4.673,4.673,0,0,1-.721,2.36,4.35,4.35,0,0,1-1.85,1.586,6.3,6.3,0,0,1-2.72.563,5.025,5.025,0,0,1-3.973-1.644,6.786,6.786,0,0,1-1.45-4.641v-.633a7.746,7.746,0,0,1,.655-3.292,4.961,4.961,0,0,1,1.885-2.18,5.26,5.26,0,0,1,2.848-.769A5.516,5.516,0,0,1,31.67,7.245a4.844,4.844,0,0,1,1.608,3.379H30.2a2.292,2.292,0,0,0-.589-1.679,2.422,2.422,0,0,0-1.687-.51,1.843,1.843,0,0,0-1.687.861,5.536,5.536,0,0,0-.562,2.751v.905a6.126,6.126,0,0,0,.514,2.927,1.882,1.882,0,0,0,1.771.879,2.369,2.369,0,0,0,1.626-.5,2.126,2.126,0,0,0,.6-1.591Zm6.214-.193H37.8V19H34.711V6.2h5.036a5.621,5.621,0,0,1,3.56,1.01,3.421,3.421,0,0,1,1.283,2.853,4.155,4.155,0,0,1-.541,2.213A3.837,3.837,0,0,1,42.357,13.7l2.672,5.167V19h-3.3ZM37.8,12.1h1.951a1.751,1.751,0,0,0,1.323-.463,1.788,1.788,0,0,0,.444-1.291,1.809,1.809,0,0,0-.448-1.3,1.735,1.735,0,0,0-1.318-.471H37.8ZM54.39,13.568H49.538v3.059h5.73V19H46.453V6.2h8.833V8.585H49.538v2.7H54.39Zm9.4,3.041H59.566L58.828,19h-3.3L60.226,6.2h2.9L67.854,19H64.541ZM60.3,14.228h2.751l-1.38-4.438ZM77.777,8.585H73.937V19H70.852V8.585H67.081V6.2h10.7Zm9.237,4.983H82.163v3.059h5.73V19H79.078V6.2h8.833V8.585H82.163v2.7h4.852Zm-45.7,22.017H37.475V46H34.39V35.585H30.62V33.2h10.7Zm7.515,8.024H44.6L43.865,46h-3.3l4.693-12.8h2.9L52.891,46H49.578Zm-3.489-2.382h2.751l-1.38-4.438ZM53.823,46V33.2h4.6a6.509,6.509,0,0,1,3.757.905,3.012,3.012,0,0,1,1.288,2.628,3.045,3.045,0,0,1-.457,1.7,2.663,2.663,0,0,1-1.345,1.037,2.7,2.7,0,0,1,1.538.984,2.862,2.862,0,0,1,.536,1.758,3.388,3.388,0,0,1-1.191,2.826A5.667,5.667,0,0,1,59.017,46Zm3.085-5.44v3.067h2.021a1.923,1.923,0,0,0,1.283-.382,1.338,1.338,0,0,0,.448-1.077A1.419,1.419,0,0,0,59.07,40.56Zm0-2.021h1.608a2.285,2.285,0,0,0,1.441-.37,1.314,1.314,0,0,0,.431-1.067,1.379,1.379,0,0,0-.466-1.168,2.493,2.493,0,0,0-1.5-.357H56.908Zm11.61,5.089h5.37V46H65.433V33.2h3.085Zm14.607-3.059H78.274v3.059H84V46H75.189V33.2h8.833v2.382H78.274v2.7h4.852Z" transform="translate(1110.201 3682.851)" fill="#f6f6f6"/>
  </g>
</svg>
