<svg xmlns="http://www.w3.org/2000/svg" width="150" height="150" viewBox="0 0 150 150">
  <g id="Grupo_150361" data-name="Grupo 150361" transform="translate(-355.815 -546.938)">
    <circle id="Elipse_5678" data-name="Elipse 5678" cx="75" cy="75" r="75" transform="translate(355.815 546.938)" fill="#fff"/>
    <g id="Grupo_150212" data-name="Grupo 150212" transform="translate(6060.993 11681.17)">
      <path id="Trazado_203262" data-name="Trazado 203262" d="M279.137,1997.955v40.136H276.1v4.97l3.925,3.034h58.986v-39.081Z" transform="translate(-5944.047 -13059.743)" fill="#dee9f0"/>
      <path id="Trazado_203263" data-name="Trazado 203263" d="M430.953,2044.909a4.291,4.291,0,1,0,4.29,4.291,4.3,4.3,0,0,0-4.29-4.291" transform="translate(-6065.556 -13097.638)" fill="#dce736"/>
      <path id="Trazado_203264" data-name="Trazado 203264" d="M374.052,1999.291l-1.9-3.136a1.055,1.055,0,0,1,.156-1.294l4.127-4.127a1.053,1.053,0,0,1,1.231-.187v-17.021H366.736a4.852,4.852,0,0,1-3.978-2.077h-22.38a4.452,4.452,0,0,1-2.5,1.826v2.784a3.17,3.17,0,0,1-3.166,3.166H332.9v29.153h35.892v-5.071a1.055,1.055,0,0,1,.8-1.025l3.576-.874a15.318,15.318,0,0,1,.882-2.117m-4-7.132a1.056,1.056,0,0,1-.8,1.026l-2.6.636a11.967,11.967,0,0,1-.583,1.4l1.385,2.281a1.055,1.055,0,0,1-.156,1.294l-3.156,3.156a1.055,1.055,0,0,1-1.294.156l-2.291-1.391a11.938,11.938,0,0,1-1.4.579l-.633,2.591a1.056,1.056,0,0,1-1.025.805h-4.463a1.055,1.055,0,0,1-1.025-.805l-.636-2.6a12,12,0,0,1-1.4-.583l-2.281,1.385a1.055,1.055,0,0,1-1.294-.156l-3.156-3.156a1.055,1.055,0,0,1-.156-1.294l1.391-2.29a11.946,11.946,0,0,1-.579-1.4l-2.591-.633a1.055,1.055,0,0,1-.8-1.025v-4.463a1.056,1.056,0,0,1,.8-1.025l2.6-.636a11.977,11.977,0,0,1,.583-1.4l-1.385-2.281a1.056,1.056,0,0,1,.156-1.294l3.156-3.156a1.055,1.055,0,0,1,1.294-.156l2.29,1.39a12.09,12.09,0,0,1,1.4-.579l.633-2.59a1.056,1.056,0,0,1,1.025-.8h4.463a1.055,1.055,0,0,1,1.025.8l.636,2.6a11.9,11.9,0,0,1,1.4.583l2.281-1.385a1.054,1.054,0,0,1,1.294.156l3.156,3.156a1.056,1.056,0,0,1,.156,1.294l-1.391,2.29a11.911,11.911,0,0,1,.579,1.4l2.591.633a1.056,1.056,0,0,1,.8,1.026Z" transform="translate(-5989.882 -13038.351)" fill="#dce736"/>
      <path id="Trazado_203265" data-name="Trazado 203265" d="M405.458,2011.464a9.88,9.88,0,0,0-.867-2.1,1.056,1.056,0,0,1,.02-1.06l1.269-2.09-1.984-1.984-2.083,1.264a1.055,1.055,0,0,1-1.063.019,9.849,9.849,0,0,0-2.1-.873,1.055,1.055,0,0,1-.735-.764l-.58-2.374h-2.806l-.578,2.365a1.056,1.056,0,0,1-.738.765,9.875,9.875,0,0,0-2.1.867,1.055,1.055,0,0,1-1.06-.021l-2.09-1.269-1.984,1.984,1.264,2.083a1.055,1.055,0,0,1,.019,1.063,9.866,9.866,0,0,0-.873,2.1,1.055,1.055,0,0,1-.764.735l-2.375.581v2.806l2.365.578a1.054,1.054,0,0,1,.765.738,9.865,9.865,0,0,0,.867,2.1,1.055,1.055,0,0,1-.02,1.06l-1.269,2.09,1.984,1.984,2.083-1.264a1.054,1.054,0,0,1,1.063-.019,9.86,9.86,0,0,0,2.1.873,1.055,1.055,0,0,1,.735.764l.581,2.374h2.806l.578-2.365a1.056,1.056,0,0,1,.738-.765,9.873,9.873,0,0,0,2.1-.867,1.055,1.055,0,0,1,1.06.021l2.09,1.269,1.984-1.984-1.264-2.082a1.055,1.055,0,0,1-.019-1.063,9.852,9.852,0,0,0,.873-2.1,1.056,1.056,0,0,1,.764-.735l2.374-.58v-2.806l-2.365-.578a1.055,1.055,0,0,1-.765-.738m-9.536,9.106a6.4,6.4,0,1,1,6.4-6.4,6.409,6.409,0,0,1-6.4,6.4" transform="translate(-6030.526 -13062.607)" fill="#f85316"/>
      <path id="Trazado_203266" data-name="Trazado 203266" d="M607.5,2144.268a2.362,2.362,0,1,0-2.362-2.362,2.365,2.365,0,0,0,2.362,2.362" transform="translate(-6209.592 -13174.013)" fill="#3d46c2"/>
      <path id="Trazado_203267" data-name="Trazado 203267" d="M307.721,1984.4v-2.616h-9.58v2.616a1.057,1.057,0,0,0,1.055,1.055h7.469a1.057,1.057,0,0,0,1.055-1.055" transform="translate(-5961.833 -13046.69)" fill="#dee9f0"/>
      <path id="Trazado_203268" data-name="Trazado 203268" d="M363.161,1938.249a4.438,4.438,0,0,1,2.378,3.926c0,.112-.009.221-.017.331h20.83a4.9,4.9,0,0,1-.047-.667V1938.2H363.183l-.022.047" transform="translate(-6014.308 -13011.52)" fill="#dee9f0"/>
      <path id="Trazado_203269" data-name="Trazado 203269" d="M259.009,1814.255h4.642v-7.674a5.056,5.056,0,1,1,2.111,0v7.674h4.611a13.672,13.672,0,0,1,3.5-4.833,13.878,13.878,0,1,0-18.426,0,13.656,13.656,0,0,1,3.5,4.836c.023,0,.045,0,.068,0m-3.43-15.2a1.055,1.055,0,1,1-2.111,0,11.166,11.166,0,0,1,11.188-11.118,1.055,1.055,0,1,1,0,2.111,9.053,9.053,0,0,0-9.077,9.007" transform="translate(-5923.608 -12888.035)" fill="#dce736"/>
      <path id="Trazado_203270" data-name="Trazado 203270" d="M543.856,2067.6a1.057,1.057,0,0,1-.738.765,13.222,13.222,0,0,0-2.813,1.162,1.055,1.055,0,0,1-1.06-.02l-2.951-1.792-2.956,2.955,1.786,2.941a1.056,1.056,0,0,1,.019,1.063,13.2,13.2,0,0,0-1.17,2.809,1.056,1.056,0,0,1-.764.735l-3.352.819v4.179l3.34.817a1.055,1.055,0,0,1,.765.738,13.213,13.213,0,0,0,1.162,2.813,1.055,1.055,0,0,1-.021,1.06l-1.792,2.952,2.955,2.955,2.941-1.785a1.055,1.055,0,0,1,1.063-.019,13.23,13.23,0,0,0,2.81,1.17,1.055,1.055,0,0,1,.735.764l.819,3.352h4.18l.817-3.34a1.056,1.056,0,0,1,.738-.765,13.216,13.216,0,0,0,2.813-1.162,1.054,1.054,0,0,1,1.06.021l2.951,1.792,2.955-2.955-1.786-2.942a1.055,1.055,0,0,1-.019-1.063,13.223,13.223,0,0,0,1.17-2.809,1.055,1.055,0,0,1,.764-.735l3.352-.819v-4.179l-3.34-.817a1.056,1.056,0,0,1-.765-.738,13.2,13.2,0,0,0-1.162-2.813,1.055,1.055,0,0,1,.02-1.06l1.792-2.951-2.955-2.956-2.941,1.786a1.055,1.055,0,0,1-1.063.019,13.181,13.181,0,0,0-2.81-1.17,1.057,1.057,0,0,1-.735-.764l-.82-3.352h-4.179Zm13.341,13.547a10.454,10.454,0,1,1-10.454-10.454,10.466,10.466,0,0,1,10.454,10.454" transform="translate(-6148.838 -13113.259)" fill="#3d46c2"/>
      <path id="Trazado_203271" data-name="Trazado 203271" d="M313.592,1857.671a2.946,2.946,0,1,0-2.945,2.99,2.971,2.971,0,0,0,2.945-2.99" transform="translate(-5969.548 -12944.113)" fill="#dce736"/>
      <path id="Trazado_203272" data-name="Trazado 203272" d="M297.434,1949.07a2.327,2.327,0,0,0-2.325-2.324h-11.4a2.325,2.325,0,0,0,0,4.649h11.4a2.328,2.328,0,0,0,2.325-2.325" transform="translate(-5948.313 -13018.415)" fill="#dee9f0"/>
      <path id="Trazado_203273" data-name="Trazado 203273" d="M582.481,2125.232a8.343,8.343,0,1,0-8.343-8.343,8.352,8.352,0,0,0,8.343,8.343m0-12.816a4.473,4.473,0,1,1-4.473,4.473,4.478,4.478,0,0,1,4.473-4.473" transform="translate(-6184.576 -13148.995)" fill="#fff"/>
      <path id="Trazado_203274" data-name="Trazado 203274" d="M531.567,1783.1H496.794a2.747,2.747,0,0,0-2.744,2.744v2.937h40.683v-2.515a3.17,3.17,0,0,0-3.166-3.167m-10.427,4a1.156,1.156,0,1,1,1.152-1.156,1.154,1.154,0,0,1-1.152,1.156m4.938,0a1.156,1.156,0,1,1,1.152-1.156,1.154,1.154,0,0,1-1.152,1.156m4.938,0a1.156,1.156,0,1,1,1.152-1.156,1.154,1.154,0,0,1-1.152,1.156" transform="translate(-6119.941 -12886.346)" fill="#75b62f"/>
      <path id="Trazado_203275" data-name="Trazado 203275" d="M494.05,1849.259a2.747,2.747,0,0,0,2.744,2.744h35.195a2.747,2.747,0,0,0,2.744-2.744v-25.771H494.05Zm24.928-8.857,4.96-2.476-4.96-2.476v-2.379l7.918,4.076v1.558l-.057.029-7.861,4.047Zm-3.089-9.16h2.289l-4.513,11.729h-2.273Zm-14,5.919,7.918-4.094v2.38l-4.925,2.478,4.925,2.478v2.38l-7.918-4.094Z" transform="translate(-6119.941 -12918.939)" fill="#fff"/>
      <path id="Trazado_203276" data-name="Trazado 203276" d="M579.059,2000.3l.871-3.562a1.046,1.046,0,0,1,.312-.523v-14h-4.4v18.3l1.1.668a15.348,15.348,0,0,1,2.12-.876" transform="translate(-6185.949 -13047.039)" fill="#dee9f0"/>
      <path id="Trazado_203277" data-name="Trazado 203277" d="M328.8,2204.427H274.756a3.17,3.17,0,0,1-3.167-3.166V2198.2h45.586a1.056,1.056,0,0,0,0-2.111H270.534a1.056,1.056,0,0,0-1.055,1.056v4.117a5.283,5.283,0,0,0,5.277,5.277H328.8a1.056,1.056,0,0,0,0-2.111" transform="translate(-5938.701 -13219.646)"/>
      <path id="Trazado_203278" data-name="Trazado 203278" d="M542.587,1880.474,537.663,1878l4.924-2.478v-2.38l-7.919,4.094v1.528l7.919,4.094Z" transform="translate(-6152.722 -12959.011)"/>
      <path id="Trazado_203279" data-name="Trazado 203279" d="M590.711,1863.677h-2.289l-4.5,11.729H586.2Z" transform="translate(-6192.475 -12951.374)"/>
      <path id="Trazado_203280" data-name="Trazado 203280" d="M631.16,1878.784v-1.558l-7.918-4.077v2.379L628.2,1878l-4.96,2.476v2.379l7.861-4.047Z" transform="translate(-6224.205 -12959.019)"/>
      <path id="Trazado_203281" data-name="Trazado 203281" d="M629.63,1791.831a1.156,1.156,0,1,0,1.152,1.156,1.154,1.154,0,0,0-1.152-1.156" transform="translate(-6228.431 -12893.391)"/>
      <path id="Trazado_203282" data-name="Trazado 203282" d="M655.221,1791.831a1.156,1.156,0,1,0,1.152,1.156,1.154,1.154,0,0,0-1.152-1.156" transform="translate(-6249.084 -12893.391)"/>
      <path id="Trazado_203283" data-name="Trazado 203283" d="M680.811,1791.831a1.156,1.156,0,1,0,1.152,1.156,1.154,1.154,0,0,0-1.152-1.156" transform="translate(-6269.736 -12893.391)"/>
      <path id="Trazado_203284" data-name="Trazado 203284" d="M276.961,1800.474a1.055,1.055,0,0,0-1.055-1.055,11.166,11.166,0,0,0-11.188,11.118,1.055,1.055,0,1,0,2.111,0,9.053,9.053,0,0,1,9.077-9.007,1.055,1.055,0,0,0,1.055-1.056" transform="translate(-5934.859 -12899.515)"/>
      <path id="Trazado_203285" data-name="Trazado 203285" d="M233.05,1778.56l-1.279-1.3a1.055,1.055,0,0,0-1.505,1.48l1.279,1.3a1.053,1.053,0,0,0,.752.315,1.082,1.082,0,0,0,.753-1.8" transform="translate(-5906.81 -12881.378)"/>
      <path id="Trazado_203286" data-name="Trazado 203286" d="M206.7,1840.633h-1.808a1.055,1.055,0,1,0,0,2.111H206.7a1.055,1.055,0,0,0,0-2.111" transform="translate(-5885.727 -12932.776)"/>
      <path id="Trazado_203287" data-name="Trazado 203287" d="M422.838,1842.355h1.808a1.055,1.055,0,0,0,0-2.111h-1.808a1.055,1.055,0,1,0,0,2.111" transform="translate(-6061.618 -12932.462)"/>
      <path id="Trazado_203288" data-name="Trazado 203288" d="M399.293,1780.081a1.053,1.053,0,0,0,.753-.315l1.279-1.3a1.055,1.055,0,0,0-1.5-1.48l-1.279,1.3a1.082,1.082,0,0,0,.752,1.8" transform="translate(-6042.637 -12881.156)"/>
      <path id="Trazado_203289" data-name="Trazado 203289" d="M401.065,2002.1l-2.591-.633a11.941,11.941,0,0,0-.579-1.4l1.391-2.291a1.055,1.055,0,0,0-.156-1.294l-3.156-3.156a1.055,1.055,0,0,0-1.294-.156l-2.281,1.385a11.987,11.987,0,0,0-1.4-.583l-.636-2.6a1.055,1.055,0,0,0-1.025-.8h-4.463a1.056,1.056,0,0,0-1.025.8l-.633,2.591a12,12,0,0,0-1.4.579l-2.29-1.391a1.055,1.055,0,0,0-1.294.156l-3.156,3.156a1.055,1.055,0,0,0-.156,1.294l1.385,2.281a11.968,11.968,0,0,0-.583,1.4l-2.6.635a1.056,1.056,0,0,0-.8,1.026v4.463a1.056,1.056,0,0,0,.8,1.025l2.591.633a11.958,11.958,0,0,0,.579,1.4l-1.391,2.291a1.055,1.055,0,0,0,.156,1.294l3.156,3.156a1.055,1.055,0,0,0,1.294.156l2.281-1.385a12,12,0,0,0,1.4.583l.636,2.6a1.055,1.055,0,0,0,1.025.805h4.463a1.056,1.056,0,0,0,1.025-.805l.633-2.591a11.856,11.856,0,0,0,1.4-.579l2.291,1.391a1.055,1.055,0,0,0,1.294-.156l3.156-3.156a1.055,1.055,0,0,0,.156-1.294l-1.385-2.281a11.945,11.945,0,0,0,.583-1.4l2.6-.636a1.055,1.055,0,0,0,.8-1.025v-4.463a1.056,1.056,0,0,0-.8-1.025m-1.306,4.66-2.374.581a1.054,1.054,0,0,0-.764.735,9.859,9.859,0,0,1-.873,2.1,1.056,1.056,0,0,0,.019,1.063l1.264,2.083-1.984,1.985-2.09-1.269a1.053,1.053,0,0,0-1.06-.02,9.846,9.846,0,0,1-2.1.866,1.056,1.056,0,0,0-.738.765l-.578,2.365h-2.806l-.581-2.375a1.055,1.055,0,0,0-.735-.764,9.86,9.86,0,0,1-2.1-.873,1.054,1.054,0,0,0-1.063.019l-2.083,1.264-1.984-1.984,1.269-2.09a1.056,1.056,0,0,0,.02-1.06,9.866,9.866,0,0,1-.867-2.1,1.055,1.055,0,0,0-.765-.738l-2.365-.578v-2.806l2.375-.581a1.055,1.055,0,0,0,.764-.735,9.866,9.866,0,0,1,.873-2.1,1.055,1.055,0,0,0-.019-1.062l-1.264-2.082,1.984-1.985,2.09,1.269a1.054,1.054,0,0,0,1.06.021,9.849,9.849,0,0,1,2.1-.867,1.056,1.056,0,0,0,.738-.765l.578-2.365h2.806l.58,2.375a1.055,1.055,0,0,0,.735.764,9.847,9.847,0,0,1,2.1.873,1.055,1.055,0,0,0,1.063-.019l2.083-1.264,1.984,1.984-1.269,2.09a1.055,1.055,0,0,0-.02,1.06,9.886,9.886,0,0,1,.867,2.1,1.055,1.055,0,0,0,.765.738l2.365.578Z" transform="translate(-6021.697 -13053.778)"/>
      <path id="Trazado_203290" data-name="Trazado 203290" d="M422.124,2033.969a6.4,6.4,0,1,0,6.4,6.4,6.409,6.409,0,0,0-6.4-6.4m0,10.692a4.29,4.29,0,1,1,4.29-4.29,4.3,4.3,0,0,1-4.29,4.29" transform="translate(-6056.728 -13088.809)"/>
      <path id="Trazado_203291" data-name="Trazado 203291" d="M326.405,1772.162H291.633a4.861,4.861,0,0,0-4.855,4.855v25.072H264.942a11.747,11.747,0,0,1,1.5-1.605,15.989,15.989,0,1,0-21.228,0,11.567,11.567,0,0,1,2.828,3.806,4.431,4.431,0,0,0,.936,8.148v2.787a3.143,3.143,0,0,0,.193,1.077v33.646a1.055,1.055,0,1,0,2.111,0v-31.679a3.158,3.158,0,0,0,.863.122h3.54V1848.6a1.056,1.056,0,0,0,1.055,1.056H295.8l2.254.551a15.352,15.352,0,0,0,.876,2.12l-1.911,3.148a1.055,1.055,0,0,0,.156,1.294l4.127,4.127a1.055,1.055,0,0,0,1.294.156l3.136-1.9a15.363,15.363,0,0,0,2.117.882l.874,3.575a1.056,1.056,0,0,0,1.025.8h5.837a1.055,1.055,0,0,0,1.025-.8l.871-3.562a15.282,15.282,0,0,0,2.12-.876l3.148,1.911a1.055,1.055,0,0,0,1.294-.156l4.127-4.127a1.055,1.055,0,0,0,.156-1.294l-1.9-3.136a15.352,15.352,0,0,0,.882-2.117l3.576-.874a1.055,1.055,0,0,0,.8-1.025v-5.837a1.056,1.056,0,0,0-.8-1.025l-3.562-.871a15.381,15.381,0,0,0-.876-2.12l1.911-3.147a1.056,1.056,0,0,0-.156-1.294l-4.127-4.127a1.055,1.055,0,0,0-1.294-.156l-3.136,1.9a15.293,15.293,0,0,0-2.117-.882l-.874-3.575a1.055,1.055,0,0,0-1.025-.8h-4.438v-13.721h15.644a4.86,4.86,0,0,0,4.855-4.855v-30.4a5.283,5.283,0,0,0-5.277-5.277M286.778,1804.2v3.637a4.916,4.916,0,0,0,.047.667h-20.83c.008-.11.017-.219.017-.331a4.437,4.437,0,0,0-2.378-3.926l.022-.047Zm-40.164-5.3a13.878,13.878,0,1,1,18.426,0,13.67,13.67,0,0,0-3.5,4.833h-4.611v-7.674a5.056,5.056,0,1,0-2.111,0v7.674H250.18c-.023,0-.045,0-.068,0a13.661,13.661,0,0,0-3.5-4.836m9.264-4.839a2.991,2.991,0,1,1,2.945-2.99,2.972,2.972,0,0,1-2.945,2.99m-5.7,16.433a2.325,2.325,0,0,1,0-4.65h11.4a2.325,2.325,0,1,1,0,4.65Zm1.963,5.782a1.056,1.056,0,0,1-1.055-1.055v-2.616h9.58v2.616a1.056,1.056,0,0,1-1.055,1.055Zm41.543,26.193v5.071H257.794v-29.153h1.818a3.17,3.17,0,0,0,3.166-3.166v-2.784a4.45,4.45,0,0,0,2.5-1.826h22.38a4.851,4.851,0,0,0,3.978,2.077h10.926v17.021a1.053,1.053,0,0,0-1.231.187l-4.127,4.127a1.055,1.055,0,0,0-.156,1.294l1.9,3.136a15.3,15.3,0,0,0-.882,2.117l-3.576.874a1.055,1.055,0,0,0-.8,1.025m21.107-13.95.819,3.352a1.056,1.056,0,0,0,.735.764,13.213,13.213,0,0,1,2.81,1.17,1.055,1.055,0,0,0,1.063-.019l2.941-1.786,2.955,2.955-1.792,2.952a1.055,1.055,0,0,0-.02,1.06,13.192,13.192,0,0,1,1.162,2.813,1.055,1.055,0,0,0,.765.738l3.34.817v4.18l-3.352.819a1.055,1.055,0,0,0-.764.735,13.221,13.221,0,0,1-1.171,2.81,1.056,1.056,0,0,0,.019,1.063l1.786,2.941-2.955,2.956-2.952-1.792a1.054,1.054,0,0,0-1.06-.02,13.221,13.221,0,0,1-2.813,1.162,1.056,1.056,0,0,0-.738.765l-.816,3.34h-4.18l-.819-3.352a1.055,1.055,0,0,0-.735-.764,13.2,13.2,0,0,1-2.81-1.171,1.056,1.056,0,0,0-1.063.019l-2.941,1.786-2.955-2.955,1.792-2.952a1.054,1.054,0,0,0,.02-1.06,13.2,13.2,0,0,1-1.162-2.813,1.055,1.055,0,0,0-.765-.738l-3.34-.817v-4.18l3.352-.82a1.055,1.055,0,0,0,.764-.735,13.214,13.214,0,0,1,1.17-2.81,1.056,1.056,0,0,0-.019-1.063l-1.786-2.941,2.955-2.955,2.952,1.792a1.055,1.055,0,0,0,1.06.02,13.206,13.206,0,0,1,2.813-1.162,1.057,1.057,0,0,0,.738-.765l.816-3.34Zm-10.124,2.464v-18.3h4.4v14a1.046,1.046,0,0,0-.312.523l-.871,3.562a15.317,15.317,0,0,0-2.12.876Zm24.9-23.151a2.747,2.747,0,0,1-2.744,2.744H291.633a2.747,2.747,0,0,1-2.744-2.744v-25.771h40.683Zm0-27.882H288.888v-2.937a2.748,2.748,0,0,1,2.744-2.744h34.773a3.17,3.17,0,0,1,3.166,3.167Z" transform="translate(-5914.78 -12877.517)"/>
      <path id="Trazado_203292" data-name="Trazado 203292" d="M563.2,2108.06a10.454,10.454,0,1,0,10.454-10.454A10.466,10.466,0,0,0,563.2,2108.06m10.454-8.343a8.343,8.343,0,1,1-8.343,8.343,8.352,8.352,0,0,1,8.343-8.343" transform="translate(-6175.747 -13140.167)"/>
      <path id="Trazado_203293" data-name="Trazado 203293" d="M598.668,2137.55a4.473,4.473,0,1,0-4.473-4.473,4.478,4.478,0,0,0,4.473,4.473m0-6.835a2.362,2.362,0,1,1-2.362,2.362,2.364,2.364,0,0,1,2.362-2.362" transform="translate(-6200.763 -13165.184)"/>
    </g>
  </g>
</svg>
