<svg xmlns="http://www.w3.org/2000/svg" width="104.249" height="105.045" viewBox="0 0 104.249 105.045">
  <g id="Grupo_150399" data-name="Grupo 150399" transform="translate(-245.255 -809.914)">
    <g id="Grupo_118192" data-name="Grupo 118192" transform="translate(245.255 809.914)">
      <g id="Grupo_118173" data-name="Grupo 118173" transform="translate(0 0)">
        <ellipse id="Elipse_6071" data-name="Elipse 6071" cx="52.124" cy="52.522" rx="52.124" ry="52.522" fill="#fff"/>
      </g>
    </g>
    <g id="Grupo_150243" data-name="Grupo 150243" transform="translate(131 11859)">
      <path id="Trazado_203672" data-name="Trazado 203672" d="M137.547,125.536v39.837H80V125.536A5.533,5.533,0,0,1,85.537,120h46.477a5.533,5.533,0,0,1,5.533,5.533" transform="translate(57.027 -11136.262)" fill="#fff"/>
      <path id="Trazado_203673" data-name="Trazado 203673" d="M103.587,430.643H59.324a3.32,3.32,0,0,1-3.32-3.32V424H78.136l2.213,2.213H95.841L98.054,424h22.132v3.32a3.32,3.32,0,0,1-3.32,3.32Z" transform="translate(77.707 -11398.211)" fill="#abbac2"/>
      <rect id="Rectángulo_295956" data-name="Rectángulo 295956" width="48.69" height="33.198" transform="translate(141.457 -11011.832)" fill="#3d46c2"/>
      <path id="Trazado_203674" data-name="Trazado 203674" d="M172.43,288h24.345a4.426,4.426,0,0,1,0,8.853H172.43a4.426,4.426,0,0,1,0-8.853" transform="translate(-18.801 -11281.023)" fill="#dce736"/>
      <path id="Trazado_203675" data-name="Trazado 203675" d="M228.43,23.5v-6.64a4.426,4.426,0,0,1,8.853,0h4.426a8.853,8.853,0,1,0-17.705,0V23.5Z" transform="translate(-67.055 -11039.754)" fill="#abbac2"/>
      <path id="Trazado_203676" data-name="Trazado 203676" d="M218.562,106.216A2.213,2.213,0,0,0,216.349,104H194.217A2.213,2.213,0,0,0,192,106.216v15.492a2.213,2.213,0,0,0,2.213,2.213H207.5l11.066-11.066Z" transform="translate(-39.481 -11122.475)" fill="#75b62f"/>
      <path id="Trazado_203677" data-name="Trazado 203677" d="M304,179.069h8.853a2.213,2.213,0,0,0,2.213-2.213V168Z" transform="translate(-135.989 -11177.622)" fill="#75b62f"/>
      <path id="Trazado_203678" data-name="Trazado 203678" d="M270.643,147.323a3.32,3.32,0,1,1-3.32-3.32,3.32,3.32,0,0,1,3.32,3.32" transform="translate(-101.522 -11156.941)" fill="#3d46c2"/>
      <rect id="Rectángulo_295957" data-name="Rectángulo 295957" width="2.213" height="4.426" transform="translate(164.695 -11007.406)" fill="#ea732d"/>
      <path id="Trazado_203679" data-name="Trazado 203679" d="M327.5,207.749A7.746,7.746,0,1,1,319.75,200a7.746,7.746,0,0,1,7.746,7.746" transform="translate(-142.882 -11205.195)" fill="#f85316"/>
      <path id="Trazado_203680" data-name="Trazado 203680" d="M113.293,154.053H111.08V118.643a6.646,6.646,0,0,0-6.64-6.64H97.8v2.213h6.64a4.427,4.427,0,0,1,4.426,4.426v35.411H91.161a1.107,1.107,0,0,0-.782.324l-1.889,1.889H73.914l-1.889-1.889a1.107,1.107,0,0,0-.782-.324H53.537V118.643a4.427,4.427,0,0,1,4.426-4.426H64.6V112h-6.64a6.646,6.646,0,0,0-6.64,6.64v35.411H49.111A1.107,1.107,0,0,0,48,155.16v3.32a4.427,4.427,0,0,0,4.426,4.426h57.543a4.427,4.427,0,0,0,4.426-4.426v-3.32a1.107,1.107,0,0,0-1.107-1.107m-1.107,4.426a2.213,2.213,0,0,1-2.213,2.213H52.43a2.213,2.213,0,0,1-2.213-2.213v-2.213H70.784l1.889,1.889a1.107,1.107,0,0,0,.782.324H88.948a1.107,1.107,0,0,0,.782-.324l1.889-1.889h20.567Z" transform="translate(84.6 -11129.368)"/>
      <path id="Trazado_203681" data-name="Trazado 203681" d="M104,147.323v30.984a1.107,1.107,0,0,0,1.107,1.107H153.8a1.107,1.107,0,0,0,1.107-1.107V147.323a3.32,3.32,0,0,0-3.32-3.32h-5.533v2.213h5.533a1.107,1.107,0,0,1,1.107,1.107V177.2H106.217V147.323a1.107,1.107,0,0,1,1.107-1.107h5.533V144h-5.533a3.32,3.32,0,0,0-3.32,3.32" transform="translate(36.346 -11156.941)"/>
      <path id="Trazado_203682" data-name="Trazado 203682" d="M198.39,6.643a3.32,3.32,0,0,1,3.32,3.32,1.107,1.107,0,0,0,1.107,1.107h4.426a1.107,1.107,0,0,0,1.107-1.107,9.959,9.959,0,0,0-19.919,0v3.32h-1.107A3.32,3.32,0,0,0,184,16.6V32.094a3.32,3.32,0,0,0,3.32,3.32H198.39V33.2H187.324a1.107,1.107,0,0,1-1.107-1.107V16.6a1.107,1.107,0,0,1,1.107-1.107h22.132a1.107,1.107,0,0,1,1.107,1.107v7.746h2.213V16.6a3.32,3.32,0,0,0-3.32-3.32H195.07V9.962a3.32,3.32,0,0,1,3.32-3.32m-7.746,6.64V9.962a7.746,7.746,0,0,1,15.414-1.107h-2.246a5.533,5.533,0,0,0-10.955,1.107v3.32Z" transform="translate(-32.588 -11032.86)"/>
      <path id="Trazado_203683" data-name="Trazado 203683" d="M261.534,146.965v-2.37a4.426,4.426,0,1,0-2.213,0v2.37Zm-3.32-6.64a2.213,2.213,0,1,1,2.213,2.213,2.213,2.213,0,0,1-2.213-2.213" transform="translate(-94.625 -11149.944)"/>
      <path id="Trazado_203684" data-name="Trazado 203684" d="M160,285.536a5.539,5.539,0,0,0,5.533,5.533h24.345a5.533,5.533,0,0,0,5.358-4.151l-2.142-.553a3.319,3.319,0,0,1-3.215,2.491H165.537a3.32,3.32,0,1,1,0-6.64h13.279V280H165.537A5.539,5.539,0,0,0,160,285.536" transform="translate(-11.907 -11274.13)"/>
      <rect id="Rectángulo_295958" data-name="Rectángulo 295958" width="2.213" height="2.213" transform="translate(153.629 -10989.7)"/>
      <rect id="Rectángulo_295959" data-name="Rectángulo 295959" width="2.213" height="2.213" transform="translate(158.056 -10989.7)"/>
      <rect id="Rectángulo_295960" data-name="Rectángulo 295960" width="2.213" height="2.213" transform="translate(162.482 -10989.7)"/>
      <rect id="Rectángulo_295961" data-name="Rectángulo 295961" width="2.213" height="2.213" transform="translate(166.909 -10989.7)"/>
      <path id="Trazado_203685" data-name="Trazado 203685" d="M339.912,214.772l-1.565,1.565,3.32,3.32a1.107,1.107,0,0,0,1.565,0l7.746-7.746-1.565-1.565-6.964,6.964Z" transform="translate(-165.581 -11214.108)"/>
      <path id="Trazado_203686" data-name="Trazado 203686" d="M304,200.854a8.853,8.853,0,1,0,17.616-1.263l-2.191.312a6.819,6.819,0,0,1,.068.95,6.64,6.64,0,1,1-2.846-5.45l1.265-1.815A8.853,8.853,0,0,0,304,200.854" transform="translate(-135.989 -11198.301)"/>
    </g>
  </g>
</svg>
