<svg xmlns="http://www.w3.org/2000/svg" width="150" height="150" viewBox="0 0 150 150">
  <g id="Grupo_150475" data-name="Grupo 150475" transform="translate(-191.815 -3064.726)">
    <circle id="Elipse_5678" data-name="Elipse 5678" cx="75" cy="75" r="75" transform="translate(191.815 3064.726)" fill="#fff"/>
    <g id="Trazado_204731" data-name="Trazado 204731" transform="translate(204.315 3107.738)" fill="#fa7e50">
      <path d="M 110 61.97559356689453 L 15 61.97559356689453 C 11.5275821685791 61.97559356689453 8.262981414794922 60.62335586547852 5.807618141174316 58.16797637939453 C 3.352236270904541 55.71261215209961 2 52.4480094909668 2 48.97559356689453 L 2 14.99999332427979 C 2 11.52757453918457 3.352236270904541 8.262992858886719 5.807618141174316 5.807610988616943 C 8.262981414794922 3.352229356765747 11.5275821685791 1.999992966651917 15 1.999992966651917 L 110 1.999992966651917 C 113.4724197387695 1.999992966651917 116.7370147705078 3.352229356765747 119.1923828125 5.807610988616943 C 121.6477661132812 8.262992858886719 123 11.52757453918457 123 14.99999332427979 L 123 48.97559356689453 C 123 52.4480094909668 121.6477661132812 55.71261215209961 119.1923828125 58.16797637939453 C 116.7370147705078 60.62335586547852 113.4724197387695 61.97559356689453 110 61.97559356689453 Z" stroke="none"/>
      <path d="M 15 3.999992370605469 C 12.06179809570312 3.999992370605469 9.2994384765625 5.144191741943359 7.221817016601562 7.221813201904297 C 5.144203186035156 9.299453735351562 4 12.06179428100586 4 14.99999237060547 L 4 48.97559356689453 C 4 51.91379165649414 5.144203186035156 54.67613220214844 7.221817016601562 56.7537727355957 C 9.2994384765625 58.83139419555664 12.06179809570312 59.97559356689453 15 59.97559356689453 L 110 59.97559356689453 C 112.9382019042969 59.97559356689453 115.7005386352539 58.83139419555664 117.7781829833984 56.7537727355957 C 119.8557968139648 54.67613220214844 121 51.91379165649414 121 48.97559356689453 L 121 14.99999237060547 C 121 12.06179428100586 119.8557968139648 9.299453735351562 117.7781829833984 7.221813201904297 C 115.7005386352539 5.144191741943359 112.9382019042969 3.999992370605469 110 3.999992370605469 L 15 3.999992370605469 M 15 -7.62939453125e-06 L 110 -7.62939453125e-06 C 118.2842559814453 -7.62939453125e-06 125 6.715732574462891 125 14.99999237060547 L 125 48.97559356689453 C 125 57.25985336303711 118.2842559814453 63.97559356689453 110 63.97559356689453 L 15 63.97559356689453 C 6.715721130371094 63.97559356689453 0 57.25985336303711 0 48.97559356689453 L 0 14.99999237060547 C 0 6.715732574462891 6.715721130371094 -7.62939453125e-06 15 -7.62939453125e-06 Z" stroke="none" fill="#f85316"/>
    </g>
    <path id="Trazado_204730" data-name="Trazado 204730" d="M26.836,12.865a7.546,7.546,0,0,1-.694,3.313A5.132,5.132,0,0,1,24.168,18.4a5.494,5.494,0,0,1-2.914.778,5.572,5.572,0,0,1-2.9-.751,5.123,5.123,0,0,1-1.973-2.149,7.329,7.329,0,0,1-.743-3.208v-.721a7.58,7.58,0,0,1,.69-3.318A5.119,5.119,0,0,1,18.306,6.81,5.854,5.854,0,0,1,24.138,6.8,5.211,5.211,0,0,1,26.12,9a7.362,7.362,0,0,1,.716,3.274ZM23.7,12.329a5.381,5.381,0,0,0-.637-2.9,2.044,2.044,0,0,0-1.824-.989q-2.32,0-2.452,3.48l-.009.94a5.535,5.535,0,0,0,.624,2.892,2.041,2.041,0,0,0,1.854,1.011,2.016,2.016,0,0,0,1.8-.993,5.383,5.383,0,0,0,.642-2.856Zm9.483,2.145h-1.67V19H28.427V6.2h5.036a5.621,5.621,0,0,1,3.56,1.01,3.421,3.421,0,0,1,1.283,2.853,4.155,4.155,0,0,1-.541,2.213A3.837,3.837,0,0,1,36.073,13.7l2.672,5.167V19h-3.3ZM31.512,12.1h1.951a1.751,1.751,0,0,0,1.323-.463,1.788,1.788,0,0,0,.444-1.291,1.809,1.809,0,0,0-.448-1.3,1.735,1.735,0,0,0-1.318-.471H31.512ZM40.169,19V6.2h4.122a6.064,6.064,0,0,1,3.05.769,5.406,5.406,0,0,1,2.114,2.171,6.554,6.554,0,0,1,.769,3.142v.589a6.592,6.592,0,0,1-.743,3.151,5.429,5.429,0,0,1-2.092,2.18,5.93,5.93,0,0,1-3.01.8ZM43.254,8.585v8.042h1.072a2.4,2.4,0,0,0,2.039-.945,4.63,4.63,0,0,0,.712-2.808V12.32a4.592,4.592,0,0,0-.712-2.795,2.442,2.442,0,0,0-2.074-.94Zm16.488,4.983H54.891v3.059h5.73V19H51.806V6.2h8.833V8.585H54.891v2.7h4.852Zm6.891.905h-1.67V19H61.878V6.2h5.036a5.621,5.621,0,0,1,3.56,1.01,3.421,3.421,0,0,1,1.283,2.853,4.155,4.155,0,0,1-.541,2.213A3.837,3.837,0,0,1,69.524,13.7L72.2,18.868V19h-3.3ZM64.963,12.1h1.951a1.751,1.751,0,0,0,1.323-.463,1.788,1.788,0,0,0,.444-1.291,1.809,1.809,0,0,0-.448-1.3,1.735,1.735,0,0,0-1.318-.471H64.963ZM78.1,19V6.2h4.6a6.509,6.509,0,0,1,3.757.905,3.012,3.012,0,0,1,1.288,2.628,3.045,3.045,0,0,1-.457,1.7,2.663,2.663,0,0,1-1.345,1.037,2.7,2.7,0,0,1,1.538.984,2.862,2.862,0,0,1,.536,1.758,3.388,3.388,0,0,1-1.191,2.826A5.667,5.667,0,0,1,83.3,19Zm3.085-5.44v3.067h2.021a1.923,1.923,0,0,0,1.283-.382,1.338,1.338,0,0,0,.448-1.077A1.419,1.419,0,0,0,83.35,13.56Zm0-2.021H82.8a2.285,2.285,0,0,0,1.441-.37,1.314,1.314,0,0,0,.431-1.067A1.379,1.379,0,0,0,84.2,8.933a2.493,2.493,0,0,0-1.5-.357H81.188Zm12.727.22L96.27,6.2H99.6l-4.122,8.2V19H92.35V14.4L88.236,6.2H91.55Z" transform="translate(209.516 3128.726)" fill="#f6f6f6"/>
  </g>
</svg>
