<svg xmlns="http://www.w3.org/2000/svg" width="150" height="150" viewBox="0 0 150 150">
  <g id="Grupo_150364" data-name="Grupo 150364" transform="translate(-358.13 -1051.529)">
    <circle id="Elipse_5678" data-name="Elipse 5678" cx="75" cy="75" r="75" transform="translate(358.13 1051.529)" fill="#fff"/>
    <g id="Grupo_150216" data-name="Grupo 150216" transform="translate(6087.497 11881.911)">
      <path id="Trazado_203216" data-name="Trazado 203216" d="M254.24,3670.875H197.907a3.306,3.306,0,0,1-3.306-3.306v-80.028a3.305,3.305,0,0,1,3.306-3.305H254.24a3.305,3.305,0,0,1,3.306,3.305v80.028a3.306,3.306,0,0,1-3.306,3.306" transform="translate(-5877.188 -14386.19)" fill="#75b62f"/>
      <path id="Trazado_203217" data-name="Trazado 203217" d="M219.531,3705.584H163.2a3.306,3.306,0,0,1-3.306-3.306v-80.027a3.306,3.306,0,0,1,3.306-3.305h56.333a3.306,3.306,0,0,1,3.306,3.305v80.027a3.306,3.306,0,0,1-3.306,3.306" transform="translate(-5848.984 -14414.395)" fill="#fff"/>
      <path id="Trazado_203218" data-name="Trazado 203218" d="M367.452,3687.705H349.279a1.308,1.308,0,0,1,0-2.615h18.173a1.308,1.308,0,0,1,0,2.615" transform="translate(-6001.815 -14468.143)" fill="#3e5959"/>
      <path id="Trazado_203219" data-name="Trazado 203219" d="M367.452,3720.339H349.279a1.307,1.307,0,0,1,0-2.615h18.173a1.307,1.307,0,1,1,0,2.615" transform="translate(-6001.815 -14494.66)" fill="#3e5959"/>
      <path id="Trazado_203220" data-name="Trazado 203220" d="M367.452,3752.974H349.279a1.308,1.308,0,0,1,0-2.615h18.173a1.308,1.308,0,0,1,0,2.615" transform="translate(-6001.815 -14521.179)" fill="#3e5959"/>
      <path id="Trazado_203221" data-name="Trazado 203221" d="M373,3935.1H356.1a1.308,1.308,0,0,1,0-2.615H373a1.308,1.308,0,0,1,0,2.615" transform="translate(-6007.361 -14669.177)" fill="#3e5959"/>
      <path id="Trazado_203222" data-name="Trazado 203222" d="M216.234,3867.031H198.061a1.308,1.308,0,0,1,0-2.615h18.173a1.308,1.308,0,0,1,0,2.615" transform="translate(-5878.937 -14613.86)" fill="#3e5959"/>
      <path id="Trazado_203223" data-name="Trazado 203223" d="M216.234,3834.4H198.061a1.307,1.307,0,0,1,0-2.615h18.173a1.307,1.307,0,0,1,0,2.615" transform="translate(-5878.937 -14587.342)" fill="#3e5959"/>
      <path id="Trazado_203224" data-name="Trazado 203224" d="M261.559,3656.93v12.144H273.7a12.144,12.144,0,0,0-12.144-12.144" transform="translate(-5931.597 -14445.26)" fill="#f85316"/>
      <path id="Trazado_203225" data-name="Trazado 203225" d="M208.9,3656.93a12.145,12.145,0,1,0,12.144,12.144H208.9Z" transform="translate(-5878.94 -14445.26)" fill="#3d46c2"/>
      <path id="Trazado_203226" data-name="Trazado 203226" d="M355.8,3831.232H333.965a.872.872,0,0,1-.872-.873v-12.551a.872.872,0,0,1,.872-.872H355.8a.871.871,0,0,1,.872.872v12.551a.872.872,0,0,1-.871.873" transform="translate(-5989.725 -14575.28)" fill="#f85316"/>
      <path id="Trazado_203227" data-name="Trazado 203227" d="M201.445,3941.127h-3.819a.871.871,0,0,1-.872-.871V3921.19a.872.872,0,0,1,.872-.872h3.819a.872.872,0,0,1,.872.872v19.066a.872.872,0,0,1-.872.871" transform="translate(-5878.937 -14659.287)" fill="#dce736"/>
      <rect id="Rectángulo_295825" data-name="Rectángulo 295825" width="5.563" height="15.807" rx="2.781" transform="translate(-5671.806 -10733.965)" fill="#dce736"/>
      <path id="Trazado_203228" data-name="Trazado 203228" d="M312.186,3989.841h-3.819a.872.872,0,0,1-.872-.872v-7.831a.872.872,0,0,1,.872-.872h3.819a.871.871,0,0,1,.872.872v7.831a.872.872,0,0,1-.872.872" transform="translate(-5968.924 -14708)" fill="#dce736"/>
      <path id="Trazado_203229" data-name="Trazado 203229" d="M373,3969.381H356.1a1.307,1.307,0,1,1,0-2.615H373a1.307,1.307,0,1,1,0,2.615" transform="translate(-6007.361 -14697.028)" fill="#3e5959"/>
      <path id="Trazado_203230" data-name="Trazado 203230" d="M373,4003.657H356.1a1.307,1.307,0,1,1,0-2.614H373a1.307,1.307,0,1,1,0,2.614" transform="translate(-6007.361 -14724.882)" fill="#3e5959"/>
      <path id="Trazado_203231" data-name="Trazado 203231" d="M349.279,3687.7h18.173a1.307,1.307,0,1,0,0-2.615H349.279a1.307,1.307,0,0,0,0,2.615" transform="translate(-6001.815 -14468.142)"/>
      <path id="Trazado_203232" data-name="Trazado 203232" d="M347.972,3719.031a1.307,1.307,0,0,0,1.307,1.308h18.173a1.307,1.307,0,1,0,0-2.615H349.279a1.307,1.307,0,0,0-1.307,1.307" transform="translate(-6001.815 -14494.66)"/>
      <path id="Trazado_203233" data-name="Trazado 203233" d="M349.279,3752.974h18.173a1.308,1.308,0,0,0,0-2.615H349.279a1.308,1.308,0,0,0,0,2.615" transform="translate(-6001.815 -14521.179)"/>
      <path id="Trazado_203234" data-name="Trazado 203234" d="M374.306,3933.8a1.307,1.307,0,0,0-1.307-1.308H356.105a1.308,1.308,0,0,0,0,2.615H373a1.308,1.308,0,0,0,1.307-1.308" transform="translate(-6007.362 -14669.177)"/>
      <path id="Trazado_203235" data-name="Trazado 203235" d="M217.542,3865.722a1.307,1.307,0,0,0-1.307-1.308H198.062a1.307,1.307,0,0,0,0,2.615h18.173a1.307,1.307,0,0,0,1.307-1.307" transform="translate(-5878.938 -14613.859)"/>
      <path id="Trazado_203236" data-name="Trazado 203236" d="M198.062,3834.4h18.173a1.307,1.307,0,1,0,0-2.615H198.062a1.307,1.307,0,0,0,0,2.615" transform="translate(-5878.938 -14587.342)"/>
      <path id="Trazado_203237" data-name="Trazado 203237" d="M202.808,3649.43a13.55,13.55,0,1,0,13.55,13.55,13.565,13.565,0,0,0-13.55-13.55m0,24.289a10.739,10.739,0,0,1-1.406-21.386v10.647a1.406,1.406,0,0,0,1.406,1.406h10.647a10.755,10.755,0,0,1-10.647,9.333m1.406-12.144v-9.242a10.763,10.763,0,0,1,9.242,9.242Z" transform="translate(-5872.846 -14439.165)"/>
      <path id="Trazado_203238" data-name="Trazado 203238" d="M325.594,3811.715v12.551a2.28,2.28,0,0,0,2.277,2.277H349.7a2.28,2.28,0,0,0,2.277-2.277v-12.551a2.28,2.28,0,0,0-2.277-2.277H327.871A2.279,2.279,0,0,0,325.594,3811.715Zm2.811.534H349.17v11.483H328.405Z" transform="translate(-5983.631 -14569.187)"/>
      <path id="Trazado_203239" data-name="Trazado 203239" d="M189.255,3934.161a2.28,2.28,0,0,0,2.277,2.277h3.819a2.28,2.28,0,0,0,2.277-2.277v-19.066a2.28,2.28,0,0,0-2.277-2.277h-3.819a2.28,2.28,0,0,0-2.277,2.277Zm2.811-18.532h2.751v18h-2.751Z" transform="translate(-5872.843 -14653.19)"/>
      <path id="Trazado_203240" data-name="Trazado 203240" d="M246.9,3939.511a2.28,2.28,0,0,0-2.277,2.277v14.064a2.28,2.28,0,0,0,2.277,2.277h3.819a2.28,2.28,0,0,0,2.277-2.277v-14.064a2.28,2.28,0,0,0-2.277-2.277Zm3.285,15.807h-2.751v-13h2.751Z" transform="translate(-5917.837 -14674.883)"/>
      <path id="Trazado_203241" data-name="Trazado 203241" d="M302.272,3985.152h3.819a2.28,2.28,0,0,0,2.277-2.277v-7.831a2.28,2.28,0,0,0-2.277-2.277h-3.819a2.28,2.28,0,0,0-2.277,2.277v7.831a2.28,2.28,0,0,0,2.277,2.277m.534-9.574h2.751v6.763h-2.751Z" transform="translate(-5962.83 -14701.905)"/>
      <path id="Trazado_203242" data-name="Trazado 203242" d="M373,3966.766H356.1a1.307,1.307,0,1,0,0,2.615H373a1.307,1.307,0,1,0,0-2.615" transform="translate(-6007.361 -14697.028)"/>
      <path id="Trazado_203243" data-name="Trazado 203243" d="M373,4001.043H356.1a1.307,1.307,0,1,0,0,2.614H373a1.307,1.307,0,1,0,0-2.614" transform="translate(-6007.361 -14724.882)"/>
      <path id="Trazado_203244" data-name="Trazado 203244" d="M223.247,3594.163a1.405,1.405,0,0,0,1.406-1.406v-11.31a4.716,4.716,0,0,0-4.711-4.711H163.608a4.716,4.716,0,0,0-4.711,4.711v1.793H157.1a4.717,4.717,0,0,0-4.711,4.711v60.219a1.406,1.406,0,0,0,2.811,0v-60.219a1.9,1.9,0,0,1,1.9-1.9h56.333a1.9,1.9,0,0,1,1.9,1.9v80.028a1.9,1.9,0,0,1-1.9,1.9H157.1a1.9,1.9,0,0,1-1.9-1.9v-13.25a1.406,1.406,0,1,0-2.811,0v13.25a4.717,4.717,0,0,0,4.711,4.711h56.333a4.717,4.717,0,0,0,4.711-4.711v-1.794h1.794a4.717,4.717,0,0,0,4.711-4.711v-62.157a1.406,1.406,0,0,0-2.811,0v62.157a1.9,1.9,0,0,1-1.9,1.9h-1.794v-75.423a4.717,4.717,0,0,0-4.711-4.711H161.708v-1.793a1.9,1.9,0,0,1,1.9-1.9h56.333a1.9,1.9,0,0,1,1.9,1.9v11.31A1.405,1.405,0,0,0,223.247,3594.163Z" transform="translate(-5842.889 -14380.096)"/>
    </g>
  </g>
</svg>
