<svg xmlns="http://www.w3.org/2000/svg" width="131" height="132" viewBox="0 0 131 132">
  <g id="Grupo_150334" data-name="Grupo 150334" transform="translate(-734.5 -1107.812)">
    <g id="Grupo_118172" data-name="Grupo 118172" transform="translate(0 -11770)">
      <ellipse id="Elipse_5600" data-name="Elipse 5600" cx="65.5" cy="66" rx="65.5" ry="66" transform="translate(734.5 12877.812)" fill="#fff"/>
    </g>
    <g id="Grupo_150207" data-name="Grupo 150207" transform="translate(9352.246 11826.934)">
      <rect id="Rectángulo_295769" data-name="Rectángulo 295769" width="7.079" height="10.044" transform="translate(-8526.375 -10633.585) rotate(-45)" fill="#e6e2e6"/>
      <rect id="Rectángulo_295770" data-name="Rectángulo 295770" width="7.079" height="10.044" transform="translate(-8526.375 -10633.585) rotate(-45)" fill="#dee9f0"/>
      <rect id="Rectángulo_295771" data-name="Rectángulo 295771" width="3.37" height="10.044" transform="translate(-8526.375 -10633.585) rotate(-45)" fill="#e2cbe2"/>
      <path id="Trazado_203078" data-name="Trazado 203078" d="M56.492,602.339a2.648,2.648,0,0,1,2.648-2.648h44.566L120.112,616.1V684.6a2.648,2.648,0,0,1-2.648,2.648H59.14a2.648,2.648,0,0,1-2.648-2.648Z" transform="translate(-8647.52 -11296.594)" fill="#fff"/>
      <path id="Trazado_203079" data-name="Trazado 203079" d="M117.464,1065.339H59.14a2.648,2.648,0,0,1-2.648-2.648v3.178a2.648,2.648,0,0,0,2.648,2.648h58.324a2.648,2.648,0,0,0,2.648-2.648v-3.178a2.648,2.648,0,0,1-2.648,2.648" transform="translate(-8647.52 -11677.857)" fill="#ecdaec"/>
      <path id="Trazado_203080" data-name="Trazado 203080" d="M326.585,616.1h13.759l-16.407-16.407V613.45a2.648,2.648,0,0,0,2.648,2.648" transform="translate(-8867.75 -11296.594)" fill="#e2cbe2"/>
      <path id="Trazado_203081" data-name="Trazado 203081" d="M326.585,616.1h13.759l-16.407-16.407V613.45a2.648,2.648,0,0,0,2.648,2.648" transform="translate(-8867.75 -11296.594)" fill="#dee9f0"/>
      <path id="Trazado_203082" data-name="Trazado 203082" d="M259.921,745.144a21.976,21.976,0,1,1-21.976,21.976,21.976,21.976,0,0,1,21.976-21.976" transform="translate(-8796.939 -11416.369)" fill="#dee9f0"/>
      <path id="Trazado_203083" data-name="Trazado 203083" d="M275.461,874.579A21.976,21.976,0,0,1,238,860.629a21.976,21.976,0,1,0,43.837,0,21.89,21.89,0,0,1-6.379,13.95" transform="translate(-8796.94 -11511.467)" fill="#dab9d8"/>
      <path id="Trazado_203084" data-name="Trazado 203084" d="M288.209,779.5A15.912,15.912,0,1,1,272.3,795.408,15.911,15.911,0,0,1,288.209,779.5" transform="translate(-8825.227 -11444.657)" fill="#dce736"/>
      <path id="Trazado_203085" data-name="Trazado 203085" d="M299.467,870.29a15.91,15.91,0,0,1-27.082-9.662,15.911,15.911,0,1,0,31.662,0,15.844,15.844,0,0,1-4.58,9.662" transform="translate(-8825.234 -11511.466)" fill="#f9cf58"/>
      <path id="Trazado_203086" data-name="Trazado 203086" d="M324.355,847.63a2.773,2.773,0,0,1-1.939-.788l-3.651-3.551a2.782,2.782,0,0,1,3.879-3.989l1.659,1.614,4.985-5.112a2.782,2.782,0,0,1,3.984,3.885l-6.925,7.1A2.773,2.773,0,0,1,324.355,847.63Z" transform="translate(-8862.797 -11490.333)" fill="#75b62f"/>
      <path id="Trazado_203087" data-name="Trazado 203087" d="M464.419,964.637l-6.982,6.982,8.353,8.353a4.937,4.937,0,0,0,6.982-6.981Z" transform="translate(-8977.684 -11597.114)" fill="#f85316"/>
      <path id="Trazado_203088" data-name="Trazado 203088" d="M468.172,999.035l-8.351-8.35-2.383,2.383,8.353,8.353a4.94,4.94,0,0,0,7.967-1.406,4.938,4.938,0,0,1-5.586-.98" transform="translate(-8977.684 -11618.563)" fill="#fc2b3a"/>
      <path id="Trazado_203089" data-name="Trazado 203089" d="M115.208,746.8h-5.792a1.638,1.638,0,0,1-1.638-1.638v-5.792a1.638,1.638,0,0,1,1.638-1.638h5.793a1.638,1.638,0,0,1,1.638,1.638v5.792a1.638,1.638,0,0,1-1.638,1.638" transform="translate(-8689.751 -11410.264)" fill="#3d46c2"/>
      <path id="Trazado_203090" data-name="Trazado 203090" d="M115.208,851.96h-5.792a1.638,1.638,0,0,1-1.638-1.638V844.53a1.638,1.638,0,0,1,1.638-1.638h5.793a1.638,1.638,0,0,1,1.638,1.638v5.792a1.638,1.638,0,0,1-1.638,1.638" transform="translate(-8689.751 -11496.861)" fill="#3d46c2"/>
      <path id="Trazado_203091" data-name="Trazado 203091" d="M115.208,959.257h-5.792a1.638,1.638,0,0,1-1.638-1.638v-5.792a1.637,1.637,0,0,1,1.638-1.637h5.793a1.637,1.637,0,0,1,1.638,1.637v5.792a1.638,1.638,0,0,1-1.638,1.638" transform="translate(-8689.751 -11585.217)" fill="#3d46c2"/>
      <path id="Trazado_203092" data-name="Trazado 203092" d="M318.251,842.777a4.084,4.084,0,0,0,2.946-1.242l6.94-7.115a4.115,4.115,0,0,0-5.892-5.745l-4.071,4.174-.713-.693a4.115,4.115,0,1,0-5.737,5.9l3.659,3.558a4.094,4.094,0,0,0,2.868,1.165m-4.706-8.69a1.463,1.463,0,0,1,2.066-.029l1.663,1.617a1.327,1.327,0,0,0,1.875-.025l5-5.122a1.461,1.461,0,0,1,2.092,2.04l-6.94,7.115a1.468,1.468,0,0,1-2.065.028l-3.659-3.558A1.463,1.463,0,0,1,313.545,834.087Z" transform="translate(-8856.669 -11484.133)"/>
      <path id="Trazado_203093" data-name="Trazado 203093" d="M270.3,797.945a1.327,1.327,0,1,0-2.118,1.6,17.489,17.489,0,0,0,1.588,1.825,17.258,17.258,0,1,0-4.24-6.946,1.327,1.327,0,0,0,2.528-.807,14.629,14.629,0,1,1,3.588,5.877A14.86,14.86,0,0,1,270.3,797.945Z" transform="translate(-8818.974 -11438.398)"/>
      <path id="Trazado_203094" data-name="Trazado 203094" d="M112.245,610.783v8.164a23.444,23.444,0,0,0-8.052-1.514.288.288,0,0,0-.039,0H74.531a1.327,1.327,0,1,0,0,2.653H93.107a23.254,23.254,0,0,0-5.292,3.8H74.531a1.327,1.327,0,1,0,0,2.653h10.9a23.092,23.092,0,0,0-4.354,9.485H74.531a1.327,1.327,0,1,0,0,2.653h6.154q-.092,1.037-.093,2.091,0,.864.062,1.718H74.531a1.327,1.327,0,1,0,0,2.653H81A23.091,23.091,0,0,0,85.431,655h-10.9a1.327,1.327,0,1,0,0,2.653H87.82a23.251,23.251,0,0,0,5.284,3.794H74.531a1.327,1.327,0,1,0,0,2.653H103.94a23.46,23.46,0,0,0,8.3-1.518V678.1a1.328,1.328,0,0,1-1.327,1.327H52.472a1.328,1.328,0,0,1-1.327-1.327v-65.97a1.327,1.327,0,0,0-2.654,0V678.1a3.985,3.985,0,0,0,3.981,3.979h58.446a3.985,3.985,0,0,0,3.98-3.98V661.38q.888-.471,1.742-1.025l3.221,3.22a1.338,1.338,0,0,0-.051,1.927l8.371,8.37A6.273,6.273,0,0,0,137.052,665l-8.37-8.369a1.327,1.327,0,0,0-1.877,0l-.051.051-3.221-3.221a23.308,23.308,0,0,0,3.709-11.221,1.327,1.327,0,0,0-2.648-.167,20.677,20.677,0,0,1-20.634,19.373h-.126a20.683,20.683,0,1,1,20.474-24.351,1.327,1.327,0,0,0,2.612-.468A23.362,23.362,0,0,0,114.9,620.148V609.456a1.343,1.343,0,0,0-.389-.938L98.069,592.08a1.344,1.344,0,0,0-.938-.389H52.472a3.985,3.985,0,0,0-3.98,3.98v11.151a1.327,1.327,0,0,0,2.654,0V595.671a1.328,1.328,0,0,1,1.327-1.327H95.8V606.8a3.985,3.985,0,0,0,3.98,3.98m0-2.653a1.328,1.328,0,0,1-1.327-1.327V596.22l11.911,11.909Zm19.02,50.637q.849-.7,1.645-1.495t1.495-1.645l2.933,2.932-3.141,3.14ZM135.176,672a3.638,3.638,0,0,1-5.12,0l-7.433-7.431,5.12-5.119,7.432,7.431a3.637,3.637,0,0,1,0,5.119" transform="translate(-8640.931 -11290.006)"/>
      <path id="Trazado_203095" data-name="Trazado 203095" d="M102.853,741.739h5.8a2.971,2.971,0,0,0,2.968-2.967v-5.8A2.971,2.971,0,0,0,108.657,730h-5.8a2.971,2.971,0,0,0-2.968,2.967v5.8a2.971,2.971,0,0,0,2.968,2.967m-.314-8.771a.315.315,0,0,1,.314-.314h5.8a.314.314,0,0,1,.314.314v5.8a.315.315,0,0,1-.314.314h-5.8a.314.314,0,0,1-.314-.314Z" transform="translate(-8683.252 -11403.899)"/>
      <path id="Trazado_203096" data-name="Trazado 203096" d="M99.885,844.14a2.971,2.971,0,0,0,2.968,2.967h5.8a2.971,2.971,0,0,0,2.968-2.967v-5.8a2.971,2.971,0,0,0-2.968-2.967h-5.8a2.971,2.971,0,0,0-2.968,2.967Zm2.654-5.8a.315.315,0,0,1,.314-.314h5.8a.314.314,0,0,1,.314.314v5.8a.315.315,0,0,1-.314.314h-5.8a.314.314,0,0,1-.314-.314Z" transform="translate(-8683.252 -11490.666)"/>
      <path id="Trazado_203097" data-name="Trazado 203097" d="M99.885,951.647a2.971,2.971,0,0,0,2.968,2.967h5.8a2.971,2.971,0,0,0,2.968-2.967v-5.8a2.971,2.971,0,0,0-2.968-2.967h-5.8a2.971,2.971,0,0,0-2.968,2.967Zm2.654-5.8a.315.315,0,0,1,.314-.314h5.8a.314.314,0,0,1,.314.314v5.8a.315.315,0,0,1-.314.314h-5.8a.314.314,0,0,1-.314-.314Z" transform="translate(-8683.252 -11579.194)"/>
    </g>
  </g>
</svg>
