<svg xmlns="http://www.w3.org/2000/svg" width="131" height="132" viewBox="0 0 131 132">
  <g id="Grupo_150333" data-name="Grupo 150333" transform="translate(-367 -1106.812)">
    <g id="Grupo_118173" data-name="Grupo 118173" transform="translate(0 -11770)">
      <ellipse id="Elipse_6071" data-name="Elipse 6071" cx="65.5" cy="66" rx="65.5" ry="66" transform="translate(367 12876.812)" fill="#fff"/>
    </g>
    <g id="Grupo_150206" data-name="Grupo 150206" transform="translate(8978 11932)">
      <path id="Trazado_203114" data-name="Trazado 203114" d="M139.566,176.542H60.774a4.407,4.407,0,0,1-4.407-4.407V126.554a4.407,4.407,0,0,1,4.407-4.407h78.792a4.407,4.407,0,0,1,4.407,4.407v45.581a4.407,4.407,0,0,1-4.407,4.407" transform="translate(-8647.416 -10903.354)" fill="#fff"/>
      <path id="Trazado_203115" data-name="Trazado 203115" d="M335.733,167.617h-46.5V122.146h42.109a4.387,4.387,0,0,1,4.387,4.387Z" transform="translate(-8839.177 -10903.353)" fill="#dce736"/>
      <path id="Trazado_203116" data-name="Trazado 203116" d="M276.389,418.45H261.052l1.763-13.106L268.72,400l5.906,5.344Z" transform="translate(-8815.967 -11132.155)" fill="#dee9f0"/>
      <path id="Trazado_203117" data-name="Trazado 203117" d="M293.953,405.344,288.047,400l-3.525,3.189,2.381,2.154,1.763,13.106h7.051Z" transform="translate(-8835.294 -11132.156)" fill="#b3bacd"/>
      <path id="Trazado_203118" data-name="Trazado 203118" d="M139.566,380.42H60.774a4.407,4.407,0,0,1-4.407-4.407v-6.28h87.606v6.28a4.407,4.407,0,0,1-4.407,4.407" transform="translate(-8647.416 -11107.231)" fill="#dee9f0"/>
      <rect id="Rectángulo_295772" data-name="Rectángulo 295772" width="10.185" height="18.202" transform="translate(-8541.818 -10755.701)" fill="#f85316"/>
      <rect id="Rectángulo_295773" data-name="Rectángulo 295773" width="10.185" height="21.596" transform="translate(-8521.448 -10759.096)" fill="#3d46c2"/>
      <rect id="Rectángulo_295774" data-name="Rectángulo 295774" width="10.185" height="27.225" transform="translate(-8531.634 -10764.725)" fill="#75b62f"/>
      <path id="Trazado_203119" data-name="Trazado 203119" d="M135.2,7.486A20.824,20.824,0,1,1,114.374,28.31,20.824,20.824,0,0,1,135.2,7.486" transform="translate(-8695.183 -10808.935)" fill="#f85316"/>
      <path id="Trazado_203120" data-name="Trazado 203120" d="M252.422,31.242a20.873,20.873,0,0,0-11.6-13.537l-8.489,19.02Z" transform="translate(-8792.314 -10817.35)" fill="#3d46c2"/>
      <path id="Trazado_203121" data-name="Trazado 203121" d="M232.33,120.694a20.836,20.836,0,0,0,20.093-26.306L232.33,99.87Z" transform="translate(-8792.315 -10880.495)" fill="#dee9f0"/>
      <path id="Trazado_203122" data-name="Trazado 203122" d="M135.2,89.951V69.128L118.228,57.055a20.825,20.825,0,0,0,16.968,32.9" transform="translate(-8695.182 -10849.753)" fill="#75b62f"/>
      <path id="Trazado_203123" data-name="Trazado 203123" d="M133.42,20.239h-6.268V1.456a1.323,1.323,0,0,0-2.644,0V20.239h-21.18A22.381,22.381,0,0,0,81.265,0a22.122,22.122,0,0,0-6.872,1.088,1.323,1.323,0,0,0,.82,2.514,19.561,19.561,0,0,1,12.775.237L80.715,20.129,66.178,9.786A19.622,19.622,0,0,1,68.73,7.2a1.322,1.322,0,0,0-1.7-2.025A22.246,22.246,0,0,0,59.2,20.239H54.608a5.735,5.735,0,0,0-5.729,5.729V71.549a5.735,5.735,0,0,0,5.729,5.729H86.586L85.179,87.74H76.465a1.323,1.323,0,0,0,0,2.644h35.078a1.323,1.323,0,0,0,0-2.644h-8.714l-1.407-10.462h15.5a1.323,1.323,0,0,0,0-2.644H54.607a3.088,3.088,0,0,1-3.085-3.085V66.591h84.962v4.958a3.088,3.088,0,0,1-3.085,3.085h-8.329a1.323,1.323,0,0,0,0,2.644H133.4a5.735,5.735,0,0,0,5.729-5.729v-45.6a5.715,5.715,0,0,0-5.709-5.709M98.754,77.277l1.407,10.462H87.846l1.407-10.462Zm2.006-54.642A19.7,19.7,0,0,1,82.587,41.6V23.152l17.8-4.856a19.583,19.583,0,0,1,.375,4.339M90.4,4.918a19.722,19.722,0,0,1,9.287,10.828L83.609,20.132ZM79.943,22.825V41.6a19.5,19.5,0,0,1-15.3-29.659Zm-28.42,3.143a3.088,3.088,0,0,1,3.085-3.085h4.525a22.028,22.028,0,0,0,4.625,12.805L58.371,40.4a1.323,1.323,0,0,0-.452,1V59.3a1.323,1.323,0,0,0,2.644,0V41.992L65.5,37.678A22.114,22.114,0,0,0,89.989,42.5V63.947H51.523Zm56.772,37.979h-7.541V48.389h7.541Zm2.644-16.88v-7.7h7.541V63.947h-7.541Zm10.185-2.072h7.541V63.947h-7.541Zm10.185,18.952V43.672a1.322,1.322,0,0,0-1.322-1.322h-8.863V38.043a1.322,1.322,0,0,0-1.322-1.322H109.617a1.322,1.322,0,0,0-1.322,1.322v7.7H99.431a1.322,1.322,0,0,0-1.322,1.322v16.88H92.633V41.14A22.16,22.16,0,0,0,103.4,22.883h21.111V35.529a1.323,1.323,0,0,0,2.644,0V22.883H133.4a3.089,3.089,0,0,1,3.085,3.085V63.947Z" transform="translate(-8641.25 -10802.768)"/>
      <path id="Trazado_203124" data-name="Trazado 203124" d="M152.046,279.808h-12.9a1.323,1.323,0,0,0,0,2.644h12.9a1.323,1.323,0,0,0,0-2.644" transform="translate(-8714.522 -11033.182)"/>
      <path id="Trazado_203125" data-name="Trazado 203125" d="M148.52,312.317h-9.378a1.323,1.323,0,0,0,0,2.644h9.378a1.323,1.323,0,0,0,0-2.644" transform="translate(-8714.522 -11059.952)"/>
      <path id="Trazado_203126" data-name="Trazado 203126" d="M397.861,32.24H406.5a1.323,1.323,0,0,0,0-2.644h-8.637a1.323,1.323,0,0,0,0,2.644" transform="translate(-8927.569 -10827.142)"/>
      <path id="Trazado_203127" data-name="Trazado 203127" d="M377.392,64.563h12.251a1.323,1.323,0,0,0,0-2.644H377.392a1.323,1.323,0,0,0,0,2.644" transform="translate(-8910.714 -10853.758)"/>
    </g>
  </g>
</svg>
