<svg xmlns="http://www.w3.org/2000/svg" width="150" height="150" viewBox="0 0 150 150">
  <g id="Grupo_150392" data-name="Grupo 150392" transform="translate(-727.201 -4527.976)">
    <circle id="Elipse_5677" data-name="Elipse 5677" cx="75" cy="75" r="75" transform="translate(727.201 4527.976)" fill="#fff"/>
    <g id="Grupo_150226" data-name="Grupo 150226" transform="translate(6358.447 11882.625)">
      <path id="Trazado_203451" data-name="Trazado 203451" d="M56.514,768.341,12.8,696.52H8.67a1.953,1.953,0,0,0-2.016,1.924V772.1A2.048,2.048,0,0,0,8.67,774.13H57.286Z" transform="translate(-5606.357 -8011.437)" fill="#dee9f0"/>
      <path id="Trazado_203452" data-name="Trazado 203452" d="M42.423,670.52H37.694a1.979,1.979,0,0,0-2.04,1.93v73.437a2.091,2.091,0,0,0,2.042,2.059H80.188V741.53Z" transform="translate(-5629.998 -7990.241)" fill="#dee9f0"/>
      <path id="Trazado_203453" data-name="Trazado 203453" d="M125.061,652.9l-15.2-15.522-39.282-.033a1.968,1.968,0,0,0-1.925,2.031v73.854a1.894,1.894,0,0,0,1.844,1.944h36.962L125.2,679.32V653.587a1.445,1.445,0,0,0-.135-.691" transform="translate(-5656.897 -7963.192)" fill="#fff"/>
      <path id="Trazado_203454" data-name="Trazado 203454" d="M306.873,653.254h-8.482a6.722,6.722,0,0,1-6.717-6.727V637.88a1.98,1.98,0,0,1,.917.536l13.87,14.214a2.032,2.032,0,0,1,.412.625" transform="translate(-5838.709 -7963.633)" fill="#dee9f0"/>
      <path id="Trazado_203455" data-name="Trazado 203455" d="M235.716,732.334c0,.1,0,.2,0,.3l-.207,0H220.4l-.118-.176.179-.122,10.769-10.769.015-.015A15.2,15.2,0,0,1,235.716,732.334Z" transform="translate(-5780.511 -8031.842)" fill="#75b62f"/>
      <path id="Trazado_203456" data-name="Trazado 203456" d="M169.008,725.164l.207,0a15.252,15.252,0,1,1-24.022-12.778l.079.117,8.515,12.482.118.176Z" transform="translate(-5714.014 -8024.374)" fill="#f85316"/>
      <path id="Trazado_203457" data-name="Trazado 203457" d="M193.332,701.837l-.015.015-10.769,10.769-.179.122-8.515-12.482-.079-.116A15.251,15.251,0,0,1,193.332,701.837Z" transform="translate(-5742.596 -8012.129)" fill="#dce736"/>
      <path id="Trazado_203458" data-name="Trazado 203458" d="M273.654,941.52v29.863a4.52,4.52,0,0,0,.759,2.435,4.579,4.579,0,0,0,3.836,2.071H308.3a4.526,4.526,0,0,0,4.529-4.507V941.52Z" transform="translate(-5824.019 -8211.164)" fill="#dee9f0"/>
      <path id="Trazado_203459" data-name="Trazado 203459" d="M308.3,860.52H278.25a4.587,4.587,0,0,0-4.6,4.511v10.457h39.175V865.031a4.529,4.529,0,0,0-4.529-4.511" transform="translate(-5824.019 -8145.132)" fill="#3d46c2"/>
      <rect id="Rectángulo_295898" data-name="Rectángulo 295898" width="28.55" height="6.447" transform="translate(-5545.019 -7279.924)" fill="#fff"/>
      <path id="Trazado_203460" data-name="Trazado 203460" d="M422.44,960.96a3.327,3.327,0,1,1-3.326,3.328,3.327,3.327,0,0,1,3.326-3.328" transform="translate(-5942.6 -8227.012)" fill="#3d46c2"/>
      <path id="Trazado_203461" data-name="Trazado 203461" d="M422.44,1013.93a3.328,3.328,0,1,1-3.326,3.33v0a3.328,3.328,0,0,1,3.326-3.328" transform="translate(-5942.6 -8270.193)" fill="#3d46c2"/>
      <path id="Trazado_203462" data-name="Trazado 203462" d="M422.44,1066.91a3.327,3.327,0,1,1-3.326,3.328v0a3.326,3.326,0,0,1,3.326-3.326" transform="translate(-5942.6 -8313.384)" fill="#3d46c2"/>
      <path id="Trazado_203463" data-name="Trazado 203463" d="M365.49,960.96a3.327,3.327,0,1,1-3.326,3.328,3.327,3.327,0,0,1,3.326-3.328" transform="translate(-5896.173 -8227.012)" fill="#3d46c2"/>
      <path id="Trazado_203464" data-name="Trazado 203464" d="M365.49,1013.93a3.328,3.328,0,1,1-3.326,3.33v0a3.328,3.328,0,0,1,3.326-3.328" transform="translate(-5896.173 -8270.193)" fill="#3d46c2"/>
      <path id="Trazado_203465" data-name="Trazado 203465" d="M365.49,1066.91a3.327,3.327,0,1,1-3.326,3.328v0a3.326,3.326,0,0,1,3.326-3.326" transform="translate(-5896.173 -8313.384)" fill="#3d46c2"/>
      <path id="Trazado_203466" data-name="Trazado 203466" d="M308.54,960.96a3.327,3.327,0,1,1-3.326,3.328,3.327,3.327,0,0,1,3.326-3.328" transform="translate(-5849.747 -8227.012)" fill="#3d46c2"/>
      <path id="Trazado_203467" data-name="Trazado 203467" d="M308.54,1013.93a3.328,3.328,0,1,1-3.326,3.33v0a3.328,3.328,0,0,1,3.326-3.328" transform="translate(-5849.747 -8270.193)" fill="#3d46c2"/>
      <path id="Trazado_203468" data-name="Trazado 203468" d="M308.54,1066.91a3.327,3.327,0,1,1-3.326,3.328v0a3.326,3.326,0,0,1,3.326-3.326" transform="translate(-5849.747 -8313.384)" fill="#3d46c2"/>
      <path id="Trazado_203469" data-name="Trazado 203469" d="M327.4,879.52H298.763a1.109,1.109,0,0,0-1.109,1.109V887.1a1.109,1.109,0,0,0,1.109,1.109H327.4a1.109,1.109,0,0,0,1.109-1.109v-6.468a1.109,1.109,0,0,0-1.109-1.109m-1.294,6.468h-26.24v-4.25h26.24Z" transform="translate(-5843.584 -8160.621)"/>
      <path id="Trazado_203470" data-name="Trazado 203470" d="M304.647,1069.78a4.436,4.436,0,1,0-4.436-4.436h0a4.441,4.441,0,0,0,4.436,4.436m0-6.654a2.219,2.219,0,1,1-2.219,2.218,2.218,2.218,0,0,1,2.219-2.218Z" transform="translate(-5845.668 -8308.49)"/>
      <path id="Trazado_203471" data-name="Trazado 203471" d="M361.6,1069.78a4.436,4.436,0,1,0-4.436-4.436h0a4.441,4.441,0,0,0,4.436,4.436m0-6.654a2.219,2.219,0,1,1-2.219,2.218,2.218,2.218,0,0,1,2.219-2.218Z" transform="translate(-5892.095 -8308.49)"/>
      <path id="Trazado_203472" data-name="Trazado 203472" d="M418.548,1069.78a4.436,4.436,0,1,0-4.436-4.436h0a4.441,4.441,0,0,0,4.436,4.436m0-6.654a2.219,2.219,0,1,1-2.219,2.218,2.218,2.218,0,0,1,2.219-2.218Z" transform="translate(-5938.522 -8308.49)"/>
      <path id="Trazado_203473" data-name="Trazado 203473" d="M304.647,1016.805a4.436,4.436,0,1,0-4.436-4.436,4.436,4.436,0,0,0,4.436,4.436m0-6.654a2.219,2.219,0,1,1-2.219,2.219h0a2.221,2.221,0,0,1,2.219-2.217" transform="translate(-5845.668 -8265.305)"/>
      <path id="Trazado_203474" data-name="Trazado 203474" d="M361.6,1016.805a4.436,4.436,0,1,0-4.436-4.436,4.436,4.436,0,0,0,4.436,4.436m0-6.654a2.219,2.219,0,1,1-2.219,2.219h0a2.221,2.221,0,0,1,2.219-2.217" transform="translate(-5892.095 -8265.305)"/>
      <path id="Trazado_203475" data-name="Trazado 203475" d="M418.548,1016.805a4.436,4.436,0,1,0-4.436-4.436,4.436,4.436,0,0,0,4.436,4.436m0-6.654a2.219,2.219,0,1,1-2.219,2.219h0a2.221,2.221,0,0,1,2.219-2.217" transform="translate(-5938.522 -8265.305)"/>
      <path id="Trazado_203476" data-name="Trazado 203476" d="M304.647,963.833a4.436,4.436,0,1,0-4.436-4.436,4.436,4.436,0,0,0,4.436,4.436m0-6.655a2.219,2.219,0,1,1-2.219,2.219,2.219,2.219,0,0,1,2.219-2.219" transform="translate(-5845.668 -8222.121)"/>
      <path id="Trazado_203477" data-name="Trazado 203477" d="M361.6,963.833a4.436,4.436,0,1,0-4.436-4.436,4.436,4.436,0,0,0,4.436,4.436m0-6.655a2.219,2.219,0,1,1-2.219,2.219,2.219,2.219,0,0,1,2.219-2.219" transform="translate(-5892.095 -8222.121)"/>
      <path id="Trazado_203478" data-name="Trazado 203478" d="M418.548,963.833a4.436,4.436,0,1,0-4.436-4.436,4.436,4.436,0,0,0,4.436,4.436m0-6.655a2.219,2.219,0,1,1-2.219,2.219,2.219,2.219,0,0,1,2.219-2.219" transform="translate(-5938.522 -8222.121)"/>
      <path id="Trazado_203479" data-name="Trazado 203479" d="M156.863,935.52H145.314a1.109,1.109,0,1,0,0,2.217h11.549a1.109,1.109,0,1,0,0-2.217" transform="translate(-5718.49 -8206.272)"/>
      <path id="Trazado_203480" data-name="Trazado 203480" d="M116.748,937.737h1.127a1.109,1.109,0,1,0,0-2.217h-1.127a1.109,1.109,0,1,0,0,2.217" transform="translate(-5695.203 -8206.272)"/>
      <path id="Trazado_203481" data-name="Trazado 203481" d="M172.3,986.52h-6.031a1.109,1.109,0,1,0,0,2.217H172.3a1.109,1.109,0,1,0,0-2.217" transform="translate(-5735.575 -8247.849)"/>
      <path id="Trazado_203482" data-name="Trazado 203482" d="M121.567,986.52h-4.819a1.109,1.109,0,1,0,0,2.217h4.819a1.109,1.109,0,1,0,0-2.217" transform="translate(-5695.203 -8247.849)"/>
      <path id="Trazado_203483" data-name="Trazado 203483" d="M92.763,673.326a1.109,1.109,0,0,0-1.109,1.109v.446a1.109,1.109,0,1,0,2.217,0v-.446a1.109,1.109,0,0,0-1.109-1.109" transform="translate(-5675.65 -7992.529)"/>
      <path id="Trazado_203484" data-name="Trazado 203484" d="M92.763,699.169a1.109,1.109,0,0,0-1.109,1.109v14.687a1.109,1.109,0,1,0,2.217,0V700.278a1.109,1.109,0,0,0-1.109-1.109" transform="translate(-5675.65 -8013.596)"/>
      <path id="Trazado_203485" data-name="Trazado 203485" d="M149.078,691.374a16.36,16.36,0,1,0,16.36,16.36,16.36,16.36,0,0,0-16.36-16.36M163.2,706.923H151.457l8.368-8.367A14.077,14.077,0,0,1,163.2,706.923Zm-14.118-13.332a14.077,14.077,0,0,1,9.179,3.4l-9.173,9.173-7.219-10.584a14.054,14.054,0,0,1,7.214-1.986m0,28.286a14.136,14.136,0,0,1-9.026-25.022l8.049,11.8a1.109,1.109,0,0,0,.916.484h14.133A14.162,14.162,0,0,1,149.078,721.877Z" transform="translate(-5709.126 -8007.242)"/>
      <path id="Trazado_203486" data-name="Trazado 203486" d="M85.768,672.728h-14.9V648.842a3.082,3.082,0,0,0-.873-2.17L56.137,632.458a3.107,3.107,0,0,0-2.215-.938H15.144a3.051,3.051,0,0,0-3.033,3.07c0,.012,0,.025,0,.037v2.991H9.161a3.1,3.1,0,0,0-2.217.87,3.017,3.017,0,0,0-.931,2.154v1.78H3.777a3.071,3.071,0,0,0-2.205.875,3.012,3.012,0,0,0-.918,2.158v73.652a3.155,3.155,0,0,0,3.125,3.144h47.69a5.6,5.6,0,0,0,4.324,2.033H85.768a5.616,5.616,0,0,0,5.616-5.616V678.343a5.616,5.616,0,0,0-5.616-5.616M55.536,635.014l11.659,12.028H61.149a5.616,5.616,0,0,1-3.97-1.689,5.681,5.681,0,0,1-1.643-4.014ZM8.23,640.641a.814.814,0,0,1,.283-.586.9.9,0,0,1,.65-.219h2.948v68.643a3,3,0,0,0,2.951,3.054H50.177v3.511H9.164a.985.985,0,0,1-.934-.951ZM3.78,720.033a.926.926,0,0,1-.638-.279.938.938,0,0,1-.27-.648V645.453a.81.81,0,0,1,.27-.59.874.874,0,0,1,.638-.223H6.013v69.453a3.2,3.2,0,0,0,3.15,3.168H50.177v1.406a5.615,5.615,0,0,0,.168,1.366Zm46.4-41.69V688.2a1.107,1.107,0,0,0-.932-.509H45.1a1.109,1.109,0,0,0,0,2.218h4.149a1.107,1.107,0,0,0,.932-.509v7.716H42.456a1.109,1.109,0,1,0,0,2.217h7.721v9.978H15.146a.781.781,0,0,1-.593-.234.8.8,0,0,1-.225-.6V634.625a.833.833,0,0,1,.776-.885l.041,0H53.318v7.6a7.905,7.905,0,0,0,7.829,7.921h7.508v23.468H55.793a5.616,5.616,0,0,0-5.616,5.616m39.175,40.324a3.421,3.421,0,0,1-3.421,3.4H55.882a3.48,3.48,0,0,1-3.488-3.4V689.913H89.352Zm0-30.972H52.394v-9.348a3.483,3.483,0,0,1,3.488-3.4H85.931a3.425,3.425,0,0,1,3.421,3.4Z" transform="translate(-5601.466 -7958.448)"/>
    </g>
  </g>
</svg>
