<svg xmlns="http://www.w3.org/2000/svg" width="57.246" height="75.012" viewBox="0 0 57.246 75.012">
  <g id="Grupo_150395" data-name="Grupo 150395" transform="translate(-318.289 -5962.386)">
    <path id="Trazado_204667" data-name="Trazado 204667" d="M-6982.31-5895.16v48.595a10.6,10.6,0,0,0,8.1,3.284h20.795l-5.82-7.248,3.188-3.288,4.483,3.288v-20.425l3.388-1.494,2.092,1.494s-1,12.754,0,12.554,3.985-1.3,3.985-1.3a9.332,9.332,0,0,0,2.292,1.3c.5,0,1.993-2.092,1.993-2.092v-27.5l-16.141-12.255-27.5,1Z" transform="translate(7303 11864)" fill="#fff"/>
    <path id="Trazado_204668" data-name="Trazado 204668" d="M-6951.667-5851.5v-19.208l3.288-2.093,2.391,2.093v12.155l4.484-.8,1.3,1.4h3.586l2.392,2.192,4.384-.7.9,4.96v11.479l-2.491,2.591h-16.938l-3.288-5.082-7.473-7.173,1.1-3.487,2.79-.6Z" transform="translate(7303 11864)" fill="#f6f9cd"/>
    <path id="Trazado_204669" data-name="Trazado 204669" d="M-6948.814-5836.99v7.127a21.31,21.31,0,0,0,3.066,1.993H-6933a25.452,25.452,0,0,0,1.813-3.3c0-.383-.46-6.438-.46-6.438Z" transform="translate(7303 11864)" fill="#3d46c2"/>
    <g id="Grupo_150394" data-name="Grupo 150394" transform="translate(318.289 5962.386)">
      <path id="Trazado_117753" data-name="Trazado 117753" d="M2926.269,1325.762h25.09l.338.337a7.11,7.11,0,0,0,2.209,4.227l.012,5.465a5.161,5.161,0,0,0,5.156,5.144h.012l10.294-.023h0a5.162,5.162,0,0,0,5.145-5.168l-.012-5.276c.131-.114.26-.231.384-.356a7.076,7.076,0,0,0,2.075-5.043l-.01-4.515h0l-.016-7.031a11.007,11.007,0,0,1-6.9-4.225,4.148,4.148,0,0,0-1.822-1.06V1281.2a1.933,1.933,0,0,0-.636-1.434l-14.741-13.341a1.935,1.935,0,0,0-1.3-.5h-25.281a6.549,6.549,0,0,0-6.542,6.541v46.756A6.549,6.549,0,0,0,2926.269,1325.762Zm26.62-54.084,9.04,8.182h-9.04Zm15.712,41.865a1.338,1.338,0,0,0,1.339,1.336h0a1.339,1.339,0,0,0,1.335-1.341h0a1.5,1.5,0,0,1,2.991-.006l.015,7.03h0l.01,4.515a4.42,4.42,0,0,1-1.3,3.148c-.04.04-.083.074-.124.112l-17.14.039a4.429,4.429,0,0,1-1.42-2.974,1.341,1.341,0,0,0-.392-.863l-6.7-6.674a1.5,1.5,0,0,1,2.11-2.12L2952,1318.4a1.339,1.339,0,0,0,2.283-.952l-.037-19.393a1.495,1.495,0,0,1,1.492-1.5h0a1.5,1.5,0,0,1,1.5,1.49l.021,12.807v.006a1.339,1.339,0,0,0,1.339,1.336h0a1.338,1.338,0,0,0,1.335-1.341h0a1.5,1.5,0,0,1,1.492-1.5h0a1.5,1.5,0,0,1,1.5,1.492l0,1.417a1.338,1.338,0,0,0,1.339,1.335h0a1.339,1.339,0,0,0,1.336-1.342h0a1.5,1.5,0,0,1,1.492-1.5h0a1.5,1.5,0,0,1,1.5,1.492Zm3.247,22.208a2.482,2.482,0,0,1-2.473,2.484l-10.294.022h-.006a2.482,2.482,0,0,1-2.479-2.473l-.01-4.735,15.251-.035Zm-48.253-63.286a2.677,2.677,0,0,1,2.675-2.674h23.942v12.746h14.146v25.344a4.158,4.158,0,0,0-2.926-1.2h-.009a4.181,4.181,0,0,0-1.492.277l-.016-8.913a4.173,4.173,0,0,0-4.173-4.164h-.009a4.173,4.173,0,0,0-4.164,4.182l.031,16.162-.379-.377a4.173,4.173,0,1,0-5.887,5.916l2.141,2.132h-21.2a2.677,2.677,0,0,1-2.675-2.674Z" transform="translate(-2919.727 -1265.924)"/>
      <path id="Trazado_117754" data-name="Trazado 117754" d="M2935.317,1298.658l9-9a1.339,1.339,0,0,0-1.893-1.894l-7.106,7.106-2.268-2.268a1.339,1.339,0,0,0-1.894,1.894Z" transform="translate(-2922.163 -1270.658)"/>
      <path id="Trazado_117755" data-name="Trazado 117755" d="M2935.317,1313.088l9-9a1.338,1.338,0,0,0-1.893-1.893l-7.106,7.106-2.268-2.269a1.339,1.339,0,0,0-1.894,1.893Z" transform="translate(-2922.163 -1273.843)"/>
      <path id="Trazado_117756" data-name="Trazado 117756" d="M2935.317,1327.518l9-9a1.338,1.338,0,0,0-1.893-1.893l-7.106,7.106-2.268-2.269a1.339,1.339,0,1,0-1.894,1.893Z" transform="translate(-2922.163 -1277.028)"/>
      <path id="Trazado_117757" data-name="Trazado 117757" d="M2955.06,1297.919h12.981a1.339,1.339,0,1,0,0-2.678H2955.06a1.339,1.339,0,1,0,0,2.678Z" transform="translate(-2927.23 -1272.395)"/>
    </g>
  </g>
</svg>
