<svg xmlns="http://www.w3.org/2000/svg" width="1030" height="627.727" viewBox="0 0 1030 627.727">
  <g id="Grupo_150476" data-name="Grupo 150476" transform="translate(-285 -1264)">
    <rect id="Rectángulo_295321" data-name="Rectángulo 295321" width="1030" height="35.201" transform="translate(285 1264)" fill="#edf6e4"/>
    <rect id="Rectángulo_295322" data-name="Rectángulo 295322" width="332.258" height="35.201" transform="translate(285 1299.201)" fill="#edf6e4"/>
    <line id="Línea_1124" data-name="Línea 1124" x2="1027.831" transform="translate(286.085 1299.201)" fill="none" stroke="#707070" stroke-width="1"/>
    <line id="Línea_1157" data-name="Línea 1157" x2="1027.831" transform="translate(286.085 1665.61)" fill="none" stroke="#707070" stroke-width="1"/>
    <line id="Línea_1160" data-name="Línea 1160" x2="1027.831" transform="translate(286.085 1665.61)" fill="none" stroke="#707070" stroke-width="1"/>
    <path id="Trazado_201744" data-name="Trazado 201744" d="M0,0V35.2" transform="translate(617 1299.201)" fill="none" stroke="#6b8069" stroke-linecap="round" stroke-width="1.098"/>
    <rect id="Rectángulo_295329" data-name="Rectángulo 295329" width="1030" height="34.402" transform="translate(285 1335.201)" fill="#edf6e4"/>
    <line id="Línea_1152" data-name="Línea 1152" x2="1027.831" transform="translate(286.085 1370.201)" fill="none" stroke="#707070" stroke-width="1"/>
    <path id="Trazado_201736" data-name="Trazado 201736" d="M0,0H1027.83" transform="translate(286.085 1335.201)" fill="none" stroke="#707070" stroke-width="1"/>
    <line id="Línea_1168" data-name="Línea 1168" x2="1027.831" transform="translate(286.085 1406)" fill="none" stroke="#707070" stroke-width="1"/>
    <rect id="Rectángulo_295330" data-name="Rectángulo 295330" width="1030" height="34.402" transform="translate(285 1405.799)" fill="#edf6e4"/>
    <line id="Línea_1169" data-name="Línea 1169" x2="1027.831" transform="translate(286.085 1440.799)" fill="none" stroke="#707070" stroke-width="1"/>
    <path id="Trazado_201745" data-name="Trazado 201745" d="M0,0H1027.83" transform="translate(286.085 1405.799)" fill="none" stroke="#707070" stroke-width="1"/>
    <line id="Línea_1170" data-name="Línea 1170" x2="1027.831" transform="translate(286.085 1476.598)" fill="none" stroke="#707070" stroke-width="1"/>
    <line id="Línea_1171" data-name="Línea 1171" x2="1027.831" transform="translate(286.085 1476.598)" fill="none" stroke="#707070" stroke-width="1"/>
    <rect id="Rectángulo_295331" data-name="Rectángulo 295331" width="1030" height="34.402" transform="translate(285 1476.396)" fill="#edf6e4"/>
    <line id="Línea_1172" data-name="Línea 1172" x2="1027.831" transform="translate(286.085 1511.396)" fill="none" stroke="#707070" stroke-width="1"/>
    <path id="Trazado_201746" data-name="Trazado 201746" d="M0,0H1027.83" transform="translate(286.085 1476.396)" fill="none" stroke="#707070" stroke-width="1"/>
    <line id="Línea_1173" data-name="Línea 1173" x2="1027.831" transform="translate(286.085 1547.195)" fill="none" stroke="#707070" stroke-width="1"/>
    <line id="Línea_1174" data-name="Línea 1174" x2="1027.831" transform="translate(286.085 1547.195)" fill="none" stroke="#707070" stroke-width="1"/>
    <line id="Línea_1175" data-name="Línea 1175" x2="1027.831" transform="translate(286.085 1547.195)" fill="none" stroke="#707070" stroke-width="1"/>
    <rect id="Rectángulo_295332" data-name="Rectángulo 295332" width="1030" height="34.402" transform="translate(285 1546.994)" fill="#edf6e4"/>
    <line id="Línea_1176" data-name="Línea 1176" x2="1027.831" transform="translate(286.085 1581.994)" fill="none" stroke="#707070" stroke-width="1"/>
    <path id="Trazado_201747" data-name="Trazado 201747" d="M0,0H1027.83" transform="translate(286.085 1546.994)" fill="none" stroke="#707070" stroke-width="1"/>
    <line id="Línea_1177" data-name="Línea 1177" x2="1027.831" transform="translate(286.085 1665.61)" fill="none" stroke="#707070" stroke-width="1"/>
    <path id="Trazado_200445" data-name="Trazado 200445" d="M0,0V118.415" transform="translate(625.564 1547.195)" fill="none" stroke="#6b8069" stroke-linecap="round" stroke-width="1.098"/>
    <path id="Trazado_201738" data-name="Trazado 201738" d="M0,0V118.415" transform="translate(974.436 1547.195)" fill="none" stroke="#6b8069" stroke-linecap="round" stroke-width="1.098"/>
    <line id="Línea_1178" data-name="Línea 1178" x2="1027.831" transform="translate(286.085 1665.812)" fill="none" stroke="#707070" stroke-width="1"/>
    <rect id="Rectángulo_295333" data-name="Rectángulo 295333" width="1030" height="34.402" transform="translate(285 1701.61)" fill="#edf6e4"/>
    <line id="Línea_1179" data-name="Línea 1179" x2="1027.831" transform="translate(286.085 1736.61)" fill="none" stroke="#707070" stroke-width="1"/>
    <line id="Línea_1180" data-name="Línea 1180" x2="1027.831" transform="translate(286.085 1772.409)" fill="none" stroke="#707070" stroke-width="1"/>
    <line id="Línea_1181" data-name="Línea 1181" x2="1027.831" transform="translate(286.085 1772.409)" fill="none" stroke="#707070" stroke-width="1"/>
    <path id="Trazado_201749" data-name="Trazado 201749" d="M0,0H1027.83" transform="translate(286.085 1772.208)" fill="none" stroke="#707070" stroke-width="1"/>
    <path id="Trazado_201739" data-name="Trazado 201739" d="M0,0V70.2" transform="translate(451.129 1702.013)" fill="none" stroke="#707070" stroke-linecap="round" stroke-width="1.098"/>
    <path id="Trazado_201740" data-name="Trazado 201740" d="M0,0V70.2" transform="translate(625.564 1702.013)" fill="none" stroke="#707070" stroke-linecap="round" stroke-width="1.098"/>
    <path id="Trazado_201741" data-name="Trazado 201741" d="M0,0V70.2" transform="translate(800 1702.013)" fill="none" stroke="#707070" stroke-linecap="round" stroke-width="1.098"/>
    <path id="Trazado_201742" data-name="Trazado 201742" d="M0,0V70.2" transform="translate(974.436 1702.013)" fill="none" stroke="#707070" stroke-linecap="round" stroke-width="1.098"/>
    <path id="Trazado_201743" data-name="Trazado 201743" d="M0,0V70.2" transform="translate(1148.04 1702.013)" fill="none" stroke="#707070" stroke-linecap="round" stroke-width="1.098"/>
    <line id="Línea_1182" data-name="Línea 1182" x2="1027.831" transform="translate(286.085 1772.812)" fill="none" stroke="#707070" stroke-width="1"/>
    <line id="Línea_1183" data-name="Línea 1183" x2="1027.831" transform="translate(286.085 1772.812)" fill="none" stroke="#707070" stroke-width="1"/>
    <line id="Línea_1184" data-name="Línea 1184" x2="1027.831" transform="translate(286.085 1772.812)" fill="none" stroke="#707070" stroke-width="1"/>
    <rect id="Rectángulo_295334" data-name="Rectángulo 295334" width="1030" height="34.402" transform="translate(285 1772.61)" fill="#edf6e4"/>
    <line id="Línea_1185" data-name="Línea 1185" x2="1027.831" transform="translate(286.085 1807.61)" fill="none" stroke="#707070" stroke-width="1"/>
    <path id="Trazado_201750" data-name="Trazado 201750" d="M0,0H1027.83" transform="translate(286.085 1772.61)" fill="none" stroke="#707070" stroke-width="1"/>
    <path id="Trazado_201751" data-name="Trazado 201751" d="M0,0H1027.83" transform="translate(286.085 1891.227)" fill="none" stroke="#707070" stroke-width="1"/>
    <path id="Trazado_204726" data-name="Trazado 204726" d="M27.359,17H25.016V5.625h2.344Zm11.422,0H36.438L31.875,9.516V17H29.531V5.625h2.344l4.57,7.5v-7.5h2.336Zm2.047,0V5.625h3.5a5.315,5.315,0,0,1,2.684.676,4.712,4.712,0,0,1,1.848,1.922,5.928,5.928,0,0,1,.664,2.832v.523a5.945,5.945,0,0,1-.652,2.82,4.672,4.672,0,0,1-1.84,1.914,5.355,5.355,0,0,1-2.68.688Zm2.344-9.477v7.594H44.3a2.545,2.545,0,0,0,2.1-.9,4.06,4.06,0,0,0,.742-2.57v-.6a4.124,4.124,0,0,0-.719-2.629,2.537,2.537,0,0,0-2.1-.895ZM53.719,17H51.375V5.625h2.344Zm11.1-3.789A4.025,4.025,0,0,1,63.465,16.1a4.76,4.76,0,0,1-3.223,1.055A4.28,4.28,0,0,1,56.8,15.684a6.038,6.038,0,0,1-1.254-4.043v-.7a6.819,6.819,0,0,1,.578-2.891,4.332,4.332,0,0,1,1.652-1.918,5.164,5.164,0,0,1,5.668.387,4.326,4.326,0,0,1,1.391,2.961H62.492a2.376,2.376,0,0,0-.613-1.6,2.271,2.271,0,0,0-1.605-.5,1.991,1.991,0,0,0-1.754.84,4.707,4.707,0,0,0-.6,2.605V11.7a5.038,5.038,0,0,0,.559,2.7,1.954,1.954,0,0,0,1.762.852,2.314,2.314,0,0,0,1.621-.5,2.241,2.241,0,0,0,.613-1.535Zm7.961,1.445H68.672L67.891,17H65.4L69.633,5.625H71.8L76.063,17H73.57Zm-3.477-1.9h2.844L70.719,8.5ZM77.125,17V5.625h3.5a5.315,5.315,0,0,1,2.684.676,4.712,4.712,0,0,1,1.848,1.922,5.928,5.928,0,0,1,.664,2.832v.523a5.945,5.945,0,0,1-.652,2.82,4.672,4.672,0,0,1-1.84,1.914,5.355,5.355,0,0,1-2.68.688Zm2.344-9.477v7.594H80.6a2.545,2.545,0,0,0,2.1-.9,4.06,4.06,0,0,0,.742-2.57v-.6a4.124,4.124,0,0,0-.719-2.629,2.537,2.537,0,0,0-2.1-.895Zm17.4,4.047a6.867,6.867,0,0,1-.594,2.945,4.472,4.472,0,0,1-1.7,1.953,5.021,5.021,0,0,1-5.059.008A4.515,4.515,0,0,1,87.8,14.535a6.67,6.67,0,0,1-.617-2.9V11.07a6.831,6.831,0,0,1,.605-2.957A4.508,4.508,0,0,1,89.5,6.152a5.014,5.014,0,0,1,5.055,0,4.508,4.508,0,0,1,1.711,1.961,6.811,6.811,0,0,1,.605,2.949Zm-2.375-.516a4.787,4.787,0,0,0-.641-2.719A2.263,2.263,0,0,0,90.2,8.324a4.732,4.732,0,0,0-.648,2.691v.555a4.847,4.847,0,0,0,.641,2.7,2.243,2.243,0,0,0,3.656.035,4.819,4.819,0,0,0,.641-2.7Zm8.289,1.781h-1.867V17H98.57V5.625H102.8a4.778,4.778,0,0,1,3.109.9A3.1,3.1,0,0,1,107,9.063,3.5,3.5,0,0,1,106.5,11a3.437,3.437,0,0,1-1.527,1.238l2.461,4.648V17h-2.516Zm-1.867-1.9H102.8a1.936,1.936,0,0,0,1.367-.449,1.606,1.606,0,0,0,.484-1.238,1.719,1.719,0,0,0-.457-1.266,1.9,1.9,0,0,0-1.4-.461h-1.883Zm17.961,7.828h-7.117V17h7.117Zm7.141,0H118.9V17h7.117Zm7.141,0h-7.117V17h7.117Zm7.141,0H133.18V17H140.3Zm7.141,0H140.32V17h7.117Zm6.3-14.031,1.063.617a4.168,4.168,0,0,0-.7,2.156v1.3h-1.789V7.641a3.557,3.557,0,0,1,.41-1.566A4.085,4.085,0,0,1,153.734,4.734Zm2.68,0,1.063.617a4.168,4.168,0,0,0-.7,2.156v1.3h-1.789V7.641a3.557,3.557,0,0,1,.41-1.566A4.085,4.085,0,0,1,156.414,4.734ZM168.2,17h-2.344l-4.562-7.484V17h-2.344V5.625h2.344l4.57,7.5v-7.5H168.2Zm11.391-5.43a6.867,6.867,0,0,1-.594,2.945,4.471,4.471,0,0,1-1.7,1.953,5.021,5.021,0,0,1-5.059.008,4.515,4.515,0,0,1-1.719-1.941,6.67,6.67,0,0,1-.617-2.9V11.07a6.831,6.831,0,0,1,.605-2.957,4.508,4.508,0,0,1,1.711-1.961,5.014,5.014,0,0,1,5.055,0,4.508,4.508,0,0,1,1.711,1.961,6.811,6.811,0,0,1,.605,2.949Zm-2.375-.516a4.787,4.787,0,0,0-.641-2.719,2.263,2.263,0,0,0-3.648-.012,4.732,4.732,0,0,0-.648,2.691v.555a4.847,4.847,0,0,0,.641,2.7,2.243,2.243,0,0,0,3.656.035,4.819,4.819,0,0,0,.641-2.7Zm7.141-5.43,2.922,8.25,2.906-8.25h3.078V17h-2.352V13.891l.234-5.367L188.07,17h-1.609L183.4,8.531l.234,5.359V17h-2.344V5.625ZM195.3,17V5.625h3.984a5.232,5.232,0,0,1,3.141.793,2.711,2.711,0,0,1,1.07,2.324,2.57,2.57,0,0,1-.43,1.473,2.482,2.482,0,0,1-1.2.934,2.4,2.4,0,0,1,1.379.883,2.61,2.61,0,0,1,.5,1.625,3,3,0,0,1-1.047,2.484,4.713,4.713,0,0,1-2.984.859Zm2.344-4.953v3.07h2.008a1.938,1.938,0,0,0,1.293-.395,1.353,1.353,0,0,0,.465-1.09,1.428,1.428,0,0,0-1.617-1.586Zm0-1.656h1.734q1.773-.031,1.773-1.414a1.307,1.307,0,0,0-.449-1.113,2.363,2.363,0,0,0-1.418-.34h-1.641Zm12.078,2.445h-1.867V17h-2.344V5.625h4.227a4.778,4.778,0,0,1,3.109.9,3.1,3.1,0,0,1,1.094,2.539,3.5,3.5,0,0,1-.5,1.941,3.437,3.437,0,0,1-1.527,1.238l2.461,4.648V17h-2.516Zm-1.867-1.9h1.891a1.936,1.936,0,0,0,1.367-.449A1.606,1.606,0,0,0,211.6,9.25a1.719,1.719,0,0,0-.457-1.266,1.9,1.9,0,0,0-1.4-.461h-1.883ZM222.57,12.07h-4.5v3.047h5.281V17h-7.625V5.625h7.609v1.9H218.07v2.711h4.5ZM231.2,17h-2.344V5.625H231.2Zm11.422,0h-2.344l-4.562-7.484V17h-2.344V5.625h2.344l4.57,7.5v-7.5h2.336Zm2.047,0V5.625h3.5a5.315,5.315,0,0,1,2.684.676A4.712,4.712,0,0,1,252.7,8.223a5.928,5.928,0,0,1,.664,2.832v.523a5.945,5.945,0,0,1-.652,2.82,4.672,4.672,0,0,1-1.84,1.914A5.355,5.355,0,0,1,248.2,17Zm2.344-9.477v7.594h1.133a2.545,2.545,0,0,0,2.1-.9,4.06,4.06,0,0,0,.742-2.57v-.6a4.124,4.124,0,0,0-.719-2.629,2.537,2.537,0,0,0-2.1-.895ZM257.563,17h-2.344V5.625h2.344Zm11.1-3.789a4.025,4.025,0,0,1-1.355,2.891,4.76,4.76,0,0,1-3.223,1.055,4.28,4.28,0,0,1-3.441-1.473,6.038,6.038,0,0,1-1.254-4.043v-.7a6.819,6.819,0,0,1,.578-2.891,4.332,4.332,0,0,1,1.652-1.918,5.164,5.164,0,0,1,5.668.387,4.326,4.326,0,0,1,1.391,2.961h-2.344a2.376,2.376,0,0,0-.613-1.6,2.271,2.271,0,0,0-1.605-.5,1.991,1.991,0,0,0-1.754.84,4.707,4.707,0,0,0-.6,2.605V11.7a5.037,5.037,0,0,0,.559,2.7,1.954,1.954,0,0,0,1.762.852,2.314,2.314,0,0,0,1.621-.5,2.241,2.241,0,0,0,.613-1.535Zm7.961,1.445h-4.109L271.734,17h-2.492l4.234-11.375h2.172L279.906,17h-2.492Zm-3.477-1.9h2.844L274.563,8.5ZM280.969,17V5.625h3.5a5.315,5.315,0,0,1,2.684.676A4.712,4.712,0,0,1,289,8.223a5.928,5.928,0,0,1,.664,2.832v.523a5.944,5.944,0,0,1-.652,2.82,4.672,4.672,0,0,1-1.84,1.914,5.355,5.355,0,0,1-2.68.688Zm2.344-9.477v7.594h1.133a2.545,2.545,0,0,0,2.1-.9,4.06,4.06,0,0,0,.742-2.57v-.6a4.125,4.125,0,0,0-.719-2.629,2.537,2.537,0,0,0-2.1-.895Zm17.4,4.047a6.867,6.867,0,0,1-.594,2.945,4.472,4.472,0,0,1-1.7,1.953,5.021,5.021,0,0,1-5.059.008,4.515,4.515,0,0,1-1.719-1.941,6.67,6.67,0,0,1-.617-2.9V11.07a6.831,6.831,0,0,1,.605-2.957,4.508,4.508,0,0,1,1.711-1.961,5.014,5.014,0,0,1,5.055,0,4.508,4.508,0,0,1,1.711,1.961,6.811,6.811,0,0,1,.605,2.949Zm-2.375-.516a4.787,4.787,0,0,0-.641-2.719,2.263,2.263,0,0,0-3.648-.012,4.732,4.732,0,0,0-.648,2.691v.555a4.847,4.847,0,0,0,.641,2.7,2.243,2.243,0,0,0,3.656.035,4.819,4.819,0,0,0,.641-2.7Zm8.289,1.781h-1.867V17h-2.344V5.625h4.227a4.778,4.778,0,0,1,3.109.9,3.1,3.1,0,0,1,1.094,2.539,3.5,3.5,0,0,1-.5,1.941,3.437,3.437,0,0,1-1.527,1.238l2.461,4.648V17h-2.516Zm-1.867-1.9h1.891a1.936,1.936,0,0,0,1.367-.449A1.606,1.606,0,0,0,308.5,9.25a1.719,1.719,0,0,0-.457-1.266,1.9,1.9,0,0,0-1.4-.461h-1.883Zm8.477-1.82L312.172,8.5a4.172,4.172,0,0,0,.7-2.18V5h1.8V6.211a3.569,3.569,0,0,1-.391,1.523A4.188,4.188,0,0,1,313.234,9.117Zm2.711,0L314.883,8.5a4.172,4.172,0,0,0,.7-2.18V5h1.8V6.211a3.569,3.569,0,0,1-.391,1.523A4.188,4.188,0,0,1,315.945,9.117Z" transform="translate(629 1272.995)" fill="#12263f"/>
    <path id="Trazado_204727" data-name="Trazado 204727" d="M124.535,12.836h-1.867V17h-2.344V5.625h4.227a4.778,4.778,0,0,1,3.109.9,3.1,3.1,0,0,1,1.094,2.539,3.5,3.5,0,0,1-.5,1.941,3.437,3.437,0,0,1-1.527,1.238l2.461,4.648V17h-2.516Zm-1.867-1.9h1.891a1.936,1.936,0,0,0,1.367-.449,1.606,1.606,0,0,0,.484-1.238,1.719,1.719,0,0,0-.457-1.266,1.9,1.9,0,0,0-1.4-.461h-1.883Zm14.711,1.133h-4.5v3.047h5.281V17h-7.625V5.625h7.609v1.9h-5.266v2.711h4.5Zm9,.281h-4.5V17h-2.344V5.625h7.406v1.9h-5.062v2.938h4.5Zm8.766-.281h-4.5v3.047h5.281V17H148.3V5.625h7.609v1.9h-5.266v2.711h4.5Zm6.367.766h-1.867V17H157.3V5.625h4.227a4.778,4.778,0,0,1,3.109.9,3.1,3.1,0,0,1,1.094,2.539,3.5,3.5,0,0,1-.5,1.941,3.437,3.437,0,0,1-1.527,1.238l2.461,4.648V17h-2.516Zm-1.867-1.9h1.891a1.936,1.936,0,0,0,1.367-.449,1.606,1.606,0,0,0,.484-1.238,1.719,1.719,0,0,0-.457-1.266,1.9,1.9,0,0,0-1.4-.461h-1.883Zm14.711,1.133h-4.5v3.047h5.281V17h-7.625V5.625h7.609v1.9h-5.266v2.711h4.5ZM185.762,17h-2.344l-4.562-7.484V17h-2.344V5.625h2.344l4.57,7.5v-7.5h2.336Zm10.977-3.789a4.025,4.025,0,0,1-1.355,2.891,4.76,4.76,0,0,1-3.223,1.055,4.281,4.281,0,0,1-3.441-1.473,6.038,6.038,0,0,1-1.254-4.043v-.7a6.819,6.819,0,0,1,.578-2.891A4.332,4.332,0,0,1,189.7,6.137a5.164,5.164,0,0,1,5.668.387,4.326,4.326,0,0,1,1.391,2.961H194.41a2.376,2.376,0,0,0-.613-1.6,2.271,2.271,0,0,0-1.605-.5,1.991,1.991,0,0,0-1.754.84,4.707,4.707,0,0,0-.6,2.605V11.7a5.038,5.038,0,0,0,.559,2.7,1.954,1.954,0,0,0,1.762.852,2.314,2.314,0,0,0,1.621-.5,2.241,2.241,0,0,0,.613-1.535ZM200.77,17h-2.344V5.625h2.344Zm8.594-2.344h-4.109L204.473,17H201.98l4.234-11.375h2.172L212.645,17h-2.492Zm-3.477-1.9h2.844L207.3,8.5Z" transform="translate(285 1306.995)" fill="#12263f"/>
    <path id="Trazado_204728" data-name="Trazado 204728" d="M472.883,17V5.625h3.5a5.315,5.315,0,0,1,2.684.676,4.712,4.712,0,0,1,1.848,1.922,5.928,5.928,0,0,1,.664,2.832v.523a5.944,5.944,0,0,1-.652,2.82,4.672,4.672,0,0,1-1.84,1.914,5.355,5.355,0,0,1-2.68.688Zm2.344-9.477v7.594h1.133a2.545,2.545,0,0,0,2.1-.9,4.06,4.06,0,0,0,.742-2.57v-.6a4.125,4.125,0,0,0-.719-2.629,2.537,2.537,0,0,0-2.1-.895Zm14.9,4.547h-4.5v3.047h5.281V17h-7.625V5.625h7.609v1.9h-5.266v2.711h4.5Zm9,.281h-4.5V17h-2.344V5.625h7.406v1.9h-5.062v2.938h4.5ZM503.539,17H501.2V5.625h2.344Zm11.422,0h-2.344l-4.562-7.484V17h-2.344V5.625h2.344l4.57,7.5v-7.5h2.336Zm4.539,0h-2.344V5.625H519.5Zm11.1-3.789a4.025,4.025,0,0,1-1.355,2.891,4.761,4.761,0,0,1-3.223,1.055,4.281,4.281,0,0,1-3.441-1.473,6.038,6.038,0,0,1-1.254-4.043v-.7a6.818,6.818,0,0,1,.578-2.891,4.333,4.333,0,0,1,1.652-1.918,5.164,5.164,0,0,1,5.668.387,4.326,4.326,0,0,1,1.391,2.961h-2.344a2.376,2.376,0,0,0-.613-1.6,2.271,2.271,0,0,0-1.605-.5,1.991,1.991,0,0,0-1.754.84,4.707,4.707,0,0,0-.6,2.605V11.7a5.038,5.038,0,0,0,.559,2.7,1.954,1.954,0,0,0,1.762.852,2.314,2.314,0,0,0,1.621-.5,2.241,2.241,0,0,0,.613-1.535ZM534.633,17h-2.344V5.625h2.344Zm11.516-5.43a6.867,6.867,0,0,1-.594,2.945,4.471,4.471,0,0,1-1.7,1.953,5.021,5.021,0,0,1-5.059.008,4.516,4.516,0,0,1-1.719-1.941,6.67,6.67,0,0,1-.617-2.9V11.07a6.831,6.831,0,0,1,.605-2.957,4.508,4.508,0,0,1,1.711-1.961,5.014,5.014,0,0,1,5.055,0,4.508,4.508,0,0,1,1.711,1.961,6.812,6.812,0,0,1,.605,2.949Zm-2.375-.516a4.787,4.787,0,0,0-.641-2.719,2.263,2.263,0,0,0-3.648-.012,4.732,4.732,0,0,0-.648,2.691v.555a4.847,4.847,0,0,0,.641,2.7,2.243,2.243,0,0,0,3.656.035,4.818,4.818,0,0,0,.641-2.7Zm-2.016-8.477h2.461L542.055,5h-1.836ZM557.1,17h-2.344L550.2,9.516V17h-2.344V5.625H550.2l4.57,7.5v-7.5H557.1Z" transform="translate(285 1342.995)" fill="#12263f"/>
    <path id="Trazado_204729" data-name="Trazado 204729" d="M487.7,11.57a6.867,6.867,0,0,1-.594,2.945,4.472,4.472,0,0,1-1.7,1.953,5.021,5.021,0,0,1-5.059.008,4.515,4.515,0,0,1-1.719-1.941,6.67,6.67,0,0,1-.617-2.9V11.07a6.831,6.831,0,0,1,.605-2.957,4.508,4.508,0,0,1,1.711-1.961,5.014,5.014,0,0,1,5.055,0,4.508,4.508,0,0,1,1.711,1.961,6.811,6.811,0,0,1,.605,2.949Zm-2.375-.516a4.787,4.787,0,0,0-.641-2.719,2.263,2.263,0,0,0-3.648-.012,4.732,4.732,0,0,0-.648,2.691v.555a4.847,4.847,0,0,0,.641,2.7,2.243,2.243,0,0,0,3.656.035,4.819,4.819,0,0,0,.641-2.7ZM489.4,17V5.625h3.984a5.232,5.232,0,0,1,3.141.793,2.712,2.712,0,0,1,1.07,2.324,2.57,2.57,0,0,1-.43,1.473,2.482,2.482,0,0,1-1.2.934,2.4,2.4,0,0,1,1.379.883,2.61,2.61,0,0,1,.5,1.625,3,3,0,0,1-1.047,2.484,4.713,4.713,0,0,1-2.984.859Zm2.344-4.953v3.07h2.008a1.938,1.938,0,0,0,1.293-.395,1.353,1.353,0,0,0,.465-1.09,1.428,1.428,0,0,0-1.617-1.586Zm0-1.656h1.734q1.773-.031,1.773-1.414a1.307,1.307,0,0,0-.449-1.113,2.363,2.363,0,0,0-1.418-.34h-1.641ZM504.2,5.625h2.344V13.5a3.766,3.766,0,0,1-.48,1.918,3.261,3.261,0,0,1-1.355,1.285,4.235,4.235,0,0,1-1.977.453,4.025,4.025,0,0,1-2.812-.918,3.335,3.335,0,0,1-1.008-2.6h2.359a1.829,1.829,0,0,0,.352,1.234,1.407,1.407,0,0,0,1.109.4,1.343,1.343,0,0,0,1.07-.461,1.948,1.948,0,0,0,.4-1.312Zm11.2,6.445h-4.5v3.047h5.281V17h-7.625V5.625h7.609v1.9h-5.266v2.711h4.5ZM526.27,7.523h-3.484V17h-2.344V7.523H517v-1.9h9.266ZM530.1,17h-2.344V5.625H530.1Zm6.375-2.82,2.578-8.555h2.609L537.7,17h-2.445L531.309,5.625h2.6Zm15.5-2.609a6.867,6.867,0,0,1-.594,2.945,4.471,4.471,0,0,1-1.7,1.953,5.021,5.021,0,0,1-5.059.008,4.516,4.516,0,0,1-1.719-1.941,6.67,6.67,0,0,1-.617-2.9V11.07a6.831,6.831,0,0,1,.605-2.957A4.508,4.508,0,0,1,544.6,6.152a5.014,5.014,0,0,1,5.055,0,4.508,4.508,0,0,1,1.711,1.961,6.812,6.812,0,0,1,.605,2.949Zm-2.375-.516a4.787,4.787,0,0,0-.641-2.719,2.263,2.263,0,0,0-3.648-.012,4.732,4.732,0,0,0-.648,2.691v.555a4.847,4.847,0,0,0,.641,2.7,2.243,2.243,0,0,0,3.656.035,4.818,4.818,0,0,0,.641-2.7Z" transform="translate(285 1413.995)" fill="#12263f"/>
    <path id="Trazado_204730" data-name="Trazado 204730" d="M450.973,7.523h-3.484V17h-2.344V7.523h-3.437v-1.9h9.266ZM454.8,17h-2.344V5.625H454.8Zm4.516-4.008V17h-2.344V5.625h4.438a5.134,5.134,0,0,1,2.254.469,3.454,3.454,0,0,1,1.5,1.332,3.714,3.714,0,0,1,.523,1.965,3.266,3.266,0,0,1-1.145,2.637,4.767,4.767,0,0,1-3.168.965Zm0-1.9h2.094a2.059,2.059,0,0,0,1.418-.437,1.591,1.591,0,0,0,.488-1.25,1.876,1.876,0,0,0-.492-1.352,1.839,1.839,0,0,0-1.359-.531h-2.148Zm17.32.477a6.867,6.867,0,0,1-.594,2.945,4.472,4.472,0,0,1-1.7,1.953,5.021,5.021,0,0,1-5.059.008,4.515,4.515,0,0,1-1.719-1.941,6.67,6.67,0,0,1-.617-2.9V11.07a6.831,6.831,0,0,1,.605-2.957,4.508,4.508,0,0,1,1.711-1.961,5.014,5.014,0,0,1,5.055,0,4.508,4.508,0,0,1,1.711,1.961,6.811,6.811,0,0,1,.605,2.949Zm-2.375-.516a4.787,4.787,0,0,0-.641-2.719,2.263,2.263,0,0,0-3.648-.012,4.732,4.732,0,0,0-.648,2.691v.555a4.847,4.847,0,0,0,.641,2.7,2.243,2.243,0,0,0,3.656.035,4.819,4.819,0,0,0,.641-2.7ZM482.324,17V5.625h3.5a5.315,5.315,0,0,1,2.684.676,4.712,4.712,0,0,1,1.848,1.922,5.928,5.928,0,0,1,.664,2.832v.523a5.944,5.944,0,0,1-.652,2.82,4.672,4.672,0,0,1-1.84,1.914,5.355,5.355,0,0,1-2.68.688Zm2.344-9.477v7.594H485.8a2.545,2.545,0,0,0,2.1-.9,4.06,4.06,0,0,0,.742-2.57v-.6a4.125,4.125,0,0,0-.719-2.629,2.537,2.537,0,0,0-2.1-.895Zm14.9,4.547h-4.5v3.047h5.281V17h-7.625V5.625h7.609v1.9h-5.266v2.711h4.5ZM508.2,17h-2.344V5.625H508.2Zm11.422,0h-2.344l-4.562-7.484V17h-2.344V5.625h2.344l4.57,7.5v-7.5h2.336Zm2.047,0V5.625h3.5a5.315,5.315,0,0,1,2.684.676A4.712,4.712,0,0,1,529.7,8.223a5.928,5.928,0,0,1,.664,2.832v.523a5.945,5.945,0,0,1-.652,2.82,4.672,4.672,0,0,1-1.84,1.914,5.355,5.355,0,0,1-2.68.688Zm2.344-9.477v7.594h1.133a2.545,2.545,0,0,0,2.1-.9,4.06,4.06,0,0,0,.742-2.57v-.6a4.124,4.124,0,0,0-.719-2.629,2.537,2.537,0,0,0-2.1-.895ZM534.559,17h-2.344V5.625h2.344Zm11.1-3.789A4.025,4.025,0,0,1,544.3,16.1a4.761,4.761,0,0,1-3.223,1.055,4.281,4.281,0,0,1-3.441-1.473,6.038,6.038,0,0,1-1.254-4.043v-.7a6.818,6.818,0,0,1,.578-2.891,4.333,4.333,0,0,1,1.652-1.918,5.164,5.164,0,0,1,5.668.387,4.326,4.326,0,0,1,1.391,2.961h-2.344a2.376,2.376,0,0,0-.613-1.6,2.271,2.271,0,0,0-1.605-.5,1.991,1.991,0,0,0-1.754.84,4.707,4.707,0,0,0-.6,2.605V11.7a5.038,5.038,0,0,0,.559,2.7,1.954,1.954,0,0,0,1.762.852,2.314,2.314,0,0,0,1.621-.5,2.241,2.241,0,0,0,.613-1.535Zm7.961,1.445h-4.109L548.73,17h-2.492l4.234-11.375h2.172L556.9,17H554.41Zm-3.477-1.9h2.844L551.559,8.5ZM557.965,17V5.625h3.5a5.315,5.315,0,0,1,2.684.676A4.712,4.712,0,0,1,566,8.223a5.928,5.928,0,0,1,.664,2.832v.523a5.945,5.945,0,0,1-.652,2.82,4.672,4.672,0,0,1-1.84,1.914,5.355,5.355,0,0,1-2.68.688Zm2.344-9.477v7.594h1.133a2.545,2.545,0,0,0,2.1-.9,4.06,4.06,0,0,0,.742-2.57v-.6a4.124,4.124,0,0,0-.719-2.629,2.537,2.537,0,0,0-2.1-.895Zm17.4,4.047a6.867,6.867,0,0,1-.594,2.945,4.471,4.471,0,0,1-1.7,1.953,5.021,5.021,0,0,1-5.059.008,4.516,4.516,0,0,1-1.719-1.941,6.67,6.67,0,0,1-.617-2.9V11.07a6.831,6.831,0,0,1,.605-2.957,4.508,4.508,0,0,1,1.711-1.961,5.014,5.014,0,0,1,5.055,0A4.508,4.508,0,0,1,577.1,8.113a6.812,6.812,0,0,1,.605,2.949Zm-2.375-.516a4.787,4.787,0,0,0-.641-2.719,2.263,2.263,0,0,0-3.648-.012,4.732,4.732,0,0,0-.648,2.691v.555a4.847,4.847,0,0,0,.641,2.7,2.243,2.243,0,0,0,3.656.035,4.818,4.818,0,0,0,.641-2.7Zm8.289,1.781h-1.867V17H579.41V5.625h4.227a4.778,4.778,0,0,1,3.109.9,3.1,3.1,0,0,1,1.094,2.539,3.5,3.5,0,0,1-.5,1.941,3.437,3.437,0,0,1-1.527,1.238l2.461,4.648V17h-2.516Zm-1.867-1.9h1.891a1.936,1.936,0,0,0,1.367-.449A1.606,1.606,0,0,0,585.5,9.25a1.719,1.719,0,0,0-.457-1.266,1.9,1.9,0,0,0-1.4-.461h-1.883Z" transform="translate(285 1484.995)" fill="#12263f"/>
    <path id="Trazado_204731" data-name="Trazado 204731" d="M144.785,12.352h-4.5V17h-2.344V5.625h7.406v1.9h-5.062v2.938h4.5Zm11.266-.781a6.867,6.867,0,0,1-.594,2.945,4.471,4.471,0,0,1-1.7,1.953,5.021,5.021,0,0,1-5.059.008,4.515,4.515,0,0,1-1.719-1.941,6.67,6.67,0,0,1-.617-2.9V11.07a6.831,6.831,0,0,1,.605-2.957,4.508,4.508,0,0,1,1.711-1.961,5.014,5.014,0,0,1,5.055,0,4.508,4.508,0,0,1,1.711,1.961,6.811,6.811,0,0,1,.605,2.949Zm-2.375-.516a4.787,4.787,0,0,0-.641-2.719,2.263,2.263,0,0,0-3.648-.012,4.732,4.732,0,0,0-.648,2.691v.555a4.847,4.847,0,0,0,.641,2.7,2.243,2.243,0,0,0,3.656.035,4.819,4.819,0,0,0,.641-2.7ZM151.66,2.578h2.461L151.957,5h-1.836Zm10.3,10.258H160.1V17h-2.344V5.625h4.227a4.778,4.778,0,0,1,3.109.9,3.1,3.1,0,0,1,1.094,2.539,3.5,3.5,0,0,1-.5,1.941,3.437,3.437,0,0,1-1.527,1.238l2.461,4.648V17H164.1Zm-1.867-1.9h1.891a1.936,1.936,0,0,0,1.367-.449,1.606,1.606,0,0,0,.484-1.238,1.719,1.719,0,0,0-.457-1.266,1.9,1.9,0,0,0-1.4-.461H160.1Zm10.93-5.312,2.922,8.25,2.906-8.25h3.078V17h-2.352V13.891l.234-5.367L174.746,17h-1.609l-3.062-8.469.234,5.359V17h-2.344V5.625Zm19.563,0v7.492a3.836,3.836,0,0,1-1.168,2.953,4.5,4.5,0,0,1-3.191,1.086,4.553,4.553,0,0,1-3.164-1.055,3.77,3.77,0,0,1-1.2-2.9V5.625h2.344v7.508a2.167,2.167,0,0,0,.535,1.629,2.054,2.054,0,0,0,1.48.512q1.977,0,2.008-2.078V5.625Zm4.266,9.492h4.977V17h-7.32V5.625h2.344Zm12.891-.461h-4.109L202.855,17h-2.492L204.6,5.625h2.172L211.027,17h-2.492Zm-3.477-1.9h2.844L205.684,8.5Z" transform="translate(626 1555.995)" fill="#12263f"/>
    <path id="Trazado_204732" data-name="Trazado 204732" d="M64.648,17V5.625h3.5a5.315,5.315,0,0,1,2.684.676A4.712,4.712,0,0,1,72.68,8.223a5.928,5.928,0,0,1,.664,2.832v.523a5.945,5.945,0,0,1-.652,2.82,4.672,4.672,0,0,1-1.84,1.914,5.355,5.355,0,0,1-2.68.688Zm2.344-9.477v7.594h1.133a2.545,2.545,0,0,0,2.1-.9,4.06,4.06,0,0,0,.742-2.57v-.6a4.124,4.124,0,0,0-.719-2.629,2.537,2.537,0,0,0-2.1-.895Zm14.9,4.547h-4.5v3.047h5.281V17H75.047V5.625h7.609v1.9H77.391v2.711h4.5Zm8.055,1.945A1.2,1.2,0,0,0,89.477,13a6.148,6.148,0,0,0-1.687-.75,11.963,11.963,0,0,1-1.93-.777,3.153,3.153,0,0,1-1.937-2.82A2.747,2.747,0,0,1,84.441,7a3.389,3.389,0,0,1,1.492-1.129,5.616,5.616,0,0,1,2.184-.406,5.112,5.112,0,0,1,2.172.441,3.458,3.458,0,0,1,1.48,1.246A3.261,3.261,0,0,1,92.3,8.984H89.953a1.534,1.534,0,0,0-.492-1.215,2.023,2.023,0,0,0-1.383-.434,2.162,2.162,0,0,0-1.336.363,1.146,1.146,0,0,0-.477.957,1.1,1.1,0,0,0,.559.93,6.311,6.311,0,0,0,1.645.7,7.106,7.106,0,0,1,2.914,1.492A2.972,2.972,0,0,1,92.3,14a2.737,2.737,0,0,1-1.117,2.316,4.891,4.891,0,0,1-3.008.84,5.808,5.808,0,0,1-2.391-.48,3.783,3.783,0,0,1-1.645-1.316,3.371,3.371,0,0,1-.566-1.937h2.352q0,1.883,2.25,1.883a2.189,2.189,0,0,0,1.3-.34A1.106,1.106,0,0,0,89.945,14.016Zm12.867-.8a4.025,4.025,0,0,1-1.355,2.891,4.76,4.76,0,0,1-3.223,1.055,4.28,4.28,0,0,1-3.441-1.473,6.038,6.038,0,0,1-1.254-4.043v-.7a6.819,6.819,0,0,1,.578-2.891A4.332,4.332,0,0,1,95.77,6.137a5.164,5.164,0,0,1,5.668.387,4.326,4.326,0,0,1,1.391,2.961h-2.344a2.376,2.376,0,0,0-.613-1.6,2.271,2.271,0,0,0-1.605-.5,1.991,1.991,0,0,0-1.754.84,4.707,4.707,0,0,0-.6,2.605V11.7a5.038,5.038,0,0,0,.559,2.7,1.954,1.954,0,0,0,1.762.852,2.314,2.314,0,0,0,1.621-.5,2.241,2.241,0,0,0,.613-1.535Zm5.75-.375H106.7V17h-2.344V5.625h4.227a4.778,4.778,0,0,1,3.109.9,3.1,3.1,0,0,1,1.094,2.539,3.5,3.5,0,0,1-.5,1.941,3.437,3.437,0,0,1-1.527,1.238l2.461,4.648V17H110.7Zm-1.867-1.9h1.891a1.936,1.936,0,0,0,1.367-.449,1.606,1.606,0,0,0,.484-1.238,1.719,1.719,0,0,0-.457-1.266,1.9,1.9,0,0,0-1.4-.461H106.7ZM117.055,17h-2.344V5.625h2.344Zm4.516-4.008V17h-2.344V5.625h4.438a5.134,5.134,0,0,1,2.254.469,3.454,3.454,0,0,1,1.5,1.332,3.714,3.714,0,0,1,.523,1.965,3.266,3.266,0,0,1-1.145,2.637,4.767,4.767,0,0,1-3.168.965Zm0-1.9h2.094a2.059,2.059,0,0,0,1.418-.437,1.591,1.591,0,0,0,.488-1.25,1.876,1.876,0,0,0-.492-1.352,1.839,1.839,0,0,0-1.359-.531H121.57Zm16.906,2.117a4.025,4.025,0,0,1-1.355,2.891,4.76,4.76,0,0,1-3.223,1.055,4.281,4.281,0,0,1-3.441-1.473,6.038,6.038,0,0,1-1.254-4.043v-.7a6.819,6.819,0,0,1,.578-2.891,4.332,4.332,0,0,1,1.652-1.918,5.164,5.164,0,0,1,5.668.387,4.326,4.326,0,0,1,1.391,2.961h-2.344a2.376,2.376,0,0,0-.613-1.6,2.271,2.271,0,0,0-1.605-.5,1.991,1.991,0,0,0-1.754.84,4.707,4.707,0,0,0-.6,2.605V11.7a5.038,5.038,0,0,0,.559,2.7,1.954,1.954,0,0,0,1.762.852,2.314,2.314,0,0,0,1.621-.5,2.241,2.241,0,0,0,.613-1.535ZM142.508,17h-2.344V5.625h2.344Zm11.516-5.43a6.867,6.867,0,0,1-.594,2.945,4.471,4.471,0,0,1-1.7,1.953,5.021,5.021,0,0,1-5.059.008,4.515,4.515,0,0,1-1.719-1.941,6.67,6.67,0,0,1-.617-2.9V11.07a6.831,6.831,0,0,1,.605-2.957,4.508,4.508,0,0,1,1.711-1.961,5.014,5.014,0,0,1,5.055,0,4.508,4.508,0,0,1,1.711,1.961,6.811,6.811,0,0,1,.605,2.949Zm-2.375-.516a4.787,4.787,0,0,0-.641-2.719,2.263,2.263,0,0,0-3.648-.012,4.732,4.732,0,0,0-.648,2.691v.555a4.847,4.847,0,0,0,.641,2.7,2.243,2.243,0,0,0,3.656.035,4.819,4.819,0,0,0,.641-2.7Zm-2.016-8.477h2.461L149.93,5h-1.836ZM164.977,17h-2.344L158.07,9.516V17h-2.344V5.625h2.344l4.57,7.5v-7.5h2.336Zm6.031,0V5.625h3.5a5.315,5.315,0,0,1,2.684.676,4.712,4.712,0,0,1,1.848,1.922,5.928,5.928,0,0,1,.664,2.832v.523a5.945,5.945,0,0,1-.652,2.82,4.672,4.672,0,0,1-1.84,1.914,5.355,5.355,0,0,1-2.68.688Zm2.344-9.477v7.594h1.133a2.545,2.545,0,0,0,2.1-.9,4.06,4.06,0,0,0,.742-2.57v-.6a4.124,4.124,0,0,0-.719-2.629,2.537,2.537,0,0,0-2.1-.895Zm14.9,4.547h-4.5v3.047h5.281V17h-7.625V5.625h7.609v1.9H183.75v2.711h4.5Zm10.344,2.109,2.578-8.555h2.609L199.82,17h-2.445L193.43,5.625h2.6Zm12.094.477h-4.109L205.8,17H203.3l4.234-11.375h2.172L213.969,17h-2.492Zm-3.477-1.9h2.844L208.625,8.5Zm12.031.078h-1.867V17h-2.344V5.625h4.227a4.778,4.778,0,0,1,3.109.9,3.1,3.1,0,0,1,1.094,2.539,3.5,3.5,0,0,1-.5,1.941,3.437,3.437,0,0,1-1.527,1.238l2.461,4.648V17h-2.516Zm-1.867-1.9h1.891a1.936,1.936,0,0,0,1.367-.449,1.606,1.606,0,0,0,.484-1.238,1.719,1.719,0,0,0-.457-1.266,1.9,1.9,0,0,0-1.4-.461h-1.883ZM227.734,17h-2.344V5.625h2.344Zm8.594-2.344h-4.109L231.438,17h-2.492L233.18,5.625h2.172L239.609,17h-2.492Zm-3.477-1.9H235.7L234.266,8.5ZM240.672,17V5.625h3.984a5.232,5.232,0,0,1,3.141.793,2.711,2.711,0,0,1,1.07,2.324,2.57,2.57,0,0,1-.43,1.473,2.482,2.482,0,0,1-1.2.934,2.4,2.4,0,0,1,1.379.883,2.61,2.61,0,0,1,.5,1.625,3,3,0,0,1-1.047,2.484,4.713,4.713,0,0,1-2.984.859Zm2.344-4.953v3.07h2.008a1.938,1.938,0,0,0,1.293-.395,1.353,1.353,0,0,0,.465-1.09,1.428,1.428,0,0,0-1.617-1.586Zm0-1.656h1.734q1.773-.031,1.773-1.414a1.307,1.307,0,0,0-.449-1.113,2.363,2.363,0,0,0-1.418-.34h-1.641Zm10.211,4.727H258.2V17h-7.32V5.625h2.344Zm13.164-3.047h-4.5v3.047h5.281V17h-7.625V5.625h7.609v1.9h-5.266v2.711h4.5Zm8.055,1.945a1.2,1.2,0,0,0-.469-1.02,6.148,6.148,0,0,0-1.687-.75,11.963,11.963,0,0,1-1.93-.777,3.153,3.153,0,0,1-1.937-2.82A2.747,2.747,0,0,1,268.941,7a3.389,3.389,0,0,1,1.492-1.129,5.616,5.616,0,0,1,2.184-.406,5.112,5.112,0,0,1,2.172.441,3.458,3.458,0,0,1,1.48,1.246,3.261,3.261,0,0,1,.527,1.828h-2.344a1.534,1.534,0,0,0-.492-1.215,2.023,2.023,0,0,0-1.383-.434,2.162,2.162,0,0,0-1.336.363,1.146,1.146,0,0,0-.477.957,1.1,1.1,0,0,0,.559.93,6.311,6.311,0,0,0,1.645.7,7.105,7.105,0,0,1,2.914,1.492A2.972,2.972,0,0,1,276.8,14a2.737,2.737,0,0,1-1.117,2.316,4.891,4.891,0,0,1-3.008.84,5.808,5.808,0,0,1-2.391-.48,3.783,3.783,0,0,1-1.645-1.316,3.371,3.371,0,0,1-.566-1.937h2.352q0,1.883,2.25,1.883a2.189,2.189,0,0,0,1.3-.34A1.106,1.106,0,0,0,274.445,14.016Z" transform="translate(285 1555.995)" fill="#12263f"/>
    <path id="Trazado_204733" data-name="Trazado 204733" d="M81.309,12.352h-4.5V17H74.465V5.625h7.406v1.9H76.809v2.938h4.5ZM91.84,5.625v7.492a3.836,3.836,0,0,1-1.168,2.953,4.5,4.5,0,0,1-3.191,1.086A4.553,4.553,0,0,1,84.316,16.1a3.77,3.77,0,0,1-1.2-2.9V5.625h2.344v7.508A2.167,2.167,0,0,0,86,14.762a2.054,2.054,0,0,0,1.48.512q1.977,0,2.008-2.078V5.625Zm8.766,6.445h-4.5v3.047h5.281V17H93.762V5.625h7.609v1.9H96.105v2.711h4.5ZM112.012,17h-2.344l-4.562-7.484V17h-2.344V5.625h2.344l4.57,7.5v-7.5h2.336Zm10.609-9.477h-3.484V17h-2.344V7.523h-3.437v-1.9h9.266Zm8.18,4.547h-4.5v3.047h5.281V17h-7.625V5.625h7.609v1.9H126.3v2.711h4.5ZM136.941,17V5.625h3.5a5.315,5.315,0,0,1,2.684.676,4.712,4.712,0,0,1,1.848,1.922,5.928,5.928,0,0,1,.664,2.832v.523a5.945,5.945,0,0,1-.652,2.82,4.672,4.672,0,0,1-1.84,1.914,5.355,5.355,0,0,1-2.68.688Zm2.344-9.477v7.594h1.133a2.545,2.545,0,0,0,2.1-.9,4.06,4.06,0,0,0,.742-2.57v-.6a4.124,4.124,0,0,0-.719-2.629,2.537,2.537,0,0,0-2.1-.895Zm14.9,4.547h-4.5v3.047h5.281V17H147.34V5.625h7.609v1.9h-5.266v2.711h4.5ZM162.816,17h-2.344V5.625h2.344Zm11.422,0h-2.344l-4.562-7.484V17h-2.344V5.625h2.344l4.57,7.5v-7.5h2.336Zm8.891-4.648h-4.5V17h-2.344V5.625h7.406v1.9h-5.062v2.938h4.5Zm11.266-.781a6.867,6.867,0,0,1-.594,2.945,4.471,4.471,0,0,1-1.7,1.953,5.021,5.021,0,0,1-5.059.008,4.515,4.515,0,0,1-1.719-1.941,6.67,6.67,0,0,1-.617-2.9V11.07a6.831,6.831,0,0,1,.605-2.957,4.508,4.508,0,0,1,1.711-1.961,5.014,5.014,0,0,1,5.055,0,4.508,4.508,0,0,1,1.711,1.961,6.811,6.811,0,0,1,.605,2.949Zm-2.375-.516a4.787,4.787,0,0,0-.641-2.719,2.263,2.263,0,0,0-3.648-.012,4.732,4.732,0,0,0-.648,2.691v.555a4.847,4.847,0,0,0,.641,2.7,2.243,2.243,0,0,0,3.656.035,4.819,4.819,0,0,0,.641-2.7Zm8.289,1.781h-1.867V17H196.1V5.625h4.227a4.778,4.778,0,0,1,3.109.9,3.1,3.1,0,0,1,1.094,2.539,3.5,3.5,0,0,1-.5,1.941,3.437,3.437,0,0,1-1.527,1.238l2.461,4.648V17h-2.516Zm-1.867-1.9h1.891a1.936,1.936,0,0,0,1.367-.449,1.606,1.606,0,0,0,.484-1.238,1.719,1.719,0,0,0-.457-1.266,1.9,1.9,0,0,0-1.4-.461h-1.883Zm10.93-5.312,2.922,8.25,2.906-8.25h3.078V17h-2.352V13.891l.234-5.367L213.09,17H211.48l-3.062-8.469.234,5.359V17h-2.344V5.625Zm17.375,9.031h-4.109L221.855,17h-2.492L223.6,5.625h2.172L230.027,17h-2.492Zm-3.477-1.9h2.844L224.684,8.5Zm16.75.453a4.025,4.025,0,0,1-1.355,2.891,4.76,4.76,0,0,1-3.223,1.055A4.281,4.281,0,0,1,232,15.684a6.038,6.038,0,0,1-1.254-4.043v-.7a6.819,6.819,0,0,1,.578-2.891,4.332,4.332,0,0,1,1.652-1.918,5.164,5.164,0,0,1,5.668.387,4.326,4.326,0,0,1,1.391,2.961h-2.344a2.376,2.376,0,0,0-.613-1.6,2.271,2.271,0,0,0-1.605-.5,1.991,1.991,0,0,0-1.754.84,4.707,4.707,0,0,0-.6,2.605V11.7a5.038,5.038,0,0,0,.559,2.7,1.954,1.954,0,0,0,1.762.852,2.314,2.314,0,0,0,1.621-.5,2.241,2.241,0,0,0,.613-1.535ZM244.051,17h-2.344V5.625h2.344Zm11.516-5.43a6.867,6.867,0,0,1-.594,2.945,4.471,4.471,0,0,1-1.7,1.953,5.021,5.021,0,0,1-5.059.008,4.515,4.515,0,0,1-1.719-1.941,6.67,6.67,0,0,1-.617-2.9V11.07a6.831,6.831,0,0,1,.605-2.957A4.508,4.508,0,0,1,248.2,6.152a5.014,5.014,0,0,1,5.055,0,4.508,4.508,0,0,1,1.711,1.961,6.811,6.811,0,0,1,.605,2.949Zm-2.375-.516a4.787,4.787,0,0,0-.641-2.719,2.263,2.263,0,0,0-3.648-.012,4.732,4.732,0,0,0-.648,2.691v.555a4.847,4.847,0,0,0,.641,2.7,2.243,2.243,0,0,0,3.656.035,4.819,4.819,0,0,0,.641-2.7Zm-2.016-8.477h2.461L251.473,5h-1.836ZM266.52,17h-2.344l-4.562-7.484V17H257.27V5.625h2.344l4.57,7.5v-7.5h2.336Z" transform="translate(974 1555.995)" fill="#12263f"/>
    <rect id="Rectángulo_295335" data-name="Rectángulo 295335" width="1030" height="34.402" transform="translate(285 1666.234)" fill="#edf6e4"/>
    <line id="Línea_1186" data-name="Línea 1186" x2="1027.831" transform="translate(286.085 1701.234)" fill="none" stroke="#707070" stroke-width="1"/>
    <path id="Trazado_201748" data-name="Trazado 201748" d="M0,0H1027.83" transform="translate(286.085 1665.61)" fill="none" stroke="#707070" stroke-width="1"/>
    <g id="Trazado_200446" data-name="Trazado 200446" transform="translate(285.171 1264)" fill="none">
      <path d="M0,0H1029.659V627.227H0Z" stroke="none"/>
      <path d="M 3 2.99993896484375 L 3 624.2265014648438 L 1026.658935546875 624.2265014648438 L 1026.658935546875 2.99993896484375 L 3 2.99993896484375 M 0 -6.103515625e-05 L 1029.658935546875 -6.103515625e-05 L 1029.658935546875 627.2265014648438 L 0 627.2265014648438 L 0 -6.103515625e-05 Z" stroke="none" fill="#75b62f"/>
    </g>
    <path id="Trazado_204737" data-name="Trazado 204737" d="M151.711,5.625l2.922,8.25,2.906-8.25h3.078V17h-2.352V13.891l.234-5.367L155.43,17H153.82l-3.062-8.469.234,5.359V17h-2.344V5.625Zm17.8,6.445h-4.5v3.047h5.281V17h-7.625V5.625h7.609v1.9h-5.266v2.711h4.5Zm10.875-4.547H176.9V17h-2.344V7.523h-3.437v-1.9h9.266Zm6.82,7.133h-4.109L182.313,17H179.82l4.234-11.375h2.172L190.484,17h-2.492Zm-3.477-1.9h2.844L185.141,8.5Zm13.719,1.258a1.2,1.2,0,0,0-.469-1.02,6.148,6.148,0,0,0-1.687-.75,11.962,11.962,0,0,1-1.93-.777,3.153,3.153,0,0,1-1.937-2.82A2.747,2.747,0,0,1,191.941,7a3.389,3.389,0,0,1,1.492-1.129,5.616,5.616,0,0,1,2.184-.406,5.112,5.112,0,0,1,2.172.441,3.458,3.458,0,0,1,1.48,1.246,3.261,3.261,0,0,1,.527,1.828h-2.344a1.534,1.534,0,0,0-.492-1.215,2.023,2.023,0,0,0-1.383-.434,2.162,2.162,0,0,0-1.336.363,1.146,1.146,0,0,0-.477.957,1.1,1.1,0,0,0,.559.93,6.311,6.311,0,0,0,1.645.7,7.106,7.106,0,0,1,2.914,1.492A2.972,2.972,0,0,1,199.8,14a2.737,2.737,0,0,1-1.117,2.316,4.891,4.891,0,0,1-3.008.84,5.808,5.808,0,0,1-2.391-.48,3.783,3.783,0,0,1-1.645-1.316,3.371,3.371,0,0,1-.566-1.937h2.352q0,1.883,2.25,1.883a2.189,2.189,0,0,0,1.3-.34A1.106,1.106,0,0,0,197.445,14.016Z" transform="translate(626 1674.611)" fill="#12263f"/>
    <path id="Trazado_204740" data-name="Trazado 204740" d="M57.432,5.625l2.922,8.25,2.906-8.25h3.078V17H63.986V13.891l.234-5.367L61.15,17H59.541L56.479,8.531l.234,5.359V17H54.369V5.625ZM70.877,17H68.533V5.625h2.344ZM70.15,2.555h2.461L70.447,4.977H68.611ZM82.3,17H79.955L75.393,9.516V17H73.049V5.625h2.344l4.57,7.5v-7.5H82.3Zm4.539,0H84.494V5.625h2.344ZM92.072,5.625l2.922,8.25L97.9,5.625h3.078V17H98.627V13.891l.234-5.367L95.791,17H94.182L91.119,8.531l.234,5.359V17H89.01V5.625Zm17.375,9.031h-4.109L104.557,17h-2.492L106.3,5.625h2.172L112.729,17h-2.492Zm-3.477-1.9h2.844L107.385,8.5Z" transform="translate(285 1710.034)" fill="#12263f"/>
    <path id="Trazado_204739" data-name="Trazado 204739" d="M36.547,7.813a2.249,2.249,0,0,1,.68-1.7,2.465,2.465,0,0,1,1.781-.652,2.5,2.5,0,0,1,1.8.645,2.292,2.292,0,0,1,.68,1.746v.563a2.221,2.221,0,0,1-.68,1.7,2.806,2.806,0,0,1-3.574,0,2.275,2.275,0,0,1-.684-1.738Zm1.5.6a1.053,1.053,0,0,0,.27.754.928.928,0,0,0,.707.285.885.885,0,0,0,.7-.289,1.119,1.119,0,0,0,.258-.773V7.813a1.1,1.1,0,0,0-.258-.758,1,1,0,0,0-1.406,0,1.119,1.119,0,0,0-.266.793Zm3.938,5.8a2.22,2.22,0,0,1,.688-1.7,2.5,2.5,0,0,1,1.781-.645,2.525,2.525,0,0,1,1.793.637,2.279,2.279,0,0,1,.684,1.754v.563a2.237,2.237,0,0,1-.672,1.691,2.476,2.476,0,0,1-1.789.645,2.506,2.506,0,0,1-1.8-.648,2.265,2.265,0,0,1-.68-1.719Zm1.5.609a1.044,1.044,0,0,0,.281.734.917.917,0,0,0,.7.3q.953,0,.953-1.055v-.594a1.062,1.062,0,0,0-.266-.754,1.009,1.009,0,0,0-1.406,0,1.1,1.1,0,0,0-.266.777Zm-4.016,1.328-1.1-.594,5.555-8.891,1.1.594Zm15.117-7.6.07.945a2.971,2.971,0,0,1,2.43-1.1A2.255,2.255,0,0,1,59.328,9.68a2.9,2.9,0,0,1,2.539-1.289,2.521,2.521,0,0,1,2.047.8,3.681,3.681,0,0,1,.672,2.41V17H62.32V11.609a1.61,1.61,0,0,0-.281-1.051,1.246,1.246,0,0,0-.992-.332,1.409,1.409,0,0,0-1.406.969l.008,5.8H57.391V11.617a1.59,1.59,0,0,0-.289-1.062,1.259,1.259,0,0,0-.984-.328,1.463,1.463,0,0,0-1.391.8V17H52.469V8.547ZM68.7,17H66.438V8.547H68.7ZM66.3,6.359a1.112,1.112,0,0,1,.34-.836,1.465,1.465,0,0,1,1.848,0,1.105,1.105,0,0,1,.344.836,1.108,1.108,0,0,1-.348.844,1.448,1.448,0,0,1-1.836,0A1.108,1.108,0,0,1,66.3,6.359Zm6.336,2.188.07.977a2.951,2.951,0,0,1,2.43-1.133,2.453,2.453,0,0,1,2,.789,3.682,3.682,0,0,1,.672,2.359V17H75.555V11.594a1.465,1.465,0,0,0-.312-1.043,1.4,1.4,0,0,0-1.039-.324,1.553,1.553,0,0,0-1.43.813V17H70.516V8.547ZM87.9,13.039H83.5v-1.82h4.4ZM93.57,7.813a2.249,2.249,0,0,1,.68-1.7,2.465,2.465,0,0,1,1.781-.652,2.5,2.5,0,0,1,1.8.645,2.292,2.292,0,0,1,.68,1.746v.563a2.221,2.221,0,0,1-.68,1.7,2.806,2.806,0,0,1-3.574,0,2.275,2.275,0,0,1-.684-1.738Zm1.5.6a1.053,1.053,0,0,0,.27.754.928.928,0,0,0,.707.285.885.885,0,0,0,.7-.289A1.119,1.119,0,0,0,97,8.391V7.813a1.1,1.1,0,0,0-.258-.758,1,1,0,0,0-1.406,0,1.119,1.119,0,0,0-.266.793Zm3.938,5.8a2.22,2.22,0,0,1,.688-1.7,2.5,2.5,0,0,1,1.781-.645,2.525,2.525,0,0,1,1.793.637,2.279,2.279,0,0,1,.684,1.754v.563a2.237,2.237,0,0,1-.672,1.691,2.476,2.476,0,0,1-1.789.645,2.506,2.506,0,0,1-1.8-.648,2.265,2.265,0,0,1-.68-1.719Zm1.5.609a1.044,1.044,0,0,0,.281.734.917.917,0,0,0,.7.3q.953,0,.953-1.055v-.594a1.062,1.062,0,0,0-.266-.754,1.009,1.009,0,0,0-1.406,0,1.1,1.1,0,0,0-.266.777Zm-4.016,1.328-1.1-.594,5.555-8.891,1.1.594Zm15.117-7.6.07.945a2.971,2.971,0,0,1,2.43-1.1,2.255,2.255,0,0,1,2.242,1.289,2.9,2.9,0,0,1,2.539-1.289,2.521,2.521,0,0,1,2.047.8,3.681,3.681,0,0,1,.672,2.41V17h-2.266V11.609a1.61,1.61,0,0,0-.281-1.051,1.246,1.246,0,0,0-.992-.332,1.409,1.409,0,0,0-1.406.969l.008,5.8h-2.258V11.617a1.59,1.59,0,0,0-.289-1.062,1.259,1.259,0,0,0-.984-.328,1.463,1.463,0,0,0-1.391.8V17h-2.258V8.547ZM128.242,17a2.507,2.507,0,0,1-.227-.758,2.732,2.732,0,0,1-2.133.914,3,3,0,0,1-2.059-.719,2.312,2.312,0,0,1-.816-1.812,2.389,2.389,0,0,1,1-2.062,4.915,4.915,0,0,1,2.879-.727h1.039v-.484a1.393,1.393,0,0,0-.3-.937,1.183,1.183,0,0,0-.949-.352,1.345,1.345,0,0,0-.895.273.929.929,0,0,0-.324.75H123.2a2.268,2.268,0,0,1,.453-1.359,3,3,0,0,1,1.281-.98,4.669,4.669,0,0,1,1.859-.355,3.689,3.689,0,0,1,2.48.785,2.747,2.747,0,0,1,.918,2.207v3.664a4.041,4.041,0,0,0,.336,1.82V17Zm-1.867-1.57a1.945,1.945,0,0,0,.922-.223,1.462,1.462,0,0,0,.625-.6V13.156h-.844q-1.7,0-1.8,1.172l-.008.133a.9.9,0,0,0,.3.7A1.153,1.153,0,0,0,126.375,15.43Zm8.766-4.359,1.422-2.523h2.414l-2.406,4.141L139.078,17h-2.422l-1.508-2.656L133.648,17h-2.43l2.508-4.312-2.4-4.141h2.422Z" transform="translate(451 1710.034)" fill="#12263f"/>
    <path id="Trazado_204738" data-name="Trazado 204738" d="M35.063,14.016A1.2,1.2,0,0,0,34.594,13a6.148,6.148,0,0,0-1.687-.75,11.963,11.963,0,0,1-1.93-.777,3.153,3.153,0,0,1-1.937-2.82A2.747,2.747,0,0,1,29.559,7a3.389,3.389,0,0,1,1.492-1.129,5.616,5.616,0,0,1,2.184-.406,5.112,5.112,0,0,1,2.172.441,3.458,3.458,0,0,1,1.48,1.246,3.261,3.261,0,0,1,.527,1.828H35.07a1.534,1.534,0,0,0-.492-1.215A2.023,2.023,0,0,0,33.2,7.336a2.162,2.162,0,0,0-1.336.363,1.146,1.146,0,0,0-.477.957,1.1,1.1,0,0,0,.559.93,6.311,6.311,0,0,0,1.645.7A7.106,7.106,0,0,1,36.5,11.781,2.972,2.972,0,0,1,37.414,14,2.737,2.737,0,0,1,36.3,16.316a4.891,4.891,0,0,1-3.008.84,5.808,5.808,0,0,1-2.391-.48,3.783,3.783,0,0,1-1.645-1.316,3.371,3.371,0,0,1-.566-1.937h2.352q0,1.883,2.25,1.883a2.189,2.189,0,0,0,1.3-.34A1.106,1.106,0,0,0,35.063,14.016Zm10.359.641H41.313L40.531,17H38.039L42.273,5.625h2.172L48.7,17H46.211Zm-3.477-1.9h2.844L43.359,8.5ZM57.391,7.523H53.906V17H51.563V7.523H48.125v-1.9h9.266ZM61.219,17H58.875V5.625h2.344Zm8.07-2.984A1.2,1.2,0,0,0,68.82,13a6.148,6.148,0,0,0-1.687-.75,11.963,11.963,0,0,1-1.93-.777,3.153,3.153,0,0,1-1.937-2.82A2.747,2.747,0,0,1,63.785,7a3.389,3.389,0,0,1,1.492-1.129,5.616,5.616,0,0,1,2.184-.406,5.112,5.112,0,0,1,2.172.441,3.458,3.458,0,0,1,1.48,1.246,3.261,3.261,0,0,1,.527,1.828H69.3A1.534,1.534,0,0,0,68.8,7.77a2.023,2.023,0,0,0-1.383-.434,2.162,2.162,0,0,0-1.336.363,1.146,1.146,0,0,0-.477.957,1.1,1.1,0,0,0,.559.93,6.311,6.311,0,0,0,1.645.7,7.106,7.106,0,0,1,2.914,1.492A2.972,2.972,0,0,1,71.641,14a2.737,2.737,0,0,1-1.117,2.316,4.891,4.891,0,0,1-3.008.84,5.808,5.808,0,0,1-2.391-.48,3.783,3.783,0,0,1-1.645-1.316,3.371,3.371,0,0,1-.566-1.937h2.352q0,1.883,2.25,1.883a2.189,2.189,0,0,0,1.3-.34A1.106,1.106,0,0,0,69.289,14.016ZM80.07,12.352h-4.5V17H73.227V5.625h7.406v1.9H75.57v2.938h4.5Zm6.844,2.3H82.8L82.023,17H79.531L83.766,5.625h2.172L90.2,17H87.7Zm-3.477-1.9h2.844L84.852,8.5Zm16.75.453A4.025,4.025,0,0,1,98.832,16.1a4.76,4.76,0,0,1-3.223,1.055,4.28,4.28,0,0,1-3.441-1.473,6.038,6.038,0,0,1-1.254-4.043v-.7a6.819,6.819,0,0,1,.578-2.891,4.332,4.332,0,0,1,1.652-1.918,5.164,5.164,0,0,1,5.668.387A4.326,4.326,0,0,1,100.2,9.484H97.859a2.376,2.376,0,0,0-.613-1.6,2.271,2.271,0,0,0-1.605-.5,1.991,1.991,0,0,0-1.754.84,4.707,4.707,0,0,0-.6,2.605V11.7a5.038,5.038,0,0,0,.559,2.7,1.954,1.954,0,0,0,1.762.852,2.314,2.314,0,0,0,1.621-.5,2.241,2.241,0,0,0,.613-1.535Zm9.875-5.687h-3.484V17h-2.344V7.523H100.8v-1.9h9.266Zm10.461,4.047a6.867,6.867,0,0,1-.594,2.945,4.472,4.472,0,0,1-1.7,1.953,5.021,5.021,0,0,1-5.059.008,4.515,4.515,0,0,1-1.719-1.941,6.67,6.67,0,0,1-.617-2.9V11.07a6.831,6.831,0,0,1,.605-2.957,4.508,4.508,0,0,1,1.711-1.961,5.014,5.014,0,0,1,5.055,0,4.508,4.508,0,0,1,1.711,1.961,6.811,6.811,0,0,1,.605,2.949Zm-2.375-.516a4.787,4.787,0,0,0-.641-2.719,2.263,2.263,0,0,0-3.648-.012,4.732,4.732,0,0,0-.648,2.691v.555a4.847,4.847,0,0,0,.641,2.7,2.243,2.243,0,0,0,3.656.035,4.819,4.819,0,0,0,.641-2.7Zm8.289,1.781H124.57V17h-2.344V5.625h4.227a4.778,4.778,0,0,1,3.109.9,3.1,3.1,0,0,1,1.094,2.539,3.5,3.5,0,0,1-.5,1.941,3.437,3.437,0,0,1-1.527,1.238l2.461,4.648V17H128.57Zm-1.867-1.9h1.891a1.936,1.936,0,0,0,1.367-.449,1.606,1.606,0,0,0,.484-1.238,1.719,1.719,0,0,0-.457-1.266,1.9,1.9,0,0,0-1.4-.461H124.57ZM134.93,17h-2.344V5.625h2.344Zm8.594-2.344h-4.109L138.633,17h-2.492l4.234-11.375h2.172L146.8,17h-2.492Zm-3.477-1.9h2.844L141.461,8.5Z" transform="translate(625 1710.034)" fill="#12263f"/>
    <path id="Trazado_204736" data-name="Trazado 204736" d="M36.547,7.813a2.249,2.249,0,0,1,.68-1.7,2.465,2.465,0,0,1,1.781-.652,2.5,2.5,0,0,1,1.8.645,2.292,2.292,0,0,1,.68,1.746v.563a2.221,2.221,0,0,1-.68,1.7,2.806,2.806,0,0,1-3.574,0,2.275,2.275,0,0,1-.684-1.738Zm1.5.6a1.053,1.053,0,0,0,.27.754.928.928,0,0,0,.707.285.885.885,0,0,0,.7-.289,1.119,1.119,0,0,0,.258-.773V7.813a1.1,1.1,0,0,0-.258-.758,1,1,0,0,0-1.406,0,1.119,1.119,0,0,0-.266.793Zm3.938,5.8a2.22,2.22,0,0,1,.688-1.7,2.5,2.5,0,0,1,1.781-.645,2.525,2.525,0,0,1,1.793.637,2.279,2.279,0,0,1,.684,1.754v.563a2.237,2.237,0,0,1-.672,1.691,2.476,2.476,0,0,1-1.789.645,2.506,2.506,0,0,1-1.8-.648,2.265,2.265,0,0,1-.68-1.719Zm1.5.609a1.044,1.044,0,0,0,.281.734.917.917,0,0,0,.7.3q.953,0,.953-1.055v-.594a1.062,1.062,0,0,0-.266-.754,1.009,1.009,0,0,0-1.406,0,1.1,1.1,0,0,0-.266.777Zm-4.016,1.328-1.1-.594,5.555-8.891,1.1.594Zm15.117-7.6.07.945a2.971,2.971,0,0,1,2.43-1.1A2.255,2.255,0,0,1,59.328,9.68a2.9,2.9,0,0,1,2.539-1.289,2.521,2.521,0,0,1,2.047.8,3.681,3.681,0,0,1,.672,2.41V17H62.32V11.609a1.61,1.61,0,0,0-.281-1.051,1.246,1.246,0,0,0-.992-.332,1.409,1.409,0,0,0-1.406.969l.008,5.8H57.391V11.617a1.59,1.59,0,0,0-.289-1.062,1.259,1.259,0,0,0-.984-.328,1.463,1.463,0,0,0-1.391.8V17H52.469V8.547ZM68.7,17H66.438V8.547H68.7ZM66.3,6.359a1.112,1.112,0,0,1,.34-.836,1.465,1.465,0,0,1,1.848,0,1.105,1.105,0,0,1,.344.836,1.108,1.108,0,0,1-.348.844,1.448,1.448,0,0,1-1.836,0A1.108,1.108,0,0,1,66.3,6.359Zm6.336,2.188.07.977a2.951,2.951,0,0,1,2.43-1.133,2.453,2.453,0,0,1,2,.789,3.682,3.682,0,0,1,.672,2.359V17H75.555V11.594a1.465,1.465,0,0,0-.312-1.043,1.4,1.4,0,0,0-1.039-.324,1.553,1.553,0,0,0-1.43.813V17H70.516V8.547ZM87.9,13.039H83.5v-1.82h4.4ZM93.57,7.813a2.249,2.249,0,0,1,.68-1.7,2.465,2.465,0,0,1,1.781-.652,2.5,2.5,0,0,1,1.8.645,2.292,2.292,0,0,1,.68,1.746v.563a2.221,2.221,0,0,1-.68,1.7,2.806,2.806,0,0,1-3.574,0,2.275,2.275,0,0,1-.684-1.738Zm1.5.6a1.053,1.053,0,0,0,.27.754.928.928,0,0,0,.707.285.885.885,0,0,0,.7-.289A1.119,1.119,0,0,0,97,8.391V7.813a1.1,1.1,0,0,0-.258-.758,1,1,0,0,0-1.406,0,1.119,1.119,0,0,0-.266.793Zm3.938,5.8a2.22,2.22,0,0,1,.688-1.7,2.5,2.5,0,0,1,1.781-.645,2.525,2.525,0,0,1,1.793.637,2.279,2.279,0,0,1,.684,1.754v.563a2.237,2.237,0,0,1-.672,1.691,2.476,2.476,0,0,1-1.789.645,2.506,2.506,0,0,1-1.8-.648,2.265,2.265,0,0,1-.68-1.719Zm1.5.609a1.044,1.044,0,0,0,.281.734.917.917,0,0,0,.7.3q.953,0,.953-1.055v-.594a1.062,1.062,0,0,0-.266-.754,1.009,1.009,0,0,0-1.406,0,1.1,1.1,0,0,0-.266.777Zm-4.016,1.328-1.1-.594,5.555-8.891,1.1.594Zm15.117-7.6.07.945a2.971,2.971,0,0,1,2.43-1.1,2.255,2.255,0,0,1,2.242,1.289,2.9,2.9,0,0,1,2.539-1.289,2.521,2.521,0,0,1,2.047.8,3.681,3.681,0,0,1,.672,2.41V17h-2.266V11.609a1.61,1.61,0,0,0-.281-1.051,1.246,1.246,0,0,0-.992-.332,1.409,1.409,0,0,0-1.406.969l.008,5.8h-2.258V11.617a1.59,1.59,0,0,0-.289-1.062,1.259,1.259,0,0,0-.984-.328,1.463,1.463,0,0,0-1.391.8V17h-2.258V8.547ZM128.242,17a2.507,2.507,0,0,1-.227-.758,2.732,2.732,0,0,1-2.133.914,3,3,0,0,1-2.059-.719,2.312,2.312,0,0,1-.816-1.812,2.389,2.389,0,0,1,1-2.062,4.915,4.915,0,0,1,2.879-.727h1.039v-.484a1.393,1.393,0,0,0-.3-.937,1.183,1.183,0,0,0-.949-.352,1.345,1.345,0,0,0-.895.273.929.929,0,0,0-.324.75H123.2a2.268,2.268,0,0,1,.453-1.359,3,3,0,0,1,1.281-.98,4.669,4.669,0,0,1,1.859-.355,3.689,3.689,0,0,1,2.48.785,2.747,2.747,0,0,1,.918,2.207v3.664a4.041,4.041,0,0,0,.336,1.82V17Zm-1.867-1.57a1.945,1.945,0,0,0,.922-.223,1.462,1.462,0,0,0,.625-.6V13.156h-.844q-1.7,0-1.8,1.172l-.008.133a.9.9,0,0,0,.3.7A1.153,1.153,0,0,0,126.375,15.43Zm8.766-4.359,1.422-2.523h2.414l-2.406,4.141L139.078,17h-2.422l-1.508-2.656L133.648,17h-2.43l2.508-4.312-2.4-4.141h2.422Z" transform="translate(800 1710.034)" fill="#12263f"/>
    <path id="Trazado_204735" data-name="Trazado 204735" d="M31.719,14.016A1.2,1.2,0,0,0,31.251,13a6.148,6.148,0,0,0-1.687-.75,11.963,11.963,0,0,1-1.93-.777A3.153,3.153,0,0,1,25.7,8.648,2.747,2.747,0,0,1,26.216,7a3.389,3.389,0,0,1,1.492-1.129,5.616,5.616,0,0,1,2.184-.406,5.112,5.112,0,0,1,2.172.441,3.458,3.458,0,0,1,1.48,1.246,3.261,3.261,0,0,1,.527,1.828H31.727a1.534,1.534,0,0,0-.492-1.215,2.023,2.023,0,0,0-1.383-.434,2.162,2.162,0,0,0-1.336.363,1.146,1.146,0,0,0-.477.957,1.1,1.1,0,0,0,.559.93,6.311,6.311,0,0,0,1.645.7,7.106,7.106,0,0,1,2.914,1.492A2.972,2.972,0,0,1,34.071,14a2.737,2.737,0,0,1-1.117,2.316,4.891,4.891,0,0,1-3.008.84,5.808,5.808,0,0,1-2.391-.48,3.783,3.783,0,0,1-1.645-1.316,3.371,3.371,0,0,1-.566-1.937H27.7q0,1.883,2.25,1.883a2.189,2.189,0,0,0,1.3-.34A1.106,1.106,0,0,0,31.719,14.016ZM45,11.57a6.867,6.867,0,0,1-.594,2.945,4.472,4.472,0,0,1-1.7,1.953,5.021,5.021,0,0,1-5.059.008,4.515,4.515,0,0,1-1.719-1.941,6.67,6.67,0,0,1-.617-2.9V11.07a6.831,6.831,0,0,1,.605-2.957A4.508,4.508,0,0,1,37.63,6.152a5.014,5.014,0,0,1,5.055,0A4.508,4.508,0,0,1,44.4,8.113,6.811,6.811,0,0,1,45,11.063Zm-2.375-.516a4.787,4.787,0,0,0-.641-2.719,2.263,2.263,0,0,0-3.648-.012,4.732,4.732,0,0,0-.648,2.691v.555a4.847,4.847,0,0,0,.641,2.7,2.243,2.243,0,0,0,3.656.035,4.819,4.819,0,0,0,.641-2.7ZM46.7,17V5.625h3.984a5.232,5.232,0,0,1,3.141.793A2.712,2.712,0,0,1,54.9,8.742a2.57,2.57,0,0,1-.43,1.473,2.482,2.482,0,0,1-1.2.934,2.4,2.4,0,0,1,1.379.883,2.61,2.61,0,0,1,.5,1.625,3,3,0,0,1-1.047,2.484A4.713,4.713,0,0,1,51.126,17Zm2.344-4.953v3.07h2.008a1.938,1.938,0,0,0,1.293-.395,1.353,1.353,0,0,0,.465-1.09A1.428,1.428,0,0,0,51.2,12.047Zm0-1.656h1.734q1.773-.031,1.773-1.414a1.307,1.307,0,0,0-.449-1.113,2.363,2.363,0,0,0-1.418-.34H49.048Zm12.078,2.445H59.258V17H56.915V5.625h4.227a4.778,4.778,0,0,1,3.109.9,3.1,3.1,0,0,1,1.094,2.539,3.5,3.5,0,0,1-.5,1.941,3.437,3.437,0,0,1-1.527,1.238l2.461,4.648V17H63.258Zm-1.867-1.9h1.891a1.936,1.936,0,0,0,1.367-.449A1.606,1.606,0,0,0,63,9.25a1.719,1.719,0,0,0-.457-1.266,1.9,1.9,0,0,0-1.4-.461H59.258ZM73.969,12.07h-4.5v3.047h5.281V17H67.126V5.625h7.609v1.9H69.469v2.711h4.5Zm8.055,1.945A1.2,1.2,0,0,0,81.555,13a6.148,6.148,0,0,0-1.687-.75,11.963,11.963,0,0,1-1.93-.777A3.153,3.153,0,0,1,76,8.648,2.747,2.747,0,0,1,76.52,7a3.389,3.389,0,0,1,1.492-1.129A5.616,5.616,0,0,1,80.2,5.469a5.112,5.112,0,0,1,2.172.441,3.458,3.458,0,0,1,1.48,1.246,3.261,3.261,0,0,1,.527,1.828H82.032A1.534,1.534,0,0,0,81.54,7.77a2.023,2.023,0,0,0-1.383-.434,2.162,2.162,0,0,0-1.336.363,1.146,1.146,0,0,0-.477.957,1.1,1.1,0,0,0,.559.93,6.311,6.311,0,0,0,1.645.7,7.106,7.106,0,0,1,2.914,1.492A2.972,2.972,0,0,1,84.376,14a2.737,2.737,0,0,1-1.117,2.316,4.891,4.891,0,0,1-3.008.84,5.808,5.808,0,0,1-2.391-.48,3.783,3.783,0,0,1-1.645-1.316,3.371,3.371,0,0,1-.566-1.937H78q0,1.883,2.25,1.883a2.189,2.189,0,0,0,1.3-.34A1.106,1.106,0,0,0,82.024,14.016Zm10.359.641H88.274L87.493,17H85L89.235,5.625h2.172L95.665,17H93.173Zm-3.477-1.9h2.844L90.321,8.5Zm10.164,2.359h4.977V17h-7.32V5.625h2.344ZM107.883,17H105.54V5.625h2.344Zm9.016-4.93h-4.5v3.047h5.281V17h-7.625V5.625h7.609v1.9H112.4v2.711h4.5ZM128.305,17h-2.344L121.4,9.516V17h-2.344V5.625H121.4l4.57,7.5v-7.5h2.336Zm10.609-9.477H135.43V17h-2.344V7.523h-3.437v-1.9h9.266Zm8.18,4.547h-4.5v3.047h5.281V17h-7.625V5.625h7.609v1.9h-5.266v2.711h4.5Z" transform="translate(975 1710.034)" fill="#12263f"/>
    <path id="Trazado_204734" data-name="Trazado 204734" d="M32.547,7.813a2.249,2.249,0,0,1,.68-1.7,2.465,2.465,0,0,1,1.781-.652,2.5,2.5,0,0,1,1.8.645,2.292,2.292,0,0,1,.68,1.746v.563a2.221,2.221,0,0,1-.68,1.7,2.806,2.806,0,0,1-3.574,0,2.275,2.275,0,0,1-.684-1.738Zm1.5.6a1.053,1.053,0,0,0,.27.754.928.928,0,0,0,.707.285.885.885,0,0,0,.7-.289,1.119,1.119,0,0,0,.258-.773V7.813a1.1,1.1,0,0,0-.258-.758,1,1,0,0,0-1.406,0,1.119,1.119,0,0,0-.266.793Zm3.938,5.8a2.22,2.22,0,0,1,.688-1.7,2.5,2.5,0,0,1,1.781-.645,2.525,2.525,0,0,1,1.793.637,2.279,2.279,0,0,1,.684,1.754v.563a2.237,2.237,0,0,1-.672,1.691,2.476,2.476,0,0,1-1.789.645,2.506,2.506,0,0,1-1.8-.648,2.265,2.265,0,0,1-.68-1.719Zm1.5.609a1.044,1.044,0,0,0,.281.734.917.917,0,0,0,.7.3q.953,0,.953-1.055v-.594a1.062,1.062,0,0,0-.266-.754,1.009,1.009,0,0,0-1.406,0,1.1,1.1,0,0,0-.266.777Zm-4.016,1.328-1.1-.594,5.555-8.891,1.1.594Zm15.117-7.6.07.945a2.971,2.971,0,0,1,2.43-1.1A2.255,2.255,0,0,1,55.328,9.68a2.9,2.9,0,0,1,2.539-1.289,2.521,2.521,0,0,1,2.047.8,3.681,3.681,0,0,1,.672,2.41V17H58.32V11.609a1.61,1.61,0,0,0-.281-1.051,1.246,1.246,0,0,0-.992-.332,1.409,1.409,0,0,0-1.406.969l.008,5.8H53.391V11.617a1.59,1.59,0,0,0-.289-1.062,1.259,1.259,0,0,0-.984-.328,1.463,1.463,0,0,0-1.391.8V17H48.469V8.547ZM64.7,17H62.438V8.547H64.7ZM62.3,6.359a1.112,1.112,0,0,1,.34-.836,1.465,1.465,0,0,1,1.848,0,1.105,1.105,0,0,1,.344.836,1.108,1.108,0,0,1-.348.844,1.448,1.448,0,0,1-1.836,0A1.108,1.108,0,0,1,62.3,6.359Zm6.336,2.188.07.977a2.951,2.951,0,0,1,2.43-1.133,2.453,2.453,0,0,1,2,.789,3.682,3.682,0,0,1,.672,2.359V17H71.555V11.594a1.465,1.465,0,0,0-.312-1.043,1.4,1.4,0,0,0-1.039-.324,1.553,1.553,0,0,0-1.43.813V17H66.516V8.547ZM83.9,13.039H79.5v-1.82h4.4ZM89.57,7.813a2.249,2.249,0,0,1,.68-1.7,2.465,2.465,0,0,1,1.781-.652,2.5,2.5,0,0,1,1.8.645,2.292,2.292,0,0,1,.68,1.746v.563a2.221,2.221,0,0,1-.68,1.7,2.806,2.806,0,0,1-3.574,0,2.275,2.275,0,0,1-.684-1.738Zm1.5.6a1.053,1.053,0,0,0,.27.754.928.928,0,0,0,.707.285.885.885,0,0,0,.7-.289A1.119,1.119,0,0,0,93,8.391V7.813a1.1,1.1,0,0,0-.258-.758,1,1,0,0,0-1.406,0,1.119,1.119,0,0,0-.266.793Zm3.938,5.8a2.22,2.22,0,0,1,.688-1.7,2.5,2.5,0,0,1,1.781-.645,2.525,2.525,0,0,1,1.793.637,2.279,2.279,0,0,1,.684,1.754v.563a2.237,2.237,0,0,1-.672,1.691,2.476,2.476,0,0,1-1.789.645,2.506,2.506,0,0,1-1.8-.648,2.265,2.265,0,0,1-.68-1.719Zm1.5.609a1.044,1.044,0,0,0,.281.734.917.917,0,0,0,.7.3q.953,0,.953-1.055v-.594a1.062,1.062,0,0,0-.266-.754,1.009,1.009,0,0,0-1.406,0,1.1,1.1,0,0,0-.266.777Zm-4.016,1.328-1.1-.594,5.555-8.891,1.1.594Zm15.117-7.6.07.945a2.971,2.971,0,0,1,2.43-1.1,2.255,2.255,0,0,1,2.242,1.289,2.9,2.9,0,0,1,2.539-1.289,2.521,2.521,0,0,1,2.047.8,3.681,3.681,0,0,1,.672,2.41V17h-2.266V11.609a1.61,1.61,0,0,0-.281-1.051,1.246,1.246,0,0,0-.992-.332,1.409,1.409,0,0,0-1.406.969l.008,5.8h-2.258V11.617a1.59,1.59,0,0,0-.289-1.062,1.259,1.259,0,0,0-.984-.328,1.463,1.463,0,0,0-1.391.8V17h-2.258V8.547ZM124.242,17a2.507,2.507,0,0,1-.227-.758,2.732,2.732,0,0,1-2.133.914,3,3,0,0,1-2.059-.719,2.312,2.312,0,0,1-.816-1.812,2.389,2.389,0,0,1,1-2.062,4.915,4.915,0,0,1,2.879-.727h1.039v-.484a1.393,1.393,0,0,0-.3-.937,1.183,1.183,0,0,0-.949-.352,1.345,1.345,0,0,0-.895.273.929.929,0,0,0-.324.75H119.2a2.268,2.268,0,0,1,.453-1.359,3,3,0,0,1,1.281-.98,4.669,4.669,0,0,1,1.859-.355,3.689,3.689,0,0,1,2.48.785,2.747,2.747,0,0,1,.918,2.207v3.664a4.041,4.041,0,0,0,.336,1.82V17Zm-1.867-1.57a1.945,1.945,0,0,0,.922-.223,1.462,1.462,0,0,0,.625-.6V13.156h-.844q-1.7,0-1.8,1.172l-.008.133a.9.9,0,0,0,.3.7A1.153,1.153,0,0,0,122.375,15.43Zm8.766-4.359,1.422-2.523h2.414l-2.406,4.141L135.078,17h-2.422l-1.508-2.656L129.648,17h-2.43l2.508-4.312-2.4-4.141h2.422Z" transform="translate(1148 1710.034)" fill="#12263f"/>
    <path id="Trazado_204741" data-name="Trazado 204741" d="M120.8,11.57a6.867,6.867,0,0,1-.594,2.945,4.472,4.472,0,0,1-1.7,1.953,5.021,5.021,0,0,1-5.059.008,4.515,4.515,0,0,1-1.719-1.941,6.67,6.67,0,0,1-.617-2.9V11.07a6.831,6.831,0,0,1,.605-2.957,4.508,4.508,0,0,1,1.711-1.961,5.014,5.014,0,0,1,5.055,0A4.508,4.508,0,0,1,120.2,8.113a6.811,6.811,0,0,1,.605,2.949Zm-2.375-.516a4.787,4.787,0,0,0-.641-2.719,2.263,2.263,0,0,0-3.648-.012,4.732,4.732,0,0,0-.648,2.691v.555a4.847,4.847,0,0,0,.641,2.7,2.243,2.243,0,0,0,3.656.035,4.819,4.819,0,0,0,.641-2.7ZM122.508,17V5.625h3.984a5.232,5.232,0,0,1,3.141.793,2.711,2.711,0,0,1,1.07,2.324,2.57,2.57,0,0,1-.43,1.473,2.482,2.482,0,0,1-1.2.934,2.4,2.4,0,0,1,1.379.883,2.61,2.61,0,0,1,.5,1.625,3,3,0,0,1-1.047,2.484A4.713,4.713,0,0,1,126.93,17Zm2.344-4.953v3.07h2.008a1.938,1.938,0,0,0,1.293-.395,1.353,1.353,0,0,0,.465-1.09A1.428,1.428,0,0,0,127,12.047Zm0-1.656h1.734q1.773-.031,1.773-1.414a1.307,1.307,0,0,0-.449-1.113,2.363,2.363,0,0,0-1.418-.34h-1.641Zm13.766,3.625a1.2,1.2,0,0,0-.469-1.02,6.148,6.148,0,0,0-1.687-.75,11.962,11.962,0,0,1-1.93-.777,3.153,3.153,0,0,1-1.937-2.82A2.747,2.747,0,0,1,133.113,7a3.389,3.389,0,0,1,1.492-1.129,5.616,5.616,0,0,1,2.184-.406,5.112,5.112,0,0,1,2.172.441,3.458,3.458,0,0,1,1.48,1.246,3.261,3.261,0,0,1,.527,1.828h-2.344a1.534,1.534,0,0,0-.492-1.215,2.023,2.023,0,0,0-1.383-.434,2.162,2.162,0,0,0-1.336.363,1.146,1.146,0,0,0-.477.957,1.1,1.1,0,0,0,.559.93,6.311,6.311,0,0,0,1.645.7,7.106,7.106,0,0,1,2.914,1.492A2.972,2.972,0,0,1,140.969,14a2.737,2.737,0,0,1-1.117,2.316,4.891,4.891,0,0,1-3.008.84,5.808,5.808,0,0,1-2.391-.48,3.783,3.783,0,0,1-1.645-1.316,3.371,3.371,0,0,1-.566-1.937h2.352q0,1.883,2.25,1.883a2.189,2.189,0,0,0,1.3-.34A1.106,1.106,0,0,0,138.617,14.016ZM149.4,12.07h-4.5v3.047h5.281V17h-7.625V5.625h7.609v1.9H144.9v2.711h4.5Zm6.367.766H153.9V17h-2.344V5.625h4.227a4.778,4.778,0,0,1,3.109.9,3.1,3.1,0,0,1,1.094,2.539,3.5,3.5,0,0,1-.5,1.941,3.437,3.437,0,0,1-1.527,1.238l2.461,4.648V17H157.9Zm-1.867-1.9h1.891a1.936,1.936,0,0,0,1.367-.449,1.606,1.606,0,0,0,.484-1.238,1.719,1.719,0,0,0-.457-1.266,1.9,1.9,0,0,0-1.4-.461H153.9ZM165.82,14.18,168.4,5.625h2.609L167.047,17H164.6L160.656,5.625h2.6Zm12.094.477H173.8L173.023,17h-2.492l4.234-11.375h2.172L181.2,17H178.7Zm-3.477-1.9h2.844L175.852,8.5Zm16.75.453a4.025,4.025,0,0,1-1.355,2.891,4.76,4.76,0,0,1-3.223,1.055,4.281,4.281,0,0,1-3.441-1.473,6.038,6.038,0,0,1-1.254-4.043v-.7a6.819,6.819,0,0,1,.578-2.891,4.332,4.332,0,0,1,1.652-1.918,5.164,5.164,0,0,1,5.668.387A4.326,4.326,0,0,1,191.2,9.484h-2.344a2.376,2.376,0,0,0-.613-1.6,2.271,2.271,0,0,0-1.605-.5,1.991,1.991,0,0,0-1.754.84,4.707,4.707,0,0,0-.6,2.605V11.7a5.038,5.038,0,0,0,.559,2.7,1.954,1.954,0,0,0,1.762.852,2.314,2.314,0,0,0,1.621-.5,2.241,2.241,0,0,0,.613-1.535ZM195.219,17h-2.344V5.625h2.344Zm11.516-5.43a6.867,6.867,0,0,1-.594,2.945,4.471,4.471,0,0,1-1.7,1.953,5.021,5.021,0,0,1-5.059.008,4.515,4.515,0,0,1-1.719-1.941,6.67,6.67,0,0,1-.617-2.9V11.07a6.831,6.831,0,0,1,.605-2.957,4.508,4.508,0,0,1,1.711-1.961,5.014,5.014,0,0,1,5.055,0,4.508,4.508,0,0,1,1.711,1.961,6.811,6.811,0,0,1,.605,2.949Zm-2.375-.516a4.787,4.787,0,0,0-.641-2.719,2.263,2.263,0,0,0-3.648-.012,4.732,4.732,0,0,0-.648,2.691v.555a4.847,4.847,0,0,0,.641,2.7,2.243,2.243,0,0,0,3.656.035,4.819,4.819,0,0,0,.641-2.7ZM217.688,17h-2.344l-4.562-7.484V17h-2.344V5.625h2.344l4.57,7.5v-7.5h2.336Zm8.891-4.93h-4.5v3.047h5.281V17h-7.625V5.625h7.609v1.9h-5.266v2.711h4.5Zm8.055,1.945a1.2,1.2,0,0,0-.469-1.02,6.148,6.148,0,0,0-1.687-.75,11.962,11.962,0,0,1-1.93-.777,3.153,3.153,0,0,1-1.937-2.82A2.747,2.747,0,0,1,229.129,7a3.389,3.389,0,0,1,1.492-1.129,5.616,5.616,0,0,1,2.184-.406,5.112,5.112,0,0,1,2.172.441,3.458,3.458,0,0,1,1.48,1.246,3.261,3.261,0,0,1,.527,1.828h-2.344a1.534,1.534,0,0,0-.492-1.215,2.023,2.023,0,0,0-1.383-.434,2.162,2.162,0,0,0-1.336.363,1.146,1.146,0,0,0-.477.957,1.1,1.1,0,0,0,.559.93,6.311,6.311,0,0,0,1.645.7,7.106,7.106,0,0,1,2.914,1.492A2.972,2.972,0,0,1,236.984,14a2.737,2.737,0,0,1-1.117,2.316,4.891,4.891,0,0,1-3.008.84,5.808,5.808,0,0,1-2.391-.48,3.783,3.783,0,0,1-1.645-1.316,3.371,3.371,0,0,1-.566-1.937h2.352q0,1.883,2.25,1.883a2.189,2.189,0,0,0,1.3-.34A1.106,1.106,0,0,0,234.633,14.016Z" transform="translate(626 1781.611)" fill="#12263f"/>
  </g>
</svg>
