<svg id="Grupo_150447" data-name="Grupo 150447" xmlns="http://www.w3.org/2000/svg" xmlns:xlink="http://www.w3.org/1999/xlink" width="855.008" height="660.671" viewBox="0 0 855.008 660.671">
  <defs>
    <clipPath id="clip-path">
      <rect id="Rectángulo_296266" data-name="Rectángulo 296266" width="855.008" height="660.671" fill="none"/>
    </clipPath>
    <clipPath id="clip-path-2">
      <rect id="Rectángulo_296265" data-name="Rectángulo 296265" width="143.701" height="39.532" transform="translate(396.159 304.302)" fill="none"/>
    </clipPath>
  </defs>
  <line id="Línea_1222" data-name="Línea 1222" x2="51.982" transform="translate(545.767 322.858)" fill="none" stroke="#12263f" stroke-miterlimit="10" stroke-width="0.963"/>
  <path id="Trazado_204671" data-name="Trazado 204671" d="M595.044,326.423l1.515-3.565-1.515-3.566,8.452,3.566Z" fill="#12263f"/>
  <line id="Línea_1223" data-name="Línea 1223" x1="150.726" transform="translate(242.459 322.858)" fill="none" stroke="#12263f" stroke-miterlimit="10" stroke-width="0.963"/>
  <path id="Trazado_204672" data-name="Trazado 204672" d="M245.163,319.292l-1.515,3.565,1.515,3.566-8.452-3.566Z" fill="#12263f"/>
  <g id="Grupo_150416" data-name="Grupo 150416">
    <g id="Grupo_150415" data-name="Grupo 150415" clip-path="url(#clip-path)">
      <path id="Trazado_204673" data-name="Trazado 204673" d="M414.485,645.329H292.677a21.034,21.034,0,1,1,0-42.069H414.485a21.034,21.034,0,1,1,0,42.069" fill="#d1d5fc"/>
      <path id="Trazado_204674" data-name="Trazado 204674" d="M414.485,645.329H292.677a21.034,21.034,0,1,1,0-42.069H414.485a21.034,21.034,0,1,1,0,42.069Z" fill="none" stroke="#3e4bbf" stroke-width="2"/>
      <line id="Línea_1224" data-name="Línea 1224" y2="31.451" transform="translate(644.136 539.813)" fill="none" stroke="#12263f" stroke-miterlimit="10" stroke-width="0.963"/>
      <path id="Trazado_204675" data-name="Trazado 204675" d="M404.651,351.7a28.837,28.837,0,1,1,0-57.674H532.058a28.837,28.837,0,1,1,0,57.674Z" fill="#3d46c2"/>
      <path id="Trazado_204676" data-name="Trazado 204676" d="M532.059,295.021a27.837,27.837,0,1,1,0,55.673H404.651a27.837,27.837,0,0,1,0-55.673Zm0-2H404.651a29.837,29.837,0,0,0,0,59.673H532.059a29.837,29.837,0,1,0,0-59.673" fill="#12263f"/>
      <g id="Grupo_150414" data-name="Grupo 150414" style="isolation: isolate">
        <g id="Grupo_150413" data-name="Grupo 150413">
          <g id="Grupo_150412" data-name="Grupo 150412" clip-path="url(#clip-path-2)">
            <text id="Gestión_de_bases_" data-name="Gestión de bases " transform="translate(396.16 319.7)" fill="#fff" font-size="18" font-family="Roboto-Bold, Roboto" font-weight="700"><tspan x="0" y="0">Gestión de bases </tspan></text>
            <text id="de_datos" data-name="de datos" transform="translate(433.312 338.96)" fill="#fff" font-size="18" font-family="Roboto-Bold, Roboto" font-weight="700"><tspan x="0" y="0">de da</tspan><tspan y="0" letter-spacing="-0.013em">t</tspan><tspan y="0">os</tspan></text>
          </g>
        </g>
      </g>
      <path id="Trazado_204677" data-name="Trazado 204677" d="M377.665,262.868a28.837,28.837,0,1,1,0-57.674h181.38a28.837,28.837,0,1,1,0,57.674Z" fill="#bae887"/>
      <path id="Trazado_204678" data-name="Trazado 204678" d="M559.045,206.2a27.837,27.837,0,1,1,0,55.673H377.665a27.837,27.837,0,1,1,0-55.673Zm0-2H377.665a29.837,29.837,0,1,0,0,59.673h181.38a29.837,29.837,0,1,0,0-59.673" fill="#75b62f"/>
    </g>
  </g>
  <text id="Gestión_de_la_información_" data-name="Gestión de la información " transform="translate(377.663 228.874)" fill="#12263f" font-size="16" font-family="Roboto-Bold, Roboto" font-weight="700"><tspan x="0" y="0">Gestión de la información </tspan></text>
  <text id="de_bases_de_datos" data-name="de bases de datos" transform="translate(407.007 248.122)" fill="#12263f" font-size="16" font-family="Roboto-Bold, Roboto" font-weight="700"><tspan x="0" y="0">de bases de da</tspan><tspan y="0" letter-spacing="-0.013em">t</tspan><tspan y="0">os</tspan></text>
  <g id="Grupo_150418" data-name="Grupo 150418">
    <g id="Grupo_150417" data-name="Grupo 150417" clip-path="url(#clip-path)">
      <path id="Trazado_204679" data-name="Trazado 204679" d="M649.121,172.6H540.029a27.836,27.836,0,0,1,0-55.673H649.121a27.836,27.836,0,1,1,0,55.673" fill="#d1d5fc"/>
      <path id="Trazado_204680" data-name="Trazado 204680" d="M649.121,172.6H540.029a27.836,27.836,0,0,1,0-55.673H649.121a27.836,27.836,0,1,1,0,55.673Z" fill="none" stroke="#3e4bbf" stroke-width="2"/>
    </g>
  </g>
  <text id="Gráficos_y_tablas_" data-name="Gráficos y tablas " transform="translate(534.056 139.602)" fill="#12263f" font-size="16" font-family="Roboto-Bold, Roboto" font-weight="700"><tspan x="0" y="0">G</tspan><tspan y="0" letter-spacing="-0.014em">r</tspan><tspan y="0">áficos y tablas </tspan></text>
  <text id="dinámicas" transform="translate(559.384 158.85)" fill="#12263f" font-size="16" font-family="Roboto-Bold, Roboto" font-weight="700"><tspan x="0" y="0">dinámicas</tspan></text>
  <g id="Grupo_150420" data-name="Grupo 150420">
    <g id="Grupo_150419" data-name="Grupo 150419" clip-path="url(#clip-path)">
      <path id="Trazado_204681" data-name="Trazado 204681" d="M655.821,101.234H533.329a21.137,21.137,0,1,1,0-42.273H655.821a21.137,21.137,0,0,1,0,42.273" fill="#d1d5fc"/>
      <path id="Trazado_204682" data-name="Trazado 204682" d="M655.821,101.234H533.329a21.137,21.137,0,1,1,0-42.273H655.821a21.137,21.137,0,0,1,0,42.273Z" fill="none" stroke="#3e4bbf" stroke-width="2"/>
    </g>
  </g>
  <text id="Comandos" transform="translate(554.149 84.035)" fill="#12263f" font-size="16" font-family="Roboto-Bold, Roboto" font-weight="700"><tspan x="0" y="0">Comandos</tspan></text>
  <g id="Grupo_150422" data-name="Grupo 150422">
    <g id="Grupo_150421" data-name="Grupo 150421" clip-path="url(#clip-path)">
      <path id="Trazado_204683" data-name="Trazado 204683" d="M655.821,43.273H533.329a21.136,21.136,0,1,1,0-42.273H655.821a21.136,21.136,0,0,1,0,42.273" fill="#d1d5fc"/>
      <path id="Trazado_204684" data-name="Trazado 204684" d="M655.821,43.273H533.329a21.136,21.136,0,1,1,0-42.273H655.821a21.136,21.136,0,0,1,0,42.273Z" fill="none" stroke="#3e4bbf" stroke-width="2"/>
    </g>
  </g>
  <text id="Características" transform="translate(538.313 26.072)" fill="#12263f" font-size="16" font-family="Roboto-Bold, Roboto" font-weight="700"><tspan x="0" y="0">Ca</tspan><tspan y="0" letter-spacing="-0.014em">r</tspan><tspan y="0">acterísticas</tspan></text>
  <g id="Grupo_150424" data-name="Grupo 150424">
    <g id="Grupo_150423" data-name="Grupo 150423" clip-path="url(#clip-path)">
      <path id="Trazado_204685" data-name="Trazado 204685" d="M465.479,206.195V22.137h40.966" fill="none" stroke="#12263f" stroke-miterlimit="10" stroke-width="0.963"/>
      <path id="Trazado_204686" data-name="Trazado 204686" d="M503.741,25.7l1.515-3.565-1.515-3.565,8.452,3.565Z" fill="#12263f"/>
      <line id="Línea_1225" data-name="Línea 1225" x2="40.966" transform="translate(465.479 80.098)" fill="none" stroke="#12263f" stroke-miterlimit="10" stroke-width="0.963"/>
      <path id="Trazado_204687" data-name="Trazado 204687" d="M503.741,83.663l1.515-3.565-1.515-3.565,8.452,3.565Z" fill="#12263f"/>
      <line id="Línea_1226" data-name="Línea 1226" x2="40.966" transform="translate(465.479 144.759)" fill="none" stroke="#12263f" stroke-miterlimit="10" stroke-width="0.963"/>
      <path id="Trazado_204688" data-name="Trazado 204688" d="M503.741,148.324l1.515-3.565-1.515-3.566,8.452,3.566Z" fill="#12263f"/>
      <line id="Línea_1227" data-name="Línea 1227" y1="27.406" transform="translate(465.479 267.615)" fill="none" stroke="#12263f" stroke-miterlimit="10" stroke-width="0.963"/>
      <path id="Trazado_204689" data-name="Trazado 204689" d="M469.044,270.32l-3.565-1.515-3.566,1.515,3.566-8.452Z" fill="#12263f"/>
      <path id="Trazado_204690" data-name="Trazado 204690" d="M540.029,540.813a28.836,28.836,0,1,1,0-57.673H754a28.836,28.836,0,1,1,0,57.673Z" fill="#bae887"/>
      <path id="Trazado_204691" data-name="Trazado 204691" d="M754,484.14a27.836,27.836,0,1,1,0,55.673H540.03a27.836,27.836,0,1,1,0-55.673Zm0-2H540.03a29.836,29.836,0,1,0,0,59.673H754a29.836,29.836,0,1,0,0-59.673" fill="#75b62f"/>
    </g>
  </g>
  <text id="Planes_de_contingencia_en" data-name="Planes de contingencia en" transform="translate(556.133 506.818)" fill="#12263f" font-size="16" font-family="Roboto-Bold, Roboto" font-weight="700"><tspan x="0" y="0">Planes de contingencia en</tspan></text>
  <text id="el_manejo_de_la_información" data-name="el manejo de la información" transform="translate(550.964 526.067)" fill="#12263f" font-size="16" font-family="Roboto-Bold, Roboto" font-weight="700"><tspan x="0" y="0">el manejo de la información</tspan></text>
  <g id="Grupo_150426" data-name="Grupo 150426">
    <g id="Grupo_150425" data-name="Grupo 150425" clip-path="url(#clip-path)">
      <line id="Línea_1228" data-name="Línea 1228" y2="94.551" transform="translate(465.479 352.397)" fill="none" stroke="#12263f" stroke-miterlimit="10" stroke-width="0.963"/>
      <path id="Trazado_204692" data-name="Trazado 204692" d="M593.724,646.067H488.807a21.035,21.035,0,1,1,0-42.069H593.724a21.035,21.035,0,1,1,0,42.069" fill="#d1d5fc"/>
      <path id="Trazado_204693" data-name="Trazado 204693" d="M593.724,646.067H488.807a21.035,21.035,0,1,1,0-42.069H593.724a21.035,21.035,0,1,1,0,42.069Z" fill="none" stroke="#3e4bbf" stroke-width="2"/>
    </g>
  </g>
  <text id="Momentos" transform="translate(502.781 629.548)" fill="#12263f" font-size="16" font-family="Roboto-Bold, Roboto" font-weight="700"><tspan x="0" y="0">Momen</tspan><tspan y="0" letter-spacing="-0.014em">t</tspan><tspan y="0">os</tspan></text>
  <g id="Grupo_150428" data-name="Grupo 150428">
    <g id="Grupo_150427" data-name="Grupo 150427" clip-path="url(#clip-path)">
      <path id="Trazado_204694" data-name="Trazado 204694" d="M804.906,659.671H653A27.837,27.837,0,1,1,653,604H804.906a27.837,27.837,0,1,1,0,55.673" fill="#d1d5fc"/>
      <path id="Trazado_204695" data-name="Trazado 204695" d="M804.906,659.671H653A27.837,27.837,0,1,1,653,604H804.906a27.837,27.837,0,1,1,0,55.673Z" fill="none" stroke="#3e4bbf" stroke-width="2"/>
    </g>
  </g>
  <text id="Calidad_y_divulgación_" data-name="Calidad y divulgación " transform="translate(654.123 626.677)" fill="#12263f" font-size="16" font-family="Roboto-Bold, Roboto" font-weight="700"><tspan x="0" y="0">Calidad y divulgación </tspan></text>
  <text id="de_la_información" data-name="de la información" transform="translate(669.963 645.925)" fill="#12263f" font-size="16" font-family="Roboto-Bold, Roboto" font-weight="700"><tspan x="0" y="0">de la información</tspan></text>
  <g id="Grupo_150430" data-name="Grupo 150430">
    <g id="Grupo_150429" data-name="Grupo 150429" clip-path="url(#clip-path)">
      <path id="Trazado_204696" data-name="Trazado 204696" d="M541.266,598.25V571.263H728.951V598.25" fill="none" stroke="#12263f" stroke-miterlimit="10" stroke-width="0.963"/>
      <path id="Trazado_204697" data-name="Trazado 204697" d="M544.831,595.546l-3.565,1.515-3.565-1.515L541.266,604Z" fill="#12263f"/>
      <path id="Trazado_204698" data-name="Trazado 204698" d="M725.386,595.546l3.565,1.515,3.565-1.515L728.951,604Z" fill="#12263f"/>
      <path id="Trazado_204699" data-name="Trazado 204699" d="M631.333,351.7a28.837,28.837,0,1,1,0-57.674H825.172a28.837,28.837,0,0,1,0,57.674Z" fill="#bae887"/>
      <path id="Trazado_204700" data-name="Trazado 204700" d="M825.172,295.021a27.837,27.837,0,1,1,0,55.673H631.333a27.837,27.837,0,1,1,0-55.673Zm0-2H631.333a29.837,29.837,0,1,0,0,59.673H825.172a29.837,29.837,0,1,0,0-59.673" fill="#75b62f"/>
    </g>
  </g>
  <text id="Instrumentos_de_evaluación" data-name="Instrumentos de evaluación" transform="translate(627.186 317.7)" fill="#12263f" font-size="16" font-family="Roboto-Bold, Roboto" font-weight="700"><tspan x="0" y="0">Instrumen</tspan><tspan y="0" letter-spacing="-0.016em">t</tspan><tspan y="0">os de </tspan><tspan y="0" letter-spacing="-0.005em">e</tspan><tspan y="0" letter-spacing="-0.007em">v</tspan><tspan y="0">aluación</tspan></text>
  <text id="y_seguimiento" data-name="y seguimiento" transform="translate(676.146 336.948)" fill="#12263f" font-size="16" font-family="Roboto-Bold, Roboto" font-weight="700"><tspan x="0" y="0">y seguimien</tspan><tspan y="0" letter-spacing="-0.015em">t</tspan><tspan y="0">o</tspan></text>
  <g id="Grupo_150432" data-name="Grupo 150432">
    <g id="Grupo_150431" data-name="Grupo 150431" clip-path="url(#clip-path)">
      <line id="Línea_1229" data-name="Línea 1229" y2="25.703" transform="translate(728.252 352.397)" fill="none" stroke="#12263f" stroke-miterlimit="10" stroke-width="0.963"/>
      <path id="Trazado_204701" data-name="Trazado 204701" d="M724.687,375.4l3.565,1.515,3.566-1.515-3.566,8.451Z" fill="#12263f"/>
      <path id="Trazado_204702" data-name="Trazado 204702" d="M780.711,427.619H675.794a21.035,21.035,0,1,1,0-42.069H780.711a21.035,21.035,0,1,1,0,42.069" fill="#d1d5fc"/>
      <path id="Trazado_204703" data-name="Trazado 204703" d="M780.711,427.619H675.794a21.035,21.035,0,1,1,0-42.069H780.711a21.035,21.035,0,1,1,0,42.069Z" fill="none" stroke="#3e4bbf" stroke-width="2"/>
    </g>
  </g>
  <text id="Tipos" transform="translate(708.041 411.101)" fill="#12263f" font-size="16" font-family="Roboto-Bold, Roboto" font-weight="700"><tspan x="0" y="0">Tipos</tspan></text>
  <g id="Grupo_150434" data-name="Grupo 150434">
    <g id="Grupo_150433" data-name="Grupo 150433" clip-path="url(#clip-path)">
      <line id="Línea_1230" data-name="Línea 1230" y2="31.451" transform="translate(268.766 539.813)" fill="none" stroke="#12263f" stroke-miterlimit="10" stroke-width="0.963"/>
      <path id="Trazado_204704" data-name="Trazado 204704" d="M183.149,540.813a28.836,28.836,0,0,1,0-57.673H360.133a28.836,28.836,0,1,1,0,57.673Z" fill="#bae887"/>
      <path id="Trazado_204705" data-name="Trazado 204705" d="M360.134,484.14a27.836,27.836,0,1,1,0,55.673H183.15a27.836,27.836,0,1,1,0-55.673Zm0-2H183.15a29.836,29.836,0,1,0,0,59.673H360.134a29.836,29.836,0,1,0,0-59.673" fill="#75b62f"/>
    </g>
  </g>
  <text id="Indicadores_de_sistemas" data-name="Indicadores de sistemas" transform="translate(187.563 506.818)" fill="#12263f" font-size="16" font-family="Roboto-Bold, Roboto" font-weight="700"><tspan x="0" y="0">Indicado</tspan><tspan y="0" letter-spacing="-0.007em">r</tspan><tspan y="0">es de sistemas</tspan></text>
  <text id="de_gestión" data-name="de gestión" transform="translate(237.644 526.067)" fill="#12263f" font-size="16" font-family="Roboto-Bold, Roboto" font-weight="700"><tspan x="0" y="0">de gestión</tspan></text>
  <g id="Grupo_150436" data-name="Grupo 150436">
    <g id="Grupo_150435" data-name="Grupo 150435" clip-path="url(#clip-path)">
      <path id="Trazado_204706" data-name="Trazado 204706" d="M244.581,646.067H123.32a21.035,21.035,0,1,1,0-42.069H244.581a21.035,21.035,0,1,1,0,42.069" fill="#d1d5fc"/>
      <path id="Trazado_204707" data-name="Trazado 204707" d="M244.581,646.067H123.32a21.035,21.035,0,1,1,0-42.069H244.581a21.035,21.035,0,1,1,0,42.069Z" fill="none" stroke="#3e4bbf" stroke-width="2"/>
    </g>
  </g>
  <text id="Medidas_correctivas" data-name="Medidas correctivas" transform="translate(110.923 629.548)" fill="#12263f" font-size="16" font-family="Roboto-Bold, Roboto" font-weight="700"><tspan x="0" y="0">Medidas cor</tspan><tspan y="0" letter-spacing="-0.007em">r</tspan><tspan y="0">ecti</tspan><tspan y="0" letter-spacing="-0.007em">v</tspan><tspan y="0">as</tspan></text>
  <text id="Acciones_de_mejora" data-name="Acciones de mejora" transform="translate(282.539 629.676)" fill="#12263f" font-size="16" font-family="Roboto-Bold, Roboto" font-weight="700"><tspan x="0" y="0">Acciones de mejo</tspan><tspan y="0" letter-spacing="-0.014em">r</tspan><tspan y="0">a</tspan></text>
  <g id="Grupo_150438" data-name="Grupo 150438">
    <g id="Grupo_150437" data-name="Grupo 150437" clip-path="url(#clip-path)">
      <path id="Trazado_204708" data-name="Trazado 204708" d="M183.951,598.25V571.263h169.63V598.25" fill="none" stroke="#12263f" stroke-miterlimit="10" stroke-width="0.963"/>
      <path id="Trazado_204709" data-name="Trazado 204709" d="M187.516,595.546l-3.565,1.515-3.565-1.515L183.951,604Z" fill="#12263f"/>
      <path id="Trazado_204710" data-name="Trazado 204710" d="M350.015,595.546l3.565,1.515,3.565-1.515L353.58,604Z" fill="#12263f"/>
      <path id="Trazado_204711" data-name="Trazado 204711" d="M268.766,478.392V446.947H644.136v31.445" fill="none" stroke="#12263f" stroke-miterlimit="10" stroke-width="0.963"/>
      <path id="Trazado_204712" data-name="Trazado 204712" d="M272.331,475.688l-3.565,1.515-3.566-1.515,3.566,8.452Z" fill="#12263f"/>
      <path id="Trazado_204713" data-name="Trazado 204713" d="M640.571,475.688l3.565,1.515,3.565-1.515-3.565,8.452Z" fill="#12263f"/>
      <path id="Trazado_204714" data-name="Trazado 204714" d="M113.732,342.14a19.282,19.282,0,0,1,0-38.564h104.7a19.282,19.282,0,0,1,0,38.564Z" fill="#bae887"/>
      <path id="Trazado_204715" data-name="Trazado 204715" d="M218.429,304.575a18.283,18.283,0,0,1,0,36.565h-104.7a18.283,18.283,0,0,1,0-36.565Zm0-2h-104.7a20.283,20.283,0,0,0,0,40.565h104.7a20.283,20.283,0,0,0,0-40.565" fill="#75b62f"/>
    </g>
  </g>
  <text id="Bases_de_datos" data-name="Bases de datos" transform="translate(109.956 328.023)" fill="#12263f" font-size="16" font-family="Roboto-Bold, Roboto" font-weight="700"><tspan x="0" y="0">Bases de da</tspan><tspan y="0" letter-spacing="-0.013em">t</tspan><tspan y="0">os</tspan></text>
  <g id="Grupo_150440" data-name="Grupo 150440">
    <g id="Grupo_150439" data-name="Grupo 150439" clip-path="url(#clip-path)">
      <path id="Trazado_204716" data-name="Trazado 204716" d="M312.879,242.76H249.966a18.282,18.282,0,1,1,0-36.565h62.913a18.282,18.282,0,1,1,0,36.565" fill="#d1d5fc"/>
      <path id="Trazado_204717" data-name="Trazado 204717" d="M312.879,242.76H249.966a18.282,18.282,0,1,1,0-36.565h62.913a18.282,18.282,0,1,1,0,36.565Z" fill="none" stroke="#3e4bbf" stroke-width="2"/>
    </g>
  </g>
  <text id="Operación" transform="translate(244.685 229.642)" fill="#12263f" font-size="16" font-family="Roboto-Bold, Roboto" font-weight="700"><tspan x="0" y="0">Ope</tspan><tspan y="0" letter-spacing="-0.014em">r</tspan><tspan y="0">ación</tspan></text>
  <g id="Grupo_150442" data-name="Grupo 150442">
    <g id="Grupo_150441" data-name="Grupo 150441" clip-path="url(#clip-path)">
      <path id="Trazado_204718" data-name="Trazado 204718" d="M205.648,242.76H126.513a18.282,18.282,0,0,1,0-36.565h79.135a18.282,18.282,0,1,1,0,36.565" fill="#d1d5fc"/>
      <path id="Trazado_204719" data-name="Trazado 204719" d="M205.648,242.76H126.513a18.282,18.282,0,0,1,0-36.565h79.135a18.282,18.282,0,1,1,0,36.565Z" fill="none" stroke="#3e4bbf" stroke-width="2"/>
    </g>
  </g>
  <text id="Construcción" transform="translate(118.163 229.642)" fill="#12263f" font-size="16" font-family="Roboto-Bold, Roboto" font-weight="700"><tspan x="0" y="0">Construcción</tspan></text>
  <g id="Grupo_150444" data-name="Grupo 150444">
    <g id="Grupo_150443" data-name="Grupo 150443" clip-path="url(#clip-path)">
      <path id="Trazado_204720" data-name="Trazado 204720" d="M82.2,242.76H19.283a18.282,18.282,0,1,1,0-36.565H82.2a18.282,18.282,0,1,1,0,36.565" fill="#d1d5fc"/>
      <path id="Trazado_204721" data-name="Trazado 204721" d="M82.2,242.76H19.283a18.282,18.282,0,1,1,0-36.565H82.2a18.282,18.282,0,1,1,0,36.565Z" fill="none" stroke="#3e4bbf" stroke-width="2"/>
    </g>
  </g>
  <text id="SGBD" transform="translate(26.067 229.642)" fill="#12263f" font-size="16" font-family="Roboto-Bold, Roboto" font-weight="700"><tspan x="0" y="0">SGBD</tspan></text>
  <g id="Grupo_150446" data-name="Grupo 150446">
    <g id="Grupo_150445" data-name="Grupo 150445" clip-path="url(#clip-path)">
      <path id="Trazado_204722" data-name="Trazado 204722" d="M45.174,248.507v23.382H281.423V248.507" fill="none" stroke="#12263f" stroke-miterlimit="10" stroke-width="0.963"/>
      <path id="Trazado_204723" data-name="Trazado 204723" d="M41.608,251.211l3.565-1.515,3.566,1.515-3.566-8.452Z" fill="#12263f"/>
      <path id="Trazado_204724" data-name="Trazado 204724" d="M284.988,251.211l-3.565-1.515-3.566,1.515,3.566-8.452Z" fill="#12263f"/>
      <line id="Línea_1231" data-name="Línea 1231" y1="54.313" transform="translate(163.298 248.507)" fill="none" stroke="#12263f" stroke-miterlimit="10" stroke-width="0.963"/>
      <path id="Trazado_204725" data-name="Trazado 204725" d="M166.863,251.211,163.3,249.7l-3.565,1.515,3.565-8.452Z" fill="#12263f"/>
    </g>
  </g>
</svg>
